<svg width="309" height="147" viewBox="0 0 309 147" fill="none" xmlns="http://www.w3.org/2000/svg">
<path d="M145.997 126.385L118.104 19.4705C118.104 19.4705 138.424 14.9404 151.632 14.9431C165.513 14.946 186.831 19.9577 186.831 19.9577L157.304 126.385H145.997Z" fill="url(#paint0_linear)"/>
<mask id="mask0" style="mask-type:alpha" maskUnits="userSpaceOnUse" x="0" y="0" width="309" height="147">
<rect x="0.754883" y="0.894775" width="308.177" height="146.105" fill="#C4C4C4"/>
</mask>
<g mask="url(#mask0)">
<circle cx="151.668" cy="147" r="132.149" stroke="#323D70"/>
<path d="M118.253 19.4395L135.991 86.4483" stroke="#323D70"/>
<circle cx="151.668" cy="147" r="63.0006" stroke="#323D70"/>
<path d="M107.751 102.566L58.771 53.0078" stroke="#323D70" stroke-miterlimit="10"/>
<path d="M90.9763 130.353L24.2227 112.042" stroke="#323D70" stroke-miterlimit="10"/>
<path d="M186.74 20.1787L168.017 86.6948" stroke="#323D70"/>
<path d="M245.373 54.6685L196.348 102.954" stroke="#323D70"/>
<path d="M212.116 130.278L279.102 112.506" stroke="#323D70"/>
<path d="M48.9234 144.727C48.9946 146.481 49.9939 147.983 51.428 148.777C50.063 149.685 49.1888 151.263 49.2601 153.017C49.3687 155.69 51.6317 157.776 54.3046 157.668C56.9775 157.559 59.0638 155.296 58.9552 152.623L57.5501 152.68C57.6273 154.578 56.1457 156.185 54.2475 156.262C52.3493 156.34 50.7423 154.858 50.6652 152.96C50.5881 151.062 52.0697 149.455 53.9678 149.378L67.1054 148.844L67.0484 147.439L53.9108 147.972C52.0126 148.05 50.4055 146.568 50.3284 144.67C50.2513 142.772 51.7329 141.165 53.6311 141.088C55.5292 141.01 57.1363 142.492 57.2134 144.39L58.6185 144.333C58.5099 141.66 56.2469 139.574 53.574 139.682C50.9011 139.791 48.8148 142.054 48.9234 144.727Z" fill="#353A68"/>
<path d="M158.435 53.3997C157.228 53.3997 156.116 53.6413 155.13 54.1097V48.3372C155.13 46.0497 153.269 44.1887 150.981 44.1887C149.807 44.1887 148.746 44.6791 147.99 45.4656C147.608 44.709 146.823 44.1887 145.919 44.1887C144.64 44.1887 143.599 45.2296 143.599 46.509V47.9153H145.005V46.509C145.005 46.005 145.415 45.595 145.919 45.595C146.423 45.595 146.833 46.005 146.833 46.509V56.6692H148.239V48.3372C148.239 46.8251 149.469 45.595 150.981 45.595C152.493 45.595 153.724 46.8251 153.724 48.3372V54.9817C153.724 54.9879 153.724 54.994 153.724 55.0002C153.356 55.3012 153.014 55.643 152.701 56.0253C151.411 57.5988 150.7 59.7877 150.7 62.1887H152.106C152.106 60.1351 152.718 58.0715 154.02 56.6501C154.251 57.2757 154.613 57.8491 155.093 58.3347C155.981 59.233 157.167 59.7278 158.435 59.7278C160.179 59.7278 161.599 58.3084 161.599 56.5637C161.599 54.8191 160.179 53.3997 158.435 53.3997ZM158.435 58.3215C156.845 58.3215 155.515 57.1818 155.2 55.6686C156.079 55.1252 157.153 54.8059 158.435 54.8059C159.404 54.8059 160.192 55.5945 160.192 56.5637C160.192 57.533 159.404 58.3215 158.435 58.3215Z" fill="#37C5BB"/>
<path d="M237.519 138.82L237.512 156.82L236.106 156.82L236.113 138.82L237.519 138.82ZM240.922 156.822L239.516 156.821L239.523 138.821L240.929 138.822L240.927 143.593C242.251 141.759 244.406 140.563 246.835 140.564C250.848 140.566 254.111 143.832 254.109 147.844C254.108 151.857 250.842 155.121 246.829 155.119C244.4 155.118 242.246 153.921 240.924 152.086L240.922 156.822ZM240.961 147.839C240.96 151.077 243.592 153.711 246.83 153.713C250.067 153.714 252.702 151.081 252.703 147.844C252.704 144.607 250.072 141.972 246.834 141.971C243.597 141.969 240.962 144.602 240.961 147.839Z" fill="#353A68"/>
<path d="M233.29 109.524L230.882 110.863C230.859 110.437 230.932 110.003 231.101 109.558C231.43 108.69 232.133 107.759 233.19 106.792C235.29 104.871 238.402 103.14 240.675 101.876C241.359 101.495 241.852 100.869 242.062 100.114C242.272 99.3589 242.172 98.5685 241.783 97.8882C241.35 97.1342 240.623 96.6461 239.824 96.4838C240.114 95.7101 240.076 94.8194 239.644 94.0427C239.257 93.3469 238.624 92.8719 237.914 92.6644C238.156 92.0426 238.13 91.3218 237.781 90.6947C237.159 89.5769 235.744 89.1734 234.626 89.7953L233.397 90.4789L234.081 91.7075L235.309 91.024C235.75 90.779 236.307 90.9379 236.552 91.3783C236.797 91.8186 236.638 92.3762 236.198 92.6212L226.062 98.2604L226.745 99.4891L236.359 94.1403L236.361 94.1425C237.089 93.7373 238.01 93.9992 238.415 94.7262C238.82 95.4545 238.557 96.3766 237.829 96.7818L228.215 102.131L228.899 103.359L238.493 98.0215C239.222 97.6155 240.151 97.8695 240.563 98.5876C240.566 98.5934 240.57 98.5992 240.573 98.6051C240.766 98.9526 240.814 99.3538 240.708 99.7372C240.599 100.127 240.345 100.45 239.991 100.647C237.658 101.945 234.463 103.723 232.241 105.755C231.003 106.887 230.2 107.968 229.786 109.059C229.667 109.373 229.582 109.686 229.53 109.997L228.509 108.161L227.281 108.845L229.673 113.145L230.071 112.924L231.3 112.24L233.973 110.753L233.29 109.524L233.29 109.524Z" fill="#353A68"/>
<path d="M204.496 59.3107L203.793 60.5282L209.235 63.6702L199.143 66.3856L198.17 62.7553L196.812 63.1191L197.786 66.7509L187.952 69.3969L188.317 70.7545L198.149 68.1089L199.128 71.7613L200.486 71.3975L199.507 67.7436L209.595 65.0291L206.28 70.7712L207.498 71.4741L212.014 63.6514L204.496 59.3107Z" fill="#353A68"/>
<path d="M110.086 66.2456L106.37 65.4539L105.334 69.1096L101.622 68.3186L100.709 71.618L99.3499 71.2419L100.617 66.6625L104.337 67.4551L105.372 63.7994L109.088 64.5912L110.125 60.9317L114.766 61.9496L114.464 63.3272L111.12 62.5938L110.086 66.2456ZM108.759 58.6765L112.103 59.4098L112.405 58.0322L107.763 57.0143L106.727 60.6738L103.011 59.882L101.976 63.5377L98.2561 62.7451L96.9887 67.3245L98.3479 67.7007L99.261 64.4013L102.973 65.1922L104.008 61.5366L107.724 62.3283L108.759 58.6765Z" fill="#353A68"/>
<path d="M76.4788 97.119C75.5024 97.2789 74.0749 97.3507 72.5959 96.8659L73.288 95.1786L72.3277 94.7847L71.6362 96.4703C70.2488 95.7744 69.2721 94.7189 68.6776 93.9162C67.9489 92.9324 67.6144 92.0981 67.6111 92.0898L67.1283 92.2802L66.6452 92.47C66.6602 92.5081 67.0216 93.4171 67.823 94.5063C68.7709 95.7944 69.9447 96.7974 71.2414 97.4329L69.1129 102.622C67.7435 102.164 66.2034 102.054 64.6241 102.305C63.2886 102.518 62.3931 102.911 62.3556 102.928L62.7763 103.877C62.7844 103.873 63.6085 103.514 64.8181 103.325C65.805 103.171 67.2416 103.106 68.7181 103.585L68.034 105.252L68.9944 105.646L69.6792 103.977C71.0726 104.67 72.0385 105.724 72.6214 106.523C73.3324 107.498 73.6497 108.324 73.6526 108.331L74.6242 107.966C74.6099 107.928 74.2658 107.024 73.4809 105.94C72.5482 104.652 71.3778 103.649 70.0739 103.015L72.2012 97.8282C73.5752 98.2921 75.1128 98.3998 76.6815 98.1376C78.0014 97.917 78.8813 97.515 78.9181 97.498L78.4835 96.5553C78.4755 96.559 77.6697 96.9241 76.4788 97.119Z" fill="#353A68"/>
<g filter="url(#filter0_d)">
<path d="M151.498 124.594C139.123 124.594 129.092 134.625 129.092 147H173.904C173.904 134.625 163.872 124.594 151.498 124.594Z" fill="url(#paint1_linear)"/>
</g>
</g>
<path d="M151.567 22.2371L147.352 14.8423C147.352 14.8423 149.873 13.7775 151.567 13.807C153.15 13.8345 155.487 14.8423 155.487 14.8423L151.567 22.2371Z" fill="#B3BDFD"/>
<defs>
<filter id="filter0_d" x="114.092" y="107.594" width="74.8121" height="52.4061" filterUnits="userSpaceOnUse" color-interpolation-filters="sRGB">
<feFlood flood-opacity="0" result="BackgroundImageFix"/>
<feColorMatrix in="SourceAlpha" type="matrix" values="0 0 0 0 0 0 0 0 0 0 0 0 0 0 0 0 0 0 127 0" result="hardAlpha"/>
<feOffset dy="-2"/>
<feGaussianBlur stdDeviation="7.5"/>
<feComposite in2="hardAlpha" operator="out"/>
<feColorMatrix type="matrix" values="0 0 0 0 0.615801 0 0 0 0 0.583333 0 0 0 0 1 0 0 0 0.9 0"/>
<feBlend mode="normal" in2="BackgroundImageFix" result="effect1_dropShadow"/>
<feBlend mode="normal" in="SourceGraphic" in2="effect1_dropShadow" result="shape"/>
</filter>
<linearGradient id="paint0_linear" x1="152.468" y1="14.9431" x2="152.468" y2="126.385" gradientUnits="userSpaceOnUse">
<stop stop-color="#A39DEA" stop-opacity="0"/>
<stop offset="1" stop-color="#8283F3"/>
</linearGradient>
<linearGradient id="paint1_linear" x1="129.092" y1="147" x2="173.904" y2="147" gradientUnits="userSpaceOnUse">
<stop stop-color="#636BFB"/>
<stop offset="1" stop-color="#A39DEA"/>
</linearGradient>
</defs>
</svg>
