<svg width="15" height="21" viewBox="0 0 15 21" fill="none" xmlns="http://www.w3.org/2000/svg">
<path d="M12.7747 8.09219H12.1728V5.68459C12.1728 3.029 10.0132 0.869385 7.35757 0.869385C4.70199 0.869385 2.54237 3.029 2.54237 5.68459V8.09219H1.94047C0.945325 8.09219 0.134766 8.90195 0.134766 9.89789V18.3245C0.134766 19.3204 0.945325 20.1302 1.94047 20.1302H12.7747C13.7698 20.1302 14.5804 19.3204 14.5804 18.3245V9.89789C14.5804 8.90195 13.7698 8.09219 12.7747 8.09219ZM4.14744 5.68459C4.14744 3.9142 5.58718 2.47445 7.35757 2.47445C9.12796 2.47445 10.5677 3.9142 10.5677 5.68459V8.09219H4.14744V5.68459ZM8.16011 14.2894V16.1175C8.16011 16.5605 7.80137 16.9201 7.35757 16.9201C6.91377 16.9201 6.55504 16.5605 6.55504 16.1175V14.2894C6.07753 14.0109 5.7525 13.4989 5.7525 12.9074C5.7525 12.0222 6.47238 11.3023 7.35757 11.3023C8.24277 11.3023 8.96264 12.0222 8.96264 12.9074C8.96264 13.4989 8.63761 14.0109 8.16011 14.2894Z" fill="#686D88"/>
</svg>
