<svg width="15" height="15" viewBox="0 0 15 15" fill="none" xmlns="http://www.w3.org/2000/svg">
<path fill-rule="evenodd" clip-rule="evenodd" d="M7.42633 1.41621C4.15072 1.41621 1.49531 4.07162 1.49531 7.34723C1.49531 10.6228 4.15072 13.2783 7.42633 13.2783C10.7019 13.2783 13.3574 10.6228 13.3574 7.34723C13.3574 4.07162 10.7019 1.41621 7.42633 1.41621ZM0.695312 7.34723C0.695312 3.62979 3.70889 0.616211 7.42633 0.616211C11.1438 0.616211 14.1574 3.62979 14.1574 7.34723C14.1574 11.0647 11.1438 14.0783 7.42633 14.0783C3.70889 14.0783 0.695312 11.0647 0.695312 7.34723Z" fill="white"/>
<path fill-rule="evenodd" clip-rule="evenodd" d="M6.95371 3.53223C7.17462 3.53223 7.35371 3.71131 7.35371 3.93223V7.65989L9.43047 9.25378C9.60572 9.38828 9.63875 9.63938 9.50425 9.81463C9.36975 9.98988 9.11865 10.0229 8.9434 9.88841L6.71017 8.17444C6.61154 8.09874 6.55371 7.98147 6.55371 7.85713V3.93223C6.55371 3.71131 6.7328 3.53223 6.95371 3.53223Z" fill="white"/>
</svg>
