<svg width="86" height="85" viewBox="0 0 86 85" fill="none" xmlns="http://www.w3.org/2000/svg">
<path fill-rule="evenodd" clip-rule="evenodd" d="M42.6163 85C31.354 84.9871 20.5566 80.5056 12.5929 72.5388C4.62925 64.5719 0.149587 53.7703 0.136719 42.5035C0.149583 31.236 4.62902 20.4336 12.5925 12.4656C20.556 4.49769 31.3533 0.0147117 42.6163 0C53.8798 0.0128766 64.6782 4.49527 72.6421 12.4636C80.606 20.432 85.0848 31.2354 85.0958 42.5035C85.083 53.7703 80.6033 64.5719 72.6396 72.5388C64.676 80.5056 53.8786 84.9871 42.6163 85ZM42.6163 2.08452C31.9054 2.0974 21.637 6.36017 14.0639 13.9376C6.49076 21.515 2.23144 31.7883 2.22041 42.5035C2.23328 53.2174 6.49342 63.4889 14.0663 71.0648C21.6392 78.6407 31.9066 82.9026 42.6163 82.9154C53.326 82.9026 63.5933 78.6407 71.1662 71.0648C78.7391 63.4889 82.9993 53.2174 83.0122 42.5035C83.0011 31.7883 78.7418 21.515 71.1687 13.9376C63.5956 6.36017 53.3272 2.0974 42.6163 2.08452ZM29.0027 24.222C34.0152 23.1413 38.8356 25.5348 41.9525 29.3538C44.5733 26.2924 48.3756 24.1034 52.4859 24.229C57.8688 24.3957 62.7516 28.3285 64.5019 33.3661C65.9883 37.5352 64.5992 42.1142 62.5155 45.8733C60.4581 49.4114 57.9038 52.6359 54.9308 55.4482C52.2556 58.1231 49.2602 60.4569 46.0126 62.3966C44.9638 63.0081 43.8872 63.5778 42.7829 64.092C42.4768 64.2787 42.1235 64.3735 41.7651 64.3648C41.4067 64.3562 41.0584 64.2446 40.7617 64.0434C40.2199 63.7377 39.6851 63.425 39.1573 63.0984C36.7271 61.5906 34.4186 59.8946 32.2532 58.0261C28.7223 55.1625 25.5506 51.8822 22.8072 48.2566C19.9456 44.3099 17.848 39.3765 19.0704 34.4431C20.2373 29.6904 24.1408 25.2712 29.0027 24.222ZM40.7964 32.1918C41.0624 32.5971 41.4459 32.7697 41.8312 32.7753C42.2715 32.8215 42.7325 32.659 43.0398 32.1849L43.2343 31.9L43.4288 31.6429L43.3732 31.7124C43.4357 31.629 43.5052 31.5387 43.5816 31.4553C44.0659 30.8574 44.5954 30.2976 45.1653 29.7807C46.6811 28.3496 48.5676 27.3723 50.6106 26.9597C55.5281 26.0425 60.6263 29.6974 62.0848 34.3389C63.3281 38.2926 61.6473 42.413 59.5775 45.7621C57.5095 48.9804 55.0296 51.9143 52.2011 54.4893C49.1329 57.3956 45.643 59.8184 41.8512 61.6764C38.4886 59.7105 35.3374 57.4022 32.4477 54.7881C29.4791 52.2917 26.8333 49.4347 24.5714 46.2832C22.4877 43.2051 20.6957 39.3974 21.4805 35.5827C22.2237 31.9764 24.8562 28.4119 28.3846 27.1404C33.2118 25.3963 38.164 28.1062 40.7964 32.1918ZM42.8868 37.5222C43.2175 37.6541 43.5161 37.8552 43.7626 38.1121C43.9969 38.3541 44.1808 38.6403 44.3036 38.954C44.4264 39.2677 44.4856 39.6027 44.4779 39.9395C44.4936 40.4614 44.3965 40.9804 44.1932 41.4612C44.0237 41.8546 43.7889 42.2164 43.4986 42.5313C43.1212 42.9308 42.7175 43.3045 42.2901 43.65C41.7428 44.1113 41.304 44.6879 41.0051 45.3385C40.7268 45.9182 40.5753 46.5507 40.5606 47.1937C40.557 47.3352 40.5822 47.4759 40.6347 47.6073C40.6873 47.7387 40.7661 47.858 40.8662 47.958C40.9669 48.0591 41.0873 48.1383 41.2199 48.1909C41.3526 48.2435 41.4946 48.2683 41.6372 48.2637C41.7811 48.2715 41.9251 48.2482 42.0593 48.1954C42.1935 48.1427 42.3148 48.0617 42.4151 47.958C42.5143 47.8577 42.592 47.7382 42.6433 47.6067C42.6947 47.4753 42.7187 47.3347 42.7138 47.1937C42.7231 46.7763 42.8005 46.3632 42.9429 45.9708C43.0796 45.5484 43.3353 45.1744 43.6792 44.8938C44.2412 44.4508 44.7704 43.9678 45.2628 43.4485C45.6713 43.0044 45.9981 42.4916 46.2282 41.9337C46.4791 41.2994 46.6019 40.6216 46.5894 39.9395C46.6009 39.1093 46.3898 38.2911 45.9782 37.5701C45.5773 36.8813 44.9898 36.32 44.2835 35.9511C43.5324 35.5558 42.6942 35.3551 41.8456 35.3675C40.9021 35.351 39.9691 35.5683 39.1298 35.9998C38.3648 36.4021 37.7328 37.0175 37.31 37.7716C36.8712 38.5639 36.6484 39.4577 36.6641 40.3634C36.6599 40.506 36.6849 40.6479 36.7375 40.7805C36.79 40.9131 36.869 41.0336 36.9697 41.1347C37.0709 41.235 37.1914 41.3139 37.3239 41.3664C37.4565 41.419 37.5982 41.4441 37.7407 41.4404C37.8845 41.4468 38.028 41.4229 38.1621 41.3702C38.2961 41.3175 38.4175 41.2373 38.5186 41.1347C38.6183 41.0333 38.6963 40.9126 38.7477 40.7799C38.799 40.6473 38.8227 40.5055 38.8173 40.3634C38.7756 39.5577 39.0497 38.7675 39.5813 38.1607C39.8815 37.8752 40.2379 37.6555 40.6278 37.5155C41.0177 37.3755 41.4324 37.3184 41.8456 37.3478C42.2011 37.3309 42.5562 37.3904 42.8868 37.5222ZM43.0048 50.1428C42.9306 49.9633 42.8196 49.8013 42.679 49.6673V49.6812C42.5463 49.538 42.385 49.4244 42.2055 49.3478C42.026 49.2712 41.8323 49.2333 41.6372 49.2365C41.4465 49.2344 41.2576 49.2716 41.0819 49.3457C40.9062 49.4198 40.7477 49.5293 40.6162 49.6673C40.4756 49.8013 40.3646 49.9633 40.2904 50.1428C40.2163 50.3223 40.1805 50.5154 40.1855 50.7096C40.1834 50.9003 40.2206 51.0894 40.2947 51.2651C40.3688 51.4408 40.4782 51.5994 40.6162 51.731C40.7477 51.8691 40.9062 51.9786 41.0819 52.0527C41.2576 52.1268 41.4465 52.1639 41.6372 52.1618C41.8313 52.1668 42.0243 52.1311 42.2038 52.0569C42.3832 51.9827 42.5451 51.8717 42.679 51.731C42.817 51.5994 42.9264 51.4408 43.0005 51.2651C43.0746 51.0894 43.1118 50.9003 43.1096 50.7096C43.1147 50.5154 43.0789 50.3223 43.0048 50.1428Z" fill="url(#paint0_linear)"/>
<defs>
<linearGradient id="paint0_linear" x1="42.6163" y1="0" x2="42.6163" y2="85" gradientUnits="userSpaceOnUse">
<stop stop-color="#636BFB"/>
<stop offset="1" stop-color="#B3BDFD"/>
</linearGradient>
</defs>
</svg>
