<svg width="86" height="86" viewBox="0 0 86 86" fill="none" xmlns="http://www.w3.org/2000/svg">
<path fill-rule="evenodd" clip-rule="evenodd" d="M42.6093 85.0979C31.3476 85.085 20.5505 80.6048 12.586 72.6396C4.62138 64.6745 0.139349 53.8746 0.122803 42.6083C0.135669 31.339 4.61584 20.5348 12.5806 12.5656C20.5454 4.59632 31.3445 0.112615 42.6093 0.0979004C53.8747 0.110779 64.6749 4.5939 72.6401 12.5636C80.6053 20.5332 85.0848 31.3384 85.0959 42.6083C85.0793 53.8746 80.5973 64.6745 72.6327 72.6396C64.6681 80.6048 53.8711 85.085 42.6093 85.0979ZM42.6093 2.16887C31.8943 2.18175 21.6221 6.44712 14.0473 14.0288C6.47257 21.6105 2.21419 31.889 2.20684 42.6083C2.21971 53.3241 6.48055 63.5972 14.0547 71.1744C21.6288 78.7516 31.8979 83.0141 42.6093 83.0269C53.3208 83.0141 63.5898 78.7516 71.164 71.1744C78.7381 63.5972 82.999 53.3241 83.0118 42.6083C83.0045 31.889 78.7461 21.6105 71.1714 14.0288C63.5966 6.44712 53.3244 2.18175 42.6093 2.16887ZM41.8145 29.2846C38.694 25.5588 33.9371 23.2504 28.9935 24.3102C24.1308 25.3596 20.2267 29.7795 19.0596 34.533C17.837 39.4672 19.9349 44.4013 22.797 48.3556C25.5427 51.9802 28.7148 55.2609 32.2446 58.1267C34.4122 59.9911 36.7208 61.6849 39.1497 63.1929C39.6777 63.5196 40.2126 63.8392 40.7544 64.145C41.0512 64.3463 41.3996 64.4579 41.758 64.4665C42.1164 64.4752 42.4698 64.3804 42.7759 64.1937C43.8805 63.6725 44.9572 63.1095 46.0062 62.491C49.2543 60.551 52.2502 58.2168 54.9259 55.5415C57.8993 52.7287 60.454 49.5037 62.5118 45.965C64.5958 42.2122 65.9852 37.6255 64.4986 33.4558C62.748 28.4174 57.8643 24.4839 52.4806 24.3171C48.4886 24.1951 44.7872 26.262 42.1761 29.1805C42.0514 29.1924 41.9293 29.2261 41.8145 29.2846ZM42.9891 32.3385L40.8693 36.8049L46.0898 43.1992C46.3248 43.4481 46.4556 43.7776 46.4556 44.12C46.4556 44.4624 46.3248 44.7918 46.0898 45.0408L40.3447 51.4513L43.9037 60.6522C46.9041 58.9812 49.6899 56.9432 52.1957 54.5824C55.0247 52.007 57.505 49.0726 59.5733 45.8538C61.6434 42.5041 63.3246 38.383 62.0811 34.4357C60.6223 29.7864 55.5233 26.131 50.605 27.0483C48.5616 27.461 46.6748 28.4385 45.1587 29.8698C44.5904 30.3885 44.061 30.9483 43.5748 31.5447C43.5034 31.6235 43.4371 31.7069 43.3764 31.7942L43.2275 31.9964C43.2045 32.0296 43.1806 32.0628 43.1564 32.0964C43.1148 32.1541 43.0725 32.2129 43.033 32.2744C43.0187 32.2964 43.004 32.3178 42.9891 32.3385ZM43.3764 31.7942L43.422 31.7323L43.3664 31.8087L43.3764 31.7942ZM41.4475 61.4904C38.234 59.584 35.2164 57.3633 32.4391 54.8604C29.4733 52.3601 26.8274 49.5031 24.5615 46.3542C22.4775 43.2755 20.6851 39.4602 21.4701 35.6449C22.2134 32.045 24.8463 28.473 28.3753 27.2012C32.9869 25.535 37.7126 27.9395 40.4214 31.7135L38.226 36.3539C38.0951 36.6065 38.045 36.8933 38.0822 37.1754C38.1195 37.4575 38.2424 37.7214 38.4344 37.9314L43.4614 44.0779L37.9273 50.253C37.7631 50.4142 37.6454 50.6169 37.5867 50.8395C37.528 51.0621 37.5305 51.2964 37.5939 51.5178L41.4475 61.4904Z" fill="url(#paint0_linear)"/>
<defs>
<linearGradient id="paint0_linear" x1="42.6094" y1="0.0979004" x2="42.6094" y2="85.0979" gradientUnits="userSpaceOnUse">
<stop stop-color="#636BFB"/>
<stop offset="1" stop-color="#B3BDFD"/>
</linearGradient>
</defs>
</svg>
