<svg width="86" height="86" viewBox="0 0 86 86" fill="none" xmlns="http://www.w3.org/2000/svg">
<path fill-rule="evenodd" clip-rule="evenodd" d="M43.1092 85.0979C31.8469 85.085 21.0495 80.6035 13.0858 72.6367C5.12217 64.6698 0.642507 53.8682 0.629639 42.6014C0.642503 31.3339 5.12203 20.5315 13.0855 12.5635C21.049 4.59559 31.8463 0.112612 43.1092 0.0979004C54.3734 0.110774 65.1725 4.59294 73.1375 12.5611C81.1025 20.5293 85.5829 31.3327 85.5958 42.6014C85.581 53.8688 81.0998 64.6705 73.1351 72.6371C65.1703 80.6038 54.3722 85.085 43.1092 85.0979ZM43.1092 2.18242C32.3983 2.1953 22.1298 6.45807 14.5567 14.0355C6.9836 21.6129 2.72436 31.8862 2.71333 42.6014C2.7262 53.3153 6.98634 63.5868 14.5592 71.1627C22.1322 78.7386 32.3995 83.0005 43.1092 83.0133C53.8201 83.0023 64.0893 78.7413 71.6637 71.1652C79.2381 63.589 83.4992 53.3165 83.5121 42.6014C83.4992 31.8855 79.2383 21.6123 71.6641 14.0351C64.0899 6.45784 53.8208 2.1953 43.1092 2.18242ZM62.2792 40.7598C62.2684 42.9604 61.5917 45.106 60.3382 46.9144C59.0848 48.7227 57.3134 50.109 55.2572 50.8906C53.1487 51.6577 50.8555 51.7585 48.6878 51.1794C48.5782 51.1501 48.4692 51.1192 48.3609 51.0866C50.0427 48.5377 50.9605 45.5465 50.9855 42.4694C50.9841 42.3439 50.9695 42.2268 50.9436 42.1182C50.8452 39.0256 49.849 36.0256 48.0728 33.4864C47.5264 32.7052 46.9138 31.9785 46.2438 31.3132C46.5029 31.1699 46.7683 31.0368 47.0397 30.9145C49.0591 30.0044 51.3081 29.7327 53.486 30.1357C55.9483 30.6271 58.1666 31.9515 59.7679 33.8862C61.3692 35.8209 62.256 38.2481 62.2792 40.7598ZM43.8388 33.1189C43.2063 33.7479 42.6502 34.4558 42.1855 35.2289C41.0563 37.149 40.5422 39.369 40.7123 41.5902C40.8824 43.8114 41.7286 45.9271 43.1371 47.6527C43.8621 48.5136 44.7109 49.2524 45.6504 49.8481C45.6576 49.8378 45.6649 49.8274 45.6722 49.817C47.1738 47.6705 47.9854 45.1171 47.999 42.4972C47.999 42.4945 47.999 42.4918 47.9991 42.4891C47.999 42.4826 47.999 42.476 47.999 42.4694C47.9653 39.5189 46.9228 36.6688 45.045 34.3933C44.6705 33.9395 44.2673 33.514 43.8388 33.1189ZM41.432 31.3664C41.2421 31.5686 41.0579 31.7768 40.8797 31.991C39.0853 34.1825 38.0031 36.8704 37.7784 39.6944C37.5538 42.5184 38.1972 45.3437 39.6225 47.7916C40.6516 49.4999 42.0307 50.9578 43.6584 52.0756C42.4725 53.1261 41.0963 53.9546 39.5947 54.511C37.102 55.3912 34.3995 55.4861 31.8513 54.7829C29.303 54.0798 27.0314 52.6123 25.3423 50.5782C23.6908 48.5329 22.7055 46.0304 22.5192 43.4078C22.333 40.7852 22.9546 38.1684 24.3004 35.9101C25.6599 33.6743 27.6691 31.9069 30.0596 30.8441C32.45 29.7812 35.1078 29.4736 37.6777 29.9622C39.0041 30.2339 40.2695 30.7104 41.432 31.3664ZM43.8233 29.3404C42.8268 28.6794 41.7539 28.1292 40.6227 27.704C37.5828 26.6075 34.2797 26.4707 31.1596 27.3119C28.0395 28.1531 25.2526 29.9319 23.1751 32.4081C21.1122 34.9262 19.8726 38.0177 19.6242 41.2639C19.3757 44.5102 20.1304 47.7544 21.786 50.5574C23.4748 53.3222 25.9675 55.5051 28.9304 56.8139C31.8933 58.1227 35.1852 58.495 38.3653 57.881C41.4147 57.2428 44.1973 55.7236 46.3769 53.5277C48.8348 54.5078 51.5256 54.7667 54.132 54.2676C57.2487 53.6312 60.0528 51.9441 62.0755 49.488C64.0982 47.032 65.217 43.9559 65.245 40.7738C65.2454 40.6824 65.2389 40.5954 65.2264 40.5128C65.1499 37.7791 64.2726 35.1259 62.7007 32.884C61.0815 30.5745 58.8013 28.8098 56.1602 27.8219C53.4932 26.8655 50.5967 26.7525 47.8634 27.4982C46.4178 27.8927 45.0548 28.5172 43.8233 29.3404Z" fill="url(#paint0_linear)"/>
<defs>
<linearGradient id="paint0_linear" x1="43.1127" y1="0.0979004" x2="43.1127" y2="85.0979" gradientUnits="userSpaceOnUse">
<stop stop-color="#636BFB"/>
<stop offset="1" stop-color="#B3BDFD"/>
</linearGradient>
</defs>
</svg>
