<svg width="101" height="101" viewBox="0 0 101 101" fill="none" xmlns="http://www.w3.org/2000/svg">
<path d="M41.8804 45.7698C41.5436 45.7698 41.2205 45.9036 40.9823 46.1418C40.7442 46.3799 40.6104 46.703 40.6104 47.0398V47.9754C40.6104 48.3123 40.7442 48.6353 40.9823 48.8735C41.2205 49.1117 41.5436 49.2455 41.8804 49.2455C42.2172 49.2455 42.5403 49.1117 42.7785 48.8735C43.0167 48.6353 43.1505 48.3123 43.1505 47.9754V47.0398C43.1505 46.703 43.0167 46.3799 42.7785 46.1418C42.5403 45.9036 42.2172 45.7698 41.8804 45.7698Z" fill="url(#paint0_linear)"/>
<path d="M57.6797 45.9646C57.3429 45.9646 57.0198 46.0984 56.7817 46.3366C56.5435 46.5748 56.4097 46.8978 56.4097 47.2347V48.1702C56.4097 48.5071 56.5435 48.8301 56.7817 49.0683C57.0198 49.3065 57.3429 49.4403 57.6797 49.4403C58.0166 49.4403 58.3396 49.3065 58.5778 49.0683C58.816 48.8301 58.9498 48.5071 58.9498 48.1702V47.2347C58.9498 46.8978 58.816 46.5748 58.5778 46.3366C58.3396 46.0984 58.0166 45.9646 57.6797 45.9646Z" fill="url(#paint1_linear)"/>
<path d="M53.5181 54.9227C53.3846 55.0713 53.2433 55.2126 53.0948 55.3461C52.9847 55.4519 52.8661 55.5451 52.7518 55.6467L52.7053 55.6721L52.464 55.8372C52.2683 55.9607 52.0662 56.0738 51.8586 56.1759C51.8586 56.1759 51.6892 56.252 51.6596 56.2647L51.4056 56.3537C51.1409 56.4433 50.8689 56.5099 50.5927 56.5526H50.3133C50.1694 56.5526 50.0255 56.5526 49.89 56.5526C49.7545 56.5526 49.6656 56.5526 49.5555 56.5315L49.3058 56.4976C49.0427 56.446 48.7838 56.3752 48.531 56.2859C48.4845 56.2859 48.2304 56.1589 48.2812 56.1843L48.0696 56.0827C47.888 55.9888 47.7114 55.8857 47.5404 55.7737C47.4599 55.7229 47.3837 55.6678 47.3075 55.6128L47.261 55.5789C47.1509 55.4731 47.0281 55.38 46.9138 55.2784C46.7995 55.1768 46.6598 55.0243 46.5413 54.8846C46.2918 54.639 45.9558 54.5013 45.6057 54.5013C45.2556 54.5013 44.9195 54.639 44.6701 54.8846C44.4284 55.1362 44.2935 55.4714 44.2935 55.8202C44.2935 56.169 44.4284 56.5043 44.6701 56.7559C45.3268 57.4983 46.1289 58.0982 47.0268 58.5184C47.9246 58.9385 48.8991 59.17 49.89 59.1986C50.9293 59.213 51.9595 59.0021 52.9095 58.5804C53.8596 58.1588 54.707 57.5363 55.3936 56.7559C55.6333 56.5033 55.7669 56.1684 55.7669 55.8202C55.7669 55.4721 55.6333 55.1371 55.3936 54.8846C55.1389 54.6427 54.7991 54.5111 54.448 54.5182C54.0969 54.5253 53.7627 54.6707 53.5181 54.9227Z" fill="url(#paint2_linear)"/>
<path d="M100.125 13.8575C100.122 10.251 98.6876 6.79318 96.1374 4.24298C93.5872 1.69279 90.1293 0.258612 86.5228 0.255249C83.9358 0.257786 81.4029 0.996882 79.2205 2.38609C77.0381 3.7753 75.2964 5.7572 74.199 8.09997C66.7912 3.86686 58.4053 1.64413 49.8732 1.65231C36.8041 1.66686 24.2742 6.86356 15.0309 16.1028C5.78766 25.3421 0.585597 37.8699 0.56543 50.939C0.573314 59.702 2.9144 68.3049 7.34809 75.8635C11.7818 83.4221 18.1482 89.6639 25.793 93.9473C25.9754 94.1459 26.2177 94.2797 26.483 94.3283C33.6675 98.225 41.7127 100.263 49.8859 100.255C58.0534 100.259 66.0922 98.2218 73.2719 94.3283C73.4375 94.3132 73.5982 94.264 73.7439 94.1839C73.8896 94.1038 74.0172 93.9944 74.1186 93.8626C81.7201 89.565 88.0453 83.3274 92.4483 75.7864C96.8513 68.2455 99.1747 59.6712 99.181 50.939C99.1892 42.2022 96.8607 33.6222 92.437 26.0882C94.7363 24.9753 96.6763 23.2385 98.0357 21.0758C99.3951 18.9132 100.119 16.4119 100.125 13.8575ZM86.5228 1.94866C89.6802 1.95202 92.7073 3.20778 94.94 5.44041C97.1726 7.67303 98.4284 10.7001 98.4317 13.8575C98.4284 17.0153 97.1727 20.0429 94.9402 22.2762C92.7077 24.5095 89.6806 25.7662 86.5228 25.7707C83.3643 25.7673 80.3361 24.5111 78.1027 22.2777C75.8693 20.0443 74.6131 17.0161 74.6097 13.8575C74.6086 10.6961 75.8628 7.66356 78.0967 5.42648C80.3306 3.1894 83.3614 1.93086 86.5228 1.92749V1.94866ZM71.8537 92.2073C65.0929 95.8267 57.5418 97.7174 49.8732 97.7109C42.2324 97.7197 34.7074 95.8439 27.9648 92.2496C27.7817 90.3782 28.0115 88.4894 28.6379 86.7164C29.1657 85.3207 30.0916 84.1107 31.3008 83.2365C34.9297 86.0417 39.1406 87.9988 43.6246 88.9644C50.4571 90.3803 57.569 89.3902 63.7549 86.1618C65.3958 85.3027 66.9546 84.2951 68.4118 83.1518C69.424 83.8701 70.2523 84.8173 70.8292 85.9163C71.8367 87.8637 72.0061 90.0609 71.8537 92.2073ZM75.3802 49.3344C75.4014 49.4233 75.4183 49.508 75.4395 49.5969C75.4404 49.611 75.4404 49.6252 75.4395 49.6393C75.4395 49.6731 75.4395 49.7324 75.4395 49.7366C75.4395 49.8425 75.4395 49.9441 75.4395 50.0457C75.4395 50.1473 75.4395 50.2955 75.4395 50.3251C75.4202 50.4449 75.3947 50.5635 75.3633 50.6807C75.3294 50.8035 75.2871 50.9305 75.2447 51.0532C75.2447 51.0532 75.1262 51.303 75.0923 51.3665C75.0203 51.4978 74.9357 51.629 74.8552 51.756L74.7452 51.9169L74.6986 51.9677C74.4915 52.2143 74.2619 52.4411 74.0128 52.6451C73.5428 52.9953 73.0216 53.2709 72.4675 53.4621C71.5658 53.75 70.5794 53.6272 69.6353 53.6272H67.7048C67.7048 53.2462 67.7048 52.8652 67.7048 52.4799V46.625H70.8969C71.3202 46.5889 71.7462 46.6002 72.167 46.6589C72.7627 46.7781 73.3281 47.017 73.8287 47.3612C74.3294 47.7055 74.755 48.1478 75.0796 48.6613C75.1177 48.7291 75.2617 49.0296 75.2447 48.9915C75.2278 48.9534 75.359 49.2498 75.3802 49.3344ZM65.8675 60.3628C66.5165 59.2351 67.0052 58.0226 67.3196 56.7601C67.3619 56.5992 67.3958 56.4341 67.4296 56.2732H69.7327H71.0324C71.0324 56.3198 71.0324 56.3621 71.0324 56.4087C71.0811 57.1501 71.0811 57.894 71.0324 58.6355C71.0324 58.8726 70.9985 59.1096 70.9731 59.3467L70.9477 59.5923C70.9477 59.6261 70.9477 59.6515 70.9477 59.6727C70.9477 59.6939 70.9477 59.715 70.9477 59.7447C70.863 60.2866 70.7614 60.82 70.6302 61.3492C70.371 62.4416 69.9786 63.498 69.4617 64.4947C67.345 68.5673 63.5729 71.099 59.2674 71.9499C59.0303 72.0007 58.789 72.0431 58.552 72.0769L58.3572 72.1066H58.3318H58.2387C57.8915 72.1447 57.5444 72.1785 57.193 72.1954H56.867L56.7527 67.7884C60.5078 66.4294 63.8947 63.8512 65.8675 60.3628ZM55.5462 65.443C53.4108 66.1954 51.147 66.515 48.8868 66.3828C47.8088 66.3405 46.7379 66.1887 45.6905 65.9298C44.6451 65.6719 43.6249 65.3205 42.6424 64.8799C41.6763 64.436 40.7537 63.9031 39.8864 63.2881C39.0623 62.6935 38.2994 62.0184 37.6087 61.273C37.3335 60.9724 36.9779 60.549 36.8467 60.3712C36.5171 59.9329 36.2145 59.4748 35.9407 58.9996C35.4372 58.1657 35.0578 57.263 34.8146 56.3197C34.5071 55.1361 34.3773 53.9134 34.4294 52.6916L34.404 47.4505C34.404 46.117 34.404 44.7792 34.404 43.4414C34.4301 43.4319 34.4556 43.4206 34.4802 43.4075C37.4209 41.8417 40.0021 39.6787 42.0582 37.0572C47.0831 40.8833 53.1981 43.0056 59.513 43.1154C61.3751 43.1336 63.2348 42.9763 65.0673 42.6455V50.5876C65.1217 52.0131 65.0977 53.4405 64.9954 54.8634L64.9615 55.109C64.9615 55.2021 64.9319 55.291 64.9149 55.3799C64.8641 55.6509 64.8049 55.9176 64.7371 56.1843C64.6048 56.6917 64.4423 57.1907 64.2503 57.6787C64.2399 57.6971 64.2327 57.7172 64.2291 57.738C64.2176 57.7584 64.2077 57.7796 64.1995 57.8015C64.1444 57.9285 64.0852 58.0513 64.0259 58.174C63.9285 58.3815 63.8227 58.5974 63.7168 58.7837C63.4524 59.2661 63.1597 59.7326 62.8405 60.1807C62.5815 60.5435 62.2987 60.8886 61.9938 61.2137C61.6342 61.6156 61.2526 61.9972 60.8508 62.3568C59.2971 63.7206 57.4964 64.774 55.5462 65.4599V65.443ZM70.2111 43.9621H67.7048V41.151C67.7135 40.9665 67.6799 40.7825 67.6065 40.613C67.5331 40.4435 67.422 40.293 67.2815 40.1731C67.1162 39.9901 66.9051 39.8544 66.67 39.78C66.4349 39.7056 66.1842 39.6952 65.9437 39.7497C65.1224 39.936 64.2968 40.0927 63.4628 40.2112L63.2088 40.2408L62.9167 40.2747C62.6669 40.3044 62.4129 40.3255 62.1631 40.3467C61.5662 40.3975 60.9735 40.4271 60.3766 40.4398C57.7887 40.493 55.207 40.1663 52.7139 39.4703C50.5857 38.878 48.5414 38.0173 46.6304 36.9091C45.7837 36.4222 44.9666 35.893 44.1749 35.3257L43.6542 34.9447L43.523 34.8431L43.3282 34.6949C42.9938 34.4282 42.6593 34.1531 42.3376 33.8736C41.3096 32.9868 40.3435 32.0306 39.4461 31.0118C39.1966 30.7662 38.8606 30.6285 38.5105 30.6285C38.1604 30.6285 37.8243 30.7662 37.5749 31.0118C37.3342 31.2638 37.1999 31.5989 37.1999 31.9474C37.1999 32.2959 37.3342 32.631 37.5749 32.883C38.3448 33.7539 39.1647 34.5794 40.0303 35.3554C39.8017 35.6433 39.5688 35.9269 39.3275 36.2021C38.7681 36.8419 38.1731 37.4497 37.5452 38.0225C36.5683 38.9058 35.5093 39.694 34.3828 40.3763C34.3828 39.1571 34.3828 37.942 34.3828 36.7228C34.3828 35.0294 31.7284 35.0294 31.7368 36.7228L31.7707 43.9198H29.9249H28.9935C28.3218 39.4746 29.0793 34.9309 31.1568 30.944C33.3776 26.705 36.9826 23.354 41.3723 21.4482C45.8038 19.5571 50.7495 19.2418 55.3853 20.555C60.0453 21.8819 64.0911 24.8038 66.8158 28.8103C69.7915 33.2697 71.0017 38.6766 70.2111 43.9791V43.9621ZM29.9926 46.6081H31.758V46.8028C31.758 48.4454 31.758 50.0838 31.758 51.7264C31.758 52.3572 31.758 52.9964 31.7792 53.6103H28.8369C28.5029 53.6402 28.1664 53.6217 27.8378 53.5553L27.4864 53.441L27.3678 53.3902L27.1223 53.2674C27.0038 53.1997 26.8852 53.1319 26.7709 53.0557C26.6992 53.0131 26.6299 52.9664 26.5635 52.916L26.4915 52.861C26.0626 52.5184 25.7155 52.0845 25.4755 51.5909L25.4289 51.4851C25.4289 51.4427 25.3993 51.4046 25.3866 51.3623C25.3359 51.2167 25.2935 51.0682 25.2596 50.9178C25.2596 50.8712 25.2257 50.7357 25.2172 50.6934C25.2172 50.5537 25.196 50.4098 25.196 50.2701C25.196 50.1304 25.196 49.9906 25.2214 49.8467C25.2214 49.7747 25.2468 49.7028 25.2638 49.6308C25.2807 49.5588 25.3231 49.3895 25.3569 49.271C25.3569 49.2286 25.467 48.9661 25.467 48.945C25.5818 48.6948 25.7163 48.4542 25.8692 48.2253C25.8946 48.1914 25.9877 48.0686 26.0047 48.039C26.102 47.9204 26.2036 47.8061 26.3137 47.6961C26.4238 47.586 26.5338 47.4886 26.6481 47.387L26.682 47.3574L26.8514 47.2346C27.1024 47.0682 27.369 46.9265 27.6473 46.8113L28.0071 46.6927C28.1427 46.6445 28.287 46.6257 28.4305 46.6377C28.9723 46.6377 29.4804 46.625 29.9884 46.625L29.9926 46.6081ZM28.5786 56.6415C28.5786 56.5145 28.604 56.3917 28.6125 56.2647H29.2391H32.0967C33.0154 60.693 36.2455 64.3931 40.1404 66.5564C41.0763 67.0748 42.0533 67.5152 43.0615 67.873L42.9599 71.607C42.9599 71.8144 42.9599 72.0303 42.9599 72.2293H42.6636C42.3884 72.2293 42.1174 72.1997 41.8423 72.1743L41.3215 72.1192L41.0125 72.0727C39.177 71.799 37.4059 71.1967 35.7841 70.2946C33.6458 69.093 31.8615 67.3496 30.6107 65.2398C30.0375 64.2864 29.5853 63.2653 29.2645 62.2001C29.1121 61.7006 28.985 61.1925 28.8792 60.6761C28.8242 60.4136 28.7776 60.1468 28.7353 59.8844C28.7353 59.8844 28.7056 59.6346 28.7014 59.6261C28.7014 59.5372 28.7014 59.4441 28.6718 59.3552C28.5697 58.4601 28.5371 57.5585 28.5744 56.6584L28.5786 56.6415ZM44.5644 76.0903C45.3857 74.9515 45.5508 73.5798 45.5889 72.2208C45.6185 71.0185 45.6524 69.812 45.682 68.6097C48.4744 69.2 51.3603 69.1914 54.1491 68.5843C54.1745 69.5918 54.1999 70.5952 54.2295 71.6028C54.2634 72.9744 54.2973 74.2783 54.9281 75.5357C55.8213 77.3222 57.6968 78.1732 59.4579 78.8717C61.6721 79.7481 63.8523 80.6032 65.9775 81.687L65.9225 81.7251C65.0757 82.3264 64.1982 82.8831 63.2935 83.3931C60.8785 84.7727 58.2654 85.7722 55.5462 86.3566C52.2329 87.08 48.8126 87.1691 45.4661 86.619C42.6989 86.1542 40.0165 85.2795 37.5071 84.0239C36.4554 83.4937 35.4361 82.9014 34.4548 82.2501C34.2134 82.0934 33.9848 81.9241 33.752 81.759C35.6409 80.7885 37.5862 79.9318 39.5773 79.1935C41.4231 78.4907 43.3578 77.7837 44.5644 76.0903ZM96.6367 50.9262C96.6324 58.8791 94.6005 66.6995 90.733 73.6486C86.8655 80.5977 81.29 86.446 74.5335 90.6409C74.5264 89.1743 74.2922 87.7176 73.8392 86.3227C73.0531 83.9651 71.4866 81.9461 69.3982 80.599C67.2055 79.2309 64.8756 78.0957 62.4468 77.2122L60.8296 76.5983L60.1565 76.3401C59.8855 76.2342 59.6992 76.1538 59.6103 76.1157C59.2045 75.9385 58.81 75.7364 58.4292 75.5103C58.2979 75.4299 58.1709 75.341 58.0482 75.2478L57.9042 75.1293C57.828 75.0615 57.7518 74.9854 57.6756 74.9091L57.6375 74.8668C60.3559 74.6768 62.9959 73.8735 65.3595 72.5172C67.6686 71.1509 69.6219 69.2577 71.0596 66.9922C72.4973 64.7268 73.3787 62.1534 73.6318 59.4822C73.7609 58.2749 73.7609 57.0572 73.6318 55.8498C75.1213 55.2948 76.3881 54.2674 77.2387 52.9245C77.6705 52.238 77.9453 51.4646 78.0434 50.6595C78.1415 49.8545 78.0604 49.0377 77.806 48.2676C77.4868 47.439 77.0019 46.6843 76.381 46.0495C75.76 45.4148 75.0162 44.9134 74.1948 44.576C73.7598 44.3821 73.3077 44.229 72.8443 44.1187C73.5371 38.9728 72.5685 33.74 70.0798 29.1829C67.3861 24.3513 63.068 20.6301 57.8915 18.6795C52.8331 16.7901 47.2806 16.687 42.1555 18.3874C36.9913 20.1254 32.5857 23.5933 29.6836 28.205C26.6692 33.0699 25.4977 38.8538 26.3814 44.5082C25.0716 45.1113 23.994 46.1249 23.3121 47.3955C22.5487 48.8052 22.3752 50.46 22.8295 51.9973C23.0888 52.7916 23.5045 53.5258 24.052 54.1569C24.5994 54.788 25.2677 55.3032 26.0173 55.672C25.6228 59.1164 26.2438 62.601 27.8039 65.697C28.9785 67.9486 30.6434 69.9078 32.676 71.4303C34.7085 72.9529 37.0567 73.9999 39.5477 74.4942C40.4191 74.674 41.3017 74.7942 42.1894 74.8541C42.1741 74.8686 42.16 74.8841 42.1471 74.9007C42.0412 75.0107 41.9269 75.1081 41.8126 75.2097C41.8126 75.2097 41.5417 75.4045 41.4866 75.4383C41.2919 75.5653 41.0887 75.6796 40.8855 75.7855C40.04 76.196 39.1706 76.5551 38.2819 76.8608C35.8319 77.7507 33.46 78.8425 31.1907 80.1248C29.0947 81.2629 27.4193 83.0436 26.4111 85.2051C25.6748 86.9469 25.292 88.8176 25.285 90.7086C18.5056 86.5195 12.9092 80.6676 9.02673 73.7081C5.14429 66.7486 3.10463 58.9124 3.1013 50.9432C3.11363 38.5423 8.04533 26.6528 16.8141 17.884C25.5829 9.11528 37.4723 4.18358 49.8732 4.17125C58.1174 4.16999 66.2135 6.36168 73.3312 10.5215C73.0524 11.6103 72.9102 12.7295 72.9078 13.8533C72.9123 17.4606 74.3473 20.9189 76.898 23.4696C79.4488 26.0204 82.9071 27.4554 86.5144 27.4599C87.7 27.4536 88.8798 27.2928 90.0239 26.9815C94.3625 34.219 96.6498 42.5007 96.6409 50.939L96.6367 50.9262Z" fill="url(#paint3_linear)"/>
<path d="M92.2127 11.8673C92.2127 8.76493 89.6888 6.24097 86.5863 6.24097C83.4839 6.24097 80.96 8.76493 80.96 11.8673C80.96 14.7799 83.1845 17.1825 86.0237 17.4657V18.7078H84.5431V19.8923H86.0237V21.4026H87.2082V19.8923H88.6888V18.7078H87.2082V17.4592C90.019 17.1487 92.2127 14.7596 92.2127 11.8673ZM82.1445 11.8673C82.1445 9.4181 84.1371 7.42547 86.5863 7.42547C89.0356 7.42547 91.0282 9.4181 91.0282 11.8673C91.0282 14.3166 89.0356 16.3092 86.5863 16.3092C84.1371 16.3092 82.1445 14.3166 82.1445 11.8673Z" fill="url(#paint4_linear)"/>
<defs>
<linearGradient id="paint0_linear" x1="41.8804" y1="45.7698" x2="41.8804" y2="49.2455" gradientUnits="userSpaceOnUse">
<stop offset="0.21875" stop-color="#636BFB"/>
<stop offset="1" stop-color="#B3BDFD"/>
</linearGradient>
<linearGradient id="paint1_linear" x1="57.6797" y1="45.9646" x2="57.6797" y2="49.4403" gradientUnits="userSpaceOnUse">
<stop offset="0.21875" stop-color="#636BFB"/>
<stop offset="1" stop-color="#B3BDFD"/>
</linearGradient>
<linearGradient id="paint2_linear" x1="50.0302" y1="54.5013" x2="50.0302" y2="59.1993" gradientUnits="userSpaceOnUse">
<stop offset="0.21875" stop-color="#636BFB"/>
<stop offset="1" stop-color="#B3BDFD"/>
</linearGradient>
<linearGradient id="paint3_linear" x1="50.3453" y1="0.255249" x2="50.3453" y2="100.255" gradientUnits="userSpaceOnUse">
<stop offset="0.21875" stop-color="#636BFB"/>
<stop offset="1" stop-color="#B3BDFD"/>
</linearGradient>
<linearGradient id="paint4_linear" x1="86.5863" y1="6.24097" x2="86.5863" y2="21.4026" gradientUnits="userSpaceOnUse">
<stop stop-color="#B3BDFD"/>
<stop offset="1" stop-color="#636BFB"/>
</linearGradient>
</defs>
</svg>
