<svg width="95" height="115" viewBox="0 0 95 115" fill="none" xmlns="http://www.w3.org/2000/svg">
<path d="M15.9916 105.785C15.3682 104.234 14.631 102.732 13.7862 101.29C12.9547 99.8372 11.992 98.4639 10.9103 97.1869C10.3689 96.5536 9.77034 95.9699 9.21652 95.3416C8.9407 95.0264 8.68443 94.6947 8.44911 94.3482C8.21957 93.9985 8.00979 93.6361 7.82077 93.2629C7.44075 92.5171 7.12503 91.7402 6.87704 90.9408C6.63358 90.1408 6.43705 89.3273 6.28844 88.5044C5.99042 86.8579 5.80415 85.1964 5.6005 83.5374C5.50364 82.7079 5.42169 81.8734 5.4043 81.0365C5.3671 80.2017 5.26329 79.3712 5.09386 78.5529C4.77146 76.916 4.27956 75.3171 3.6261 73.7821C3.30325 73.0122 2.9481 72.2572 2.58302 71.5072C2.21794 70.7571 1.83796 70.0171 1.51013 69.2397C1.3407 68.854 1.19959 68.4564 1.08793 68.0501C0.970908 67.6413 0.926367 67.2151 0.95631 66.7909C0.995635 66.3627 1.13792 65.9503 1.37105 65.5889C1.61031 65.2332 1.92275 64.9326 2.28748 64.7073C2.64811 64.4863 3.03103 64.304 3.4299 64.1634C3.62113 64.0839 3.82727 64.0243 4.02595 63.9572C4.22463 63.8902 4.43324 63.8455 4.64435 63.8132C5.47655 63.6667 6.32796 63.6667 7.16016 63.8132C8.81779 64.1239 10.3957 64.7659 11.7994 65.7007C13.211 66.6123 14.4954 67.7071 15.6191 68.9566C16.7582 70.1961 17.7081 71.597 18.4379 73.114C18.7365 73.8991 18.9919 74.7 19.2028 75.5131C19.4362 76.3128 19.6846 77.1084 19.9479 77.8998C20.9968 81.067 22.2477 84.1637 23.693 87.1708C24.4118 88.6741 25.2144 90.1359 26.0971 91.5493C26.5374 92.2519 27.0236 92.9247 27.5524 93.5634C27.816 93.8787 28.1042 94.1727 28.4142 94.4426C28.6989 94.7159 29.0526 94.9064 29.4374 94.9939C29.7975 95.0659 30.1452 94.8052 30.4507 94.5518C30.7578 94.2933 31.011 93.9769 31.1958 93.6205C31.3777 93.2604 31.5026 92.8741 31.5658 92.4756C31.6241 92.0685 31.6523 91.6576 31.6502 91.2463C31.6776 89.5823 31.5757 87.9158 31.4888 86.2469C31.4019 84.578 31.305 82.9115 31.2752 81.2352C31.2752 80.3982 31.2603 79.5613 31.3001 78.7218C31.3271 77.882 31.4025 77.0445 31.5261 76.2135C31.6527 75.379 31.8489 74.5594 32.0451 73.7498C32.142 73.345 32.2339 72.9377 32.3183 72.5304L32.445 71.9194L32.5567 71.306C32.8394 69.6631 33.0203 68.0042 33.0981 66.3389C33.1925 64.6775 33.2049 63.0085 33.1975 61.3396C33.1975 60.5051 33.1826 59.6707 33.1627 58.8362C33.1429 58.0017 33.1255 57.1673 33.1006 56.3328C33.0013 52.9949 32.8523 49.6596 32.7107 46.3217L32.4797 41.3149C32.4102 39.6484 32.296 37.9795 32.2984 36.3006C32.286 32.9479 32.5468 29.6125 32.6064 26.2796C32.6213 25.4476 32.6263 24.6132 32.6064 23.7812C32.5865 22.9492 32.5468 22.1147 32.5468 21.2728C32.5468 19.5964 32.6958 17.8803 33.2919 16.2735C33.8835 14.6681 34.841 13.2226 36.0883 12.0515C36.7049 11.4449 37.436 10.967 38.2391 10.6458C39.0699 10.3133 39.9954 10.3053 40.8319 10.6234C41.6324 10.972 42.3352 11.5118 42.8783 12.1955C43.4477 12.8397 43.9074 13.573 44.2393 14.3661C44.8949 15.963 45.039 17.6742 45.1557 19.3332C45.2724 20.9922 45.3022 22.676 45.3891 24.3425C45.4338 25.1744 45.4736 26.0064 45.5779 26.826C45.6822 27.6455 45.7567 28.5024 45.8064 29.3343C45.9032 31.0058 45.9678 32.6747 46.0547 34.3436L46.2708 39.3504C46.4099 42.6883 46.5539 46.0262 46.6384 49.369C46.6756 51.0404 46.7079 52.7143 46.6632 54.3907C46.6632 54.8104 46.6334 55.2301 46.611 55.6498C46.5887 56.0695 46.5415 56.4917 46.5167 56.8916C46.4736 57.7193 46.4844 58.5489 46.5489 59.3751C46.6123 60.1993 46.7267 61.0188 46.8917 61.8289C47.0508 62.6393 47.2606 63.4389 47.52 64.223C47.6442 64.6083 47.7995 64.9829 47.9844 65.343C48.0662 65.5072 48.1726 65.658 48.2998 65.7901C48.3352 65.8281 48.381 65.8548 48.4315 65.8671C48.4732 65.8579 48.5107 65.8352 48.5382 65.8025C48.6525 65.6639 48.7424 65.5068 48.804 65.3381C48.8785 65.1543 48.9406 64.9631 48.9977 64.7694C49.107 64.377 49.1939 63.9721 49.2684 63.5673C49.8552 60.3084 49.9706 56.9821 49.6111 53.6903C49.4274 52.0413 49.1144 50.4046 48.804 48.763C48.4935 47.1214 48.1905 45.4723 47.9894 43.7959C47.7891 42.1287 47.688 40.451 47.6864 38.7718C47.6864 37.9323 47.6864 37.0929 47.7485 36.251C47.8106 35.4091 47.9298 34.5696 48.0117 33.7501C48.1732 32.101 48.2353 30.4296 48.275 28.7681C48.3147 27.1066 48.275 25.4377 48.193 23.7762C48.1111 22.1147 47.9795 20.4359 48.0043 18.7545C48.0285 17.0785 48.1396 15.4048 48.3371 13.7403C48.5281 12.0653 48.8604 10.4095 49.3305 8.79059C49.7967 7.15858 50.505 5.60568 51.4316 4.18364C51.8954 3.47384 52.4241 2.80871 53.0111 2.19681C53.6 1.54295 54.3426 1.04617 55.1718 0.7514C55.3876 0.685049 55.6099 0.64176 55.8349 0.622257C55.9473 0.613544 56.0602 0.613544 56.1726 0.622257C56.2844 0.622257 56.3961 0.622258 56.5079 0.634676C56.9498 0.688024 57.3805 0.810377 57.7844 0.997271C58.5624 1.38432 59.2595 1.91619 59.8383 2.56438C60.13 2.87775 60.4013 3.20958 60.6504 3.55779C60.9118 3.90366 61.1381 4.27471 61.3259 4.66544C61.6529 5.45951 61.8669 6.29549 61.9617 7.14897C62.0784 7.98841 62.1405 8.82784 62.1803 9.66727C62.2026 10.087 62.22 10.5042 62.2299 10.9239C62.2399 11.3437 62.2498 11.7609 62.2523 12.1806C62.2672 13.857 62.2523 15.5284 62.1902 17.2023C62.1281 18.8762 62.0288 20.5327 61.9766 22.1843C61.9245 23.8358 61.9766 25.5097 61.994 27.1836C62.0114 28.8575 62.0586 30.5264 62.0462 32.1979V34.7137C62.0462 35.5506 62.0213 36.3851 62.0089 37.2196L61.922 42.2313L61.7506 52.2524L61.6637 57.2616L61.619 59.7675C61.5805 60.5854 61.633 61.405 61.7755 62.2113C61.8451 62.5926 61.9858 62.9574 62.1902 63.2867C62.2854 63.4356 62.4121 63.5617 62.5615 63.6561C62.7108 63.7506 62.8792 63.811 63.0545 63.8331C63.4054 63.8852 63.7628 63.7959 64.0479 63.5847C64.3284 63.3419 64.527 63.0184 64.6166 62.6584C64.7249 62.2741 64.7841 61.8778 64.7929 61.4787C64.8086 61.0704 64.7995 60.6615 64.7656 60.2543C64.7085 59.4347 64.562 58.6176 64.4626 57.7708C64.0479 54.4354 64.0479 51.0652 64.0578 47.7348C64.0578 46.0659 64.0578 44.397 64.028 42.7305C64.0057 41.8985 63.9734 41.0665 63.9237 40.247C63.874 39.4274 63.802 38.5855 63.7325 37.751C63.4841 34.4231 63.1787 31.0877 63.1066 27.7374C63.0744 24.3896 63.0594 21.0468 63.3103 17.699C63.4248 16.0194 63.674 14.3518 64.0553 12.7121C64.2542 11.885 64.5302 11.0785 64.8799 10.3031C65.0647 9.91381 65.2832 9.54151 65.533 9.19044C65.6582 9.01253 65.7943 8.8425 65.9403 8.68131C66.0936 8.51914 66.2597 8.36964 66.437 8.23428C66.6092 8.09493 66.7928 7.97031 66.9859 7.86175C67.185 7.76427 67.3908 7.68127 67.6018 7.61339C68.0229 7.48251 68.4622 7.41964 68.9032 7.42713C69.7709 7.44407 70.6261 7.63758 71.4165 7.99586C72.2001 8.3638 72.9045 8.88091 73.4903 9.51826C74.0689 10.1487 74.5692 10.8466 74.9804 11.597C75.3859 12.3395 75.7386 13.1096 76.0359 13.9017C76.1998 14.2916 76.314 14.6989 76.4482 15.1012C76.5127 15.3024 76.5574 15.5085 76.6121 15.7147C76.6667 15.9208 76.7238 16.122 76.7611 16.3306C76.9339 17.1587 77.0501 17.9976 77.1088 18.8414C77.1592 19.6824 77.1675 20.5254 77.1336 21.3672C77.0765 23.0485 76.8852 24.7125 76.7412 26.374C76.5972 28.0355 76.4531 29.6969 76.4755 31.3535C76.4978 33.01 76.7859 34.6541 76.9349 36.3205C77.0839 37.987 77.2031 39.6584 77.2826 41.3298C77.4366 44.6726 77.5012 48.0155 77.5061 51.3583C77.5111 54.7011 77.4614 58.044 77.3993 61.3843C77.3695 63.0532 77.3373 64.7222 77.3248 66.3911C77.3124 68.06 77.3099 69.7314 77.4291 71.3855C77.4614 71.7977 77.5061 72.21 77.5732 72.6148C77.6228 73.0078 77.7378 73.3898 77.9134 73.7448C78.0103 73.9063 78.1245 73.9932 78.2586 73.9932C78.4401 73.9667 78.6142 73.9033 78.7702 73.8069C79.1183 73.6274 79.4136 73.3604 79.6271 73.0321C80.0446 72.3355 80.3033 71.5553 80.3845 70.7472C80.4441 70.3399 80.4715 69.9252 80.5087 69.5054L80.618 68.2637C80.8937 64.9357 81.1818 61.6053 81.3407 58.2749C81.3618 57.8613 81.3618 57.4468 81.3407 57.0332L81.2885 55.7914C81.2612 54.9544 81.2389 54.1175 81.2438 53.2781C81.2488 52.4386 81.2985 51.5992 81.3531 50.7672C81.4078 49.9352 81.445 49.1032 81.4649 48.2688C81.5071 46.6023 81.4972 44.9334 81.4798 43.2645C81.4798 42.43 81.4475 41.598 81.45 40.7561C81.4525 39.9142 81.4922 39.0797 81.5617 38.2428C81.6278 37.3946 81.7398 36.5506 81.897 35.7145C81.9641 35.2998 82.0709 34.8925 82.1652 34.4728C82.2596 34.0531 82.3887 33.6607 82.5477 33.2683C83.0916 31.6813 84.2042 30.1837 85.8061 29.5132C86.6048 29.1843 87.478 29.0796 88.3318 29.2102C89.189 29.3471 89.9757 29.7667 90.567 30.4023C91.1421 31.0339 91.5861 31.7734 91.8733 32.5778C92.157 33.3715 92.3747 34.1872 92.524 35.0167C92.8345 36.6657 93.0207 38.3322 93.1747 39.9837C93.3287 41.6353 93.4355 43.3166 93.5274 44.9856C93.7087 48.3234 93.8031 51.6663 93.8651 55.0066C93.9272 58.3469 93.9446 61.6873 93.9372 65.0301L93.9049 70.0419C93.89 71.7108 93.8527 73.3822 93.8602 75.0512C93.8676 76.7201 93.9173 78.389 94.0365 80.0555C94.1557 81.7219 94.2426 83.3933 94.2451 85.0648C94.2451 88.4051 94.1483 91.7479 93.9521 95.0833C93.5653 101.756 92.7941 108.4 91.6424 114.984C92.773 108.397 93.5243 101.751 93.8925 95.0784C94.0762 91.7455 94.1731 88.4026 94.1557 85.0648C94.1557 83.3933 94.0564 81.7269 93.9297 80.0629C93.8031 78.399 93.7459 76.7226 93.7385 75.0512C93.731 73.3798 93.7583 71.7108 93.7683 70.0394L93.7832 65.0301C93.7832 61.6898 93.7534 58.3494 93.6839 55.0091C93.6143 51.6687 93.505 48.3309 93.3163 44.998C93.2194 43.3315 93.1077 41.6651 92.9462 40.0061C92.7848 38.3471 92.5961 36.6856 92.2856 35.039C92.1366 34.2246 91.9206 33.4238 91.6399 32.6449C91.3631 31.871 90.936 31.1595 90.3832 30.5513C89.8269 29.9565 89.087 29.5656 88.2822 29.4411C87.4752 29.3193 86.6503 29.4189 85.8955 29.7292C85.1442 30.0548 84.4836 30.5586 83.9708 31.197C83.4507 31.8405 83.0526 32.5736 82.7961 33.3601C82.6421 33.7451 82.5477 34.1474 82.4235 34.5423C82.2993 34.9372 82.2273 35.347 82.1752 35.7568C82.0219 36.5779 81.9149 37.4071 81.8548 38.2403C81.7853 39.0673 81.7505 39.8993 81.748 40.7238C81.7455 41.5483 81.7704 42.3903 81.7803 43.2272C81.8027 44.8986 81.8126 46.57 81.7803 48.2439C81.7629 49.0784 81.7232 49.9178 81.6735 50.7523C81.6238 51.5868 81.5717 52.4138 81.5692 53.2358C81.5667 54.0579 81.5866 54.8998 81.6189 55.7343L81.6735 56.976C81.7008 57.3958 81.6735 57.8229 81.6735 58.2377C81.517 61.583 81.2364 64.9109 80.9632 68.2413L80.8589 69.4831C80.8216 69.8978 80.7943 70.3151 80.7347 70.7249C80.6481 71.5853 80.3716 72.4157 79.9251 73.1562C79.6785 73.5521 79.3303 73.8745 78.9168 74.09C78.7151 74.2113 78.4899 74.2884 78.2562 74.316C78.1122 74.319 77.9714 74.2735 77.8563 74.1869C77.7562 74.1092 77.6719 74.0131 77.608 73.9038C77.4095 73.5146 77.2777 73.0948 77.218 72.662C77.1485 72.2423 77.1038 71.8226 77.0715 71.4029C76.9449 69.724 76.9498 68.0526 76.9548 66.3787C76.9597 64.7048 76.9945 63.0383 77.0218 61.3669C77.079 58.0266 77.1262 54.6887 77.1137 51.3484C77.1013 48.008 77.0318 44.6726 76.8654 41.3397C76.7834 39.6733 76.6741 38.0093 76.5078 36.3528C76.3414 34.6963 76.0657 33.0423 76.0408 31.3485C76.0011 27.9734 76.5649 24.6579 76.6915 21.3399C76.7288 20.5104 76.7089 19.6833 76.6642 18.8563C76.6069 18.0333 76.4933 17.2151 76.324 16.4076C76.2892 16.2039 76.2296 16.0077 76.1799 15.8066C76.1303 15.6054 76.0831 15.4067 76.0185 15.2105C75.8869 14.8206 75.7701 14.4208 75.6162 14.0433C75.3265 13.2697 74.9821 12.5178 74.5855 11.7932C74.194 11.0765 73.7179 10.4095 73.1674 9.80635C72.6198 9.21008 71.9609 8.72665 71.2278 8.38329C70.4925 8.05071 69.6976 7.86994 68.8908 7.85181C68.0966 7.82332 67.3185 8.08063 66.6978 8.577C66.5434 8.7004 66.3973 8.83398 66.2607 8.97685C66.1365 9.13332 65.9975 9.27736 65.8882 9.44624C65.6549 9.77748 65.4506 10.1281 65.2772 10.4943C64.94 11.2425 64.674 12.0208 64.4825 12.8189C64.1155 14.4292 63.8764 16.0659 63.7673 17.7139C63.5189 21.0294 63.5363 24.3747 63.5711 27.7076C63.6058 31.0405 63.9361 34.366 64.2019 37.6964C64.2689 38.5284 64.3385 39.3604 64.3931 40.1973C64.4477 41.0343 64.4775 41.8737 64.4999 42.7106C64.5421 44.3845 64.5347 46.056 64.5322 47.7274C64.5322 51.0652 64.5322 54.4056 64.9395 57.7037C65.0363 58.5258 65.1878 59.3553 65.2474 60.2021C65.2827 60.6275 65.2918 61.0547 65.2747 61.4812C65.264 61.918 65.199 62.3518 65.081 62.7726C64.965 63.2275 64.7097 63.6347 64.3509 63.9374C64.1606 64.0835 63.9431 64.1901 63.7112 64.2511C63.4792 64.3121 63.2373 64.3262 62.9998 64.2925C62.7595 64.2606 62.5287 64.1776 62.3231 64.0491C62.1175 63.9206 61.9418 63.7495 61.8077 63.5475C61.5657 63.1684 61.3972 62.7471 61.311 62.3057C61.1599 61.4661 61.104 60.6122 61.1446 59.7601L61.1869 57.2542L61.2688 52.2449L61.4377 42.2239L61.5221 37.2121C61.5221 36.3776 61.5544 35.5432 61.5569 34.7087V32.2078C61.5569 30.5364 61.5321 28.8699 61.4998 27.201C61.4675 25.5321 61.4228 23.8557 61.4799 22.1793C61.537 20.5029 61.6389 18.839 61.6836 17.1725C61.7283 15.5061 61.7581 13.8371 61.7432 12.1707C61.7432 11.7559 61.7432 11.3387 61.7208 10.9289C61.6985 10.5191 61.696 10.0969 61.6736 9.68714C61.6339 8.85764 61.5718 8.02814 61.4601 7.20361C61.3733 6.39572 61.1735 5.60401 60.8665 4.85171C60.6914 4.48965 60.4818 4.14533 60.2406 3.82353C60.0019 3.4933 59.744 3.17735 59.4683 2.8773C58.9318 2.27631 58.2863 1.78247 57.5659 1.42195C57.2121 1.25598 56.8339 1.14781 56.4458 1.10158C56.349 1.09663 56.252 1.09663 56.1552 1.10158C56.0593 1.09413 55.963 1.09413 55.8671 1.10158C55.675 1.1189 55.4852 1.15636 55.3009 1.21334C54.5509 1.48556 53.8795 1.93851 53.3464 2.53209C52.7801 3.12486 52.2704 3.76924 51.824 4.45683C50.9229 5.83632 50.2339 7.34322 49.78 8.92718C49.3193 10.5194 48.9945 12.1478 48.809 13.7949C48.6122 15.4437 48.502 17.1016 48.4786 18.762C48.4538 20.421 48.5755 22.08 48.6649 23.7539C48.7543 25.4278 48.7816 27.1041 48.7444 28.7805C48.7071 30.4569 48.6401 32.1258 48.4762 33.8022C48.3892 34.6441 48.2526 35.4587 48.2104 36.2857C48.1682 37.1128 48.1583 37.9447 48.1508 38.7693C48.1488 40.4294 48.2475 42.0881 48.4464 43.7363C48.645 45.3879 48.9431 47.0245 49.2535 48.6661C49.5639 50.3078 49.8769 51.9543 50.0631 53.6332C50.2593 55.3053 50.3191 56.9905 50.2419 58.6723C50.1695 60.352 49.9887 62.0252 49.7005 63.6816C49.6235 64.0963 49.5341 64.5111 49.4174 64.9233C49.3602 65.1334 49.2905 65.3399 49.2088 65.5417C49.1259 65.7649 49.003 65.9711 48.8462 66.1502C48.7904 66.2116 48.7227 66.261 48.647 66.2952C48.5714 66.3293 48.4896 66.3476 48.4066 66.3489C48.2482 66.3359 48.0996 66.2673 47.9869 66.1552C47.8199 65.9904 47.6815 65.799 47.5771 65.5889C47.3785 65.207 47.2123 64.8091 47.0804 64.3993C46.8155 63.5965 46.6015 62.7778 46.4397 61.9481C46.273 61.1191 46.1585 60.2805 46.0969 59.4372C46.0311 58.5944 46.0212 57.7481 46.0671 56.904C46.092 56.4768 46.1367 56.0646 46.1615 55.6623C46.1863 55.2599 46.2037 54.8352 46.2137 54.4205C46.2584 52.7565 46.2137 51.0876 46.1888 49.4211C46.1069 46.0833 45.9678 42.7454 45.8287 39.4075L45.6151 34.4007C45.5406 32.7318 45.4761 31.0629 45.3792 29.3989C45.3295 28.5645 45.2774 27.7424 45.1582 26.9154C45.039 26.0884 45.0116 25.2365 44.9644 24.3996C44.88 22.7306 44.8378 21.0567 44.736 19.3977C44.6341 17.7387 44.4876 16.0698 43.8518 14.5573C43.5405 13.8043 43.1057 13.1085 42.5654 12.4985C42.0684 11.8644 41.4226 11.3628 40.6853 11.0382C39.9427 10.7552 39.1207 10.7623 38.3831 11.0581C37.6311 11.3589 36.9464 11.8063 36.3689 12.3743C35.165 13.5005 34.2399 14.8916 33.6669 16.4374C33.1006 17.9796 32.9417 19.6461 32.9491 21.3001C32.9491 22.1296 32.9914 22.9616 33.0013 23.801C33.0112 24.6405 33.0013 25.4774 33.0013 26.3144C32.9367 29.6622 32.671 32.9951 32.6784 36.328C32.6784 37.9919 32.7803 39.6559 32.8498 41.3273L33.0708 46.3341C33.2124 49.672 33.3515 53.0098 33.4458 56.3527C33.4682 57.1871 33.4905 58.0216 33.503 58.8586C33.5154 59.6955 33.5303 60.53 33.5328 61.3644C33.5328 63.0383 33.5328 64.7122 33.426 66.3837C33.3436 68.0591 33.1578 69.7279 32.8697 71.3805L32.7579 71.9989L32.6288 72.6148C32.5443 73.0246 32.4499 73.4344 32.3506 73.8392C32.1544 74.6513 31.9582 75.4585 31.8315 76.278C31.7099 77.101 31.6344 77.9301 31.6055 78.7616C31.5658 79.5935 31.5683 80.4255 31.5757 81.26C31.6031 82.9264 31.6925 84.5929 31.7819 86.2593C31.8713 87.9258 31.9657 89.5997 31.9334 91.2785C31.9334 92.1081 31.8589 92.9996 31.4367 93.7621C31.2344 94.148 30.9585 94.4906 30.6245 94.7704C30.4602 94.9149 30.2802 95.0406 30.0881 95.1454C29.9847 95.1998 29.8745 95.2399 29.7603 95.2646C29.6427 95.2844 29.5227 95.2844 29.4051 95.2646C28.9705 95.1713 28.57 94.9599 28.2478 94.6537C27.9286 94.373 27.6314 94.0683 27.3587 93.7422C26.822 93.0943 26.3299 92.4105 25.886 91.6958C25.0011 90.2739 24.1977 88.8029 23.4794 87.29C22.0387 84.2698 20.7943 81.1598 19.7541 77.9793C19.4909 77.1845 19.2425 76.3857 19.0091 75.5826C18.8046 74.7773 18.5559 73.9839 18.264 73.2059C17.5456 71.7058 16.6109 70.3193 15.4899 69.0907C14.3812 67.851 13.1116 66.7651 11.7149 65.8621C10.3331 64.9338 8.77794 64.2943 7.14278 63.9821C6.32704 63.838 5.49237 63.838 4.67663 63.9821C4.47298 64.0119 4.2743 64.0715 4.07314 64.1187C3.87197 64.1659 3.68074 64.2428 3.48703 64.3198C3.09643 64.4571 2.72108 64.6344 2.36695 64.8488C2.01743 65.0619 1.71831 65.3483 1.49026 65.6883C1.26592 66.0299 1.12864 66.4213 1.09041 66.8282C1.06065 67.239 1.10353 67.6517 1.21708 68.0476C1.32545 68.448 1.46324 68.8398 1.62934 69.2198C1.9522 69.9848 2.3297 70.7323 2.69229 71.4848C3.05489 72.2373 3.41003 72.9948 3.73041 73.7672C4.3788 75.3103 4.86487 76.9167 5.18078 78.5604C5.35036 79.3785 5.45254 80.2091 5.48627 81.0439C5.50117 81.8784 5.58063 82.7079 5.67749 83.5275C5.87369 85.1865 6.05499 86.8479 6.34804 88.4945C6.49213 89.3166 6.68536 90.1294 6.92671 90.9284C7.17261 91.7259 7.48584 92.501 7.863 93.2455C8.04949 93.6178 8.25678 93.9793 8.48389 94.3283C8.71738 94.6742 8.97114 95.0059 9.24385 95.3217C9.79519 95.9501 10.3937 96.5362 10.9326 97.172C12.0105 98.4506 12.9698 99.8247 13.7986 101.277C14.6402 102.723 15.3732 104.23 15.9916 105.785Z" fill="white"/>
<path d="M48.4688 76.2632C50.3761 79.4918 52.8671 82.3851 55.9193 84.5482C56.6757 85.0927 57.4795 85.5681 58.3209 85.9688C59.1628 86.3712 60.0321 86.7139 60.8963 87.0814C62.6298 87.7984 64.3468 88.5558 66.0472 89.3539C67.7476 90.1519 69.4256 90.9905 71.0813 91.8697C72.7477 92.7315 74.3521 93.7149 76.1104 94.3532C77.8754 94.9725 79.6972 95.4159 81.5494 95.6769C83.4041 95.9454 85.2795 96.0443 87.1522 95.9725C85.2782 96.0859 83.3978 96.0277 81.5345 95.7986C79.6679 95.5582 77.8295 95.1348 76.0459 94.5345C75.1574 94.2201 74.294 93.8391 73.463 93.3946L70.9795 92.0808C69.3238 91.2149 67.6449 90.387 65.9429 89.5973C64.2516 88.7926 62.5404 88.0351 60.8119 87.3099C59.9476 86.9448 59.0734 86.5922 58.229 86.1824C57.3787 85.7726 56.5688 85.2836 55.8101 84.7221C54.2892 83.6123 52.9024 82.3296 51.6775 80.8999C50.4602 79.4619 49.3856 77.9091 48.4688 76.2632Z" fill="white"/>
<path d="M66.291 84.573C66.9227 86.6035 67.4425 88.6671 67.8482 90.7545C68.2529 92.8446 68.5489 94.9543 68.7348 97.0751C68.8275 98.1347 68.8905 99.1968 68.9236 100.261C68.9633 101.324 68.9757 102.387 68.9509 103.453C68.926 104.518 68.8789 105.579 68.8019 106.639C68.7249 107.7 68.6156 108.758 68.474 109.811C68.561 108.75 68.638 107.692 68.6827 106.632C68.7274 105.571 68.7596 104.511 68.7596 103.45C68.7596 101.329 68.6851 99.206 68.4889 97.095C68.2927 94.984 68.027 92.873 67.6594 90.7893C67.4806 89.7437 67.2646 88.7056 67.0336 87.67C66.8026 86.6343 66.5568 85.6012 66.291 84.573Z" fill="white"/>
<path d="M73.0297 105.529C71.6125 102.378 69.6255 99.5148 67.1686 97.085C64.7051 94.6702 61.8628 92.6752 58.7544 91.1792C55.6523 89.6726 52.3839 88.5356 49.0165 87.7917C47.3376 87.4026 45.6414 87.0963 43.9277 86.8727C42.2191 86.6368 40.498 86.4828 38.7744 86.4009C42.2333 86.4702 45.6774 86.8736 49.0587 87.6054C52.4508 88.3247 55.7437 89.4504 58.8662 90.9582C61.9954 92.4708 64.8494 94.4964 67.3102 96.9509C68.5234 98.1885 69.6231 99.5325 70.5959 100.967C71.5471 102.409 72.3619 103.936 73.0297 105.529Z" fill="white"/>
<path d="M79.8657 91.2263C79.8359 91.9217 79.7813 92.6146 79.7241 93.3075C79.667 94.0004 79.5826 94.6908 79.4982 95.3813C79.3243 96.7621 79.0859 98.133 78.8251 99.5014C78.5643 100.87 78.2266 102.221 77.854 103.562C77.6653 104.23 77.4691 104.898 77.2605 105.549C77.0519 106.2 76.8259 106.87 76.585 107.536C76.7737 106.865 76.9674 106.2 77.1438 105.526C77.3201 104.853 77.5039 104.185 77.6703 103.512C78.0031 102.166 78.316 100.813 78.5817 99.4518C78.8475 98.0908 79.0958 96.7199 79.3094 95.3539C79.523 93.988 79.6993 92.6047 79.8657 91.2263Z" fill="white"/>
<path d="M58.4543 106.257C57.9998 104.178 57.6496 102.074 57.3839 99.9608C57.1182 97.8473 56.9567 95.719 56.8624 93.5906C56.768 91.4622 56.7829 89.3264 56.8797 87.198C56.9327 86.135 57.0039 85.0729 57.0933 84.0116C57.1927 82.9511 57.3044 81.8907 57.451 80.8376C57.3591 81.8981 57.2721 82.9586 57.2026 84.019C57.1331 85.0795 57.0859 86.1425 57.0585 87.2054C57.0014 89.3313 57.0014 91.4572 57.0958 93.5806C57.1902 95.7041 57.3442 97.825 57.5602 99.9385C57.7763 102.052 58.0991 104.158 58.4543 106.257Z" fill="white"/>
<path d="M34.1289 95.7786C35.7267 96.3569 37.2694 97.0776 38.7383 97.9318C40.2093 98.7915 41.6035 99.7761 42.9057 100.875C44.2007 101.98 45.3973 103.196 46.482 104.508C47.5637 105.82 48.5223 107.228 49.3455 108.715C48.891 108.003 48.4191 107.297 47.915 106.617C47.4108 105.936 46.8893 105.273 46.3379 104.63C45.2392 103.344 44.0373 102.151 42.7443 101.061C42.1035 100.512 41.4379 99.9931 40.7574 99.4964C40.077 98.9997 39.3642 98.5427 38.6464 98.0957C37.9287 97.6487 37.1861 97.2414 36.4336 96.8539C35.6811 96.4665 34.9063 96.1163 34.1289 95.7786Z" fill="white"/>
<path d="M30.5738 98.24C30.5229 98.7063 30.4324 99.1674 30.3031 99.6184C30.1728 100.07 30.0068 100.51 29.8064 100.935C29.5977 101.361 29.3482 101.766 29.0614 102.144C28.7782 102.524 28.4579 102.872 28.1474 103.217C27.5111 103.893 26.9583 104.644 26.5008 105.452C26.2706 105.854 26.0641 106.268 25.8824 106.694C25.6912 107.119 25.5323 107.556 25.3857 107.998C25.5867 107.08 25.9073 106.192 26.3394 105.358C26.7807 104.525 27.3283 103.752 27.9686 103.061C28.2865 102.718 28.6044 102.38 28.885 102.017C29.1631 101.651 29.4122 101.263 29.6301 100.858C30.0642 100.033 30.3818 99.152 30.5738 98.24Z" fill="white"/>
<path d="M27.0113 95.4136C27.0902 96.0993 27.0285 96.7939 26.83 97.455C26.7338 97.7884 26.6022 98.1106 26.4376 98.4162C26.3561 98.5692 26.2648 98.7168 26.1644 98.8582C26.0696 99.0042 25.965 99.1435 25.8515 99.2755C25.4045 99.8086 24.8546 100.246 24.2347 100.562C23.9269 100.717 23.6071 100.847 23.2786 100.952C22.9546 101.051 22.622 101.119 22.2852 101.156C22.9398 100.99 23.5683 100.734 24.1528 100.396C24.7282 100.058 25.2421 99.6258 25.6727 99.1165C26.1027 98.6059 26.4391 98.0232 26.6661 97.3954C26.7775 97.0798 26.8606 96.7548 26.9145 96.4244C26.9731 96.0905 27.0055 95.7525 27.0113 95.4136Z" fill="white"/>
<path d="M15.1766 83.4803C15.8403 83.5339 16.5081 83.5013 17.1634 83.3834C17.8131 83.2696 18.4302 83.0154 18.9714 82.6383C19.2384 82.4236 19.5293 82.2403 19.8382 82.092C20.0071 82.0188 20.191 81.9873 20.3746 82.0001C20.5575 82.0169 20.735 82.0709 20.8962 82.159C21.2119 82.3293 21.4709 82.5883 21.6412 82.9041C21.7386 83.0714 21.7795 83.2656 21.7579 83.4579C21.7228 83.6492 21.626 83.8236 21.4823 83.9546C21.2218 84.1877 20.9237 84.3749 20.6006 84.5084C20.4466 84.578 20.2852 84.6351 20.1287 84.6997L19.6494 84.8636C19.0037 85.0598 18.3505 85.2212 17.6924 85.3603C16.3761 85.6211 15.0499 85.8098 13.7188 85.9464C14.3769 85.8222 15.0375 85.7129 15.6932 85.5813C16.3488 85.4497 17.002 85.333 17.6527 85.174C18.3034 85.0151 18.9491 84.8611 19.5799 84.655L20.0468 84.4911C20.1983 84.4265 20.3547 84.3694 20.5013 84.2998C20.7942 84.1705 21.0636 83.9934 21.2985 83.7758C21.411 83.6857 21.4859 83.557 21.5089 83.4148C21.5318 83.2725 21.5011 83.1268 21.4227 83.0059C21.2787 82.7275 21.0558 82.4977 20.7819 82.3453C20.6519 82.2669 20.5054 82.22 20.354 82.2084C20.2026 82.1968 20.0507 82.2207 19.9102 82.2782C19.6171 82.4188 19.337 82.585 19.0732 82.7749C18.5025 83.1492 17.8564 83.3934 17.1808 83.4902C16.5155 83.5806 15.8409 83.5773 15.1766 83.4803Z" fill="white"/>
<path d="M33.3047 63.314C33.9217 62.6157 34.6532 62.0278 35.4678 61.5755C36.2771 61.1269 37.1548 60.8147 38.0656 60.6516C37.1702 60.8506 36.3135 61.1955 35.5299 61.6723C34.7538 62.1496 34.0651 62.756 33.4934 63.4655L33.3047 63.314Z" fill="white"/>
<path d="M33.1826 66.3936L36.4509 63.7561L33.344 66.5824L33.1826 66.3936Z" fill="white"/>
<path d="M38.0449 44.3945C37.1904 44.4244 36.3414 44.5434 35.5117 44.7496C34.6853 44.9688 33.885 45.2769 33.125 45.6685C33.8075 45.1165 34.6027 44.7206 35.4546 44.5087C36.3001 44.2871 37.1831 44.2481 38.0449 44.3945Z" fill="white"/>
<path d="M48.3073 66.1649C47.5524 66.855 46.6332 67.3398 45.6375 67.5731C44.6555 67.801 43.6328 67.7874 42.6572 67.5334C43.6328 67.7444 44.6449 67.7172 45.6077 67.4539C46.5598 67.1874 47.4277 66.6812 48.1284 65.9836L48.3073 66.1649Z" fill="white"/>
<path d="M49.3318 64.6526C49.5615 65.0514 49.8523 65.4118 50.1936 65.7205C50.5345 66.0325 50.9195 66.2928 51.336 66.4929C52.1862 66.8906 53.1145 67.0934 54.053 67.0864C53.1066 67.1352 52.1612 66.9714 51.2864 66.6071C50.847 66.4186 50.4371 66.1677 50.0694 65.8621C49.6971 65.5514 49.3746 65.1853 49.1133 64.7768L49.3318 64.6526Z" fill="white"/>
<path d="M62.3647 63.7039C61.9617 64.1557 61.4651 64.5142 60.9094 64.7544C60.3613 64.991 59.7675 65.103 59.1709 65.0822C59.7575 65.0605 60.3323 64.9104 60.8547 64.6426C61.368 64.3756 61.8177 64.0012 62.1735 63.5449L62.3647 63.7039Z" fill="white"/>
<path d="M54.2645 42.1172C53.7332 42.0335 53.1952 42.0002 52.6576 42.0178C52.1274 42.0391 51.6014 42.1224 51.0905 42.2662C50.5806 42.4125 50.0902 42.6202 49.6302 42.8846C49.1677 43.1581 48.7363 43.4812 48.3438 43.8482C48.5068 43.6297 48.6879 43.4254 48.8852 43.2372C49.0872 43.0509 49.3021 42.8792 49.5284 42.7232C49.9853 42.4142 50.4882 42.1795 51.0185 42.0278C51.5498 41.8781 52.1009 41.8103 52.6527 41.8266C52.9264 41.8375 53.1993 41.8649 53.4698 41.9086C53.7394 41.9588 54.0049 42.0285 54.2645 42.1172Z" fill="white"/>
<path d="M37.2247 28.8152C36.4129 29.0098 35.6194 29.274 34.853 29.6049C34.0917 29.9462 33.3613 30.3525 32.6699 30.8194C33.2623 30.208 33.9707 29.7208 34.7536 29.3864C35.5314 29.0345 36.3714 28.8404 37.2247 28.8152Z" fill="white"/>
<path d="M41.7812 28.9047C42.4934 28.8489 43.2093 28.9437 43.8823 29.1829C44.5597 29.4112 45.1798 29.7831 45.7003 30.2731C45.0908 29.9374 44.4554 29.6509 43.8004 29.4163C43.1418 29.1929 42.4667 29.0218 41.7812 28.9047Z" fill="white"/>
<path d="M52.0771 25.2613C52.3493 25.099 52.6323 24.9554 52.924 24.8317C53.2207 24.7118 53.5242 24.6098 53.833 24.5262C54.451 24.3605 55.0881 24.277 55.7279 24.2778C56.3669 24.2771 57.0032 24.3606 57.6204 24.5262C57.927 24.6107 58.2288 24.7119 58.5244 24.8292C58.8164 24.9522 59.1001 25.0941 59.3738 25.2539C58.7849 25.0244 58.1776 24.8458 57.5583 24.7199C56.9504 24.5937 56.3314 24.5288 55.7106 24.5262C55.0892 24.5253 54.4694 24.5869 53.8603 24.71C53.2505 24.8394 52.6536 25.0239 52.0771 25.2613Z" fill="white"/>
<path d="M66.8369 29.2698C67.3571 29.4841 67.8958 29.6504 68.4463 29.7665C68.9903 29.8764 69.547 29.9099 70.1003 29.8658C70.3784 29.846 70.664 29.8162 70.9496 29.8087C71.2352 29.8013 71.5209 29.8087 71.804 29.8261C72.0871 29.8435 72.3727 29.8758 72.6534 29.918C72.934 29.9602 73.2146 30.0198 73.4878 30.0968C73.2047 30.0744 72.924 30.0471 72.6409 30.0397C72.3578 30.0322 72.0797 30.0124 71.799 30.0173C71.2373 30.0213 70.6761 30.0536 70.1177 30.1142C69.5414 30.1589 68.9618 30.1043 68.404 29.9527C68.1274 29.8771 67.8562 29.7834 67.5919 29.6721C67.3318 29.5544 67.0796 29.4201 66.8369 29.2698Z" fill="white"/>
<path d="M66.748 49.0411C66.9651 48.7633 67.2153 48.5131 67.4931 48.2961C67.7767 48.0808 68.0962 47.9177 68.4368 47.8143C68.7855 47.7147 69.1517 47.6926 69.5097 47.7497C69.8583 47.8151 70.1983 47.9201 70.523 48.0626C71.1405 48.357 71.7908 48.5771 72.4602 48.7183C73.138 48.8221 73.8287 48.8078 74.5016 48.676C74.1724 48.7895 73.8318 48.8669 73.4859 48.907C73.1357 48.9405 72.7831 48.9405 72.4328 48.907C72.0832 48.8652 71.7386 48.7878 71.4047 48.676C71.0694 48.5668 70.749 48.4277 70.4311 48.2985C70.1235 48.1613 69.8021 48.0572 69.4725 47.9881C69.1434 47.9283 68.8058 47.9342 68.4791 48.0055C68.151 48.083 67.8392 48.2175 67.5577 48.4029C67.2664 48.587 66.9951 48.8009 66.748 49.0411Z" fill="white"/>
<path d="M86.6162 49.4039C87.2005 49.5797 87.8 49.7003 88.4068 49.764C89.0078 49.8286 89.6139 49.8286 90.2148 49.764C90.8152 49.694 91.4063 49.5599 91.9782 49.3641C92.5527 49.1606 93.1065 48.9028 93.6322 48.5942C93.3968 48.7896 93.1478 48.9681 92.8871 49.1282C92.6182 49.2827 92.3404 49.4212 92.0551 49.5429C91.4719 49.7799 90.8583 49.9337 90.2322 49.9999C89.613 50.0712 88.9869 50.0553 88.3721 49.9527C88.0669 49.9009 87.7651 49.8312 87.4681 49.7441C87.1766 49.6506 86.8919 49.5369 86.6162 49.4039Z" fill="white"/>
<path d="M93.9871 59.2434C93.6698 59.7905 93.2108 60.2418 92.6584 60.5497C92.1016 60.8602 91.4799 61.0363 90.843 61.0638C90.2128 61.0937 89.5818 61.025 88.9728 60.8602C88.3645 60.7036 87.7798 60.4664 87.2344 60.1549C87.5249 60.2641 87.8155 60.3684 88.1136 60.4504C88.4068 60.5398 88.7044 60.6144 89.0051 60.6739C89.6012 60.7963 90.2102 60.8439 90.8181 60.8155C91.4205 60.7883 92.0115 60.6414 92.5566 60.3833C92.6882 60.3088 92.8223 60.2418 92.954 60.1648C93.0817 60.0818 93.2044 59.9914 93.3215 59.8941C93.5653 59.7008 93.7884 59.4828 93.9871 59.2434Z" fill="white"/>
<path d="M93.7147 73.5487C93.0282 73.1086 92.2726 72.7871 91.4795 72.5975C90.686 72.4207 89.8692 72.3729 89.0605 72.4559C89.456 72.3239 89.8683 72.2495 90.2849 72.2349C90.7024 72.2215 91.1198 72.2624 91.5267 72.3566C92.3546 72.5376 93.1136 72.9512 93.7147 73.5487Z" fill="white"/>
<path d="M77.1311 65.6211C76.8626 65.7616 76.5836 65.8812 76.2967 65.9788C76.0066 66.0747 75.7103 66.151 75.41 66.2072C74.8075 66.3202 74.1918 66.3453 73.5822 66.2818C72.9727 66.2212 72.3744 66.0775 71.8039 65.8546C71.2352 65.6375 70.6981 65.3452 70.207 64.9854C70.4777 65.1195 70.7484 65.2536 71.0266 65.3628C71.3002 65.4825 71.5805 65.5861 71.866 65.6733C72.4317 65.853 73.0142 65.9745 73.6045 66.0359C74.1952 66.0955 74.7906 66.0905 75.3802 66.021C75.9754 65.9443 76.5617 65.8104 77.1311 65.6211Z" fill="white"/>
</svg>
