<svg width="233" height="286" viewBox="0 0 233 286" fill="none" xmlns="http://www.w3.org/2000/svg">
<path d="M38.3259 262.314C36.7757 258.458 34.9429 254.722 32.8423 251.137C30.7747 247.525 28.3811 244.111 25.6913 240.935C24.3451 239.361 22.8569 237.909 21.4798 236.347C20.794 235.563 20.1568 234.738 19.5717 233.877C19.0009 233.007 18.4793 232.106 18.0093 231.178C17.0644 229.324 16.2794 227.392 15.6627 225.404C15.0574 223.415 14.5687 221.393 14.1992 219.347C13.4582 215.252 12.995 211.121 12.4886 206.996C12.2478 204.934 12.044 202.859 12.0008 200.778C11.9083 198.702 11.6502 196.637 11.2289 194.602C10.4272 190.532 9.20414 186.557 7.57934 182.74C6.77655 180.825 5.89349 178.948 4.98572 177.083C4.07796 175.218 3.13315 173.378 2.31801 171.445C1.89672 170.486 1.54585 169.497 1.26821 168.487C0.977242 167.471 0.866494 166.411 0.940945 165.356C1.03873 164.292 1.39253 163.266 1.9722 162.368C2.56711 161.483 3.34398 160.736 4.25087 160.175C5.14758 159.626 6.0997 159.173 7.09147 158.823C7.56696 158.625 8.07952 158.477 8.57354 158.31C9.06756 158.144 9.58628 158.033 10.1112 157.952C12.1804 157.588 14.2974 157.588 16.3667 157.952C20.4884 158.725 24.4117 160.321 27.9021 162.645C31.412 164.912 34.6057 167.634 37.3996 170.741C40.2321 173.823 42.5939 177.306 44.4085 181.079C45.1511 183.031 45.786 185.022 46.3105 187.044C46.8909 189.032 47.5085 191.01 48.163 192.978C50.7711 200.853 53.8816 208.553 57.4753 216.03C59.2626 219.768 61.2583 223.403 63.453 226.917C64.5479 228.664 65.7567 230.337 67.0716 231.926C67.7272 232.71 68.4437 233.441 69.2145 234.112C69.9223 234.791 70.8019 235.265 71.7587 235.482C72.6541 235.662 73.5186 235.013 74.2782 234.383C75.0417 233.74 75.6712 232.954 76.1307 232.068C76.5833 231.172 76.8937 230.212 77.0509 229.221C77.1958 228.208 77.2659 227.187 77.2608 226.164C77.3287 222.027 77.0756 217.883 76.8594 213.733C76.6433 209.583 76.4024 205.44 76.3283 201.272C76.3283 199.191 76.2913 197.109 76.3901 195.022C76.4573 192.934 76.6449 190.852 76.952 188.785C77.267 186.71 77.7548 184.673 78.2427 182.659C78.4835 181.653 78.712 180.64 78.922 179.627L79.2369 178.108L79.5148 176.583C80.2177 172.498 80.6673 168.373 80.861 164.232C81.0956 160.101 81.1265 155.951 81.108 151.802C81.108 149.727 81.071 147.652 81.0216 145.577C80.9722 143.502 80.9289 141.427 80.8672 139.352C80.6202 131.053 80.2496 122.759 79.8977 114.46L79.3234 102.011C79.1505 97.8671 78.8664 93.7173 78.8725 89.5428C78.8417 81.2063 79.4901 72.9129 79.6383 64.6257C79.6754 62.557 79.6877 60.4821 79.6383 58.4134C79.5889 56.3447 79.4901 54.2698 79.4901 52.1764C79.4901 48.0081 79.8606 43.741 81.3426 39.7456C82.8138 35.7539 85.1945 32.1596 88.296 29.2477C89.8291 27.7394 91.647 26.5513 93.6438 25.7525C95.7097 24.9258 98.0109 24.906 100.091 25.697C102.081 26.5637 103.829 27.9059 105.179 29.6059C106.595 31.2076 107.738 33.0309 108.563 35.0031C110.193 38.9737 110.552 43.2285 110.842 47.3535C111.132 51.4786 111.206 55.6654 111.422 59.809C111.533 61.8777 111.632 63.9464 111.892 65.9843C112.151 68.0221 112.336 70.1526 112.46 72.2213C112.701 76.3772 112.861 80.527 113.077 84.6767L113.614 97.126C113.96 105.426 114.318 113.725 114.528 122.037C114.621 126.193 114.701 130.355 114.59 134.523C114.59 135.567 114.516 136.611 114.46 137.654C114.405 138.698 114.288 139.748 114.226 140.742C114.119 142.8 114.146 144.863 114.306 146.917C114.464 148.966 114.748 151.004 115.158 153.018C115.554 155.033 116.076 157.021 116.721 158.971C117.03 159.929 117.416 160.861 117.875 161.756C118.079 162.164 118.343 162.539 118.66 162.868C118.748 162.962 118.862 163.029 118.987 163.059C119.091 163.036 119.184 162.98 119.252 162.899C119.537 162.554 119.76 162.163 119.913 161.744C120.099 161.287 120.253 160.811 120.395 160.33C120.667 159.354 120.883 158.347 121.068 157.341C122.527 149.238 122.814 140.967 121.92 132.782C121.463 128.682 120.685 124.612 119.913 120.53C119.141 116.448 118.388 112.348 117.888 108.18C117.39 104.034 117.138 99.8626 117.134 95.6872C117.134 93.6 117.134 91.5127 117.289 89.4193C117.443 87.3259 117.74 85.2387 117.943 83.2009C118.345 79.1005 118.499 74.9446 118.598 70.8133C118.697 66.6821 118.598 62.5323 118.394 58.4011C118.19 54.2698 117.863 50.0954 117.925 45.9147C117.985 41.7473 118.261 37.5858 118.752 33.4469C119.227 29.2822 120.054 25.1651 121.222 21.1396C122.382 17.0817 124.143 13.2204 126.447 9.68454C127.6 7.91965 128.915 6.2658 130.374 4.74434C131.838 3.11852 133.685 1.88329 135.747 1.15035C136.283 0.985367 136.836 0.87773 137.395 0.829237C137.675 0.807572 137.956 0.807572 138.235 0.829237C138.513 0.829237 138.791 0.829239 139.069 0.860115C140.168 0.992763 141.239 1.29699 142.243 1.7617C144.177 2.72409 145.911 4.04657 147.35 5.65828C148.075 6.43748 148.75 7.26256 149.369 8.12838C150.019 8.98837 150.582 9.91098 151.049 10.8825C151.862 12.857 152.394 14.9356 152.63 17.0578C152.92 19.145 153.074 21.2323 153.173 23.3195C153.229 24.3631 153.272 25.4005 153.297 26.4442C153.321 27.4878 153.346 28.5252 153.352 29.5688C153.389 33.7371 153.352 37.8931 153.198 42.0552C153.043 46.2173 152.796 50.3362 152.667 54.4427C152.537 58.5493 152.667 62.7114 152.71 66.8735C152.753 71.0356 152.871 75.1854 152.84 79.3413V85.5969C152.84 87.6779 152.778 89.7528 152.747 91.8277L152.531 104.289L152.105 129.206L151.889 141.662L151.778 147.893C151.682 149.926 151.812 151.964 152.167 153.969C152.34 154.917 152.69 155.824 153.198 156.643C153.434 157.013 153.75 157.327 154.121 157.562C154.492 157.796 154.911 157.947 155.347 158.002C156.219 158.131 157.108 157.909 157.817 157.384C158.514 156.78 159.008 155.976 159.231 155.081C159.5 154.125 159.648 153.14 159.669 152.148C159.708 151.132 159.686 150.116 159.602 149.103C159.46 147.065 159.095 145.034 158.848 142.928C157.817 134.634 157.817 126.255 157.842 117.974C157.842 113.824 157.842 109.674 157.768 105.531C157.712 103.462 157.632 101.393 157.508 99.3553C157.385 97.3175 157.206 95.2241 157.033 93.1492C156.415 84.8744 155.656 76.581 155.477 68.2506C155.396 59.9264 155.359 51.6145 155.983 43.2902C156.268 39.114 156.887 34.9674 157.835 30.8903C158.33 28.8339 159.016 26.8285 159.886 24.9004C160.345 23.9325 160.889 23.0068 161.51 22.1338C161.821 21.6915 162.159 21.2687 162.522 20.8679C162.903 20.4647 163.316 20.0929 163.757 19.7564C164.186 19.4099 164.642 19.1 165.122 18.8301C165.617 18.5877 166.129 18.3813 166.654 18.2126C167.701 17.8871 168.793 17.7308 169.89 17.7494C172.047 17.7915 174.173 18.2727 176.139 19.1635C178.087 20.0784 179.839 21.3642 181.295 22.949C182.734 24.5164 183.978 26.2519 185 28.1177C186.009 29.9639 186.886 31.8788 187.625 33.8483C188.032 34.8178 188.316 35.8305 188.65 36.8309C188.81 37.3311 188.922 37.8437 189.057 38.3562C189.193 38.8688 189.335 39.369 189.428 39.8877C189.858 41.9467 190.147 44.0326 190.293 46.1309C190.418 48.2219 190.439 50.318 190.354 52.4111C190.212 56.5917 189.737 60.7291 189.379 64.8604C189.02 68.9916 188.662 73.1229 188.718 77.2417C188.773 81.3606 189.49 85.4487 189.86 89.5922C190.231 93.7358 190.527 97.8918 190.725 102.048C191.108 110.36 191.268 118.671 191.281 126.983C191.293 135.295 191.169 143.607 191.015 151.913C190.941 156.063 190.861 160.212 190.83 164.362C190.799 168.512 190.793 172.668 191.089 176.781C191.169 177.806 191.281 178.831 191.447 179.837C191.571 180.815 191.857 181.764 192.293 182.647C192.534 183.048 192.818 183.265 193.152 183.265C193.603 183.199 194.036 183.041 194.424 182.801C195.289 182.355 196.023 181.691 196.554 180.875C197.592 179.143 198.236 177.203 198.438 175.194C198.586 174.181 198.654 173.15 198.746 172.106L199.018 169.018C199.704 160.743 200.42 152.462 200.815 144.181C200.868 143.153 200.868 142.122 200.815 141.094L200.685 138.006C200.618 135.925 200.562 133.844 200.574 131.757C200.587 129.67 200.71 127.582 200.846 125.514C200.982 123.445 201.075 121.376 201.124 119.301C201.229 115.158 201.204 111.008 201.161 106.858C201.161 104.783 201.081 102.715 201.087 100.621C201.093 98.5278 201.192 96.4529 201.365 94.3719C201.529 92.2629 201.807 90.1644 202.198 88.0855C202.365 87.0542 202.631 86.0415 202.865 84.9979C203.1 83.9542 203.421 82.9786 203.816 82.0029C205.169 78.0569 207.935 74.3332 211.918 72.6659C213.904 71.8483 216.076 71.5878 218.198 71.9125C220.33 72.2531 222.286 73.2964 223.756 74.8766C225.186 76.4472 226.29 78.2859 227.004 80.2861C227.71 82.2595 228.251 84.2878 228.622 86.3502C229.394 90.4506 229.857 94.5942 230.24 98.7007C230.623 102.807 230.889 106.988 231.117 111.138C231.568 119.437 231.803 127.749 231.957 136.055C232.111 144.361 232.155 152.666 232.136 160.978L232.056 173.44C232.019 177.59 231.926 181.745 231.945 185.895C231.963 190.045 232.087 194.195 232.383 198.338C232.679 202.482 232.896 206.638 232.902 210.794C232.902 219.1 232.661 227.411 232.173 235.705C231.211 252.296 229.294 268.817 226.43 285.187C229.241 268.81 231.109 252.284 232.025 235.692C232.482 227.405 232.723 219.093 232.679 210.794C232.679 206.638 232.432 202.494 232.117 198.357C231.803 194.219 231.661 190.051 231.642 185.895C231.623 181.739 231.691 177.59 231.716 173.434L231.753 160.978C231.753 152.672 231.679 144.367 231.506 136.061C231.333 127.755 231.062 119.456 230.592 111.169C230.351 107.025 230.073 102.881 229.672 98.7563C229.271 94.6312 228.801 90.5 228.029 86.4058C227.659 84.3807 227.122 82.3897 226.424 80.4529C225.736 78.5286 224.674 76.7594 223.299 75.2471C221.916 73.7683 220.076 72.7963 218.075 72.4868C216.068 72.184 214.017 72.4315 212.141 73.2031C210.272 74.0128 208.63 75.2654 207.355 76.8527C206.062 78.4527 205.072 80.2755 204.434 82.2313C204.051 83.1885 203.816 84.1889 203.508 85.1708C203.199 86.1526 203.02 87.1715 202.89 88.1905C202.509 90.2323 202.243 92.294 202.093 94.3657C201.921 96.4221 201.834 98.4908 201.828 100.541C201.822 102.591 201.883 104.685 201.908 106.766C201.964 110.922 201.988 115.077 201.908 119.24C201.865 121.314 201.766 123.402 201.643 125.477C201.519 127.551 201.389 129.608 201.383 131.652C201.377 133.696 201.427 135.789 201.507 137.864L201.643 140.952C201.711 141.995 201.643 143.058 201.643 144.089C201.254 152.407 200.556 160.682 199.877 168.963L199.617 172.05C199.525 173.082 199.457 174.119 199.308 175.138C199.093 177.277 198.406 179.342 197.295 181.184C196.682 182.168 195.816 182.97 194.788 183.505C194.287 183.807 193.727 183.999 193.146 184.067C192.788 184.075 192.437 183.962 192.151 183.746C191.902 183.553 191.693 183.314 191.534 183.042C191.04 182.074 190.713 181.031 190.564 179.955C190.391 178.911 190.28 177.867 190.2 176.824C189.885 172.649 189.897 168.493 189.91 164.331C189.922 160.169 190.008 156.026 190.076 151.87C190.218 143.564 190.336 135.264 190.305 126.959C190.274 118.653 190.101 110.36 189.687 102.072C189.484 97.9288 189.212 93.7914 188.798 89.6725C188.384 85.5536 187.699 81.4409 187.637 77.2294C187.538 68.8372 188.94 60.5933 189.255 52.3432C189.348 50.2806 189.298 48.2243 189.187 46.1679C189.045 44.1213 188.762 42.087 188.341 40.0791C188.255 39.5727 188.106 39.0849 187.983 38.5847C187.859 38.0845 187.742 37.5905 187.582 37.1026C187.254 36.1331 186.964 35.1389 186.581 34.2003C185.861 32.2768 185.005 30.4072 184.018 28.6055C183.045 26.8236 181.861 25.165 180.492 23.6653C179.131 22.1827 177.492 20.9807 175.67 20.1269C173.841 19.2999 171.865 18.8505 169.859 18.8054C167.884 18.7345 165.949 19.3743 164.406 20.6086C164.022 20.9154 163.659 21.2475 163.319 21.6028C163.01 21.9918 162.664 22.35 162.393 22.7699C161.813 23.5935 161.305 24.4654 160.874 25.3758C160.035 27.2363 159.374 29.1715 158.898 31.1559C157.985 35.1598 157.39 39.2296 157.119 43.3273C156.502 51.5712 156.545 59.8893 156.631 68.1765C156.718 76.4637 157.539 84.7323 158.2 93.0133C158.367 95.082 158.539 97.1507 158.675 99.2318C158.811 101.313 158.885 103.4 158.941 105.481C159.046 109.643 159.027 113.799 159.021 117.955C159.021 126.255 159.021 134.56 160.034 142.761C160.275 144.805 160.651 146.868 160.8 148.973C160.887 150.031 160.91 151.093 160.867 152.154C160.841 153.24 160.679 154.319 160.386 155.365C160.097 156.496 159.462 157.508 158.57 158.261C158.097 158.624 157.556 158.889 156.98 159.041C156.403 159.193 155.801 159.228 155.211 159.144C154.613 159.065 154.04 158.858 153.528 158.539C153.017 158.219 152.58 157.794 152.247 157.291C151.645 156.349 151.226 155.301 151.012 154.204C150.636 152.116 150.497 149.993 150.598 147.874L150.703 141.643L150.907 129.188L151.327 104.271L151.537 91.8092C151.537 89.7343 151.617 87.6594 151.623 85.5845V79.366C151.623 75.2101 151.561 71.0665 151.481 66.9167C151.401 62.767 151.29 58.5987 151.432 54.4304C151.574 50.2621 151.827 46.1247 151.938 41.9811C152.049 37.8375 152.123 33.6877 152.086 29.5441C152.086 28.5129 152.086 27.4754 152.031 26.4565C151.975 25.4376 151.969 24.3878 151.913 23.3689C151.815 21.3064 151.66 19.2438 151.382 17.1936C151.167 15.1848 150.67 13.2163 149.906 11.3457C149.471 10.4454 148.95 9.58929 148.35 8.78913C147.757 7.96803 147.115 7.18243 146.43 6.43636C145.096 4.942 143.491 3.71408 141.7 2.81767C140.82 2.40497 139.879 2.13602 138.915 2.02106C138.674 2.00875 138.433 2.00875 138.192 2.02106C137.954 2.00254 137.714 2.00254 137.476 2.02106C136.998 2.06412 136.526 2.15726 136.068 2.29894C134.203 2.97581 132.534 4.10208 131.208 5.578C129.8 7.05191 128.532 8.65415 127.422 10.3638C125.182 13.7939 123.469 17.5408 122.34 21.4793C121.195 25.4383 120.387 29.4873 119.926 33.5828C119.436 37.6824 119.162 41.8049 119.104 45.9332C119.043 50.0583 119.345 54.1834 119.567 58.3455C119.79 62.5076 119.858 66.6759 119.765 70.8442C119.672 75.0125 119.506 79.1622 119.098 83.3305C118.882 85.424 118.542 87.4494 118.437 89.5058C118.332 91.5621 118.308 93.6309 118.289 95.681C118.284 99.8089 118.53 103.933 119.024 108.032C119.518 112.138 120.259 116.208 121.031 120.289C121.803 124.371 122.581 128.465 123.044 132.64C123.532 136.797 123.68 140.988 123.489 145.169C123.309 149.346 122.859 153.506 122.143 157.625C121.951 158.656 121.729 159.687 121.439 160.713C121.296 161.235 121.123 161.748 120.92 162.25C120.714 162.805 120.408 163.318 120.018 163.763C119.88 163.916 119.711 164.039 119.523 164.124C119.335 164.209 119.132 164.254 118.925 164.257C118.531 164.225 118.162 164.054 117.882 163.775C117.466 163.366 117.122 162.89 116.863 162.368C116.369 161.418 115.956 160.428 115.628 159.41C114.969 157.413 114.437 155.378 114.034 153.315C113.62 151.253 113.335 149.168 113.182 147.071C113.019 144.976 112.994 142.872 113.108 140.773C113.17 139.711 113.281 138.685 113.343 137.685C113.405 136.685 113.448 135.629 113.472 134.597C113.584 130.46 113.472 126.31 113.411 122.167C113.207 113.867 112.861 105.568 112.515 97.2681L111.984 84.8188C111.799 80.669 111.638 76.5192 111.398 72.3818C111.274 70.3069 111.144 68.2629 110.848 66.2066C110.552 64.1502 110.484 62.0321 110.366 59.9511C110.156 55.8013 110.051 51.6392 109.798 47.5141C109.545 43.389 109.181 39.2393 107.6 35.4785C106.826 33.6061 105.745 31.8759 104.401 30.3593C103.165 28.7827 101.56 27.5355 99.7264 26.7282C97.8798 26.0246 95.836 26.0423 94.0019 26.7776C92.132 27.5257 90.4296 28.6382 88.9938 30.0505C86.0003 32.8508 83.6999 36.3097 82.2751 40.1532C80.8671 43.988 80.4719 48.1316 80.4905 52.2444C80.4905 54.3069 80.5954 56.3756 80.6201 58.4628C80.6449 60.5501 80.6201 62.6311 80.6201 64.7122C80.4596 73.0364 79.7988 81.3236 79.8174 89.6108C79.8174 93.7482 80.0706 97.8856 80.2435 102.042L80.7931 114.491C81.1451 122.79 81.4908 131.09 81.7255 139.402C81.7811 141.477 81.8367 143.552 81.8676 145.633C81.8984 147.714 81.9355 149.789 81.9417 151.863C81.9417 156.026 81.9417 160.188 81.6761 164.344C81.4713 168.51 81.0094 172.659 80.2929 176.768L80.015 178.306L79.6939 179.837C79.4839 180.856 79.2492 181.875 79.0022 182.882C78.5144 184.901 78.0265 186.908 77.7116 188.946C77.409 190.992 77.2214 193.054 77.1497 195.121C77.0508 197.19 77.057 199.258 77.0756 201.333C77.1435 205.477 77.3658 209.621 77.5881 213.764C77.8104 217.908 78.0451 222.07 77.9648 226.244C77.9648 228.307 77.7795 230.524 76.7297 232.42C76.2269 233.379 75.5408 234.231 74.7104 234.927C74.3017 235.286 73.8543 235.599 73.3766 235.859C73.1196 235.994 72.8453 236.094 72.5615 236.156C72.2692 236.205 71.9707 236.205 71.6784 236.156C70.5977 235.924 69.6019 235.398 68.8007 234.636C68.007 233.939 67.268 233.181 66.59 232.37C65.2554 230.759 64.0319 229.059 62.928 227.282C60.7279 223.746 58.7301 220.089 56.9443 216.327C53.3618 208.817 50.2677 201.084 47.6814 193.176C47.0268 191.2 46.4093 189.213 45.8288 187.217C45.3204 185.214 44.7019 183.241 43.9762 181.307C42.1899 177.577 39.8659 174.13 37.0785 171.075C34.3217 167.992 31.1649 165.292 27.6921 163.047C24.2562 160.738 20.3893 159.148 16.3235 158.372C14.2952 158.014 12.2198 158.014 10.1915 158.372C9.68508 158.446 9.19107 158.594 8.69087 158.712C8.19068 158.829 7.71519 159.021 7.23352 159.212C6.26232 159.553 5.329 159.994 4.44848 160.527C3.5794 161.057 2.83564 161.769 2.2686 162.615C1.71078 163.464 1.36945 164.437 1.27439 165.449C1.20039 166.47 1.30701 167.497 1.58934 168.481C1.85882 169.477 2.20143 170.451 2.61441 171.396C3.41719 173.298 4.35585 175.156 5.25744 177.028C6.15902 178.899 7.04208 180.782 7.83869 182.703C9.45091 186.54 10.6595 190.534 11.445 194.621C11.8667 196.655 12.1207 198.72 12.2046 200.796C12.2416 202.871 12.4392 204.934 12.6801 206.971C13.1679 211.096 13.6187 215.228 14.3474 219.322C14.7056 221.366 15.1861 223.387 15.7862 225.374C16.3977 227.357 17.1765 229.284 18.1143 231.135C18.578 232.061 19.0934 232.96 19.6581 233.827C20.2387 234.687 20.8697 235.512 21.5477 236.298C22.9186 237.86 24.4069 239.317 25.7469 240.898C28.427 244.078 30.8123 247.494 32.8731 251.106C34.9656 254.702 36.7882 258.448 38.3259 262.314Z" fill="#636BFB"/>
<path d="M119.08 188.909C123.822 196.937 130.016 204.131 137.605 209.509C139.486 210.863 141.485 212.045 143.577 213.042C145.67 214.042 147.832 214.894 149.981 215.808C154.291 217.591 158.56 219.474 162.788 221.458C167.016 223.443 171.188 225.528 175.305 227.714C179.449 229.857 183.438 232.302 187.81 233.889C192.199 235.429 196.729 236.531 201.334 237.181C205.946 237.848 210.609 238.094 215.265 237.915C210.606 238.197 205.93 238.053 201.297 237.483C196.656 236.885 192.085 235.833 187.65 234.34C185.44 233.558 183.294 232.611 181.227 231.506L175.052 228.239C170.935 226.086 166.761 224.027 162.529 222.064C158.323 220.063 154.069 218.179 149.771 216.376C147.622 215.468 145.448 214.592 143.348 213.573C141.234 212.554 139.22 211.338 137.334 209.942C133.552 207.182 130.104 203.993 127.058 200.438C124.031 196.862 121.359 193.001 119.08 188.909Z" fill="#636BFB"/>
<path d="M163.393 209.571C164.964 214.62 166.257 219.751 167.265 224.941C168.272 230.138 169.007 235.384 169.47 240.657C169.7 243.292 169.857 245.933 169.939 248.58C170.038 251.223 170.069 253.866 170.007 256.515C169.945 259.164 169.828 261.801 169.637 264.438C169.445 267.075 169.173 269.706 168.821 272.324C169.038 269.687 169.229 267.056 169.34 264.42C169.451 261.783 169.532 259.146 169.532 256.509C169.532 251.235 169.346 245.956 168.858 240.707C168.371 235.458 167.71 230.209 166.796 225.028C166.351 222.428 165.814 219.847 165.24 217.272C164.665 214.696 164.054 212.128 163.393 209.571Z" fill="#636BFB"/>
<path d="M180.153 261.678C176.629 253.842 171.688 246.724 165.579 240.682C159.454 234.678 152.386 229.717 144.657 225.997C136.944 222.251 128.817 219.424 120.444 217.574C116.27 216.607 112.052 215.845 107.791 215.29C103.543 214.703 99.2632 214.32 94.9775 214.116C103.578 214.289 112.142 215.292 120.549 217.111C128.983 218.9 137.171 221.699 144.935 225.448C152.716 229.209 159.813 234.245 165.931 240.349C168.948 243.426 171.682 246.768 174.101 250.334C176.466 253.919 178.492 257.717 180.153 261.678Z" fill="#636BFB"/>
<path d="M197.147 226.115C197.073 227.844 196.937 229.566 196.795 231.289C196.653 233.012 196.443 234.729 196.233 236.446C195.801 239.879 195.208 243.288 194.56 246.69C193.911 250.093 193.071 253.452 192.145 256.787C191.676 258.448 191.188 260.109 190.669 261.727C190.15 263.345 189.589 265.012 188.99 266.667C189.459 265 189.94 263.345 190.379 261.672C190.817 259.998 191.274 258.337 191.688 256.663C192.516 253.316 193.294 249.951 193.954 246.567C194.615 243.183 195.233 239.774 195.764 236.378C196.295 232.981 196.733 229.542 197.147 226.115Z" fill="#636BFB"/>
<path d="M143.91 263.487C142.78 258.318 141.909 253.088 141.249 247.833C140.588 242.578 140.187 237.286 139.952 231.993C139.717 226.701 139.754 221.39 139.995 216.098C140.127 213.455 140.304 210.814 140.526 208.175C140.773 205.539 141.051 202.902 141.415 200.283C141.187 202.92 140.971 205.557 140.798 208.194C140.625 210.831 140.508 213.474 140.44 216.117C140.298 221.403 140.298 226.689 140.532 231.969C140.767 237.248 141.15 242.522 141.687 247.777C142.224 253.032 143.027 258.269 143.91 263.487Z" fill="#636BFB"/>
<path d="M83.4238 237.434C87.3967 238.872 91.2326 240.664 94.8851 242.788C98.5425 244.925 102.009 247.374 105.247 250.105C108.467 252.854 111.442 255.877 114.14 259.14C116.829 262.401 119.213 265.902 121.26 269.601C120.13 267.828 118.956 266.075 117.703 264.383C116.449 262.691 115.152 261.042 113.781 259.442C111.049 256.246 108.061 253.278 104.846 250.569C103.253 249.204 101.598 247.913 99.9056 246.678C98.2135 245.443 96.4413 244.307 94.6566 243.195C92.872 242.084 91.0256 241.071 89.1545 240.108C87.2834 239.144 85.3567 238.274 83.4238 237.434Z" fill="#636BFB"/>
<path d="M74.5868 243.553C74.4603 244.713 74.2352 245.86 73.9137 246.981C73.5898 248.103 73.1768 249.197 72.6787 250.254C72.1598 251.314 71.5394 252.321 70.8261 253.261C70.1221 254.206 69.3255 255.07 68.5536 255.929C66.9714 257.611 65.5969 259.477 64.4594 261.486C63.887 262.485 63.3736 263.516 62.9218 264.574C62.4463 265.63 62.0511 266.717 61.6868 267.816C62.1865 265.534 62.9837 263.327 64.058 261.252C65.1553 259.18 66.517 257.26 68.109 255.54C68.8994 254.687 69.6899 253.848 70.3877 252.946C71.079 252.034 71.6984 251.07 72.2402 250.062C73.3196 248.012 74.1093 245.821 74.5868 243.553Z" fill="#636BFB"/>
<path d="M65.7256 236.526C65.9217 238.231 65.7683 239.958 65.2749 241.602C65.0355 242.431 64.7084 243.232 64.2992 243.992C64.0964 244.372 63.8695 244.74 63.6199 245.091C63.384 245.454 63.1241 245.801 62.8418 246.129C61.7304 247.454 60.3631 248.542 58.8217 249.327C58.0562 249.713 57.2612 250.037 56.4442 250.297C55.6387 250.543 54.8116 250.713 53.9741 250.803C55.6019 250.391 57.1648 249.755 58.6179 248.914C60.0486 248.075 61.3265 247 62.3972 245.733C63.4665 244.464 64.3027 243.015 64.8673 241.454C65.1443 240.669 65.351 239.861 65.4848 239.039C65.6306 238.209 65.7112 237.369 65.7256 236.526Z" fill="#636BFB"/>
<path d="M36.3004 206.854C37.9506 206.987 39.6112 206.906 41.2406 206.613C42.8561 206.33 44.3904 205.698 45.7362 204.761C46.4001 204.227 47.1233 203.771 47.8914 203.402C48.3113 203.22 48.7687 203.142 49.2252 203.174C49.68 203.215 50.1213 203.35 50.522 203.569C51.3071 203.992 51.9511 204.636 52.3746 205.421C52.6167 205.837 52.7184 206.32 52.6648 206.798C52.5775 207.274 52.3368 207.708 51.9794 208.034C51.3316 208.613 50.5904 209.079 49.7872 209.411C49.4043 209.584 49.0029 209.726 48.6138 209.886L47.422 210.294C45.8165 210.782 44.1924 211.183 42.5559 211.529C39.2831 212.177 35.9855 212.646 32.6755 212.986C34.312 212.677 35.9546 212.406 37.5849 212.078C39.2151 211.751 40.8392 211.461 42.4571 211.066C44.0751 210.67 45.6806 210.287 47.2491 209.775L48.4101 209.367C48.7868 209.207 49.1758 209.065 49.5401 208.892C50.2685 208.57 50.9384 208.13 51.5224 207.589C51.8021 207.365 51.9885 207.045 52.0456 206.691C52.1026 206.337 52.0262 205.975 51.8312 205.675C51.4731 204.982 50.9189 204.411 50.2379 204.032C49.9147 203.837 49.5503 203.721 49.174 203.692C48.7976 203.663 48.4197 203.722 48.0704 203.865C47.3416 204.215 46.6452 204.628 45.9894 205.1C44.5702 206.031 42.9638 206.638 41.2838 206.879C39.6297 207.104 37.9522 207.095 36.3004 206.854Z" fill="#636BFB"/>
<path d="M81.3733 156.711C82.9074 154.975 84.7263 153.513 86.7519 152.388C88.7641 151.273 90.9465 150.497 93.2112 150.091C90.9847 150.586 88.8547 151.443 86.9063 152.629C84.9766 153.816 83.264 155.324 81.8426 157.088L81.3733 156.711Z" fill="#636BFB"/>
<path d="M81.071 164.368L89.1977 157.81L81.4724 164.838L81.071 164.368Z" fill="#636BFB"/>
<path d="M93.1621 109.668C91.0375 109.742 88.9265 110.038 86.8634 110.551C84.8085 111.096 82.8188 111.862 80.929 112.836C82.626 111.463 84.6031 110.479 86.7213 109.952C88.8237 109.401 91.0194 109.304 93.1621 109.668Z" fill="#636BFB"/>
<path d="M118.678 163.8C116.801 165.516 114.516 166.721 112.04 167.302C109.598 167.868 107.055 167.834 104.629 167.203C107.055 167.727 109.572 167.66 111.966 167.005C114.333 166.343 116.491 165.084 118.233 163.349L118.678 163.8Z" fill="#636BFB"/>
<path d="M121.228 160.04C121.8 161.031 122.523 161.927 123.371 162.695C124.219 163.471 125.176 164.118 126.212 164.615C128.326 165.604 130.634 166.109 132.968 166.091C130.614 166.213 128.264 165.805 126.088 164.899C124.996 164.431 123.977 163.807 123.063 163.047C122.137 162.274 121.335 161.364 120.685 160.348L121.228 160.04Z" fill="#636BFB"/>
<path d="M153.63 157.681C152.628 158.804 151.393 159.695 150.011 160.293C148.649 160.881 147.172 161.159 145.689 161.108C147.147 161.054 148.577 160.681 149.876 160.015C151.152 159.351 152.27 158.42 153.155 157.285L153.63 157.681Z" fill="#636BFB"/>
<path d="M133.486 104.005C132.165 103.797 130.828 103.715 129.491 103.758C128.173 103.811 126.865 104.018 125.594 104.376C124.326 104.74 123.107 105.256 121.963 105.913C120.813 106.594 119.741 107.397 118.765 108.309C119.17 107.766 119.62 107.258 120.111 106.79C120.613 106.327 121.148 105.9 121.71 105.512C122.846 104.744 124.097 104.16 125.415 103.783C126.737 103.411 128.107 103.242 129.479 103.283C130.159 103.31 130.838 103.378 131.51 103.487C132.181 103.612 132.841 103.785 133.486 104.005Z" fill="#636BFB"/>
<path d="M91.1242 70.9307C89.1057 71.4145 87.1326 72.0715 85.2269 72.8944C83.334 73.7429 81.5179 74.7532 79.7988 75.9141C81.2719 74.3939 83.0332 73.1826 84.9799 72.351C86.914 71.476 89.0024 70.9933 91.1242 70.9307Z" fill="#636BFB"/>
<path d="M102.45 71.1529C104.22 71.0142 106 71.2499 107.674 71.8445C109.358 72.4124 110.9 73.3371 112.194 74.5554C110.679 73.7208 109.099 73.0084 107.47 72.425C105.833 71.8694 104.154 71.4441 102.45 71.1529Z" fill="#636BFB"/>
<path d="M128.052 62.0938C128.729 61.6902 129.433 61.3332 130.158 61.0255C130.896 60.7275 131.65 60.4738 132.418 60.266C133.955 59.8541 135.539 59.6465 137.13 59.6485C138.719 59.6467 140.301 59.8543 141.835 60.266C142.598 60.4762 143.348 60.7277 144.083 61.0194C144.809 61.3253 145.515 61.678 146.195 62.0753C144.731 61.5048 143.221 61.0606 141.681 60.7476C140.17 60.4338 138.63 60.2725 137.087 60.266C135.542 60.2638 134 60.4169 132.486 60.7229C130.97 61.0448 129.486 61.5036 128.052 62.0938Z" fill="#636BFB"/>
<path d="M164.751 72.0608C166.045 72.5937 167.384 73.0071 168.753 73.2958C170.106 73.5693 171.49 73.6524 172.866 73.5429C173.557 73.4934 174.268 73.4193 174.978 73.4008C175.688 73.3823 176.398 73.4008 177.102 73.444C177.806 73.4873 178.516 73.5676 179.214 73.6725C179.912 73.7775 180.61 73.9257 181.289 74.1171C180.585 74.0616 179.887 73.9936 179.183 73.9751C178.479 73.9566 177.787 73.9072 177.09 73.9195C175.693 73.9293 174.298 74.0097 172.909 74.1604C171.476 74.2717 170.035 74.1359 168.648 73.759C167.96 73.571 167.286 73.3379 166.629 73.0612C165.982 72.7686 165.355 72.4345 164.751 72.0608Z" fill="#636BFB"/>
<path d="M164.529 121.222C165.069 120.531 165.691 119.909 166.382 119.369C167.087 118.834 167.881 118.429 168.728 118.171C169.595 117.924 170.506 117.869 171.396 118.011C172.263 118.173 173.108 118.434 173.916 118.789C175.451 119.521 177.068 120.068 178.732 120.419C180.418 120.677 182.135 120.642 183.808 120.314C182.99 120.596 182.143 120.789 181.283 120.888C180.412 120.972 179.535 120.972 178.664 120.888C177.795 120.784 176.938 120.592 176.108 120.314C175.274 120.042 174.478 119.697 173.687 119.375C172.922 119.034 172.123 118.775 171.304 118.604C170.485 118.455 169.646 118.47 168.833 118.647C168.018 118.84 167.242 119.174 166.542 119.635C165.818 120.093 165.143 120.624 164.529 121.222Z" fill="#636BFB"/>
<path d="M213.931 122.123C215.384 122.561 216.875 122.861 218.384 123.019C219.878 123.179 221.385 123.179 222.879 123.019C224.372 122.845 225.842 122.512 227.264 122.025C228.692 121.519 230.069 120.878 231.376 120.11C230.791 120.596 230.172 121.04 229.524 121.438C228.855 121.822 228.164 122.167 227.455 122.469C226.005 123.058 224.479 123.441 222.923 123.606C221.383 123.783 219.826 123.743 218.297 123.488C217.539 123.359 216.788 123.186 216.05 122.969C215.325 122.737 214.617 122.454 213.931 122.123Z" fill="#636BFB"/>
<path d="M232.259 146.59C231.471 147.95 230.329 149.072 228.956 149.838C227.571 150.61 226.025 151.048 224.442 151.116C222.875 151.191 221.306 151.02 219.792 150.61C218.279 150.221 216.825 149.631 215.469 148.856C216.191 149.128 216.914 149.387 217.655 149.591C218.384 149.813 219.124 149.999 219.872 150.147C221.354 150.451 222.868 150.569 224.38 150.499C225.878 150.431 227.347 150.066 228.703 149.424C229.03 149.239 229.363 149.072 229.691 148.881C230.008 148.675 230.313 148.45 230.605 148.208C231.211 147.727 231.765 147.185 232.259 146.59Z" fill="#636BFB"/>
<path d="M231.58 182.159C229.873 181.065 227.994 180.266 226.022 179.794C224.049 179.355 222.018 179.236 220.008 179.442C220.991 179.114 222.016 178.929 223.052 178.893C224.09 178.859 225.128 178.961 226.14 179.195C228.198 179.645 230.086 180.674 231.58 182.159Z" fill="#636BFB"/>
<path d="M190.348 162.448C189.68 162.797 188.987 163.094 188.273 163.337C187.552 163.576 186.815 163.765 186.069 163.905C184.571 164.186 183.04 164.248 181.524 164.09C180.008 163.94 178.521 163.583 177.102 163.028C175.688 162.489 174.353 161.762 173.132 160.867C173.805 161.2 174.478 161.534 175.169 161.806C175.85 162.103 176.547 162.361 177.257 162.577C178.663 163.024 180.111 163.327 181.579 163.479C183.048 163.627 184.529 163.615 185.995 163.442C187.474 163.251 188.932 162.919 190.348 162.448Z" fill="#636BFB"/>
</svg>
