<svg width="361" height="215" viewBox="0 0 361 215" fill="none" xmlns="http://www.w3.org/2000/svg">
<path d="M360.046 0.856103C360.06 3.49991 360.046 7.8012 360.046 7.8012C360.83 11.7469 370.268 35.3368 368.602 38.4657C362.325 50.5824 370.647 29.0192 360.046 58.9615C358.201 64.1558 362.692 97.6938 360.046 102.53C361.111 108.408 352.968 160.877 331.282 172.284C329.525 173.538 318.351 177.27 312.427 176.571C300.669 175.173 290.775 163.514 290.2 150.476C290.096 148.026 290.448 145.472 291.16 140.351C292.204 132.771 293.86 125.287 296.112 117.973C299.159 115.96 301.778 113.365 303.819 110.337C310.443 100.37 308.15 88.8866 307 83.1124C306.399 80.0946 302.291 61.0803 284.223 49.8388C277.939 45.7451 270.722 43.303 263.243 42.7387C245.652 41.5825 232.896 52.027 228.454 55.6653C213.078 68.2523 199.485 92.3485 206.448 108.855C209.675 116.49 215.952 119.306 215.475 127.216C214.946 136.014 206.807 138.908 208.349 145.42C209.734 151.299 216.971 151.717 219.904 159.98C220.798 162.571 221.123 165.325 220.857 168.053C213.875 169.464 204.43 172.573 197.062 180.34C191.895 185.794 190.014 191.15 188.936 193.456C178.994 214.645 125.642 214.534 111.089 214.253C85.4576 213.764 46.6711 210.164 0.0463867 194.494V1.09124C0.0463867 1.09124 358.341 -0.86832 360.046 0.856103Z" fill="#303A8F"/>
<path d="M312.912 64.0197C311.375 63.9935 309.85 63.9522 308.339 63.8956C309.868 63.8302 311.396 63.791 312.912 63.7649H316.099C316.123 63.5037 316.221 63.2546 316.38 63.0464C315.322 61.9621 314.27 60.8713 313.264 59.7347C314.401 60.7341 315.492 61.7857 316.57 62.8439C316.788 62.6537 317.059 62.5332 317.347 62.4977V59.2318C317.347 57.6902 317.412 56.1487 317.471 54.6072C317.53 56.1487 317.576 57.6902 317.595 59.2318V62.4977C317.878 62.527 318.146 62.6382 318.366 62.8178C319.672 61.5114 320.979 60.205 322.396 59.0031C321.161 60.3944 319.868 61.7139 318.575 63.0334C318.737 63.2459 318.836 63.4992 318.862 63.7649H322.037C323.565 63.7649 325.094 63.8302 326.609 63.8956C325.081 63.9565 323.556 63.9979 322.037 64.0197H318.862C318.831 64.3003 318.715 64.5647 318.529 64.7774C319.836 66.1425 321.201 67.5012 322.448 68.9316C321.018 67.6645 319.653 66.3189 318.294 65.0125C318.086 65.1673 317.84 65.2622 317.582 65.2869V68.4744C317.582 70.0159 317.517 71.5575 317.458 73.099C317.399 71.5575 317.353 70.0159 317.334 68.4744V65.2803C317.072 65.2541 316.823 65.1544 316.615 64.9929C315.427 66.1621 314.225 67.3248 312.971 68.4352C314.081 67.1811 315.244 65.9792 316.413 64.7904C316.233 64.5774 316.119 64.3162 316.086 64.0393L312.912 64.0197Z" fill="#F9B153"/>
<path d="M56.2008 28.8715C54.6723 28.8715 53.1373 28.8062 51.6284 28.7474C53.1569 28.6886 54.6919 28.6429 56.2008 28.6233H59.3884C59.4124 28.3621 59.5097 28.113 59.6692 27.9048C58.6111 26.8205 57.5594 25.7297 56.56 24.5931C57.6901 25.5925 58.7809 26.6441 59.8652 27.6958C60.0816 27.5067 60.3504 27.3882 60.6359 27.3561V24.0902C60.6359 22.5486 60.7012 21.0071 60.76 19.4656C60.8188 21.0071 60.8646 22.5486 60.8842 24.0902V27.3561C61.1654 27.3835 61.4317 27.4951 61.6484 27.6762C62.9548 26.3698 64.2611 25.0634 65.6786 23.8615C64.4506 25.2463 63.1573 26.5723 61.8575 27.8917C62.0211 28.1038 62.1229 28.357 62.1514 28.6233H65.3193C66.8477 28.6233 68.3762 28.6886 69.8916 28.7474C68.3566 28.8062 66.8281 28.8519 65.3193 28.8715H62.1448C62.1149 29.1545 61.9986 29.4213 61.8117 29.6358C63.1508 30.9944 64.4833 32.3596 65.7309 33.79C64.2938 32.5228 62.9286 31.1773 61.57 29.8709C61.3655 30.0273 61.121 30.1224 60.8646 30.1452V33.3328C60.8646 34.8743 60.7993 36.4159 60.734 37.9639C60.6752 36.4159 60.6294 34.8743 60.6098 33.3328V30.1452C60.3494 30.1166 60.1027 30.0147 59.8979 29.8513C58.7026 31.0205 57.5006 32.1897 56.2465 33.3001C57.3569 32.046 58.5196 30.8441 59.6888 29.6553C59.5076 29.4405 59.394 29.1769 59.3623 28.8976L56.2008 28.8715Z" fill="#F9B153"/>
<path d="M112.924 188.746C111.84 188.746 110.749 188.701 109.658 188.655C110.742 188.616 111.833 188.583 112.924 188.57H115.184C115.203 188.383 115.273 188.204 115.387 188.054C114.636 187.29 113.891 186.513 113.179 185.709C113.982 186.415 114.753 187.159 115.524 187.91C115.679 187.777 115.87 187.693 116.073 187.669V185.369C116.073 184.272 116.118 183.175 116.157 182.104C116.203 183.194 116.236 184.292 116.249 185.369V187.669C116.449 187.688 116.638 187.768 116.791 187.897C117.732 186.976 118.666 186.062 119.652 185.187C118.777 186.173 117.862 187.113 116.941 188.048C117.057 188.2 117.129 188.38 117.15 188.57H119.397C120.482 188.57 121.572 188.616 122.663 188.655C121.579 188.701 120.488 188.727 119.397 188.746H117.144C117.123 188.947 117.041 189.137 116.909 189.289C117.856 190.249 118.803 191.248 119.704 192.235C118.685 191.333 117.745 190.386 116.752 189.432C116.606 189.544 116.432 189.612 116.249 189.628V191.895C116.249 192.986 116.203 194.083 116.157 195.161C116.118 194.07 116.086 192.973 116.073 191.895V189.628C115.887 189.607 115.71 189.535 115.563 189.419C114.714 190.249 113.865 191.078 112.95 191.862C113.734 190.974 114.564 190.125 115.393 189.249C115.265 189.1 115.183 188.916 115.158 188.72L112.924 188.746Z" fill="#F9B153"/>
<path d="M163.618 64.268C160.556 66.1152 157.157 67.3342 153.618 67.854C146.165 68.9188 134.453 67.2596 128.888 58.422C123.323 49.5843 125.537 36.2135 135.309 27.6501C134.277 28.0943 122.245 33.4701 120.018 46.1485C119.084 51.5448 120.088 57.0977 122.853 61.8251C128.006 70.3688 138.059 73.6282 146.257 72.9293C155.872 72.1716 161.959 66.0577 163.618 64.268Z" fill="#F9B153"/>
<path d="M11.0654 93.5896C10.36 96.0782 17.9566 100.631 28.0484 103.747C38.1402 106.862 46.8798 107.378 47.5853 104.883C48.2907 102.388 40.6941 97.8419 30.6023 94.7261C20.5105 91.6104 11.7709 91.0944 11.0654 93.5896ZM16.7351 95.3924C17.3425 93.2565 24.2271 94.1383 30.4063 96.0456C36.5855 97.9529 42.817 101.14 42.2095 103.27C41.602 105.399 34.7109 104.531 28.5383 102.617C22.3656 100.703 16.1276 97.5283 16.7351 95.3924Z" fill="#FBC486"/>
<path d="M18.4013 95.5557C17.8654 98.5639 18.5462 101.662 20.2942 104.168C22.0422 106.674 24.7142 108.384 27.7224 108.92C30.7314 109.456 33.83 108.775 36.3373 107.027C38.8445 105.28 40.5552 102.608 41.0932 99.5989C41.6291 96.5907 40.9481 93.4928 39.2001 90.9866C37.4521 88.4803 34.7803 86.7711 31.7721 86.2347C30.2821 85.9684 28.7541 85.9982 27.2757 86.3226C25.7972 86.6469 24.3973 87.2594 23.1556 88.125C21.9139 88.9906 20.8548 90.0924 20.0391 91.3674C19.2233 92.6424 18.6669 94.0656 18.4013 95.5557Z" fill="#F49523"/>
<path d="M25.7168 90.7418C26.2891 90.7124 26.8624 90.7124 27.4347 90.7418C28.7341 90.6827 30.0363 90.7549 31.3213 90.9573C31.9287 91.088 34.8484 91.813 34.1887 92.9496C33.9732 93.3219 33.3722 93.3546 33.0064 93.4199C32.0578 93.6111 31.0766 93.5617 30.152 93.2762C29.5779 93.0043 28.9891 92.7644 28.3885 92.5577C27.6699 92.4009 26.9448 92.2572 26.2133 92.12C25.7981 92.068 25.3861 91.9939 24.9788 91.8979C24.5085 91.7804 24.123 91.5975 24.2341 91.3231C24.417 90.8659 25.3119 90.781 25.7168 90.7418Z" fill="#F9B041"/>
<path d="M21.7192 89.3112C23.0301 88.0368 24.6257 87.0931 26.3739 86.5581C28.122 86.0231 29.9724 85.9122 31.7719 86.2346C33.3366 86.5111 34.8268 87.1096 36.148 87.9923C37.4691 88.875 38.5925 90.0225 39.4469 91.3622C36.9484 90.9231 34.4968 90.2495 32.1247 89.3503C31.5054 89.0313 30.8464 88.7963 30.1651 88.6514C28.5779 88.4163 27.0166 88.8605 25.4751 89.1544C24.2477 89.4677 22.9684 89.5211 21.7192 89.3112Z" fill="#E05D41"/>
<path d="M20.9223 98.0509C21.3636 98.0372 21.8043 98.0923 22.2287 98.2142C22.5095 98.3318 23.0061 98.7695 22.5293 99.0111C22.3325 99.044 22.1315 99.044 21.9348 99.0111C20.9942 99.0111 20.0079 99.0111 19.0673 98.9393C18.806 98.9393 18.5448 98.9132 18.2835 98.8609C18.2332 98.412 18.2091 97.9605 18.2116 97.5088C19.0928 97.7876 20.0017 97.9694 20.9223 98.0509Z" fill="#E05D41"/>
<path d="M19.995 100.651C20.4457 100.722 25.0181 100.729 25.0638 101.304C25.1095 101.879 25.2662 102.989 25.3381 103.309C25.4099 103.629 26.4486 104.178 26.4486 104.178C26.9475 104.235 27.4357 104.362 27.8987 104.557C30.6029 105.634 34.0125 101.859 36.3117 104.224C36.7363 104.668 37.925 104.759 38.3823 105.02L38.4869 105.079C37.1818 106.6 35.502 107.754 33.6139 108.427C31.7259 109.099 29.6951 109.267 27.7223 108.913C25.5586 108.534 23.5484 107.544 21.9283 106.061C20.3082 104.577 19.1457 102.662 18.5776 100.54C19.0522 100.542 19.5259 100.579 19.995 100.651Z" fill="#E05D41"/>
<path d="M31.7131 100.376C32.3776 100.395 33.0367 100.503 33.6727 100.696C34.0319 100.853 34.6067 101.291 33.9862 101.552C33.6073 101.715 33.1175 101.506 32.719 101.519C32.2147 101.549 31.7152 101.634 31.2297 101.774C30.165 102.042 29.1983 102.283 28.1336 101.807C27.4168 101.6 26.8024 101.134 26.4093 100.5C26.2003 100.089 26.1937 99.4747 25.854 99.1416C26.4353 98.9326 27.0754 99.2788 27.6045 99.4878C28.9361 99.9382 30.3144 100.236 31.7131 100.376Z" fill="#F9B041"/>
<path d="M38.7805 94.4976C38.3284 94.4455 37.8875 94.322 37.4741 94.1318C37.2128 93.9685 36.8209 93.4786 37.3042 93.3023C37.5024 93.292 37.7009 93.314 37.892 93.3676C38.7935 93.4917 39.7211 93.668 40.616 93.8575C40.7733 94.3221 40.904 94.7954 41.0078 95.2749C40.2913 94.9467 39.5456 94.6864 38.7805 94.4976Z" fill="#EB5C2C"/>
<path d="M40.5768 98.9523C39.924 98.9171 39.2699 98.9171 38.6172 98.9523C37.6327 98.9747 36.6479 98.9222 35.6713 98.7955C35.3597 98.7873 35.0494 98.7524 34.7438 98.691L32.5948 98.3056L28.852 97.6524C28.6103 97.6132 27.0361 97.2082 26.5593 97.0645C26.0825 96.9208 24.861 96.64 24.861 96.64C24.861 96.64 24.7369 96.64 23.4828 96.2089C22.2287 95.7778 20.8699 95.314 20.2559 95.5099C19.658 95.5952 19.051 95.5952 18.4531 95.5099C18.5677 94.8925 18.7315 94.2853 18.943 93.6941L21.9543 93.4524L24.7892 94.197C24.7892 94.197 26.2392 95.3075 26.6442 95.5034C27.0653 95.658 27.5042 95.759 27.9505 95.8039C28.2575 95.8627 29.9101 96.039 29.9101 96.039C30.7068 95.9977 31.5056 96.0371 32.2944 96.1566C33.3982 96.3526 35.9325 96.6857 36.2787 96.8686C36.7255 97.0409 37.19 97.1636 37.6636 97.2344L41.2496 97.8876C41.2496 98.2664 41.2103 98.6387 41.1646 99.0176C40.9718 98.9729 40.7746 98.951 40.5768 98.9523Z" fill="#EB5C2C"/>
<path d="M33.8296 94.8372C33.7839 95.1181 34.3783 95.4904 35.136 95.6015C35.8937 95.7125 36.5992 95.6015 36.6514 95.3467C36.7037 95.092 36.1028 94.7262 35.3451 94.5825C34.5874 94.4388 33.8819 94.5564 33.8296 94.8372Z" fill="#F9B041"/>
<path d="M21.0269 96.7837C20.9942 96.9601 21.3731 97.1822 21.876 97.2671C22.379 97.352 22.8101 97.2671 22.8428 97.1103C22.8754 96.9536 22.4965 96.7119 21.9936 96.6205C21.4906 96.529 21.0595 96.6009 21.0269 96.7837Z" fill="#F9B041"/>
<path d="M37.1147 100.376C37.1147 100.559 37.4675 100.775 37.9705 100.866C38.4734 100.958 38.9045 100.866 38.9372 100.703C38.9698 100.539 38.5844 100.304 38.0815 100.213C37.5785 100.121 37.1474 100.206 37.1147 100.376Z" fill="#F9B041"/>
<path d="M20.8701 91.8847C20.8701 92.0415 21.177 92.2309 21.6081 92.3093C22.0393 92.3877 22.4116 92.3093 22.4442 92.1656C22.4769 92.0219 22.1439 91.8259 21.7062 91.7476C21.2686 91.6692 20.9028 91.741 20.8701 91.8847Z" fill="#F9B041"/>
<path d="M26.0957 102.76C26.0957 102.917 26.4026 103.107 26.8337 103.185C27.2648 103.263 27.6372 103.185 27.6698 103.041C27.7025 102.898 27.3629 102.702 26.9318 102.623C26.5007 102.545 26.1284 102.61 26.0957 102.76Z" fill="#F9B041"/>
<path d="M37.4546 91.8849C37.4546 92.0351 37.7551 92.2246 38.1928 92.303C38.6304 92.3813 38.9962 92.303 39.0223 92.1593C39.0485 92.0156 38.7218 91.8196 38.2907 91.7412C37.8596 91.6628 37.4807 91.7412 37.4546 91.8849Z" fill="#F9B041"/>
<path opacity="0.2" d="M37.2458 106.327C35.9522 107.443 34.4262 108.256 32.7789 108.708C31.1315 109.16 29.4042 109.239 27.7224 108.94C24.7142 108.403 22.0422 106.694 20.2942 104.188C18.5462 101.681 17.8654 98.5835 18.4013 95.5753C18.8373 93.1025 20.0743 90.8417 21.922 89.1414C24.2996 94.6151 29.8386 105.308 37.2458 106.327Z" fill="#222A3C"/>
<path opacity="0.2" d="M36.0636 107.208C33.6055 108.827 30.6194 109.44 27.7224 108.92C24.7142 108.383 22.0422 106.674 20.2942 104.168C18.5462 101.662 17.8654 98.5638 18.4013 95.5555C18.4666 95.1898 18.5515 94.8305 18.6495 94.4778C21.2622 99.7229 26.8079 107.718 36.0636 107.208Z" fill="#222A3C"/>
<path opacity="0.3" d="M27.2255 88.2792C25.1353 90.6503 26.1608 94.9614 29.5051 97.9138C32.8494 100.866 37.2649 101.336 39.3551 98.9654C41.4453 96.5943 40.4198 92.2833 37.0689 89.3309C33.7181 86.3784 29.3092 85.9081 27.2255 88.2792Z" fill="url(#paint0_linear)"/>
<path opacity="0.3" d="M30.7792 88.6187C29.5316 90.0296 30.2893 92.7403 32.471 94.6607C34.6526 96.5811 37.4352 96.9926 38.6828 95.5817C39.9304 94.1708 39.1727 91.4535 36.9845 89.5331C34.7963 87.6128 32.0137 87.1882 30.7792 88.6187Z" fill="white"/>
<path d="M11.0655 93.5895C11.4639 92.1852 14.4229 91.7345 18.7405 92.1656C18.5721 92.8685 18.4521 93.5822 18.3812 94.3015C17.4863 94.4844 16.8919 94.8306 16.7351 95.3923C16.1276 97.5283 22.3657 100.709 28.5383 102.617C34.711 104.524 41.6021 105.406 42.2095 103.27C42.2543 102.967 42.2214 102.658 42.114 102.371C42.0066 102.084 41.8283 101.829 41.5956 101.63C41.9316 100.972 42.1525 100.26 42.2488 99.5271C45.8674 101.545 47.9641 103.525 47.5722 104.883C46.8668 107.378 38.1206 106.843 28.0353 103.747C17.9501 100.651 10.36 96.0782 11.0655 93.5895Z" fill="#FBC486"/>
<path d="M295.321 30.5372C295.344 32.0975 295.674 33.6381 296.292 35.0708C296.911 36.5036 297.806 37.8005 298.925 38.8874C300.045 39.9744 301.368 40.8301 302.818 41.4058C304.269 41.9814 305.818 42.2657 307.379 42.2423C310.528 42.1959 313.53 40.9012 315.724 38.6426C317.919 36.3841 319.128 33.3465 319.084 30.1975C319.038 27.0485 317.743 24.0468 315.484 21.852C313.226 19.6571 310.188 18.4487 307.039 18.4924C305.479 18.5137 303.938 18.8421 302.505 19.459C301.071 20.0758 299.773 20.969 298.685 22.0875C297.597 23.206 296.74 24.5279 296.163 25.9777C295.585 27.4275 295.299 28.9768 295.321 30.5372Z" fill="#166FA6"/>
<path d="M295.367 29.5116C296.263 29.5696 297.162 29.4992 298.038 29.3025C299.528 28.9172 300.867 28.0941 302.369 27.7414C304.427 27.2903 306.544 27.1734 308.64 27.3952C310.691 27.5977 312.598 28.4795 314.643 28.7016C316.082 28.8159 317.527 28.8159 318.967 28.7016C319.036 29.193 319.075 29.6882 319.084 30.1843C319.084 30.4391 319.084 30.6873 319.084 30.942H317.21C314.081 30.9878 311.057 32.0786 307.96 32.4183C305.83 32.5881 303.688 32.5488 301.566 32.3007C300.651 32.2158 299.88 31.6475 298.953 31.5691C298.182 31.4972 297.405 31.4842 296.634 31.4711C296.543 31.4711 295.981 31.4711 295.393 31.4711C295.36 31.1511 295.341 30.8179 295.334 30.4979C295.328 30.1778 295.321 29.8316 295.367 29.5116Z" fill="#2CAAE1"/>
<path d="M296.222 34.8741C296.759 34.9587 297.288 35.0876 297.803 35.2595C298.312 35.4816 300.024 35.7494 300.533 35.9127C300.947 36.0103 301.375 36.0237 301.794 35.9519L305.648 35.8997C306.592 35.7857 307.521 35.5666 308.417 35.2465C308.981 35.0283 309.577 34.9026 310.181 34.8741L314.276 34.2209L318.293 34.6325C317.874 35.7174 317.3 36.7361 316.589 37.6567C315.367 37.6567 314.179 37.8658 313.506 37.8723C312.51 37.9198 311.52 38.0509 310.547 38.2642C309.985 38.3745 309.411 38.401 308.842 38.3426C308.522 38.3426 305.68 38.2773 303.087 38.1989C300.494 38.1205 301.572 38.1989 301.069 38.1074C300.416 38.0605 299.76 38.0715 299.109 38.1401C298.811 38.1556 298.513 38.1556 298.214 38.1401C297.379 37.166 296.706 36.0631 296.222 34.8741Z" fill="#2CAAE1"/>
<path d="M317.451 24.358C314.903 23.606 312.204 23.5183 309.613 24.1032C304.956 25.3443 303.623 25.0504 301.977 24.7042C300.981 24.471 299.963 24.3418 298.94 24.3188H296.941C297.477 23.3974 298.136 22.5535 298.9 21.8105C299.149 21.8105 299.39 21.7583 299.554 21.7517C300.122 21.7517 301.128 21.6668 302.075 21.595C303.022 21.5231 304.916 21.2422 305.23 21.2422C305.543 21.2422 305.544 21.1704 306.811 21.092C308.078 21.0136 310.148 20.6152 311.03 20.5368C311.912 20.4584 312.506 20.282 313.401 20.2625C315.065 21.2773 316.455 22.6833 317.451 24.358Z" fill="#2CAAE1"/>
<path d="M301.108 30.0473C301.108 30.9879 303.186 31.7195 305.681 31.6868C308.176 31.6541 310.253 30.8572 310.253 29.9101C310.253 28.963 308.176 28.2379 305.648 28.2706C303.12 28.3033 301.095 29.1002 301.108 30.0473Z" fill="#5FB2E0"/>
<path d="M303.159 30.0146C303.159 30.5437 304.315 30.9486 305.726 30.929C307.137 30.9094 308.28 30.4653 308.274 29.9427C308.267 29.4202 307.111 29.0087 305.7 29.0283C304.289 29.0479 303.12 29.492 303.159 30.0146Z" fill="#A4DAF3"/>
<path d="M302.147 23.2345C302.147 23.8093 303.453 24.2274 304.962 24.1686C306.471 24.1098 307.725 23.6068 307.705 23.032C307.686 22.4572 306.399 22.0457 304.89 22.1045C303.381 22.1633 302.127 22.6466 302.147 23.2345Z" fill="#5FB2E0"/>
<path d="M303.375 23.1951C303.375 23.5087 304.087 23.7438 304.949 23.7111C305.812 23.6785 306.491 23.3976 306.478 23.0579C306.465 22.7183 305.759 22.5093 304.904 22.5354C304.048 22.5615 303.362 22.8751 303.375 23.1951Z" fill="#A4DAF3"/>
<path d="M311.651 22.2416C311.651 22.4899 312.206 22.6727 312.872 22.6466C313.539 22.6205 314.074 22.4049 314.061 22.1567C314.048 21.9085 313.506 21.7256 312.84 21.7518C312.173 21.7779 311.651 21.9934 311.651 22.2416Z" fill="#A4DAF3"/>
<path d="M313.205 30.1062C313.205 30.3936 314.244 30.6157 315.517 30.5961C316.791 30.5765 317.823 30.3283 317.817 30.0409C317.81 29.7535 316.778 29.5314 315.504 29.551C314.231 29.5706 313.205 29.8319 313.205 30.1062Z" fill="#5FB2E0"/>
<path d="M298.914 37.0169C298.914 37.2716 299.835 37.4676 300.965 37.448C302.095 37.4284 303.003 37.2128 303.003 36.9581C303.003 36.7033 302.082 36.5074 300.952 36.527C299.822 36.5466 298.907 36.7556 298.914 37.0169Z" fill="#5FB2E0"/>
<path d="M308.855 36.4287C308.855 36.788 310.162 37.0362 311.723 36.997C313.284 36.9578 314.564 36.6247 314.551 36.272C314.538 35.9192 313.245 35.6645 311.683 35.7037C310.122 35.7429 308.842 36.076 308.855 36.4287Z" fill="#A4DAF3"/>
<path d="M298.456 33.7116C299.482 33.7116 300.494 33.8357 301.526 33.8096C302.558 33.7835 303.773 33.7182 304.89 33.7704C305.586 33.7848 306.282 33.7301 306.967 33.6071C307.958 33.4017 308.959 33.2513 309.965 33.1564C311.925 33.1041 313.885 32.9278 315.844 32.7971C316.811 32.7318 317.843 32.6142 318.842 32.6142C318.842 32.7514 318.79 32.8886 318.757 33.0258H318.601C318.019 33.0258 317.438 33.0258 316.857 33.0258C315.877 33.0258 314.851 33.0911 313.872 33.1629C312.441 33.2739 310.985 33.5679 309.554 33.7508C308.383 33.9065 307.221 34.1246 306.072 34.404C305.475 34.4858 304.873 34.5251 304.27 34.5215C303.571 34.5869 302.872 34.6783 302.173 34.6783C301.116 34.6567 300.062 34.5628 299.018 34.3974C298.286 34.2929 297.594 34.0643 296.849 34.0251C296.523 34.0251 296.196 34.0251 295.87 34.0251C295.791 33.7769 295.719 33.5287 295.661 33.274C296.572 33.5315 297.51 33.6784 298.456 33.7116ZM318.588 26.9641C318.403 26.35 318.169 25.7515 317.889 25.1744C317.36 25.1744 316.831 25.1744 316.302 25.1744C313.525 25.2071 310.749 25.1221 307.98 25.2854C306.615 25.3703 305.243 25.5598 303.884 25.7035C301.304 25.9932 298.708 26.1262 296.111 26.1019C296 26.4024 295.896 26.7029 295.804 27.0099H295.915C296.836 26.7943 297.914 27.0099 298.855 26.9641C299.671 26.8988 300.442 26.6114 301.245 26.4742C303.571 26.0889 305.922 26.3305 308.267 26.2652C309.776 26.226 311.291 26.1934 312.8 26.1673C313.591 26.1722 314.38 26.2465 315.158 26.3893C316.295 26.5657 317.445 26.8204 318.588 26.9641ZM307.039 18.4727C304.786 18.5081 302.589 19.1881 300.71 20.4322C301.017 20.393 301.794 20.3408 301.977 20.3343C302.16 20.3277 303.212 20.2232 303.336 20.2232C303.46 20.2232 305.099 19.8182 305.295 19.7856C305.491 19.7529 307.405 19.5308 307.536 19.5308L308.953 19.4786L310.815 19.054C309.595 18.6633 308.32 18.4736 307.039 18.4923V18.4727ZM302.95 39.4074H301.5C301.402 39.4074 299.763 39.5577 299.763 39.5577C301.918 41.2929 304.613 42.2175 307.379 42.1704C310.187 42.13 312.89 41.0955 315.008 39.2506H313.277L310.534 39.5446C310.155 39.5838 308.862 39.6034 308.764 39.6034L307.216 39.6883C307.216 39.6883 305.824 39.427 305.7 39.3944C305.576 39.3617 304.622 39.2833 304.531 39.2833L302.95 39.4074Z" fill="#115880"/>
<path opacity="0.2" d="M297.542 23.4761C301.01 28.5514 308.646 38.212 316.315 37.9899C315.22 39.3006 313.854 40.3591 312.312 41.093C310.77 41.8269 309.087 42.2189 307.379 42.2422C305.819 42.2656 304.269 41.9813 302.819 41.4056C301.368 40.83 300.045 39.9742 298.926 38.8873C297.806 37.8003 296.911 36.5034 296.293 35.0707C295.674 33.6379 295.344 32.0974 295.321 30.5371C295.282 28.0057 296.061 25.5292 297.542 23.4761Z" fill="#222A3C"/>
<path opacity="0.2" d="M295.36 29.6946C299.024 34.4367 306.066 41.2495 315.139 39.205C313.004 41.1226 310.248 42.2017 307.379 42.2424C305.818 42.2657 304.269 41.9814 302.818 41.4058C301.368 40.8302 300.045 39.9744 298.925 38.8874C297.805 37.8005 296.911 36.5036 296.292 35.0708C295.674 33.6381 295.344 32.0976 295.321 30.5372C295.321 30.2563 295.321 29.9755 295.36 29.6946Z" fill="#222A3C"/>
<path opacity="0.3" d="M302.715 21.2553C301.037 24.1163 302.95 28.3686 307 30.7462C311.05 33.1238 315.694 32.7058 317.379 29.8709C319.065 27.0361 317.144 22.7512 313.094 20.3736C309.045 17.9959 304.401 18.3878 302.715 21.2553Z" fill="url(#paint1_linear)"/>
<path opacity="0.3" d="M306.425 20.883C305.419 22.5944 306.739 25.2398 309.378 26.7617C312.017 28.2837 314.969 28.1791 315.975 26.4678C316.981 24.7564 315.661 22.1175 313.023 20.5891C310.384 19.0606 307.444 19.1716 306.425 20.883Z" fill="white"/>
<path d="M71.009 151.162C71.0277 152.477 71.3054 153.776 71.8264 154.984C72.3474 156.193 73.1015 157.286 74.0454 158.203C74.9893 159.119 76.1046 159.841 77.3275 160.326C78.5504 160.812 79.8569 161.051 81.1725 161.031C82.4884 161.013 83.7877 160.735 84.9963 160.214C86.2048 159.693 87.2988 158.939 88.216 157.995C89.1331 157.052 89.8553 155.936 90.3414 154.713C90.8274 153.49 91.0678 152.184 91.0488 150.868C91.0092 148.211 89.9163 145.679 88.0104 143.829C86.1045 141.978 83.5415 140.96 80.8851 140.998C79.569 141.016 78.2693 141.293 77.0604 141.814C75.8515 142.334 74.7572 143.088 73.8399 144.032C72.9226 144.976 72.2004 146.092 71.7146 147.315C71.2289 148.539 70.9891 149.846 71.009 151.162Z" fill="#166FA6"/>
<path d="M71.0349 150.293C71.7906 150.339 72.5491 150.28 73.2885 150.117C74.5492 149.79 75.6791 149.098 76.9463 148.81C78.683 148.431 80.4696 148.334 82.2372 148.523C83.9616 148.686 85.575 149.431 87.2994 149.62C88.5145 149.718 89.7357 149.718 90.9508 149.62C91.0064 150.034 91.0391 150.45 91.0487 150.868C91.0487 151.083 91.0487 151.299 91.0487 151.521H89.4615C86.8487 151.56 84.2752 152.481 81.6232 152.762C79.826 152.909 78.0186 152.876 76.2279 152.664C75.4571 152.599 74.8038 152.122 74.0396 152.05C73.3864 151.991 72.7332 151.978 72.08 151.965H71.0349C71.0349 151.697 70.9893 151.423 70.9893 151.149C70.9893 150.874 71.0153 150.58 71.0349 150.293Z" fill="#2CAAE1"/>
<path d="M71.7534 154.813C72.2081 154.888 72.6559 154.999 73.0925 155.146C73.5171 155.336 74.9606 155.558 75.3917 155.695C75.7408 155.777 76.1029 155.789 76.4564 155.727L79.7223 155.682C80.5206 155.58 81.305 155.39 82.0608 155.113C82.5369 154.929 83.0399 154.823 83.5501 154.8L87.0055 154.258L90.3955 154.611C90.042 155.526 89.5556 156.384 88.952 157.158C87.9265 157.158 86.9206 157.334 86.3392 157.341C85.4977 157.384 84.661 157.496 83.8374 157.674C83.3641 157.765 82.8801 157.787 82.4005 157.739C82.1326 157.739 79.729 157.681 77.5473 157.615C75.3656 157.55 76.2408 157.615 75.8359 157.543C75.2862 157.492 74.7329 157.492 74.1833 157.543C73.7848 157.543 73.6216 157.543 73.4322 157.543C72.7304 156.729 72.1637 155.807 71.7534 154.813Z" fill="#2CAAE1"/>
<path d="M89.6706 145.943C87.5274 145.314 85.2597 145.24 83.08 145.727C79.1609 146.772 78.0308 146.531 76.6395 146.237C75.7998 146.038 74.9416 145.929 74.079 145.91H72.3872C72.8478 145.13 73.4126 144.415 74.066 143.787C74.2543 143.761 74.444 143.746 74.6341 143.742C75.111 143.742 75.9405 143.67 76.7636 143.604C77.5866 143.539 79.1543 143.311 79.4221 143.311C79.6899 143.311 79.6899 143.252 80.7285 143.186C81.767 143.121 83.5502 142.781 84.2949 142.716C85.0395 142.651 85.536 142.501 86.2937 142.481C87.6816 143.346 88.8401 144.534 89.6706 145.943Z" fill="#2CAAE1"/>
<path d="M75.8818 150.744C75.8818 151.534 77.6323 152.155 79.7617 152.128C81.8911 152.102 83.6155 151.423 83.609 150.633C83.6024 149.842 81.8584 149.215 79.6898 149.248C77.5212 149.28 75.8492 149.947 75.8818 150.744Z" fill="#5FB2E0"/>
<path d="M77.5865 150.718C77.5865 151.162 78.5598 151.508 79.7551 151.489C80.9504 151.469 81.9107 151.097 81.9041 150.652C81.8976 150.208 80.9243 149.869 79.7289 149.882C78.5336 149.895 77.5799 150.274 77.5865 150.718Z" fill="#A4DAF3"/>
<path d="M76.7571 144.996C76.7571 145.479 77.835 145.832 79.1348 145.786C80.4347 145.74 81.4602 145.309 81.4406 144.826C81.421 144.342 80.3627 143.99 79.0694 144.042C77.7761 144.094 76.7375 144.512 76.7571 144.996Z" fill="#5FB2E0"/>
<path d="M77.8086 144.963C77.8086 145.231 78.4161 145.427 79.115 145.401C79.8139 145.375 80.4214 145.133 80.4214 144.865C80.4214 144.597 79.8204 144.401 79.115 144.427C78.4095 144.454 77.8086 144.689 77.8086 144.963Z" fill="#A4DAF3"/>
<path d="M84.7913 144.14C84.7913 144.349 85.2551 144.499 85.8168 144.48C86.3786 144.46 86.8293 144.277 86.8228 144.068C86.8163 143.859 86.3524 143.702 85.7907 143.722C85.2289 143.741 84.7782 143.95 84.7913 144.14Z" fill="#A4DAF3"/>
<path d="M86.0913 150.796C86.0913 151.038 86.9666 151.22 88.0509 151.207C89.1352 151.194 90.0105 150.979 90.0105 150.737C90.0105 150.495 89.1352 150.313 88.0509 150.326C86.9666 150.339 86.0848 150.554 86.0913 150.796Z" fill="#5FB2E0"/>
<path d="M74.0264 156.623C74.0264 156.838 74.8038 157.001 75.7575 156.982C76.7111 156.962 77.4818 156.786 77.4753 156.57C77.4687 156.355 76.698 156.192 75.7444 156.205C74.7907 156.218 74.0199 156.407 74.0264 156.623Z" fill="#5FB2E0"/>
<path d="M82.4138 156.133C82.4138 156.433 83.5046 156.642 84.8306 156.61C86.1565 156.577 87.2277 156.296 87.2212 155.996C87.2147 155.695 86.1304 155.486 84.8044 155.519C83.4784 155.551 82.3811 155.832 82.4138 156.133Z" fill="#A4DAF3"/>
<path d="M73.6416 153.84C74.5104 153.84 75.3595 153.944 76.2544 153.918C77.1492 153.892 78.1485 153.84 79.0891 153.886C79.6779 153.899 80.2665 153.853 80.8462 153.748C81.6807 153.573 82.5249 153.447 83.3741 153.37C85.0397 153.324 86.6987 153.174 88.3579 153.063C89.1743 153.01 90.0432 152.912 90.8858 152.906C90.8858 153.023 90.84 153.141 90.8139 153.259H90.6833H89.2136C88.384 153.259 87.5154 153.317 86.6923 153.376C85.4839 153.468 84.2559 153.716 83.0475 153.873C82.059 153.999 81.0778 154.178 80.1081 154.408C79.6035 154.474 79.095 154.506 78.5861 154.506C77.9983 154.565 77.4104 154.643 76.816 154.643C75.9253 154.625 75.0369 154.544 74.1575 154.402C73.5043 154.31 72.9558 154.121 72.3287 154.088C72.0544 154.088 71.7735 154.088 71.4991 154.088C71.4338 153.886 71.375 153.67 71.3228 153.435C72.0775 153.659 72.8557 153.795 73.6416 153.84ZM90.6246 148.144C90.4747 147.625 90.2801 147.12 90.0431 146.635H88.6975C86.3591 146.635 84.0141 146.59 81.6757 146.727C80.5261 146.799 79.3699 146.962 78.2203 147.079C76.0517 147.322 73.8705 147.436 71.6884 147.419C71.597 147.667 71.5056 147.922 71.4337 148.183H71.5251C72.3482 148.108 73.1757 148.095 74.0007 148.144C74.6931 148.085 75.3072 147.844 76.0192 147.726C77.9787 147.399 79.9383 147.602 81.9436 147.55L85.7712 147.465C86.4285 147.474 87.084 147.537 87.7308 147.654C88.6975 147.798 89.6644 148.02 90.6246 148.144ZM80.8854 140.998C78.9851 141.022 77.1313 141.589 75.5423 142.631C75.8036 142.599 76.4567 142.553 76.6135 142.553C76.7703 142.553 77.6521 142.455 77.7566 142.455C77.8611 142.455 79.2459 142.109 79.4026 142.083C79.5594 142.056 81.1859 141.873 81.297 141.867L82.4922 141.828L84.0665 141.469C83.039 141.139 81.9643 140.98 80.8854 140.998ZM77.43 158.634H76.2086C76.1302 158.634 74.7455 158.765 74.7455 158.765C76.5609 160.236 78.8366 161.02 81.1728 160.979C83.5421 160.95 85.8235 160.077 87.6067 158.517H86.1501L83.8313 158.765C83.5112 158.798 82.4204 158.811 82.342 158.811L81.0356 158.883L79.7292 158.634C79.6182 158.634 78.8213 158.543 78.7364 158.543L77.43 158.634Z" fill="#115880"/>
<path opacity="0.2" d="M72.8702 145.198C75.7965 149.483 82.2304 157.609 88.7101 157.446C87.7867 158.552 86.6349 159.445 85.3338 160.064C84.0326 160.683 82.613 161.013 81.1722 161.032C79.8567 161.051 78.5502 160.812 77.3272 160.327C76.1043 159.841 74.9891 159.12 74.0452 158.203C73.1013 157.286 72.3472 156.193 71.8261 154.985C71.3051 153.776 71.0274 152.477 71.0087 151.162C70.9732 149.026 71.6258 146.935 72.8702 145.198Z" fill="#222A3C"/>
<path opacity="0.2" d="M71.0282 150.45C74.1178 154.447 80.0617 160.202 87.7171 158.471C85.923 160.09 83.6012 161 81.1852 161.032C79.8697 161.051 78.5632 160.812 77.3402 160.327C76.1173 159.841 75.0021 159.12 74.0582 158.203C73.1143 157.286 72.3602 156.193 71.8392 154.985C71.3181 153.776 71.0404 152.478 71.0217 151.162C71.0021 150.92 71.0152 150.672 71.0282 150.45Z" fill="#222A3C"/>
<path opacity="0.3" d="M77.2338 143.324C75.8164 145.74 77.4362 149.326 80.8524 151.338C84.2686 153.35 88.1878 153.01 89.6118 150.594C91.0357 148.177 89.4092 144.591 85.9931 142.585C82.5769 140.58 78.6578 140.907 77.2338 143.324Z" fill="url(#paint2_linear)"/>
<path opacity="0.3" d="M80.3756 143.01C79.5265 144.454 80.6435 146.687 82.8709 147.994C85.0983 149.3 87.5869 149.189 88.4361 147.746C89.2852 146.302 88.1682 144.075 85.9408 142.762C83.7135 141.449 81.2248 141.566 80.3756 143.01Z" fill="white"/>
<path d="M95.3141 113.603C94.8177 116.601 104.276 120.906 116.438 123.205C128.601 125.504 138.869 124.949 139.372 121.951C139.875 118.953 130.403 114.655 118.241 112.349C106.079 110.043 95.8105 110.605 95.3141 113.603ZM99.8407 114.518C100.331 111.565 109.704 111.696 118.28 113.316C126.857 114.936 135.701 118.267 135.211 121.219C134.721 124.172 125.348 124.048 116.771 122.421C108.195 120.795 99.3638 117.477 99.8407 114.518ZM101.232 114.727C100.866 116.921 107.764 120.063 116.68 121.749C125.596 123.434 133.088 123.022 133.447 120.834C133.807 118.646 126.915 115.491 117.999 113.806C109.083 112.121 101.591 112.532 101.232 114.746V114.727ZM104.544 115.38C104.903 113.218 111.729 113.316 118.026 114.505C124.322 115.693 130.769 118.123 130.436 120.285C130.103 122.447 123.218 122.349 116.948 121.161C110.677 119.972 104.184 117.555 104.544 115.4V115.38Z" fill="#FFF4E9"/>
<path d="M107.575 120.265C107.58 120.183 107.468 120.108 107.324 120.099C107.18 120.09 107.059 120.149 107.054 120.232C107.048 120.315 107.161 120.39 107.305 120.399C107.449 120.408 107.57 120.348 107.575 120.265Z" fill="#DC8231"/>
<path d="M105.354 116.314C105.253 117.882 105.462 119.454 105.969 120.941C106.476 122.428 107.272 123.801 108.31 124.98C109.348 126.159 110.608 127.122 112.018 127.814C113.429 128.506 114.962 128.913 116.53 129.012C119.696 129.213 122.811 128.148 125.192 126.052C127.573 123.957 129.025 121.002 129.228 117.836C129.428 114.671 128.364 111.555 126.268 109.174C124.173 106.793 121.217 105.341 118.052 105.138C116.484 105.038 114.912 105.248 113.426 105.755C111.939 106.263 110.567 107.058 109.388 108.096C108.209 109.134 107.246 110.394 106.553 111.804C105.861 113.214 105.454 114.747 105.354 116.314Z" fill="#FCD09F"/>
<path d="M118.554 125.903C119.723 125.734 120.916 125.871 122.016 126.301C122.878 126.589 123.904 126.158 124.845 126.341C122.513 128.254 119.54 129.209 116.53 129.012C114.308 128.874 112.17 128.116 110.357 126.824L110.814 126.726C112.049 126.562 113.292 126.464 114.537 126.432C115.883 126.308 117.228 126.151 118.554 125.903Z" fill="#DC8231"/>
<path d="M109.73 118.012C110.312 117.849 110.86 117.614 111.448 117.483C112.173 117.38 112.908 117.365 113.636 117.438C115.088 117.36 116.533 117.184 117.96 116.909C119.075 116.848 120.189 117.031 121.226 117.444C121.907 117.696 122.612 117.878 123.33 117.986C124.056 118.013 124.781 118.085 125.498 118.202C126.694 118.489 127.882 118.777 129.084 119.025C129.026 119.401 128.947 119.774 128.849 120.142L128.366 120.057C127.19 119.848 126.06 119.476 124.891 119.24C123.722 119.005 122.461 119.064 121.22 118.653C119.853 118.107 118.358 117.971 116.915 118.261C115.674 118.518 114.406 118.624 113.14 118.574C112.415 118.531 111.687 118.604 110.984 118.79C110.403 118.96 109.861 119.182 109.266 119.299C108.149 119.515 106.987 118.986 105.968 118.646C105.778 118.581 105.589 118.522 105.4 118.476C105.353 118.071 105.329 117.663 105.328 117.255C106.81 117.614 108.169 118.424 109.73 118.012Z" fill="#DC8231"/>
<path d="M108.822 121.357C110.181 121.122 111.559 121.305 112.937 121.056C114.1 120.847 115.674 120.266 116.856 120.651C117.247 120.794 117.616 120.989 117.953 121.233C118.372 121.52 119.214 121.115 119.763 121.285C120.311 121.455 120.743 121.736 121.246 121.938C121.749 122.141 122.656 121.755 123.205 121.683C124.564 121.507 125.922 122.128 127.157 122.604L127.81 122.853C127.441 123.533 127.003 124.174 126.504 124.766C125.491 124.316 124.381 123.845 123.388 123.976C122.265 124.126 121.35 124.433 120.24 123.976C119.645 123.734 119.358 123.427 118.685 123.617C118.077 123.719 117.453 123.591 116.934 123.258C116.464 122.977 116.334 122.82 115.759 122.885C115.184 122.951 114.452 123.101 113.845 123.225C112.47 123.421 111.085 123.532 109.697 123.558C108.988 123.619 108.289 123.773 107.62 124.015C107.182 123.398 106.802 122.742 106.483 122.056C107.238 121.748 108.022 121.514 108.822 121.357Z" fill="#FDE1C6"/>
<path d="M114.884 107.196C113.747 107.052 112.591 106.784 111.441 106.647C113.452 105.513 115.749 104.989 118.052 105.138C120.15 105.259 122.179 105.936 123.93 107.098C122.885 107.189 121.84 107.189 120.978 107.235C118.949 107.389 116.911 107.375 114.884 107.196Z" fill="#F9B774"/>
<path d="M127.954 111.657C126.883 111.356 125.792 111.138 124.688 111.004C123.664 110.9 122.633 110.911 121.611 111.036C120.39 111.102 119.165 111.01 117.967 110.762C117.464 110.664 116.961 110.553 116.464 110.442C115.823 110.33 115.163 110.405 114.563 110.657C113.495 110.911 112.392 110.991 111.297 110.893C110.135 110.84 109.011 110.932 107.849 110.964C107.581 110.968 107.314 110.942 107.052 110.886C107.546 110.081 108.131 109.336 108.796 108.665C109.678 108.633 110.553 108.548 111.448 108.593C112.596 108.673 113.749 108.534 114.844 108.182C116.059 107.803 117.313 108.312 118.509 108.541C120.854 108.992 123.159 108.437 125.511 108.809L125.975 108.887C126.76 109.714 127.426 110.646 127.954 111.657Z" fill="#DC8231"/>
<path d="M111.696 113.061C113.059 112.717 114.458 112.544 115.864 112.545C117.32 112.617 118.816 112.741 120.26 112.924C120.947 113.033 121.62 113.219 122.265 113.479C123.005 113.718 123.779 113.837 124.558 113.832C126.023 113.89 127.483 114.047 128.927 114.302C128.973 114.498 129.012 114.701 129.051 114.91C127.554 114.634 126.039 114.466 124.518 114.407C123.424 114.377 122.343 114.156 121.324 113.754C119.881 113.231 118.143 113.342 116.628 113.192C113.91 112.917 111.402 114.002 108.678 113.845C107.712 113.786 106.758 113.701 105.811 113.734C105.863 113.545 105.928 113.355 105.994 113.166C106.361 113.146 106.73 113.146 107.098 113.166C108.629 113.32 110.173 113.285 111.696 113.061Z" fill="#FDE1C6"/>
<path d="M115.192 120.006C115.205 119.782 114.906 119.582 114.524 119.559C114.141 119.537 113.82 119.699 113.807 119.923C113.794 120.146 114.093 120.346 114.475 120.369C114.858 120.392 115.178 120.23 115.192 120.006Z" fill="#DC8231"/>
<path d="M126.167 115.811C126.181 115.588 125.883 115.387 125.501 115.363C125.12 115.339 124.799 115.5 124.785 115.723C124.77 115.946 125.068 116.147 125.45 116.171C125.831 116.196 126.152 116.034 126.167 115.811Z" fill="#DC8231"/>
<path d="M111.291 120.446C111.305 120.223 111.007 120.022 110.625 119.998C110.244 119.974 109.923 120.135 109.909 120.358C109.894 120.581 110.192 120.782 110.574 120.806C110.955 120.831 111.276 120.669 111.291 120.446Z" fill="#DC8231"/>
<path d="M126.418 111.243C126.431 111.02 126.132 110.82 125.75 110.797C125.367 110.774 125.047 110.937 125.033 111.16C125.02 111.384 125.319 111.584 125.701 111.607C126.084 111.63 126.404 111.467 126.418 111.243Z" fill="#DC8231"/>
<path d="M115.813 125.483C115.821 125.347 115.642 125.224 115.411 125.209C115.181 125.194 114.987 125.293 114.978 125.43C114.969 125.567 115.149 125.69 115.38 125.704C115.61 125.719 115.804 125.62 115.813 125.483Z" fill="#DC8231"/>
<path d="M116.757 114.31C116.766 114.173 116.586 114.05 116.356 114.035C116.126 114.021 115.932 114.12 115.923 114.257C115.914 114.393 116.094 114.516 116.324 114.531C116.555 114.545 116.749 114.447 116.757 114.31Z" fill="#DC8231"/>
<path d="M128.664 125.107C128.673 124.97 128.492 124.847 128.261 124.834C128.03 124.82 127.837 124.92 127.828 125.057C127.82 125.194 128.001 125.316 128.232 125.33C128.462 125.344 128.656 125.244 128.664 125.107Z" fill="#DC8231"/>
<path d="M112.157 107.97C112.162 107.887 112.05 107.812 111.906 107.803C111.762 107.794 111.641 107.853 111.636 107.936C111.63 108.019 111.743 108.094 111.887 108.103C112.031 108.112 112.152 108.052 112.157 107.97Z" fill="#DC8231"/>
<path d="M122.963 107.917C122.968 107.834 122.856 107.759 122.712 107.75C122.568 107.741 122.447 107.801 122.442 107.884C122.436 107.966 122.549 108.041 122.693 108.05C122.837 108.059 122.958 108 122.963 107.917Z" fill="#DC8231"/>
<path d="M120.798 115.348C120.803 115.265 120.691 115.191 120.547 115.181C120.403 115.172 120.282 115.232 120.277 115.315C120.271 115.398 120.384 115.472 120.528 115.481C120.672 115.491 120.793 115.431 120.798 115.348Z" fill="#DC8231"/>
<path d="M112.559 116.053C112.559 116.138 112.663 116.21 112.807 116.223C112.951 116.236 113.068 116.17 113.075 116.085C113.081 116 112.97 115.922 112.827 115.916C112.683 115.909 112.565 115.961 112.559 116.053Z" fill="#DC8231"/>
<path d="M110.586 111.622C110.592 111.539 110.479 111.465 110.335 111.455C110.191 111.446 110.07 111.506 110.065 111.589C110.059 111.671 110.172 111.746 110.316 111.755C110.46 111.764 110.581 111.705 110.586 111.622Z" fill="#DC8231"/>
<path d="M116.758 119.502C116.758 119.587 116.863 119.658 117.007 119.672C117.15 119.685 117.268 119.619 117.274 119.534C117.281 119.449 117.17 119.371 117.026 119.365C116.883 119.358 116.765 119.417 116.758 119.502Z" fill="#DC8231"/>
<path d="M118.956 125.027C118.962 124.944 118.849 124.869 118.705 124.86C118.561 124.851 118.44 124.911 118.435 124.993C118.43 125.076 118.542 125.151 118.686 125.16C118.83 125.169 118.951 125.109 118.956 125.027Z" fill="#DC8231"/>
<path d="M111.409 125.073C111.409 125.158 111.513 125.237 111.657 125.243C111.801 125.25 111.918 125.191 111.925 125.106C111.931 125.021 111.82 124.949 111.677 124.936C111.533 124.923 111.415 124.988 111.409 125.073Z" fill="#DC8231"/>
<path d="M126.053 120.87C126.058 120.788 125.946 120.713 125.802 120.704C125.658 120.695 125.537 120.754 125.532 120.837C125.526 120.92 125.639 120.995 125.783 121.004C125.927 121.013 126.048 120.953 126.053 120.87Z" fill="#DC8231"/>
<path d="M125.394 112.369C125.394 112.454 125.498 112.526 125.642 112.539C125.785 112.552 125.903 112.486 125.909 112.401C125.916 112.317 125.805 112.245 125.661 112.232C125.518 112.219 125.4 112.284 125.394 112.369Z" fill="#DC8231"/>
<path d="M115.812 111.481C115.812 111.565 115.916 111.644 116.06 111.65C116.204 111.657 116.321 111.598 116.328 111.513C116.334 111.428 116.223 111.356 116.079 111.343C115.936 111.33 115.812 111.402 115.812 111.481Z" fill="#DC8231"/>
<path opacity="0.2" d="M108.195 109.305C111.722 115.008 118.372 124.048 125.773 125.505C124.573 126.716 123.127 127.657 121.532 128.262C119.938 128.867 118.232 129.123 116.53 129.012C114.962 128.913 113.429 128.506 112.018 127.814C110.608 127.122 109.348 126.159 108.31 124.98C107.272 123.801 106.476 122.428 105.969 120.941C105.462 119.454 105.253 117.882 105.354 116.314C105.514 113.731 106.511 111.271 108.195 109.305Z" fill="#222A3C"/>
<path opacity="0.2" d="M105.373 116.053C109.005 121.063 115.256 127.353 123.663 127.19C121.536 128.543 119.033 129.184 116.517 129.019C114.949 128.92 113.416 128.513 112.005 127.821C110.595 127.129 109.334 126.166 108.296 124.986C107.258 123.807 106.463 122.435 105.956 120.948C105.449 119.461 105.24 117.888 105.341 116.321L105.373 116.053Z" fill="#222A3C"/>
<path d="M95.314 113.603C95.6275 111.703 99.8863 110.782 106.052 110.952C105.896 111.376 105.7 111.801 105.53 112.225C102.316 112.408 100.069 113.114 99.8406 114.518C99.3507 117.477 108.195 120.795 116.771 122.422C125.348 124.048 134.721 124.179 135.211 121.22C135.459 119.743 133.369 118.176 130.142 116.771C130.165 116.349 130.165 115.926 130.142 115.504C136.021 117.614 139.718 120.044 139.404 121.951C138.901 124.949 128.64 125.511 116.471 123.205C104.302 120.9 94.7914 116.602 95.314 113.603Z" fill="#FFF4E9"/>
<path d="M105.315 112.898V112.983C105.189 113.5 105.136 114.032 105.158 114.564C105.007 114.653 104.876 114.773 104.773 114.916C104.671 115.059 104.6 115.221 104.563 115.393C104.204 117.555 110.677 119.965 116.974 121.174C123.271 122.382 130.103 122.48 130.463 120.299C130.473 119.996 130.406 119.696 130.269 119.427C130.132 119.157 129.929 118.927 129.679 118.757C129.866 118.368 130.007 117.958 130.097 117.536C132.37 118.685 133.663 119.854 133.5 120.834C133.141 123.022 125.662 123.447 116.732 121.749C107.803 120.05 100.919 116.922 101.284 114.727C101.389 113.767 102.911 113.153 105.315 112.898Z" fill="#FFF4E9"/>
<path opacity="0.5" d="M113.924 107.476C112.153 110.089 113.714 114.237 117.411 116.732C121.109 119.227 125.531 119.142 127.294 116.53C129.058 113.917 127.503 109.769 123.813 107.274C120.122 104.779 115.694 104.864 113.924 107.476Z" fill="url(#paint3_linear)"/>
<path opacity="0.4" d="M117.471 107.352C116.412 108.913 117.51 111.493 119.913 113.126C122.317 114.759 125.139 114.805 126.184 113.244C127.229 111.683 126.145 109.103 123.741 107.47C121.338 105.837 118.529 105.791 117.471 107.352Z" fill="white"/>
<path opacity="0.3" d="M339.562 23.4238C340.403 23.4238 341.084 22.7424 341.084 21.9018C341.084 21.0613 340.403 20.3799 339.562 20.3799C338.721 20.3799 338.04 21.0613 338.04 21.9018C338.04 22.7424 338.721 23.4238 339.562 23.4238Z" fill="white"/>
<path opacity="0.3" d="M316.224 50.1396C317.064 50.1396 317.746 49.4582 317.746 48.6176C317.746 47.7771 317.064 47.0957 316.224 47.0957C315.383 47.0957 314.702 47.7771 314.702 48.6176C314.702 49.4582 315.383 50.1396 316.224 50.1396Z" fill="white"/>
<path opacity="0.3" d="M268.063 19.7204C268.904 19.7204 269.585 19.039 269.585 18.1984C269.585 17.3579 268.904 16.6765 268.063 16.6765C267.223 16.6765 266.542 17.3579 266.542 18.1984C266.542 19.039 267.223 19.7204 268.063 19.7204Z" fill="white"/>
<path opacity="0.3" d="M231.949 20.0927C232.789 20.0927 233.471 19.4113 233.471 18.5708C233.471 17.7302 232.789 17.0488 231.949 17.0488C231.108 17.0488 230.427 17.7302 230.427 18.5708C230.427 19.4113 231.108 20.0927 231.949 20.0927Z" fill="white"/>
<path opacity="0.3" d="M183.534 24.7565C184.375 24.7565 185.056 24.0751 185.056 23.2346C185.056 22.394 184.375 21.7126 183.534 21.7126C182.694 21.7126 182.012 22.394 182.012 23.2346C182.012 24.0751 182.694 24.7565 183.534 24.7565Z" fill="white"/>
<path opacity="0.3" d="M156.969 36.945C157.81 36.945 158.491 36.2636 158.491 35.4231C158.491 34.5825 157.81 33.9011 156.969 33.9011C156.129 33.9011 155.447 34.5825 155.447 35.4231C155.447 36.2636 156.129 36.945 156.969 36.945Z" fill="white"/>
<path opacity="0.3" d="M111.174 16.5719C112.014 16.5719 112.696 15.8906 112.696 15.05C112.696 14.2095 112.014 13.5281 111.174 13.5281C110.333 13.5281 109.652 14.2095 109.652 15.05C109.652 15.8906 110.333 16.5719 111.174 16.5719Z" fill="white"/>
<path opacity="0.3" d="M274.55 34.5805C275.39 34.5805 276.072 33.8991 276.072 33.0586C276.072 32.218 275.39 31.5366 274.55 31.5366C273.709 31.5366 273.028 32.218 273.028 33.0586C273.028 33.8991 273.709 34.5805 274.55 34.5805Z" fill="white"/>
<path opacity="0.3" d="M250.839 26.3893C251.679 26.3893 252.361 25.7079 252.361 24.8674C252.361 24.0269 251.679 23.3455 250.839 23.3455C249.998 23.3455 249.317 24.0269 249.317 24.8674C249.317 25.7079 249.998 26.3893 250.839 26.3893Z" fill="white"/>
<path opacity="0.3" d="M180.595 59.3625C181.435 59.3625 182.117 58.6811 182.117 57.8405C182.117 57 181.435 56.3186 180.595 56.3186C179.754 56.3186 179.073 57 179.073 57.8405C179.073 58.6811 179.754 59.3625 180.595 59.3625Z" fill="white"/>
<path opacity="0.3" d="M183.417 95.5231C184.257 95.5231 184.939 94.8417 184.939 94.0012C184.939 93.1606 184.257 92.4792 183.417 92.4792C182.576 92.4792 181.895 93.1606 181.895 94.0012C181.895 94.8417 182.576 95.5231 183.417 95.5231Z" fill="white"/>
<path opacity="0.3" d="M167.485 125.341C168.326 125.341 169.007 124.66 169.007 123.819C169.007 122.979 168.326 122.297 167.485 122.297C166.645 122.297 165.963 122.979 165.963 123.819C165.963 124.66 166.645 125.341 167.485 125.341Z" fill="white"/>
<path opacity="0.3" d="M170.817 154.794C171.657 154.794 172.339 154.112 172.339 153.272C172.339 152.431 171.657 151.75 170.817 151.75C169.976 151.75 169.295 152.431 169.295 153.272C169.295 154.112 169.976 154.794 170.817 154.794Z" fill="white"/>
<path opacity="0.3" d="M129.182 155.643C130.308 155.643 131.22 154.73 131.22 153.605C131.22 152.479 130.308 151.567 129.182 151.567C128.056 151.567 127.144 152.479 127.144 153.605C127.144 154.73 128.056 155.643 129.182 155.643Z" fill="white"/>
<path opacity="0.3" d="M130.071 146.381C131.196 146.381 132.109 145.468 132.109 144.343C132.109 143.217 131.196 142.305 130.071 142.305C128.945 142.305 128.033 143.217 128.033 144.343C128.033 145.468 128.945 146.381 130.071 146.381Z" fill="white"/>
<path opacity="0.3" d="M46.3446 133.97C47.4701 133.97 48.3826 133.058 48.3826 131.932C48.3826 130.806 47.4701 129.894 46.3446 129.894C45.2191 129.894 44.3066 130.806 44.3066 131.932C44.3066 133.058 45.2191 133.97 46.3446 133.97Z" fill="white"/>
<path opacity="0.3" d="M9.66833 132.487C10.7939 132.487 11.7063 131.575 11.7063 130.449C11.7063 129.324 10.7939 128.411 9.66833 128.411C8.54279 128.411 7.63037 129.324 7.63037 130.449C7.63037 131.575 8.54279 132.487 9.66833 132.487Z" fill="white"/>
<path opacity="0.3" d="M134.146 173.05C134.987 173.05 135.668 172.369 135.668 171.528C135.668 170.688 134.987 170.006 134.146 170.006C133.306 170.006 132.625 170.688 132.625 171.528C132.625 172.369 133.306 173.05 134.146 173.05Z" fill="white"/>
<path opacity="0.3" d="M147.851 135.858C148.691 135.858 149.372 135.176 149.372 134.336C149.372 133.495 148.691 132.814 147.851 132.814C147.01 132.814 146.329 133.495 146.329 134.336C146.329 135.176 147.01 135.858 147.851 135.858Z" fill="white"/>
<path opacity="0.3" d="M94.3217 123.303C95.1623 123.303 95.8437 122.622 95.8437 121.781C95.8437 120.941 95.1623 120.26 94.3217 120.26C93.4812 120.26 92.7998 120.941 92.7998 121.781C92.7998 122.622 93.4812 123.303 94.3217 123.303Z" fill="white"/>
<path opacity="0.3" d="M86.4897 108.62C87.3302 108.62 88.0116 107.938 88.0116 107.098C88.0116 106.257 87.3302 105.576 86.4897 105.576C85.6492 105.576 84.9678 106.257 84.9678 107.098C84.9678 107.938 85.6492 108.62 86.4897 108.62Z" fill="white"/>
<path opacity="0.3" d="M78.3901 96.0326C79.2306 96.0326 79.912 95.3512 79.912 94.5107C79.912 93.6702 79.2306 92.9888 78.3901 92.9888C77.5496 92.9888 76.8682 93.6702 76.8682 94.5107C76.8682 95.3512 77.5496 96.0326 78.3901 96.0326Z" fill="white"/>
<path opacity="0.3" d="M69.1279 78.808C69.9684 78.808 70.6498 78.1266 70.6498 77.2861C70.6498 76.4456 69.9684 75.7642 69.1279 75.7642C68.2873 75.7642 67.606 76.4456 67.606 77.2861C67.606 78.1266 68.2873 78.808 69.1279 78.808Z" fill="white"/>
<path opacity="0.3" d="M81.9111 56.6257C82.7516 56.6257 83.433 55.9443 83.433 55.1037C83.433 54.2632 82.7516 53.5818 81.9111 53.5818C81.0705 53.5818 80.3892 54.2632 80.3892 55.1037C80.3892 55.9443 81.0705 56.6257 81.9111 56.6257Z" fill="white"/>
<path opacity="0.3" d="M39.6757 42.8759C40.5163 42.8759 41.1977 42.1945 41.1977 41.354C41.1977 40.5134 40.5163 39.832 39.6757 39.832C38.8352 39.832 38.1538 40.5134 38.1538 41.354C38.1538 42.1945 38.8352 42.8759 39.6757 42.8759Z" fill="white"/>
<path opacity="0.3" d="M5.03658 14.1618C5.87712 14.1618 6.55852 13.4804 6.55852 12.6399C6.55852 11.7993 5.87712 11.1179 5.03658 11.1179C4.19604 11.1179 3.51465 11.7993 3.51465 12.6399C3.51465 13.4804 4.19604 14.1618 5.03658 14.1618Z" fill="white"/>
<path opacity="0.3" d="M41.8966 20.7067C42.5676 20.7067 43.1115 20.1628 43.1115 19.4918C43.1115 18.8208 42.5676 18.2769 41.8966 18.2769C41.2256 18.2769 40.6816 18.8208 40.6816 19.4918C40.6816 20.1628 41.2256 20.7067 41.8966 20.7067Z" fill="white"/>
<path opacity="0.3" d="M60.9238 116.399C61.7643 116.399 62.4457 115.718 62.4457 114.877C62.4457 114.037 61.7643 113.355 60.9238 113.355C60.0832 113.355 59.4019 114.037 59.4019 114.877C59.4019 115.718 60.0832 116.399 60.9238 116.399Z" fill="white"/>
<path opacity="0.3" d="M3.18844 116.412C4.02898 116.412 4.71037 115.731 4.71037 114.89C4.71037 114.05 4.02898 113.368 3.18844 113.368C2.3479 113.368 1.6665 114.05 1.6665 114.89C1.6665 115.731 2.3479 116.412 3.18844 116.412Z" fill="white"/>
<path opacity="0.3" d="M6.46773 83.9421C7.30828 83.9421 7.98967 83.2607 7.98967 82.4201C7.98967 81.5796 7.30828 80.8982 6.46773 80.8982C5.62719 80.8982 4.9458 81.5796 4.9458 82.4201C4.9458 83.2607 5.62719 83.9421 6.46773 83.9421Z" fill="white"/>
<path opacity="0.3" d="M5.1152 147.576C5.95574 147.576 6.63713 146.894 6.63713 146.054C6.63713 145.213 5.95574 144.532 5.1152 144.532C4.27465 144.532 3.59326 145.213 3.59326 146.054C3.59326 146.894 4.27465 147.576 5.1152 147.576Z" fill="white"/>
<path opacity="0.3" d="M3.63912 174.474C4.47966 174.474 5.16105 173.793 5.16105 172.952C5.16105 172.112 4.47966 171.43 3.63912 171.43C2.79858 171.43 2.11719 172.112 2.11719 172.952C2.11719 173.793 2.79858 174.474 3.63912 174.474Z" fill="white"/>
<path opacity="0.3" d="M137.295 145.675C138.031 145.675 138.627 145.078 138.627 144.343C138.627 143.607 138.031 143.01 137.295 143.01C136.559 143.01 135.962 143.607 135.962 144.343C135.962 145.078 136.559 145.675 137.295 145.675Z" fill="white"/>
<path opacity="0.3" d="M42.641 64.1633C43.2507 64.1633 43.7449 63.6691 43.7449 63.0595C43.7449 62.4498 43.2507 61.9556 42.641 61.9556C42.0313 61.9556 41.5371 62.4498 41.5371 63.0595C41.5371 63.6691 42.0313 64.1633 42.641 64.1633Z" fill="white"/>
<path opacity="0.3" d="M2.62684 48.9375C3.2365 48.9375 3.73073 48.4433 3.73073 47.8336C3.73073 47.224 3.2365 46.7297 2.62684 46.7297C2.01718 46.7297 1.52295 47.224 1.52295 47.8336C1.52295 48.4433 2.01718 48.9375 2.62684 48.9375Z" fill="white"/>
<path opacity="0.3" d="M56.3452 149.529C57.0811 149.529 57.6777 148.932 57.6777 148.196C57.6777 147.46 57.0811 146.864 56.3452 146.864C55.6093 146.864 55.0127 147.46 55.0127 148.196C55.0127 148.932 55.6093 149.529 56.3452 149.529Z" fill="white"/>
<path opacity="0.3" d="M59.6826 174.722C60.4185 174.722 61.0151 174.126 61.0151 173.39C61.0151 172.654 60.4185 172.057 59.6826 172.057C58.9467 172.057 58.3501 172.654 58.3501 173.39C58.3501 174.126 58.9467 174.722 59.6826 174.722Z" fill="white"/>
<path opacity="0.3" d="M68.5727 147.341C69.3087 147.341 69.9053 146.744 69.9053 146.008C69.9053 145.272 69.3087 144.676 68.5727 144.676C67.8368 144.676 67.2402 145.272 67.2402 146.008C67.2402 146.744 67.8368 147.341 68.5727 147.341Z" fill="white"/>
<path opacity="0.3" d="M114.322 181.607C115.058 181.607 115.655 181.01 115.655 180.274C115.655 179.538 115.058 178.942 114.322 178.942C113.586 178.942 112.99 179.538 112.99 180.274C112.99 181.01 113.586 181.607 114.322 181.607Z" fill="white"/>
<path opacity="0.3" d="M117.987 103.257C118.827 103.257 119.509 102.575 119.509 101.735C119.509 100.894 118.827 100.213 117.987 100.213C117.146 100.213 116.465 100.894 116.465 101.735C116.465 102.575 117.146 103.257 117.987 103.257Z" fill="white"/>
<path opacity="0.3" d="M104.838 73.9941C105.678 73.9941 106.36 73.3127 106.36 72.4721C106.36 71.6316 105.678 70.9502 104.838 70.9502C103.997 70.9502 103.316 71.6316 103.316 72.4721C103.316 73.3127 103.997 73.9941 104.838 73.9941Z" fill="white"/>
<path opacity="0.3" d="M146.185 54.9533C147.026 54.9533 147.707 54.2719 147.707 53.4314C147.707 52.5908 147.026 51.9094 146.185 51.9094C145.344 51.9094 144.663 52.5908 144.663 53.4314C144.663 54.2719 145.344 54.9533 146.185 54.9533Z" fill="white"/>
<path opacity="0.3" d="M108.953 52.321C109.794 52.321 110.475 51.6396 110.475 50.799C110.475 49.9585 109.794 49.2771 108.953 49.2771C108.113 49.2771 107.431 49.9585 107.431 50.799C107.431 51.6396 108.113 52.321 108.953 52.321Z" fill="white"/>
<path opacity="0.3" d="M93.0214 30.8769C93.862 30.8769 94.5434 30.1955 94.5434 29.3549C94.5434 28.5144 93.862 27.833 93.0214 27.833C92.1809 27.833 91.4995 28.5144 91.4995 29.3549C91.4995 30.1955 92.1809 30.8769 93.0214 30.8769Z" fill="white"/>
<path opacity="0.3" d="M155.63 16.1996C156.47 16.1996 157.152 15.5182 157.152 14.6777C157.152 13.8372 156.47 13.1558 155.63 13.1558C154.789 13.1558 154.108 13.8372 154.108 14.6777C154.108 15.5182 154.789 16.1996 155.63 16.1996Z" fill="white"/>
<path opacity="0.3" d="M149.706 84.9218C150.546 84.9218 151.227 84.2404 151.227 83.3999C151.227 82.5593 150.546 81.8779 149.706 81.8779C148.865 81.8779 148.184 82.5593 148.184 83.3999C148.184 84.2404 148.865 84.9218 149.706 84.9218Z" fill="white"/>
<path opacity="0.3" d="M175.082 73.393C175.923 73.393 176.604 72.7116 176.604 71.8711C176.604 71.0305 175.923 70.3491 175.082 70.3491C174.241 70.3491 173.56 71.0305 173.56 71.8711C173.56 72.7116 174.241 73.393 175.082 73.393Z" fill="white"/>
<path opacity="0.3" d="M142.847 93.7726C143.688 93.7726 144.369 93.0912 144.369 92.2507C144.369 91.4102 143.688 90.7288 142.847 90.7288C142.007 90.7288 141.325 91.4102 141.325 92.2507C141.325 93.0912 142.007 93.7726 142.847 93.7726Z" fill="white"/>
<path opacity="0.3" d="M135.44 83.622C136.28 83.622 136.962 82.9406 136.962 82.1001C136.962 81.2595 136.28 80.5781 135.44 80.5781C134.599 80.5781 133.918 81.2595 133.918 82.1001C133.918 82.9406 134.599 83.622 135.44 83.622Z" fill="white"/>
<path opacity="0.3" d="M205.233 97.8876C206.074 97.8876 206.755 97.2062 206.755 96.3657C206.755 95.5251 206.074 94.8438 205.233 94.8438C204.393 94.8438 203.711 95.5251 203.711 96.3657C203.711 97.2062 204.393 97.8876 205.233 97.8876Z" fill="white"/>
<path opacity="0.3" d="M175.265 139.849C176.571 139.849 177.63 138.79 177.63 137.484C177.63 136.178 176.571 135.12 175.265 135.12C173.959 135.12 172.9 136.178 172.9 137.484C172.9 138.79 173.959 139.849 175.265 139.849Z" fill="white"/>
<path opacity="0.3" d="M308.392 157.08C309.698 157.08 310.756 156.021 310.756 154.715C310.756 153.409 309.698 152.351 308.392 152.351C307.086 152.351 306.027 153.409 306.027 154.715C306.027 156.021 307.086 157.08 308.392 157.08Z" fill="white"/>
<path opacity="0.3" d="M210.459 162.906C211.299 162.906 211.981 162.225 211.981 161.384C211.981 160.544 211.299 159.862 210.459 159.862C209.618 159.862 208.937 160.544 208.937 161.384C208.937 162.225 209.618 162.906 210.459 162.906Z" fill="white"/>
<path opacity="0.3" d="M156.186 173.788C157.026 173.788 157.707 173.107 157.707 172.267C157.707 171.426 157.026 170.745 156.186 170.745C155.345 170.745 154.664 171.426 154.664 172.267C154.664 173.107 155.345 173.788 156.186 173.788Z" fill="white"/>
<path opacity="0.3" d="M329.561 114.557C330.402 114.557 331.083 113.876 331.083 113.035C331.083 112.195 330.402 111.513 329.561 111.513C328.721 111.513 328.04 112.195 328.04 113.035C328.04 113.876 328.721 114.557 329.561 114.557Z" fill="white"/>
<path opacity="0.3" d="M320.064 138.601C320.904 138.601 321.586 137.92 321.586 137.079C321.586 136.239 320.904 135.557 320.064 135.557C319.223 135.557 318.542 136.239 318.542 137.079C318.542 137.92 319.223 138.601 320.064 138.601Z" fill="white"/>
<path opacity="0.3" d="M305.204 172.632C306.045 172.632 306.726 171.951 306.726 171.11C306.726 170.27 306.045 169.588 305.204 169.588C304.364 169.588 303.682 170.27 303.682 171.11C303.682 171.951 304.364 172.632 305.204 172.632Z" fill="white"/>
<path opacity="0.3" d="M316.589 155.682C317.43 155.682 318.111 155 318.111 154.16C318.111 153.319 317.43 152.638 316.589 152.638C315.749 152.638 315.067 153.319 315.067 154.16C315.067 155 315.749 155.682 316.589 155.682Z" fill="white"/>
<path opacity="0.3" d="M328.68 139.711C329.52 139.711 330.202 139.03 330.202 138.189C330.202 137.349 329.52 136.667 328.68 136.667C327.839 136.667 327.158 137.349 327.158 138.189C327.158 139.03 327.839 139.711 328.68 139.711Z" fill="white"/>
<path opacity="0.3" d="M307.836 140.959C308.677 140.959 309.358 140.278 309.358 139.437C309.358 138.596 308.677 137.915 307.836 137.915C306.996 137.915 306.314 138.596 306.314 139.437C306.314 140.278 306.996 140.959 307.836 140.959Z" fill="white"/>
<path opacity="0.3" d="M335.12 46.9648C335.961 46.9648 336.642 46.2834 336.642 45.4428C336.642 44.6023 335.961 43.9209 335.12 43.9209C334.28 43.9209 333.598 44.6023 333.598 45.4428C333.598 46.2834 334.28 46.9648 335.12 46.9648Z" fill="white"/>
<path opacity="0.3" d="M328.824 88.1093C329.664 88.1093 330.346 87.4279 330.346 86.5874C330.346 85.7468 329.664 85.0654 328.824 85.0654C327.983 85.0654 327.302 85.7468 327.302 86.5874C327.302 87.4279 327.983 88.1093 328.824 88.1093Z" fill="white"/>
<path opacity="0.3" d="M329.934 61.028C330.775 61.028 331.456 60.3466 331.456 59.5061C331.456 58.6655 330.775 57.9841 329.934 57.9841C329.093 57.9841 328.412 58.6655 328.412 59.5061C328.412 60.3466 329.093 61.028 329.934 61.028Z" fill="white"/>
<path opacity="0.3" d="M327.484 95.1115C328.325 95.1115 329.006 94.4301 329.006 93.5896C329.006 92.749 328.325 92.0676 327.484 92.0676C326.644 92.0676 325.962 92.749 325.962 93.5896C325.962 94.4301 326.644 95.1115 327.484 95.1115Z" fill="white"/>
<path d="M64.1965 182.267L62.8901 178.112L61.8646 181.607L59.0297 180.15L60.1205 183.214L58.0107 185.03L60.9174 185.324V188.452L62.7398 186.199L65.7249 188.452L64.928 184.742L68.2005 182.776L64.1965 182.267Z" fill="#F9B153"/>
<path d="M91.8983 61.7856L90.5854 57.6313L89.5664 61.1259L86.725 59.6693L87.8159 62.7328L85.7061 64.5486L88.6193 64.8426V67.9714L90.4417 65.7178L93.4268 67.9714L92.6233 64.2612L95.9024 62.2951L91.8983 61.7856Z" fill="#F9B153"/>
<path d="M209.871 54.0454L218.016 52.2099L221.556 44.7374L228.911 36.4615L226.501 32.6011L220.067 27.6042L220.021 27.6238L211.236 30.7722L211.223 30.7983L208.924 35.0049L203.763 28.9302L198.028 27.3691L195.168 18.7861L195.011 18.8384L197.898 27.5062L197.944 27.5128L203.666 29.0804L208.956 35.2923L211.354 30.9028L220.034 27.7936L226.39 32.7187L228.702 36.4484L221.413 44.6525L217.905 52.0662L209.838 53.8886L209.871 54.0454Z" fill="#F9B153"/>
<path d="M210.452 21.582H214.345L214.365 21.5689L220.002 17.3167L219.904 17.186L214.286 21.4187H210.524L208.421 19.1129L208.303 19.2175L210.452 21.582Z" fill="#F9B153"/>
<path d="M207.33 29.1L207.356 29.0477L210.563 21.536L210.413 21.4707L207.225 28.9367L203.717 28.9236L203.711 29.0869L207.33 29.1Z" fill="#F9B153"/>
<path d="M211.262 30.9095L211.328 30.7592L207.31 28.9434L207.245 29.0936L211.262 30.9095Z" fill="#F9B153"/>
<path d="M193.926 42.484L198.486 38.4342L195.86 31.935L198.035 27.4737L197.891 27.4019L195.677 31.9285L198.296 38.3885L193.822 42.3599L193.926 42.484Z" fill="#F9B153"/>
<path d="M190.125 34.6914L195.801 32.0068L195.736 31.8565L190.34 34.4105L190.909 31.1511L190.85 31.125L183.345 27.9243L183.279 28.068L190.726 31.2491L190.125 34.6914Z" fill="#F9B153"/>
<path d="M210.922 32.2223C211.485 32.2223 211.941 31.7661 211.941 31.2033C211.941 30.6405 211.485 30.1843 210.922 30.1843C210.36 30.1843 209.903 30.6405 209.903 31.2033C209.903 31.7661 210.36 32.2223 210.922 32.2223Z" fill="#F9B153"/>
<path d="M195.84 32.9474C196.403 32.9474 196.859 32.4912 196.859 31.9284C196.859 31.3656 196.403 30.9094 195.84 30.9094C195.277 30.9094 194.821 31.3656 194.821 31.9284C194.821 32.4912 195.277 32.9474 195.84 32.9474Z" fill="#F9B153"/>
<path d="M193.874 43.2417C194.329 43.2417 194.697 42.8733 194.697 42.4187C194.697 41.9642 194.329 41.5957 193.874 41.5957C193.42 41.5957 193.051 41.9642 193.051 42.4187C193.051 42.8733 193.42 43.2417 193.874 43.2417Z" fill="#F9B153"/>
<path d="M190.157 35.3772C190.612 35.3772 190.981 35.0088 190.981 34.5542C190.981 34.0997 190.612 33.7312 190.157 33.7312C189.703 33.7312 189.334 34.0997 189.334 34.5542C189.334 35.0088 189.703 35.3772 190.157 35.3772Z" fill="#F9B153"/>
<path d="M208.388 20.3604C208.843 20.3604 209.211 19.9919 209.211 19.5374C209.211 19.0828 208.843 18.7144 208.388 18.7144C207.933 18.7144 207.565 19.0828 207.565 19.5374C207.565 19.9919 207.933 20.3604 208.388 20.3604Z" fill="#F9B153"/>
<path d="M210.465 22.3069C210.92 22.3069 211.288 21.9385 211.288 21.4839C211.288 21.0294 210.92 20.6609 210.465 20.6609C210.011 20.6609 209.642 21.0294 209.642 21.4839C209.642 21.9385 210.011 22.3069 210.465 22.3069Z" fill="#F9B153"/>
<path d="M214.358 22.2286C214.813 22.2286 215.181 21.8601 215.181 21.4055C215.181 20.951 214.813 20.5825 214.358 20.5825C213.904 20.5825 213.535 20.951 213.535 21.4055C213.535 21.8601 213.904 22.2286 214.358 22.2286Z" fill="#F9B153"/>
<path d="M220.06 28.3946C220.515 28.3946 220.883 28.0261 220.883 27.5716C220.883 27.117 220.515 26.7485 220.06 26.7485C219.606 26.7485 219.237 27.117 219.237 27.5716C219.237 28.0261 219.606 28.3946 220.06 28.3946Z" fill="#F9B153"/>
<path d="M208.662 35.5928C209.117 35.5928 209.485 35.2243 209.485 34.7698C209.485 34.3153 209.117 33.9468 208.662 33.9468C208.208 33.9468 207.839 34.3153 207.839 34.7698C207.839 35.2243 208.208 35.5928 208.662 35.5928Z" fill="#F9B153"/>
<path d="M203.587 30.0276C204.042 30.0276 204.41 29.6592 204.41 29.2046C204.41 28.7501 204.042 28.3816 203.587 28.3816C203.133 28.3816 202.764 28.7501 202.764 29.2046C202.764 29.6592 203.133 30.0276 203.587 30.0276Z" fill="#F9B153"/>
<path d="M195.128 19.7986C195.583 19.7986 195.951 19.4301 195.951 18.9756C195.951 18.5211 195.583 18.1526 195.128 18.1526C194.674 18.1526 194.305 18.5211 194.305 18.9756C194.305 19.4301 194.674 19.7986 195.128 19.7986Z" fill="#F9B153"/>
<path d="M183.338 28.95C183.793 28.95 184.161 28.5815 184.161 28.127C184.161 27.6724 183.793 27.304 183.338 27.304C182.884 27.304 182.515 27.6724 182.515 28.127C182.515 28.5815 182.884 28.95 183.338 28.95Z" fill="#F9B153"/>
<path d="M219.773 18.1397C220.228 18.1397 220.596 17.7712 220.596 17.3167C220.596 16.8621 220.228 16.4937 219.773 16.4937C219.319 16.4937 218.95 16.8621 218.95 17.3167C218.95 17.7712 219.319 18.1397 219.773 18.1397Z" fill="#F9B153"/>
<path d="M226.579 33.3916C227.034 33.3916 227.402 33.0232 227.402 32.5686C227.402 32.1141 227.034 31.7456 226.579 31.7456C226.125 31.7456 225.756 32.1141 225.756 32.5686C225.756 33.0232 226.125 33.3916 226.579 33.3916Z" fill="#F9B153"/>
<path d="M228.761 37.3892C229.216 37.3892 229.584 37.0207 229.584 36.5662C229.584 36.1116 229.216 35.7432 228.761 35.7432C228.306 35.7432 227.938 36.1116 227.938 36.5662C227.938 37.0207 228.306 37.3892 228.761 37.3892Z" fill="#F9B153"/>
<path d="M221.354 45.3907C221.808 45.3907 222.177 45.0222 222.177 44.5676C222.177 44.1131 221.808 43.7446 221.354 43.7446C220.899 43.7446 220.531 44.1131 220.531 44.5676C220.531 45.0222 220.899 45.3907 221.354 45.3907Z" fill="#F9B153"/>
<path d="M217.853 52.8958C218.307 52.8958 218.676 52.5273 218.676 52.0728C218.676 51.6182 218.307 51.2498 217.853 51.2498C217.398 51.2498 217.03 51.6182 217.03 52.0728C217.03 52.5273 217.398 52.8958 217.853 52.8958Z" fill="#F9B153"/>
<path d="M209.78 54.751C210.234 54.751 210.603 54.3825 210.603 53.928C210.603 53.4735 210.234 53.105 209.78 53.105C209.325 53.105 208.957 53.4735 208.957 53.928C208.957 54.3825 209.325 54.751 209.78 54.751Z" fill="#F9B153"/>
<path d="M228.363 55.3583C222.944 59.249 218.256 64.0675 214.515 69.5913C212.166 73.1616 210.216 76.9796 208.702 80.9764C207.367 84.2959 206.275 87.708 205.436 91.1858C204.419 95.1239 204.129 99.2145 204.58 103.257C204.831 105.171 205.378 107.035 206.2 108.783C207.022 110.398 208.057 111.897 209.276 113.237C210.591 114.641 211.762 116.173 212.771 117.81C213.731 119.572 214.394 121.481 214.731 123.46C215.233 125.848 215.182 128.319 214.58 130.684C213.919 132.852 212.806 134.856 211.314 136.563C210.157 137.829 209.23 139.288 208.577 140.874C207.931 142.751 207.885 144.783 208.447 146.687C208.925 148.052 209.784 149.251 210.922 150.143C212.542 151.501 214.247 152.756 215.815 154.16C216.605 154.872 217.363 155.603 218.108 156.361C218.33 156.59 218.676 156.244 218.454 156.015C216.893 154.422 215.233 152.93 213.483 151.547C212.275 150.587 210.903 149.699 209.936 148.477C208.63 146.844 208.414 144.695 208.662 142.683C208.985 140.767 209.848 138.984 211.151 137.543C212.381 136.138 213.43 134.584 214.273 132.918C215.203 130.825 215.632 128.544 215.528 126.256C215.42 122.483 214.184 118.829 211.981 115.765C210.968 114.407 209.779 113.185 208.715 111.846C207.444 110.293 206.466 108.523 205.828 106.621C204.521 102.702 204.626 98.4427 205.285 94.406C205.933 90.6922 206.933 87.0484 208.271 83.5239C209.546 79.8666 211.135 76.3262 213.019 72.9422C216.665 66.6582 221.518 61.1573 227.298 56.7561C227.742 56.4164 228.193 56.1029 228.643 55.7567C228.898 55.5738 228.644 55.1492 228.395 55.3321L228.363 55.3583Z" fill="white"/>
<path d="M229.773 80.4669C229.011 83.6057 227.742 86.5994 226.017 89.3307C224.646 91.4274 223 93.3347 221.791 95.5425C219.642 99.4617 218.199 104.263 218.741 108.77C219.026 111.073 219.952 113.25 221.413 115.053C223.22 117.44 225.168 119.717 227.246 121.873C228.884 123.438 230.213 125.297 231.165 127.353C232.182 129.696 232.701 132.225 232.687 134.78C232.687 137.745 231.53 140.351 230.779 143.167C229.968 146.408 229.918 149.793 230.636 153.056C230.701 153.369 231.171 153.239 231.112 152.932C230.425 149.82 230.454 146.592 231.197 143.493C231.792 141.187 232.758 138.993 233.059 136.615C233.355 134.21 233.155 131.769 232.469 129.444C231.784 127.12 230.628 124.961 229.074 123.101C227.455 121.265 225.697 119.58 224.136 117.686C222.477 115.661 220.55 113.655 219.727 111.115C218.173 106.353 219.629 100.899 221.804 96.5484C222.98 94.1904 224.659 92.1851 226.135 90.0165C228.028 87.1371 229.412 83.9531 230.224 80.6041C230.241 80.5417 230.233 80.475 230.201 80.4187C230.169 80.3623 230.117 80.3209 230.054 80.3036C229.992 80.2863 229.925 80.2944 229.869 80.3263C229.812 80.3581 229.771 80.4111 229.754 80.4734L229.773 80.4669Z" fill="white"/>
<path d="M228.545 112.225C229.348 112.44 230.19 112.456 231 112.273C231.811 112.09 232.564 111.712 233.196 111.174C234.672 110.024 235.463 108.391 236.599 106.961C238.559 104.511 241.825 104.485 244.522 105.471L244.379 105.105C243.522 106.592 242.345 107.869 240.932 108.843C239.52 109.817 237.908 110.464 236.214 110.736C235.907 110.782 236.038 111.259 236.345 111.206C238.102 110.916 239.772 110.238 241.234 109.221C242.696 108.204 243.913 106.874 244.797 105.328C244.815 105.295 244.826 105.259 244.828 105.222C244.831 105.185 244.825 105.148 244.811 105.114C244.797 105.079 244.776 105.048 244.749 105.023C244.721 104.998 244.689 104.979 244.653 104.968C242.21 104.086 239.375 103.969 237.239 105.621C235.933 106.627 235.28 108.234 234.209 109.462C232.863 111.095 230.858 112.402 228.676 111.735C228.614 111.718 228.547 111.726 228.491 111.758C228.434 111.79 228.393 111.843 228.376 111.905C228.358 111.968 228.366 112.034 228.398 112.091C228.43 112.147 228.483 112.188 228.545 112.206V112.225Z" fill="white"/>
<path d="M236.919 84.0922C233.255 86.7376 231.21 91.0683 230.851 95.51C230.672 98.1506 230.95 100.802 231.674 103.348C232.399 106.007 233.634 108.43 234.679 110.951C235.607 113.337 236.149 115.855 236.286 118.411C236.392 119.857 236.657 121.288 237.076 122.676C237.719 124.547 238.532 126.356 239.506 128.078C240.78 130.449 242.119 132.788 243.497 135.113C245.019 137.726 246.619 140.802 249.088 142.638C251.106 144.14 253.798 143.996 256.13 143.461C260.506 142.461 264.745 140.489 268.854 138.732C271.864 137.466 274.776 135.979 277.567 134.283C281.095 132.211 284.295 129.627 287.065 126.615C288.502 124.969 289.86 123.101 290.291 120.919C290.683 118.96 290.141 116.895 290.135 114.89C290.133 113.547 290.235 112.206 290.442 110.88C290.487 110.573 290.011 110.442 289.965 110.749C289.636 112.88 289.568 115.042 289.762 117.189C289.905 118.125 289.959 119.072 289.926 120.018C289.795 121.301 289.37 122.537 288.685 123.63C286.503 127.249 282.982 130.07 279.54 132.415C277.327 133.923 275.011 135.274 272.61 136.458C268.283 138.594 263.826 140.453 259.265 142.024C256.613 142.945 253.523 143.924 250.734 142.971C248.337 142.154 246.815 139.489 245.509 137.484C244.339 135.635 243.255 133.741 242.177 131.84C240.943 129.659 239.663 127.49 238.611 125.211C237.94 123.82 237.434 122.355 237.102 120.847C236.762 119.149 236.73 117.405 236.495 115.694C236.084 113.27 235.316 110.922 234.215 108.724C233.043 106.278 232.181 103.695 231.648 101.036C230.747 96.1436 231.465 90.8005 234.679 86.8421C235.399 85.9547 236.234 85.1663 237.161 84.4972C237.416 84.3143 237.161 83.8897 236.919 84.0726V84.0922Z" fill="white"/>
<path d="M294.394 107.672C293.815 109.156 293.51 110.731 293.492 112.323C293.495 112.381 293.519 112.436 293.558 112.478C293.597 112.521 293.65 112.548 293.707 112.556C293.764 112.564 293.822 112.551 293.872 112.521C293.921 112.49 293.957 112.443 293.976 112.388C294.283 111.396 295.824 111.363 296.647 111.023C297.306 110.719 297.87 110.243 298.28 109.645C298.735 109.034 299.046 108.329 299.19 107.581C299.333 106.834 299.306 106.063 299.11 105.327C298.777 104.099 297.986 103.499 296.798 104.073C296.184 104.374 295.648 104.498 295.217 103.825C295.049 103.525 294.934 103.198 294.877 102.858C294.773 102.409 294.727 101.948 294.74 101.487C294.743 100.427 295.144 99.4068 295.864 98.6288C296.584 97.8509 297.57 97.3718 298.626 97.2867C300.181 97.2017 301.069 98.3056 301.67 99.6055C303.414 103.348 303.212 108.097 301.579 111.827C300.847 113.64 299.58 115.186 297.947 116.262C296.98 116.777 295.933 117.125 294.851 117.294C293.781 117.556 292.751 117.96 291.788 118.496C291.513 118.646 291.755 119.071 292.036 118.92C293.059 118.353 294.159 117.937 295.302 117.686C296.228 117.539 297.126 117.246 297.96 116.817C299.495 115.898 300.74 114.564 301.553 112.97C303.507 109.192 303.89 104.794 302.617 100.735C302.193 99.4291 301.546 97.8157 300.253 97.1299C298.751 96.3395 296.824 97.0058 295.681 98.0966C295.149 98.6279 294.747 99.274 294.505 99.9852C294.262 100.696 294.186 101.454 294.283 102.199C294.381 103.205 294.747 104.896 296.053 104.857C296.408 104.81 296.748 104.687 297.052 104.498C297.184 104.41 297.335 104.356 297.492 104.34C297.65 104.325 297.809 104.349 297.955 104.409C298.101 104.47 298.23 104.566 298.33 104.689C298.43 104.811 298.498 104.957 298.528 105.112C298.742 105.692 298.833 106.311 298.794 106.928C298.756 107.546 298.59 108.148 298.306 108.698C298.034 109.233 297.648 109.702 297.175 110.072C296.702 110.442 296.154 110.704 295.569 110.84C294.746 111.095 293.786 111.35 293.512 112.258L293.989 112.323C294.005 110.775 294.306 109.242 294.877 107.803C294.988 107.509 294.518 107.385 294.4 107.672H294.394Z" fill="white"/>
<path d="M256.783 108.45C257.026 109.367 256.947 110.34 256.561 111.206C256.448 111.418 256.292 111.604 256.102 111.751C255.912 111.897 255.693 112.002 255.459 112.058C255.225 112.113 254.983 112.118 254.747 112.073C254.511 112.028 254.288 111.933 254.092 111.794C253.282 111.363 252.276 110.671 251.348 111.258C251.198 111.356 251.071 111.486 250.98 111.641C250.888 111.795 250.833 111.968 250.819 112.147C250.767 112.5 250.865 112.852 250.819 113.205C250.77 113.444 250.643 113.66 250.457 113.819C250.271 113.977 250.038 114.069 249.794 114.08C248.487 114.283 247.344 113.427 246.09 114.041C246.043 114.068 246.007 114.109 245.986 114.159C245.964 114.208 245.96 114.263 245.973 114.315C246.232 115.292 246.728 116.189 247.416 116.928L247.658 116.517C246.551 116.258 245.586 115.582 244.967 114.629C244.582 113.944 244.363 113.178 244.329 112.392C244.295 111.607 244.447 110.825 244.771 110.109C245.587 107.901 246.41 105.713 246.345 103.316C246.36 102.134 246.039 100.972 245.421 99.9654C244.802 98.9584 243.911 98.1474 242.85 97.6264C242.137 97.2684 241.36 97.0558 240.564 97.0009C239.768 96.9459 238.968 97.0497 238.213 97.3063C235.561 98.2012 233.68 100.507 232.706 103.054C232.595 103.348 233.066 103.479 233.177 103.185C234.731 99.1287 239.31 95.7387 243.438 98.5213C245.868 100.167 246.155 103.179 245.62 105.844C245.426 106.807 245.153 107.753 244.803 108.672C244.269 109.785 243.932 110.983 243.811 112.212C243.8 113.312 244.161 114.382 244.836 115.25C245.511 116.118 246.459 116.733 247.527 116.994C247.579 117.005 247.633 116.999 247.681 116.978C247.73 116.957 247.77 116.92 247.796 116.874C247.822 116.828 247.833 116.775 247.827 116.723C247.821 116.67 247.798 116.621 247.762 116.582C247.131 115.901 246.682 115.072 246.456 114.172L246.338 114.453C247.71 113.799 249.239 115.106 250.623 114.309C250.821 114.2 250.988 114.044 251.111 113.855C251.234 113.666 251.309 113.449 251.329 113.225C251.407 112.656 251.205 112.402 251.564 111.918C251.825 111.572 251.93 111.5 252.341 111.533C252.614 111.566 252.877 111.65 253.118 111.781C254.209 112.317 255.209 113.087 256.384 112.193C257.56 111.298 257.521 109.665 257.312 108.313C257.26 108.006 256.79 108.136 256.835 108.443L256.783 108.45Z" fill="white"/>
<path d="M247.494 127.065C248.369 125.202 249.53 123.487 250.937 121.984C251.428 121.446 252.024 121.015 252.687 120.716C253.351 120.418 254.069 120.258 254.797 120.246C256.815 120.129 258.86 120.2 260.878 120.246C261.741 120.246 262.609 120.305 263.491 120.292C263.752 120.292 264.314 120.351 264.543 120.161C265.333 119.508 262.054 118.685 261.786 118.574C260.519 118.045 259.383 117.268 258.083 116.81C256.254 116.157 254.209 115.628 252.335 116.399C251.591 116.717 250.923 117.189 250.375 117.784C249.794 118.404 248.722 118.437 247.991 118.914C247.618 119.145 247.308 119.466 247.089 119.847C246.87 120.227 246.749 120.656 246.737 121.095C246.749 123.059 246.86 125.021 247.07 126.974C247.07 127.288 247.573 127.294 247.56 126.974C247.468 125.256 247.305 123.538 247.233 121.814C247.169 121.438 247.189 121.052 247.293 120.684C247.397 120.317 247.582 119.978 247.834 119.691C248.447 119.158 249.195 118.803 249.996 118.665C250.649 118.502 251.093 117.725 251.668 117.359C253.576 116.085 255.757 116.588 257.776 117.261C258.984 117.666 260.036 118.372 261.192 118.888C261.96 119.221 262.745 119.515 263.543 119.769C263.768 119.88 264.002 119.972 264.242 120.044L264.281 119.795H264.216C263.978 119.793 263.74 119.806 263.504 119.835C260.304 119.874 256.972 119.443 253.817 119.893C252.5 120.135 251.309 120.828 250.447 121.853C249.096 123.348 247.969 125.031 247.102 126.85C246.933 127.098 247.351 127.353 247.494 127.065Z" fill="white"/>
<path d="M248.376 127.248C248.246 126.674 249.794 125.811 250.153 125.583C251.184 124.928 252.257 124.343 253.367 123.832C255.637 122.768 258.062 122.073 260.552 121.775C261.31 121.679 262.057 121.504 262.779 121.252C263.04 121.161 263.393 120.991 263.478 121.402C263.469 121.719 263.377 122.028 263.21 122.297C262.991 122.707 262.669 123.054 262.276 123.303C260.317 124.649 257.704 124.975 255.529 125.916C254.288 126.445 253.164 127.164 251.832 127.451C251.16 127.597 250.474 127.658 249.787 127.634C249.421 127.634 248.559 127.634 248.37 127.209C248.233 126.928 247.808 127.177 247.945 127.457C248.298 128.215 249.715 128.15 250.382 128.111C251.725 128.051 253.039 127.694 254.229 127.066C255.72 126.336 257.269 125.731 258.86 125.256C260.197 124.914 261.475 124.37 262.648 123.643C263.347 123.14 264.105 122.167 263.955 121.233C263.785 120.109 262.394 120.919 261.754 121.082C260.676 121.35 259.546 121.383 258.448 121.585C256.872 121.907 255.338 122.409 253.876 123.081C252.33 123.737 250.851 124.542 249.461 125.485C248.918 125.864 247.743 126.576 247.932 127.386C247.978 127.686 248.448 127.555 248.376 127.248Z" fill="white"/>
<path d="M259.892 143.892C261.46 151.423 253.974 155.937 248.187 158.641C244.001 160.521 239.703 162.144 235.319 163.501C231.047 164.892 226.742 166.224 222.418 167.459C217.219 168.944 211.972 170.239 206.677 171.345C206.37 171.404 206.5 171.881 206.807 171.816C216.297 169.753 225.673 167.193 234.894 164.147C239.339 162.771 243.701 161.139 247.958 159.261C251.263 157.746 254.608 155.995 257.194 153.383C259.781 150.77 261.113 147.439 260.323 143.781C260.258 143.474 259.787 143.604 259.846 143.911L259.892 143.892Z" fill="white"/>
<path d="M219.434 170.64C223.431 169.928 227.474 169.21 231.557 169.366C235.522 169.517 239.271 170.738 242.955 172.149C249.718 174.739 256.195 178.023 262.283 181.947C265.713 184.177 269.013 186.602 272.166 189.21C272.196 189.24 272.234 189.262 272.275 189.273C272.316 189.284 272.36 189.284 272.401 189.274C272.442 189.263 272.48 189.242 272.511 189.213C272.542 189.183 272.565 189.147 272.577 189.106C273.068 187.453 273.02 185.687 272.44 184.063C272.335 183.763 271.865 183.893 271.97 184.194C272.525 185.732 272.571 187.409 272.1 188.975L272.512 188.864C266.821 184.163 260.654 180.072 254.111 176.656C250.873 174.96 247.548 173.434 244.15 172.084C240.558 170.66 236.854 169.314 232.981 168.961C228.408 168.537 223.836 169.36 219.303 170.163C218.996 170.222 219.127 170.692 219.434 170.633V170.64Z" fill="white"/>
<path d="M283.564 157.204C281.982 162.694 281.226 168.389 281.323 174.102C281.434 179.981 282.63 185.775 282.283 191.647C282.285 191.694 282.301 191.74 282.328 191.779C282.356 191.818 282.394 191.848 282.438 191.866C282.482 191.884 282.53 191.888 282.577 191.88C282.623 191.871 282.667 191.849 282.701 191.817C283.831 190.693 285.523 190.856 286.999 190.726C288.462 190.544 289.865 190.033 291.101 189.23C294.125 187.392 297.727 186.751 301.2 187.434C301.507 187.499 301.637 187.022 301.33 186.963C297.924 186.25 294.374 186.808 291.35 188.531C290.532 189.033 289.676 189.47 288.789 189.837C287.944 190.111 287.064 190.258 286.176 190.275C284.811 190.347 283.4 190.432 282.381 191.451L282.799 191.627C283.119 185.853 281.989 180.151 281.846 174.396C281.717 168.623 282.464 162.864 284.06 157.315C284.077 157.253 284.069 157.186 284.037 157.13C284.006 157.073 283.953 157.032 283.89 157.015C283.828 156.997 283.761 157.005 283.705 157.037C283.648 157.069 283.607 157.122 283.59 157.184L283.564 157.204Z" fill="white"/>
<path d="M295.066 119.051C292.198 127.117 290.609 135.583 290.357 144.14C290.053 151.219 290.835 158.304 292.675 165.147C294.826 173.019 298.649 180.336 303.884 186.597C309.305 192.942 315.976 198.101 323.48 201.751C323.761 201.888 324.009 201.47 323.728 201.327C317.201 198.145 311.297 193.82 306.294 188.557C300.599 182.479 296.332 175.206 293.805 167.269C289.886 154.944 290.05 141.56 292.773 128.999C293.471 125.673 294.396 122.4 295.543 119.201C295.647 118.907 295.177 118.777 295.066 119.07V119.051Z" fill="white"/>
<defs>
<linearGradient id="paint0_linear" x1="36.4681" y1="86.6992" x2="29.7309" y2="92.51" gradientUnits="userSpaceOnUse">
<stop stop-color="white"/>
<stop offset="1" stop-color="white" stop-opacity="0"/>
</linearGradient>
<linearGradient id="paint1_linear" x1="44745.2" y1="-7644.53" x2="44631.8" y2="-7480.06" gradientUnits="userSpaceOnUse">
<stop stop-color="white"/>
<stop offset="1" stop-color="white" stop-opacity="0"/>
</linearGradient>
<linearGradient id="paint2_linear" x1="33345.8" y1="-4238.37" x2="33265" y2="-4121.09" gradientUnits="userSpaceOnUse">
<stop stop-color="white"/>
<stop offset="1" stop-color="white" stop-opacity="0"/>
</linearGradient>
<linearGradient id="paint3_linear" x1="39000.3" y1="-3747.35" x2="38847.6" y2="-3558.59" gradientUnits="userSpaceOnUse">
<stop stop-color="white"/>
<stop offset="1" stop-color="white" stop-opacity="0"/>
</linearGradient>
</defs>
</svg>
