<svg width="86" height="85" viewBox="0 0 86 85" fill="none" xmlns="http://www.w3.org/2000/svg">
<path fill-rule="evenodd" clip-rule="evenodd" d="M12.5497 72.5364C20.5136 80.5047 31.3119 84.9871 42.5755 85C53.839 84.9871 64.6374 80.5047 72.6013 72.5364C80.5652 64.568 85.044 53.7645 85.0551 42.4965C85.0422 31.2297 80.5625 20.428 72.5989 12.4611C64.6352 4.49429 53.8378 0.0128732 42.5755 0C31.3131 0.0128732 20.5158 4.49429 12.5521 12.4611C4.58839 20.428 0.108815 31.2297 0.0959473 42.4965C0.106977 53.7645 4.58582 64.568 12.5497 72.5364ZM14.0255 13.9351C21.5984 6.3592 31.8658 2.0974 42.5755 2.08453V2.04977C53.2912 2.06266 63.5638 6.32925 71.1377 13.9127C78.7116 21.4961 82.9677 31.7765 82.9714 42.4965C82.9603 53.2117 78.701 63.485 71.1279 71.0624C63.5548 78.6398 53.2864 82.9026 42.5755 82.9155C31.8646 82.9026 21.5961 78.6398 14.023 71.0624C6.44991 63.485 2.19067 53.2117 2.17964 42.4965C2.19251 31.7825 6.45257 21.5111 14.0255 13.9351ZM61.822 44.3935C66.0658 40.2244 70.9416 34.3322 70.0039 27.9674C69.7149 26.4059 69.0949 24.9245 68.1855 23.6229C67.2762 22.3212 66.0987 21.2296 64.7322 20.4214C63.3075 19.5561 61.6884 19.0625 60.0234 18.986C58.3584 18.9096 56.7008 19.2526 55.2028 19.9837C53.7605 20.7018 52.4745 21.6871 51.41 22.8815C48.5595 19.5798 44.0711 17.6594 39.7904 19.3444C37.5952 20.2474 35.7336 21.8084 34.4612 23.8129C33.4519 25.4029 32.8528 27.2101 32.7064 29.0732C30.55 28.2117 28.1808 27.9264 25.767 28.4468C20.9051 29.4961 17.0085 33.9083 15.8347 38.668C14.6123 43.6013 16.7168 48.5278 19.5715 52.4814C22.3155 56.1087 25.4898 59.3892 29.0245 62.2509C31.1905 64.1156 33.4963 65.8113 35.9215 67.3232C36.4494 67.6498 36.9842 67.9625 37.5329 68.2682C37.8296 68.4695 38.178 68.581 38.5364 68.5897C38.8948 68.5983 39.248 68.5036 39.5541 68.3169C40.6515 67.8027 41.7281 67.2329 42.7769 66.6215C46.0239 64.6778 49.0211 62.3444 51.702 59.673C54.6709 56.8587 57.2226 53.6345 59.2797 50.0981C60.2164 48.4083 61.0128 46.5527 61.4706 44.6401C61.5865 44.5805 61.6999 44.4992 61.8081 44.3935H61.822ZM40.5266 21.8389C37.1834 23.1878 35.0801 26.9222 35.2831 30.4364C36.5622 31.2911 37.7195 32.3527 38.7075 33.5564C41.3015 30.4921 45.1374 28.3003 49.2502 28.426C54.6331 28.5928 59.5159 32.5256 61.2662 37.5562C61.6196 38.5559 61.8105 39.5767 61.8681 40.6028C63.235 39.0801 64.4592 37.4323 65.524 35.6802C66.809 33.4775 67.8995 30.7885 67.3925 28.1967C67.1059 26.9292 66.5392 25.7421 65.7339 24.7224C64.9286 23.7028 63.9052 22.8765 62.7388 22.3045C61.5754 21.7416 60.2843 21.4954 58.9954 21.5905C57.7066 21.6857 56.4656 22.1189 55.3973 22.8464C54.607 23.3723 53.8899 24.0009 53.2649 24.7156C52.9719 25.0052 52.7154 25.3296 52.5009 25.6814C52.383 25.874 52.2175 26.0331 52.0205 26.1435C51.8235 26.2538 51.6015 26.3118 51.3757 26.3118C51.15 26.3118 50.928 26.2538 50.731 26.1435C50.534 26.0331 50.3685 25.874 50.2506 25.6814C48.2155 22.5338 44.2773 20.3311 40.5266 21.8389ZM39.7837 36.4222C39.817 36.3786 39.8473 36.333 39.8744 36.2858L39.9986 36.097L40.1833 35.853L40.3459 35.6524C40.8319 35.0538 41.3612 34.4918 41.9295 33.9708C43.4526 32.5582 45.3377 31.5961 47.3749 31.1915C52.2924 30.2743 57.3905 33.9291 58.8491 38.5707C60.0924 42.5243 58.4115 46.6448 56.3417 49.9869C54.2739 53.2074 51.7942 56.1437 48.9655 58.7211C45.897 61.6216 42.4087 64.0401 38.6198 65.8957C35.2578 63.9237 32.1054 61.6129 29.212 58.999C26.245 56.5009 23.5994 53.6441 21.3357 50.4942C19.252 47.416 17.467 43.6083 18.2519 39.7936C18.995 36.1874 21.6204 32.6228 25.1488 31.3443C30.0108 29.6072 34.9283 32.3171 37.5607 36.4028C37.8997 36.9246 38.4297 37.0663 38.9112 36.9647C39.2358 36.923 39.5497 36.7557 39.7837 36.4222ZM32.7197 45.1161C32.7197 46.4362 31.65 47.5063 30.3304 47.5063C29.0109 47.5063 27.9411 46.4362 27.9411 45.1161C27.9411 43.796 29.0109 42.7258 30.3304 42.7258C31.65 42.7258 32.7197 43.796 32.7197 45.1161ZM49.9311 45.1161C49.9311 46.4362 48.8614 47.5063 47.5418 47.5063C46.2223 47.5063 45.1525 46.4362 45.1525 45.1161C45.1525 43.796 46.2223 42.7258 47.5418 42.7258C48.8614 42.7258 49.9311 43.796 49.9311 45.1161ZM32.9836 50.5428C33.406 51.658 34.1495 52.6229 35.1199 53.3155C36.0904 54.0081 37.2444 54.3973 38.4359 54.4339C39.6322 54.4127 40.7941 54.0295 41.7685 53.335C42.743 52.6404 43.4844 51.667 43.8952 50.5428C43.9869 50.2093 43.9426 49.853 43.772 49.5521C43.6014 49.2512 43.3186 49.0302 42.9854 48.9377C42.6523 48.8552 42.3003 48.9036 42.0018 49.0729C41.7033 49.2422 41.481 49.5196 41.3809 49.848C41.4712 49.6395 41.3809 49.8897 41.3392 49.9313C41.3167 49.9539 41.292 50.0051 41.2653 50.0605L41.2653 50.0606C41.2428 50.1074 41.2188 50.1572 41.1933 50.1954C41.1351 50.3013 41.0702 50.4035 40.9989 50.5011C40.8599 50.6692 40.7115 50.8293 40.5544 50.9805L40.3803 51.1329C40.3568 51.1515 40.3026 51.1948 40.2696 51.2168C40.1095 51.327 39.9425 51.4268 39.7695 51.5156C39.7458 51.5266 39.7181 51.539 39.6935 51.55L39.6447 51.5721L39.4292 51.6476C39.2208 51.7101 39.0124 51.7588 38.8041 51.8005C38.6861 51.8074 38.5678 51.8074 38.4498 51.8005H38.1581C38.1247 51.8005 38.0398 51.7806 38.006 51.7728C37.9972 51.7707 37.9919 51.7695 37.9919 51.7696C37.9918 51.7699 38.0209 51.7778 38.1025 51.8005C38.0556 51.79 38.0087 51.78 37.9618 51.7701C37.8212 51.7401 37.6805 51.7101 37.5399 51.6684L37.269 51.5712C37.204 51.5484 37.2333 51.5652 37.2608 51.581C37.2921 51.5989 37.3211 51.6155 37.2065 51.5712C37.017 51.4978 36.8975 51.4137 36.7627 51.3187L36.7065 51.2793C36.7065 51.2793 36.5115 51.1352 36.5222 51.1516L36.4147 51.057C36.2515 50.9099 36.0984 50.7521 35.9564 50.5845C35.9457 50.5727 35.9375 50.5642 35.9315 50.5584L35.9077 50.522C35.8847 50.4846 35.8606 50.4497 35.8367 50.4151C35.8028 50.3661 35.7695 50.3179 35.741 50.2649C35.7167 50.2197 35.6907 50.1763 35.6646 50.1328C35.6386 50.0894 35.6125 50.046 35.5882 50.0008C35.5693 49.9656 35.5387 49.903 35.5142 49.8528L35.4985 49.8205C35.3927 49.5103 35.1768 49.249 34.8909 49.0868C34.5925 48.9175 34.2404 48.8691 33.9073 48.9516C33.5752 49.0457 33.2935 49.2669 33.1232 49.5674C32.9529 49.8678 32.9077 50.2232 32.9975 50.5567L32.9836 50.5428Z" fill="url(#paint0_linear)"/>
<defs>
<linearGradient id="paint0_linear" x1="42.5755" y1="0" x2="42.5755" y2="85" gradientUnits="userSpaceOnUse">
<stop stop-color="#636BFB"/>
<stop offset="1" stop-color="#B3BDFD"/>
</linearGradient>
</defs>
</svg>
