<svg width="132" height="132" viewBox="0 0 132 132" fill="none" xmlns="http://www.w3.org/2000/svg">
<path d="M27.0142 67.5166H26.1665V62.7451H20.479V67.5166H19.6382V57.5635H20.479V62.0342H26.1665V57.5635H27.0142V67.5166ZM37.9058 63.0801C37.9058 63.9961 37.7463 64.8005 37.4272 65.4932C37.1128 66.1859 36.6616 66.7191 36.0737 67.0928C35.4858 67.4665 34.8068 67.6533 34.0366 67.6533C32.8745 67.6533 31.9357 67.2386 31.2202 66.4092C30.5047 65.5752 30.147 64.4518 30.147 63.0391V62.0137C30.147 61.1068 30.3065 60.3047 30.6255 59.6074C30.9491 58.9056 31.4048 58.3678 31.9927 57.9941C32.5806 57.6159 33.2573 57.4268 34.0229 57.4268C34.7886 57.4268 35.4631 57.6113 36.0464 57.9805C36.6343 58.3496 37.0877 58.8714 37.4067 59.5459C37.7257 60.2204 37.8921 61.002 37.9058 61.8906V63.0801ZM37.0649 62C37.0649 60.8014 36.7938 59.8626 36.2515 59.1836C35.7091 58.5046 34.9663 58.165 34.0229 58.165C33.0978 58.165 32.3595 58.5068 31.8081 59.1904C31.2612 59.8695 30.9878 60.8197 30.9878 62.041V63.0801C30.9878 64.2604 31.2612 65.1969 31.8081 65.8896C32.355 66.5778 33.0978 66.9219 34.0366 66.9219C34.9891 66.9219 35.7319 66.5824 36.2651 65.9033C36.7983 65.2197 37.0649 64.2695 37.0649 63.0527V62ZM44.7437 63.374H41.8521V67.5166H41.0044V57.5635H44.2378C45.2996 57.5635 46.1291 57.821 46.7261 58.3359C47.3231 58.8509 47.6216 59.571 47.6216 60.4961C47.6216 61.1341 47.4347 61.6969 47.061 62.1846C46.6873 62.6722 46.186 63.0094 45.5571 63.1963L48.0454 67.4277V67.5166H47.1499L44.7437 63.374ZM41.8521 62.6562H44.4292C45.1356 62.6562 45.703 62.4557 46.1313 62.0547C46.5597 61.6536 46.7739 61.1341 46.7739 60.4961C46.7739 59.7943 46.5506 59.2497 46.104 58.8623C45.6574 58.4749 45.0308 58.2812 44.2241 58.2812H41.8521V62.6562ZM58.2671 63.0801C58.2671 63.9961 58.1076 64.8005 57.7886 65.4932C57.4741 66.1859 57.0229 66.7191 56.4351 67.0928C55.8472 67.4665 55.1681 67.6533 54.3979 67.6533C53.2358 67.6533 52.297 67.2386 51.5815 66.4092C50.866 65.5752 50.5083 64.4518 50.5083 63.0391V62.0137C50.5083 61.1068 50.6678 60.3047 50.9868 59.6074C51.3104 58.9056 51.7661 58.3678 52.354 57.9941C52.9419 57.6159 53.6187 57.4268 54.3843 57.4268C55.1499 57.4268 55.8244 57.6113 56.4077 57.9805C56.9956 58.3496 57.4491 58.8714 57.7681 59.5459C58.0871 60.2204 58.2534 61.002 58.2671 61.8906V63.0801ZM57.4263 62C57.4263 60.8014 57.1551 59.8626 56.6128 59.1836C56.0705 58.5046 55.3276 58.165 54.3843 58.165C53.4591 58.165 52.7209 58.5068 52.1694 59.1904C51.6226 59.8695 51.3491 60.8197 51.3491 62.041V63.0801C51.3491 64.2604 51.6226 65.1969 52.1694 65.8896C52.7163 66.5778 53.4591 66.9219 54.3979 66.9219C55.3504 66.9219 56.0933 66.5824 56.6265 65.9033C57.1597 65.2197 57.4263 64.2695 57.4263 63.0527V62ZM67.019 65.0693C67.019 64.5179 66.8254 64.0827 66.438 63.7637C66.0506 63.4401 65.342 63.1348 64.312 62.8477C63.2821 62.556 62.5301 62.2393 62.0562 61.8975C61.3817 61.4144 61.0444 60.7809 61.0444 59.9971C61.0444 59.236 61.3566 58.6185 61.981 58.1445C62.6099 57.666 63.4119 57.4268 64.3872 57.4268C65.048 57.4268 65.6382 57.5544 66.1577 57.8096C66.6818 58.0648 67.0874 58.4202 67.3745 58.876C67.6616 59.3317 67.8052 59.8398 67.8052 60.4004H66.9575C66.9575 59.7214 66.7251 59.1768 66.2603 58.7666C65.7954 58.3519 65.1711 58.1445 64.3872 58.1445C63.6261 58.1445 63.02 58.3154 62.5688 58.6572C62.1177 58.9945 61.8921 59.4365 61.8921 59.9834C61.8921 60.4893 62.0949 60.9017 62.5005 61.2207C62.9061 61.5397 63.5555 61.8223 64.4487 62.0684C65.342 62.3099 66.0187 62.5628 66.479 62.8271C66.9393 63.0869 67.2856 63.3991 67.5181 63.7637C67.7505 64.1283 67.8667 64.5589 67.8667 65.0557C67.8667 65.8395 67.5522 66.4684 66.9233 66.9424C66.299 67.4163 65.4741 67.6533 64.4487 67.6533C63.7469 67.6533 63.1021 67.528 62.5142 67.2773C61.9308 67.0267 61.4865 66.6758 61.1812 66.2246C60.8804 65.7734 60.73 65.2562 60.73 64.6729H61.5708C61.5708 65.3747 61.8328 65.9284 62.3569 66.334C62.881 66.7396 63.5783 66.9424 64.4487 66.9424C65.2235 66.9424 65.8455 66.7715 66.3149 66.4297C66.7843 66.0879 67.019 65.6344 67.019 65.0693ZM77.7329 64.4131C77.619 65.4613 77.243 66.2633 76.605 66.8193C75.9715 67.3753 75.1261 67.6533 74.0688 67.6533C73.3306 67.6533 72.6766 67.4688 72.1069 67.0996C71.5418 66.7305 71.1043 66.2087 70.7944 65.5342C70.4845 64.8551 70.3273 64.0804 70.3228 63.21V61.918C70.3228 61.0339 70.4777 60.25 70.7876 59.5664C71.0975 58.8828 71.5418 58.3564 72.1206 57.9873C72.7039 57.6136 73.3739 57.4268 74.1304 57.4268C75.1968 57.4268 76.0376 57.7161 76.6528 58.2949C77.2726 58.8691 77.6326 59.6644 77.7329 60.6807H76.8853C76.6756 58.9899 75.7573 58.1445 74.1304 58.1445C73.228 58.1445 72.508 58.4818 71.9702 59.1562C71.437 59.8307 71.1704 60.7627 71.1704 61.9521V63.1689C71.1704 64.3174 71.4302 65.2334 71.9497 65.917C72.4738 66.6006 73.1802 66.9424 74.0688 66.9424C74.9484 66.9424 75.6115 66.7327 76.0581 66.3135C76.5047 65.8896 76.7804 65.2562 76.8853 64.4131H77.7329ZM88.1323 63.0801C88.1323 63.9961 87.9728 64.8005 87.6538 65.4932C87.3394 66.1859 86.8882 66.7191 86.3003 67.0928C85.7124 67.4665 85.0334 67.6533 84.2632 67.6533C83.1011 67.6533 82.1623 67.2386 81.4468 66.4092C80.7313 65.5752 80.3735 64.4518 80.3735 63.0391V62.0137C80.3735 61.1068 80.533 60.3047 80.8521 59.6074C81.1756 58.9056 81.6313 58.3678 82.2192 57.9941C82.8071 57.6159 83.4839 57.4268 84.2495 57.4268C85.0151 57.4268 85.6896 57.6113 86.2729 57.9805C86.8608 58.3496 87.3143 58.8714 87.6333 59.5459C87.9523 60.2204 88.1187 61.002 88.1323 61.8906V63.0801ZM87.2915 62C87.2915 60.8014 87.0203 59.8626 86.478 59.1836C85.9357 58.5046 85.1929 58.165 84.2495 58.165C83.3244 58.165 82.5861 58.5068 82.0347 59.1904C81.4878 59.8695 81.2144 60.8197 81.2144 62.041V63.0801C81.2144 64.2604 81.4878 65.1969 82.0347 65.8896C82.5815 66.5778 83.3244 66.9219 84.2632 66.9219C85.2157 66.9219 85.9585 66.5824 86.4917 65.9033C87.0249 65.2197 87.2915 64.2695 87.2915 63.0527V62ZM92.0923 63.4629V67.5166H91.2515V57.5635H94.6421C95.6766 57.5635 96.4924 57.8278 97.0894 58.3564C97.6909 58.8851 97.9917 59.612 97.9917 60.5371C97.9917 61.4714 97.7023 62.1937 97.1235 62.7041C96.5493 63.21 95.7153 63.4629 94.6216 63.4629H92.0923ZM92.0923 62.752H94.6421C95.4578 62.752 96.0799 62.5583 96.5083 62.1709C96.9367 61.7835 97.1509 61.2435 97.1509 60.5508C97.1509 59.8626 96.9367 59.3158 96.5083 58.9102C96.0845 58.5 95.4806 58.2904 94.6968 58.2812H92.0923V62.752ZM106.375 62.7451H101.719V66.8057H107.072V67.5166H100.878V57.5635H107.038V58.2812H101.719V62.0342H106.375V62.7451Z" fill="white"/>
<circle cx="62.9858" cy="62.9243" r="61.9355" stroke="#B3BDFD"/>
<circle cx="68.6436" cy="69.3325" r="61.9355" stroke="#B3BDFD" stroke-opacity="0.5"/>
</svg>
