<svg width="70" height="70" viewBox="0 0 70 70" fill="none" xmlns="http://www.w3.org/2000/svg">
<path fill-rule="evenodd" clip-rule="evenodd" d="M35 2.08955C16.8241 2.08955 2.08955 16.8241 2.08955 35C2.08955 53.1759 16.8241 67.9104 35 67.9104C53.1759 67.9104 67.9104 53.1759 67.9104 35C67.9104 16.8241 53.1759 2.08955 35 2.08955ZM0 35C0 15.67 15.67 0 35 0C54.33 0 70 15.67 70 35C70 54.33 54.33 70 35 70C15.67 70 0 54.33 0 35Z" fill="url(#paint0_linear)"/>
<path d="M41.6019 18.9602L41.6019 21.1809L46.5724 21.1809L40.0737 27.6796C35.7166 24.1176 29.2634 24.3677 25.2009 28.4303C20.8716 32.7595 20.8716 39.8038 25.2009 44.1331C27.3655 46.2977 30.2089 47.38 33.0522 47.38C35.8955 47.38 38.739 46.2977 40.9036 44.1331C44.9696 40.067 45.2165 33.6062 41.6449 29.249L48.153 22.7409L48.153 27.7875L50.3737 27.7875L50.3737 18.9602L41.6019 18.9602ZM39.3334 42.5628C37.6014 44.2947 35.3272 45.1606 33.0523 45.1603C30.7778 45.1601 28.5027 44.2943 26.7712 42.5628C23.3078 39.0994 23.3078 33.464 26.7712 30.0006C28.5029 28.2689 30.7776 27.403 33.0523 27.403C35.3269 27.403 37.6017 28.2689 39.3334 30.0006C42.7967 33.464 42.7967 39.0994 39.3334 42.5628Z" fill="url(#paint1_linear)"/>
<defs>
<linearGradient id="paint0_linear" x1="1.04478" y1="35" x2="68.9552" y2="35" gradientUnits="userSpaceOnUse">
<stop stop-color="#636BFB"/>
<stop offset="1" stop-color="#B3BDFD"/>
</linearGradient>
<linearGradient id="paint1_linear" x1="49.2099" y1="20.2214" x2="25.9333" y2="43.7307" gradientUnits="userSpaceOnUse">
<stop stop-color="#B3BDFD"/>
<stop offset="1" stop-color="#636BFB"/>
</linearGradient>
</defs>
</svg>
