<svg width="111" height="110" viewBox="0 0 111 110" fill="none" xmlns="http://www.w3.org/2000/svg">
<path d="M47.3904 59.1705C47.7609 59.1705 48.1163 59.0233 48.3783 58.7613C48.6404 58.4993 48.7875 58.1439 48.7875 57.7734V56.7395C48.7875 56.3689 48.6404 56.0135 48.3783 55.7515C48.1163 55.4895 47.7609 55.3423 47.3904 55.3423C47.0198 55.3423 46.6644 55.4895 46.4024 55.7515C46.1404 56.0135 45.9932 56.3689 45.9932 56.7395V57.7687C45.9926 57.9526 46.0283 58.1348 46.0982 58.3048C46.1681 58.4749 46.271 58.6294 46.4008 58.7597C46.5306 58.8899 46.6848 58.9932 46.8546 59.0637C47.0244 59.1343 47.2065 59.1705 47.3904 59.1705Z" fill="url(#paint0_linear)"/>
<path d="M63.4581 59.1705C63.8286 59.1705 64.184 59.0233 64.446 58.7613C64.708 58.4993 64.8552 58.1439 64.8552 57.7734V56.7395C64.8552 56.3689 64.708 56.0135 64.446 55.7515C64.184 55.4895 63.8286 55.3423 63.4581 55.3423C63.0875 55.3423 62.7321 55.4895 62.4701 55.7515C62.2081 56.0135 62.0609 56.3689 62.0609 56.7395V57.7687C62.0603 57.9526 62.0959 58.1348 62.1659 58.3048C62.2358 58.4749 62.3386 58.6294 62.4685 58.7597C62.5983 58.8899 62.7525 58.9932 62.9223 59.0637C63.0921 59.1343 63.2742 59.1705 63.4581 59.1705Z" fill="url(#paint1_linear)"/>
<path d="M54.9958 69.2162C56.1391 69.2321 57.2723 69.0001 58.3175 68.5362C59.3627 68.0723 60.2949 67.3875 61.0502 66.529C61.3139 66.2512 61.4609 65.8828 61.4609 65.4997C61.4609 65.1167 61.3139 64.7483 61.0502 64.4705C60.7758 64.2003 60.4061 64.0488 60.0209 64.0488C59.6358 64.0488 59.2661 64.2003 58.9917 64.4705C58.8461 64.6351 58.6905 64.7906 58.5259 64.9362C58.4049 65.0526 58.2745 65.1551 58.1487 65.2669L58.0975 65.2948L57.832 65.4765C57.6169 65.6139 57.3946 65.7398 57.166 65.8537L56.9472 65.9468L56.6677 66.0493C56.3773 66.1442 56.0799 66.2158 55.7782 66.2635L55.4661 66.2868C55.3078 66.2868 55.1495 66.2868 55.0004 66.2868C54.8779 66.2937 54.755 66.2937 54.6325 66.2868L54.3577 66.2495C54.0683 66.1928 53.7835 66.115 53.5054 66.0167C53.4542 66.0167 53.1747 65.877 53.2306 65.9049C53.1515 65.8677 53.0723 65.8351 52.9978 65.7931C52.798 65.6899 52.6037 65.5764 52.4156 65.4531C52.3271 65.3973 52.2433 65.3367 52.1595 65.2762L52.1082 65.2389C51.9872 65.1225 51.8521 65.02 51.731 64.9083C51.5846 64.772 51.4462 64.6274 51.3165 64.4751C51.0421 64.2049 50.6724 64.0535 50.2872 64.0535C49.9021 64.0535 49.5324 64.2049 49.258 64.4751C48.9922 64.7518 48.8437 65.1207 48.8437 65.5044C48.8437 65.8881 48.9922 66.2569 49.258 66.5336C49.9808 67.3486 50.8627 68.007 51.8494 68.4684C52.8362 68.9297 53.9069 69.1842 54.9958 69.2162Z" fill="url(#paint2_linear)"/>
<path d="M110.054 14.9638C110.05 10.9963 108.472 7.19234 105.667 4.38688C102.862 1.58143 99.0576 0.00369931 95.0901 0C92.279 0.00214611 89.5252 0.79509 87.1435 2.28821C84.7617 3.78133 82.8481 5.9144 81.6213 8.44363C73.5331 3.88675 64.4049 1.49642 55.1214 1.50429C40.7353 1.51539 26.9415 7.23455 16.7681 17.4062C6.59467 27.5778 0.873187 41.3707 0.859619 55.7568C0.875644 70.1381 6.59567 83.9257 16.7648 94.0948C26.9339 104.264 40.7215 109.984 55.1028 110C63.9717 110.009 72.7058 107.83 80.5314 103.657C80.7072 103.638 80.8776 103.585 81.0327 103.5C81.1877 103.416 81.3245 103.301 81.435 103.163C89.8882 98.4637 96.9327 91.5915 101.84 83.257C106.747 74.9225 109.338 65.4285 109.346 55.7568C109.358 46.0919 106.771 36.6015 101.857 28.2789C104.317 27.0298 106.384 25.1254 107.831 22.7759C109.277 20.4263 110.047 17.7229 110.054 14.9638ZM95.0901 1.86291C98.5635 1.8666 101.894 3.24806 104.35 5.70416C106.806 8.16025 108.187 11.4904 108.191 14.9638C108.187 18.4377 106.806 21.7683 104.35 24.2251C101.894 26.6819 98.5639 28.0644 95.0901 28.0694C91.6154 28.0657 88.2841 26.6837 85.8271 24.2267C83.3702 21.7698 81.9882 18.4385 81.9845 14.9638C81.9833 11.4859 83.3631 8.14983 85.8206 5.68883C88.2781 3.22784 91.6122 1.84333 95.0901 1.83963V1.86291ZM31.7047 101.589C31.537 99.6841 31.6395 97.8119 32.4592 96.0841C33.4558 93.9836 34.9834 92.8752 37.1164 91.832C38.4111 91.1893 39.7385 90.6304 41.0798 90.1088C41.0761 95.6281 42.9445 100.985 46.3797 105.305C46.757 105.771 47.1622 106.237 47.5767 106.67C42.0438 105.856 36.6819 104.139 31.7047 101.589ZM58.7587 106.88C58.6797 106.944 58.6106 107.019 58.5538 107.103C57.4112 107.184 56.2609 107.224 55.1028 107.224C54.1713 107.224 53.2399 107.198 52.3084 107.145C52.2498 107.043 52.1724 106.953 52.0802 106.88C48.9397 104.411 46.5562 101.109 45.2014 97.3508C44.2532 94.6789 43.8448 91.8453 43.9999 89.0143L44.1908 88.9445L44.936 88.693C46.0993 90.2332 47.5815 91.5041 49.2812 92.4188C51.0572 93.3585 53.037 93.847 55.0463 93.8413C57.0556 93.8356 59.0326 93.3359 60.8033 92.3862C62.544 91.4452 64.0364 90.1044 65.1578 88.4741L65.726 88.679L66.8298 89.0702C66.9733 91.8694 66.5683 94.6697 65.6375 97.3136C64.2863 101.079 61.9024 104.387 58.7587 106.861V106.88ZM29.9256 58.2764C30.0579 58.0157 30.2041 57.7623 30.3634 57.5172L30.4146 57.4381L30.4891 57.3542C30.6009 57.2285 30.7173 57.1027 30.8431 56.9816C30.9688 56.8605 31.0294 56.8093 31.1225 56.7302C31.2157 56.651 31.3274 56.5858 31.3693 56.5532L31.7745 56.3157L32.0214 56.1899H32.0726C32.3663 56.0582 32.6825 55.9839 33.0041 55.971C33.5164 55.971 34.0333 55.971 34.5456 55.971H37.3074V57.8945C37.2622 59.5539 37.3104 61.2145 37.4517 62.8684H33.4838C33.1214 62.9015 32.7562 62.8842 32.3986 62.8172C32.2356 62.7706 32.0773 62.7194 31.9329 62.6588L31.7186 62.5517C31.5733 62.4783 31.4319 62.3975 31.2948 62.3096L31.1179 62.1978L31.0527 62.1559H31.0294C30.7877 61.9546 30.5634 61.7333 30.3587 61.4945C30.3127 61.4386 30.2706 61.3795 30.233 61.3176C30.1352 61.1685 30.056 61.0149 29.9722 60.8519L29.9209 60.7494L29.8883 60.6516C29.8371 60.5072 29.7952 60.3628 29.758 60.2138L29.716 60.0089C29.716 59.8598 29.716 59.7061 29.716 59.5431C29.716 59.3801 29.716 59.3336 29.716 59.2264C29.716 59.1938 29.7486 59.0308 29.7672 58.961C29.7974 58.821 29.8347 58.6827 29.879 58.5465C29.8697 58.4254 29.8977 58.3509 29.9256 58.2764ZM35.9381 36.853C35.6029 36.6633 35.2068 36.6122 34.8344 36.7105C34.462 36.8089 34.1428 37.0488 33.9448 37.3792C33.7574 37.7137 33.7071 38.1079 33.8043 38.4788C33.9016 38.8497 34.139 39.1684 34.4664 39.3679C35.3653 39.978 36.2967 40.5508 37.2608 41.0864L37.3074 51.9658V53.0323H34.5596C34.024 53.0323 33.4838 53.0323 32.9528 53.0323C32.9295 52.9857 32.9156 52.9391 32.8923 52.8926C31.2332 50.039 30.2755 46.8322 30.0979 43.5361C29.9402 40.6881 30.7529 37.8707 32.4033 35.5443C32.4266 35.5163 32.4452 35.4884 32.4685 35.4651C32.5523 35.358 32.6408 35.2555 32.7246 35.153C32.9528 34.8922 33.1903 34.6407 33.4418 34.3986C33.9289 33.9263 34.459 33.5007 35.0253 33.1271C35.37 32.8989 35.7332 32.6987 36.0965 32.4891C36.6005 32.1515 36.9838 31.6621 37.1909 31.0919C37.567 30.3552 37.9837 29.64 38.4391 28.9496C39.1927 27.8097 40.0739 26.7597 41.0658 25.8199C41.4756 25.4287 41.9041 25.0607 42.3419 24.7068L42.3931 24.6649L42.4537 24.6183L42.7936 24.3761C43.0544 24.1852 43.3246 24.0035 43.5993 23.8312C44.0651 23.5192 44.5914 23.2258 45.1036 22.9603C45.3738 22.8206 45.6439 22.6855 45.9187 22.5598L46.3005 22.3828L46.4915 22.299H46.5334C47.6506 21.849 48.7994 21.4816 49.9705 21.1999C50.5759 21.0555 51.186 20.9344 51.8008 20.8319L52.2293 20.7621L52.4668 20.7295C52.7602 20.6922 53.0582 20.6596 53.3517 20.6317C54.6177 20.5106 55.89 20.4687 57.1613 20.506C59.5871 20.5449 61.9995 20.8732 64.3475 21.484C66.662 22.046 68.9021 22.8792 71.0213 23.9663C72.0482 24.49 73.0393 25.0812 73.988 25.7361C74.2069 25.8851 74.4211 26.0388 74.6307 26.2018L74.8449 26.3648L75.1058 26.5697C75.5342 26.9143 75.9487 27.2729 76.3492 27.6502C76.7498 28.0274 77.1084 28.4 77.4623 28.8005C77.6207 28.9775 77.779 29.1638 77.9281 29.3501L78.0538 29.5038L78.2447 29.7599C78.8144 30.531 79.2956 31.3637 79.6792 32.2422C79.8282 32.6028 79.9572 32.9713 80.0657 33.346C79.4277 34.0073 78.7664 34.6501 78.0771 35.2648C77.795 35.3151 77.5318 35.4408 77.3153 35.6286C77.0989 35.8164 76.9372 36.0592 76.8476 36.3313C75.8966 37.105 74.8997 37.8204 73.8623 38.4737C73.3267 38.8136 72.7864 39.135 72.2369 39.4424C71.9805 39.432 71.7259 39.4899 71.4992 39.6102C71.2726 39.7305 71.0819 39.9089 70.9468 40.127C68.1055 41.5557 65.0663 42.5509 61.9303 43.0797C59.9295 43.4044 57.9017 43.5323 55.8759 43.4616C53.9744 43.4083 52.0811 43.1901 50.2173 42.8096C48.5029 42.454 46.8134 41.9872 45.1595 41.4124C44.4051 41.1563 43.6552 40.8722 42.9194 40.5694L42.6725 40.467H42.6493L42.1835 40.2621L41.2241 39.8243C40.6513 39.5542 40.0924 39.2701 39.5336 38.9813L39.3985 38.9068C38.2069 38.2885 37.0516 37.6028 35.9381 36.853ZM80.443 59.939C80.443 59.9716 80.443 60.0089 80.443 60.0275C80.3964 60.1998 80.3591 60.3675 80.3079 60.5351L80.2427 60.7121C80.1728 60.8472 80.103 60.9869 80.0238 61.1173L79.8794 61.3362L79.8329 61.4014L79.7816 61.4666L79.5534 61.7134C79.4417 61.8252 79.3206 61.9323 79.2041 62.0348L79.1296 62.0907L79.0039 62.1792C78.8673 62.2692 78.7275 62.353 78.5847 62.4306C78.5055 62.4772 78.4171 62.5191 78.3332 62.5611L78.268 62.5937C77.4483 62.9104 76.7637 62.8172 75.809 62.8172H73.5642C73.7319 60.5221 73.7785 58.2198 73.7039 55.9198H76.475C76.6985 55.9198 76.9407 55.9198 77.1456 55.9198C77.2869 55.8933 77.4328 55.9095 77.5648 55.9664C77.7231 56.0129 77.8768 56.0642 78.0305 56.1201L78.2261 56.2132C78.3683 56.2835 78.5066 56.3612 78.6406 56.4461L78.8083 56.5532L78.9899 56.6836L79.0924 56.7674L79.2367 56.8978C79.3439 57.0003 79.451 57.1121 79.5534 57.2238L79.7351 57.4474C79.8142 57.5591 79.8934 57.6756 79.9679 57.7967C80.0425 57.9178 80.1077 58.0528 80.1729 58.1832L80.2101 58.2624C80.2228 58.2912 80.2337 58.3207 80.2427 58.3509C80.2846 58.4906 80.3312 58.6257 80.3685 58.7654L80.4104 58.9424L80.443 59.1147C80.443 59.1938 80.443 59.3615 80.443 59.4034C80.443 59.5431 80.443 59.6875 80.443 59.8273C80.4476 59.8878 80.443 59.9111 80.443 59.939ZM73.6713 41.9759C74.8741 41.3036 76.0359 40.5602 77.1503 39.7498C77.4204 39.5495 77.6859 39.3492 77.9467 39.1443L78.0864 39.4238C78.0864 39.461 78.2075 39.7079 78.2215 39.7358L78.3752 40.1177C78.9277 41.5112 79.2986 42.9701 79.4789 44.4583C79.8057 47.323 79.4367 50.2242 78.4031 52.9159C78.3704 53.0077 78.3485 53.103 78.3379 53.1999L78.0352 53.1208C77.3814 53.0268 76.7197 53.0003 76.0605 53.0416H73.6713V41.9759ZM50.1754 45.7623C54.843 46.638 59.6381 46.5778 64.2823 45.5853C66.5083 45.0912 68.6787 44.3734 70.7605 43.443V57.9923C70.8235 59.6358 70.7815 61.2815 70.6348 62.9197C70.2875 65.4048 69.3815 67.779 67.9848 69.8637C66.6697 71.8209 64.9357 73.4611 62.9084 74.6653C62.2152 75.0866 61.4858 75.4451 60.7288 75.7365H60.6682C60.3282 75.8622 59.9743 75.9786 59.5831 76.0951C59.0358 76.2534 58.4809 76.384 57.9204 76.4863C57.3263 76.5886 56.7255 76.6478 56.1227 76.6633C55.5014 76.6848 54.8793 76.6693 54.2598 76.6167C53.6994 76.5727 53.1434 76.4839 52.5972 76.3512C52.0257 76.2266 51.4613 76.0711 50.9066 75.8855C50.3482 75.7046 49.8047 75.4804 49.2812 75.2149C47.0988 74.1377 45.1866 72.5835 43.6863 70.6672C42.186 68.7509 41.136 66.5216 40.614 64.1445C40.3044 62.4931 40.1779 60.8125 40.2368 59.1333L40.2089 52.8833C40.2089 49.44 40.1964 46.0014 40.1716 42.5674C43.359 44.0456 46.7201 45.1159 50.1754 45.753V45.7623ZM49.3418 86.22C50.2178 85.1511 50.6952 83.811 50.6924 82.4289C50.7296 81.2491 50.7638 80.0708 50.7948 78.8941C53.758 79.7441 56.894 79.7907 59.8811 79.0292L59.9603 81.7583C60.0022 83.0716 60.0907 84.3664 60.8079 85.5167C61.2449 86.1965 61.8211 86.7759 62.4985 87.2166C61.6521 88.3281 60.5728 89.2409 59.3362 89.891C58.0996 90.541 56.7357 90.9126 55.3403 90.9797C54.5327 91.0202 53.7234 90.945 52.9371 90.7561C52.5569 90.6623 52.1822 90.5473 51.8148 90.4115L51.6052 90.3323L51.4049 90.2532L50.9392 90.0296C50.3579 89.7295 49.8033 89.3805 49.2812 88.9864L49.0856 88.8327C48.9645 88.7349 48.8481 88.6324 48.7317 88.5253C48.5267 88.3437 48.3311 88.1574 48.1402 87.9618C47.9492 87.7662 47.8654 87.6684 47.7303 87.4961C48.3352 87.164 48.8799 86.7326 49.3418 86.22ZM78.9899 101.319C74.097 103.896 68.8186 105.662 63.3601 106.549C67.0554 102.531 69.287 97.3831 69.694 91.9391C69.7406 91.3523 69.7639 90.7655 69.7639 90.1786C70.7745 90.5699 71.7805 90.9797 72.7725 91.4361C73.8387 91.9043 74.8585 92.4719 75.8183 93.1314C76.1513 93.3727 76.4629 93.6423 76.7498 93.9371C77.1215 94.2966 77.4441 94.7038 77.7092 95.1479C78.8968 97.0388 79.1436 99.1439 78.9899 101.31V101.319ZM106.552 55.7661C106.546 64.5768 104.279 73.2384 99.9675 80.9223C95.6563 88.6061 89.4452 95.0549 81.9286 99.6515C81.8934 98.2173 81.6131 96.7997 81.0997 95.46C80.1531 93.1181 78.4319 91.1718 76.2235 89.9458C73.8938 88.6538 71.4491 87.5811 68.9209 86.7416C67.8311 86.3597 66.7273 86.015 65.6608 85.6005L65.3953 85.4934L65.3162 85.4655L65.2417 85.4282C65.0647 85.3444 64.8877 85.2652 64.7154 85.1721C64.5431 85.0789 64.3521 84.9765 64.1798 84.8694L63.9376 84.7017L63.8957 84.6784L63.8678 84.6458C63.7234 84.4968 63.5697 84.3571 63.402 84.1801L63.3694 84.1335C63.2996 84.0171 63.2251 83.9053 63.1645 83.7889C62.9581 83.363 62.8605 82.8925 62.8804 82.4197C62.8292 80.9433 62.7919 79.4669 62.75 77.9953C65.2226 76.8301 67.4146 75.1452 69.1765 73.0554C70.9383 70.9656 72.2284 68.5203 72.9588 65.8864C72.9588 65.8398 72.982 65.7932 72.996 65.7466H75.7904C76.8476 65.7466 77.9001 65.8258 78.9107 65.4579C79.7486 65.1785 80.523 64.7365 81.1896 64.1571C81.8561 63.5776 82.4017 62.8722 82.7949 62.0814C83.3675 60.7544 83.4758 59.273 83.1023 57.8769C82.7287 56.4807 81.8951 55.2513 80.7364 54.3876C80.9455 54.1899 81.105 53.9458 81.2021 53.675C82.1838 51.0147 82.6049 48.1803 82.439 45.3495C82.2731 42.5188 81.5238 39.7529 80.2381 37.2255C80.5874 36.9135 80.932 36.5921 81.2673 36.2615C81.733 35.7957 82.2593 35.33 82.7018 34.7851C83.568 33.7792 82.7716 32.1491 82.3245 31.0919C81.0438 28.0647 78.7524 25.6522 76.1443 23.7195C70.374 19.4348 62.7267 17.4135 55.5965 17.5672C51.8396 17.602 48.1283 18.394 44.6845 19.8959C41.2181 21.4808 38.2538 23.9876 36.1151 27.1426C35.4861 28.0708 34.9228 29.0419 34.4292 30.0487C31.5672 31.6375 29.35 34.1759 28.1605 37.2255C26.8378 40.616 26.9263 44.4722 27.7879 47.9652C28.3127 50.0312 29.095 52.023 30.1165 53.8939C29.0389 54.5118 28.1501 55.4119 27.5457 56.4973C27.1394 57.2176 26.8829 58.0126 26.7916 58.8346C26.7004 59.6565 26.7763 60.4884 27.0148 61.2803C27.2995 62.1219 27.7521 62.8968 28.3454 63.5581C28.9386 64.2194 29.66 64.7532 30.4658 65.1272C30.9266 65.3509 31.4109 65.5227 31.9096 65.6395C32.5554 65.7351 33.2094 65.7632 33.861 65.7233H37.5589C37.7179 65.7238 37.8757 65.6954 38.0246 65.6395C39.2928 70.3263 42.2877 74.3596 46.4077 76.9287C46.898 77.2303 47.4032 77.507 47.9213 77.7577C47.884 79.0757 47.8421 80.3984 47.8049 81.7211C47.8221 82.2764 47.7705 82.8317 47.6512 83.3744C47.6056 83.5387 47.5366 83.6955 47.4462 83.8401C47.409 83.9053 47.3671 83.9659 47.3251 84.0357L47.2506 84.1475C47.1249 84.2825 46.9945 84.4083 46.8594 84.5387C46.8314 84.5685 46.8002 84.595 46.7663 84.6179L46.6079 84.7343C46.2356 84.9678 45.8482 85.1763 45.4483 85.3584L45.3738 85.3956L45.2899 85.4236L45.0245 85.5307L44.3259 85.7868C43.7577 85.9918 43.1848 86.1827 42.612 86.3737C40.0538 87.2209 37.5629 88.2593 35.1604 89.4801C33.0367 90.5838 31.1644 92.13 30.0374 94.2864C29.1782 96.0246 28.7274 97.9361 28.7194 99.8751C21.0727 95.3125 14.7405 88.8443 10.3414 81.1024C5.94236 73.3606 3.62693 64.6099 3.62137 55.7056C3.64974 42.0683 9.08541 28.9989 18.7363 19.3637C28.3872 9.72849 41.4655 4.31411 55.1028 4.30797C64.0568 4.29924 72.856 6.64241 80.6199 11.1029C80.2905 12.3556 80.1231 13.6453 80.1216 14.9405C80.1266 18.9089 81.7052 22.7133 84.5112 25.5194C87.3173 28.3254 91.1217 29.904 95.0901 29.909C96.4894 29.9097 97.8818 29.7121 99.2257 29.3222C104.029 37.3023 106.562 46.4426 106.552 55.7568V55.7661Z" fill="url(#paint3_linear)"/>
<path d="M98.152 6.98511L98.152 8.1711L100.806 8.1711L97.3358 11.6418C95.0089 9.73947 91.5625 9.87304 89.3928 12.0427C87.0807 14.3548 87.0807 18.1168 89.3928 20.4289C90.5489 21.5849 92.0674 22.1629 93.5859 22.1629C95.1044 22.1629 96.623 21.5849 97.779 20.4289C99.9505 18.2574 100.082 14.807 98.1749 12.4799L101.651 9.00422L101.651 11.6994L102.837 11.6994L102.837 6.98511L98.152 6.98511ZM96.9404 19.5903C96.0155 20.5152 94.8009 20.9776 93.5859 20.9775C92.3713 20.9774 91.1562 20.515 90.2315 19.5903C88.3818 17.7406 88.3818 14.731 90.2315 12.8813C91.1563 11.9565 92.3711 11.4941 93.5859 11.4941C94.8007 11.4941 96.0156 11.9565 96.9404 12.8813C98.79 14.731 98.79 17.7406 96.9404 19.5903Z" fill="url(#paint4_linear)"/>
<defs>
<linearGradient id="paint0_linear" x1="47.3904" y1="55.3423" x2="47.3904" y2="59.1705" gradientUnits="userSpaceOnUse">
<stop offset="0.21875" stop-color="#636BFB"/>
<stop offset="1" stop-color="#B3BDFD"/>
</linearGradient>
<linearGradient id="paint1_linear" x1="63.4581" y1="55.3423" x2="63.4581" y2="59.1705" gradientUnits="userSpaceOnUse">
<stop offset="0.21875" stop-color="#636BFB"/>
<stop offset="1" stop-color="#B3BDFD"/>
</linearGradient>
<linearGradient id="paint2_linear" x1="55.1523" y1="64.0488" x2="55.1523" y2="69.217" gradientUnits="userSpaceOnUse">
<stop offset="0.21875" stop-color="#636BFB"/>
<stop offset="1" stop-color="#B3BDFD"/>
</linearGradient>
<linearGradient id="paint3_linear" x1="55.4567" y1="0" x2="55.4567" y2="110" gradientUnits="userSpaceOnUse">
<stop offset="0.21875" stop-color="#636BFB"/>
<stop offset="1" stop-color="#B3BDFD"/>
</linearGradient>
<linearGradient id="paint4_linear" x1="102.215" y1="7.65866" x2="89.784" y2="20.214" gradientUnits="userSpaceOnUse">
<stop stop-color="#B3BDFD"/>
<stop offset="1" stop-color="#636BFB"/>
</linearGradient>
</defs>
</svg>
