<svg width="86" height="86" viewBox="0 0 86 86" fill="none" xmlns="http://www.w3.org/2000/svg">
<path fill-rule="evenodd" clip-rule="evenodd" d="M43.0756 85.0489C31.8132 85.036 21.0159 80.5546 13.0522 72.5877C5.08848 64.6208 0.608815 53.8192 0.595947 42.5523C0.608812 31.2849 5.08834 20.4824 13.0518 12.5145C21.0153 4.54652 31.8126 0.0635399 43.0756 0.0488281C54.3403 0.0598656 65.1406 4.54144 73.1059 12.51C81.0713 20.4786 85.5511 31.2831 85.5622 42.5523C85.5493 53.8204 81.0687 64.6231 73.1035 72.5902C65.1383 80.5572 54.3391 85.0378 43.0756 85.0489ZM43.0756 2.13335C32.3647 2.14623 22.0963 6.409 14.5232 13.9864C6.95009 21.5639 2.69067 31.8371 2.67964 42.5523C2.69251 53.2663 6.95266 63.5378 14.5256 71.1137C22.0985 78.6897 32.3659 82.9515 43.0756 82.9643C53.7865 82.9533 64.0557 78.6923 71.6301 71.1162C79.2045 63.54 83.4656 53.2675 83.4785 42.5523C83.4674 31.8359 79.2072 21.5616 71.6325 13.984C64.0579 6.40635 53.7877 2.14439 43.0756 2.13335ZM60.7383 41.5864C60.7285 43.5293 60.1315 45.4237 59.0258 47.021C57.9201 48.6182 56.3573 49.8435 54.5427 50.536C52.6811 51.2101 50.6577 51.297 48.7452 50.7852C48.6465 50.7587 48.5483 50.7308 48.4507 50.7013C49.8552 48.5417 50.6417 46.0284 50.711 43.4369C50.7289 43.3454 50.7378 43.2474 50.7365 43.1429C50.7113 40.3036 49.8272 37.5386 48.2006 35.2117C47.7129 34.5141 47.1653 33.8657 46.5659 33.2728C46.8002 33.1425 47.0405 33.0216 47.2862 32.9108C49.0696 32.1062 51.056 31.8652 52.98 32.22C55.1505 32.6548 57.1058 33.8226 58.5183 35.5278C59.9307 37.233 60.7145 39.372 60.7383 41.5864ZM44.4589 34.859C43.9005 35.4146 43.4094 36.0398 42.9991 36.7225C42.0059 38.4161 41.5548 40.3732 41.7062 42.3308C41.8577 44.2884 42.6046 46.1528 43.8464 47.6732C44.4883 48.4345 45.2397 49.0876 46.0714 49.6139L46.0786 49.6037C47.404 47.7092 48.1203 45.4553 48.1319 43.1429C48.1089 40.5342 47.1924 38.0123 45.5353 35.9979C45.2014 35.5921 44.8416 35.2118 44.4589 34.859ZM42.325 33.307C42.1653 33.4771 42.0102 33.6522 41.86 33.832C40.2761 35.7675 39.3209 38.1408 39.1223 40.6343C38.9237 43.1277 39.4912 45.6224 40.7487 47.7844C41.6612 49.2964 42.8842 50.5861 44.3273 51.5738C43.2745 52.512 42.0506 53.2512 40.714 53.7462C38.5126 54.5225 36.1263 54.6057 33.8763 53.9846C31.6262 53.3634 29.6204 52.0678 28.1285 50.272C26.6738 48.4653 25.8067 46.2564 25.6441 43.9423C25.4814 41.6281 26.0309 39.3196 27.2186 37.3271C28.4203 35.3552 30.194 33.7964 32.3033 32.858C34.4127 31.9195 36.7576 31.6461 39.0262 32.0741C40.1914 32.3133 41.3031 32.7316 42.325 33.307ZM44.416 31.5294C43.5457 30.9558 42.6099 30.4779 41.6238 30.1077C38.9378 29.1443 36.0214 29.0275 33.267 29.7729C32.2051 30.0603 31.187 30.4705 30.2316 30.9914L26.3833 24.378L29.9411 25.4522C30.2744 25.5402 30.6288 25.4942 30.9287 25.3241C31.2285 25.154 31.4499 24.8733 31.5456 24.542C31.6299 24.2087 31.5823 23.8557 31.4128 23.5567C31.2433 23.2577 30.9648 23.0356 30.6357 22.9369L23.7317 20.8524C23.3984 20.7626 23.0431 20.8077 22.7428 20.9781C22.4425 21.1485 22.2213 21.4303 22.1272 21.7626L20.6896 28.8083C20.6017 29.1417 20.6476 29.4963 20.8176 29.7963C20.9877 30.0962 21.2682 30.3177 21.5993 30.4134C21.9317 30.4993 22.2845 30.4523 22.5827 30.2824C22.8809 30.1124 23.1012 29.8329 23.1969 29.5032V29.5101L24.0161 25.4916C25.3687 27.8098 26.719 30.1291 28.0668 32.4496C27.3985 32.9972 26.7792 33.6082 26.2184 34.2767C24.3931 36.4969 23.2937 39.2245 23.0688 42.0903C22.844 44.9561 23.5045 47.8219 24.9612 50.2998C26.4514 52.7428 28.6525 54.6716 31.2695 55.8279C33.8864 56.9841 36.7939 57.3124 39.6026 56.7688C42.3218 56.1952 44.7994 54.8274 46.7287 52.8521C48.8933 53.7121 51.2616 53.9398 53.5565 53.503C54.6785 53.2706 55.7541 52.8841 56.7553 52.3602L59.204 56.5704L56.8976 58.075C56.6036 58.2541 56.3908 58.5405 56.3039 58.8738C56.2171 59.207 56.2631 59.5609 56.4323 59.8608C56.6112 60.1531 56.8962 60.3647 57.2277 60.4515C57.5591 60.5383 57.9112 60.4934 58.2103 60.3263L60.515 58.8244L61.8775 61.1671C62.0635 61.4406 62.3462 61.6333 62.6687 61.7064C62.9912 61.7794 63.3294 61.7273 63.615 61.5607C63.9006 61.394 64.1124 61.1251 64.2076 60.8084C64.3028 60.4916 64.2743 60.1505 64.1279 59.8539L62.7002 57.4003L64.7462 56.067C65.0402 55.8878 65.253 55.6014 65.3399 55.2682C65.4267 54.935 65.3807 54.5811 65.2115 54.2812C65.0313 53.9884 64.7451 53.7766 64.4125 53.6899C64.0799 53.6031 63.7267 53.6482 63.4265 53.8157L61.3881 55.1455L58.9247 50.9121C59.5136 50.4209 60.0585 49.8729 60.5507 49.2731C62.2887 47.1552 63.267 44.5178 63.3328 41.7821C63.3403 41.7196 63.3438 41.6544 63.3429 41.5864C63.319 39.0974 62.5415 36.6741 61.1131 34.6361C59.6847 32.5981 57.6724 31.041 55.3415 30.1702C52.9899 29.3267 50.4361 29.2255 48.0252 29.8804C46.7328 30.2314 45.5148 30.7907 44.416 31.5294Z" fill="url(#paint0_linear)"/>
<defs>
<linearGradient id="paint0_linear" x1="43.0791" y1="0.0488281" x2="43.0791" y2="85.0488" gradientUnits="userSpaceOnUse">
<stop stop-color="#636BFB"/>
<stop offset="1" stop-color="#B3BDFD"/>
</linearGradient>
</defs>
</svg>
