<svg width="101" height="101" viewBox="0 0 101 101" fill="none" xmlns="http://www.w3.org/2000/svg">
<path d="M42.4938 49.3471C42.8307 49.3471 43.1537 49.2133 43.3919 48.9751C43.6301 48.7369 43.764 48.4138 43.764 48.0769V47.137C43.764 46.8001 43.6301 46.4771 43.3919 46.2389C43.1537 46.0007 42.8307 45.8668 42.4938 45.8668C42.1569 45.8668 41.8339 46.0007 41.5957 46.2389C41.3575 46.4771 41.2236 46.8001 41.2236 47.137V48.0727C41.2231 48.2398 41.2555 48.4055 41.3191 48.5601C41.3827 48.7146 41.4762 48.8552 41.5942 48.9736C41.7122 49.092 41.8524 49.1859 42.0067 49.25C42.1611 49.3141 42.3266 49.3471 42.4938 49.3471Z" fill="url(#paint0_linear)"/>
<path d="M58.3917 49.1862C58.7286 49.1862 59.0517 49.0524 59.2899 48.8142C59.5281 48.576 59.6619 48.2529 59.6619 47.9161V46.9804C59.6619 46.6435 59.5281 46.3204 59.2899 46.0822C59.0517 45.844 58.7286 45.7102 58.3917 45.7102C58.0549 45.7102 57.7318 45.844 57.4936 46.0822C57.2554 46.3204 57.1216 46.6435 57.1216 46.9804V47.9161C57.1216 48.2529 57.2554 48.576 57.4936 48.8142C57.7318 49.0524 58.0549 49.1862 58.3917 49.1862Z" fill="url(#paint1_linear)"/>
<path d="M49.9791 58.7378C51.0189 58.7517 52.0493 58.5401 52.9994 58.1177C53.9496 57.6952 54.7969 57.0719 55.4831 56.2906C55.7226 56.0387 55.8561 55.7045 55.8561 55.357C55.8561 55.0095 55.7226 54.6753 55.4831 54.4234C55.2342 54.1768 54.8979 54.0384 54.5474 54.0384C54.197 54.0384 53.8607 54.1768 53.6118 54.4234C53.4784 54.5721 53.337 54.7134 53.1884 54.8468C53.0783 54.9527 52.9597 55.0501 52.8454 55.1475L52.7989 55.1771L52.5575 55.338C52.3629 55.4645 52.1607 55.5791 51.9521 55.6809L51.7531 55.7656L51.4991 55.8587C51.2337 55.945 50.9618 56.0101 50.6862 56.0535L50.4067 56.0747C50.2628 56.0747 50.1188 56.0747 49.9833 56.0747L49.6489 56.0535C49.6489 56.0535 49.4372 56.0239 49.3991 56.0154C49.136 55.9638 48.877 55.893 48.6243 55.8037C48.5734 55.8037 48.3194 55.6767 48.3745 55.7063L48.1628 55.6005C47.9812 55.5066 47.8045 55.4034 47.6335 55.2914C47.5531 55.2406 47.4769 55.1855 47.4007 55.1305L47.3541 55.0966C47.244 54.9908 47.117 54.9019 47.0069 54.796C46.8752 54.6736 46.7508 54.5435 46.6343 54.4065C46.3854 54.1599 46.0491 54.0215 45.6986 54.0215C45.3482 54.0215 45.0119 54.1599 44.763 54.4065C44.5216 54.6574 44.3867 54.9919 44.3867 55.3401C44.3867 55.6882 44.5216 56.0228 44.763 56.2737C45.4176 57.0194 46.2183 57.6228 47.1155 58.0466C48.0127 58.4705 48.9873 58.7057 49.9791 58.7378Z" fill="url(#paint2_linear)"/>
<path d="M100.367 13.8587C100.362 10.2515 98.9269 6.79336 96.3759 4.24307C93.8248 1.69277 90.3662 0.25861 86.759 0.255249C84.1707 0.258029 81.6368 0.998246 79.454 2.38919C77.2712 3.78014 75.53 5.76422 74.4342 8.10909C67.0164 3.87097 58.6197 1.64519 50.0766 1.65242C37.0064 1.66698 24.4754 6.86412 15.2313 16.1042C5.98731 25.3442 0.784817 37.8731 0.764648 50.9433C0.779217 64.0172 5.97924 76.5514 15.2239 85.796C24.4685 95.0407 37.0028 100.241 50.0766 100.255C63.1505 100.241 75.6848 95.0407 84.9294 85.796C94.174 76.5514 99.3741 64.0172 99.3886 50.9433C99.3977 42.2108 97.072 33.6346 92.6525 26.1031C94.9583 24.9924 96.9048 23.2548 98.269 21.0894C99.6333 18.9239 100.36 16.4181 100.367 13.8587ZM86.759 1.9488C89.917 1.95216 92.9449 3.2079 95.1783 5.44059C97.4118 7.67328 98.6686 10.7006 98.6731 13.8587C98.6697 17.0175 97.4134 20.046 95.1798 22.2796C92.9462 24.5132 89.9178 25.7695 86.759 25.7728C83.6009 25.7684 80.5736 24.5115 78.3409 22.2781C76.1082 20.0446 74.8524 17.0168 74.8491 13.8587C74.8468 10.6974 76.1002 7.66457 78.3336 5.42718C80.5671 3.18979 83.5976 1.931 86.759 1.92764V1.9488ZM72.3638 92.0796C65.5299 95.8009 57.8707 97.7459 50.0893 97.7361C42.5839 97.7437 35.1882 95.9337 28.5347 92.4607C28.2655 90.4161 28.4787 88.3368 29.157 86.3893C29.6749 84.9812 30.5969 83.7573 31.8074 82.8709C35.4332 85.6821 39.6435 87.644 44.128 88.6121C50.9611 90.0303 58.0743 89.0399 64.2601 85.8093C65.9019 84.953 67.461 83.9467 68.9174 82.8032C69.9285 83.5211 70.7567 84.4667 71.335 85.5637C72.3765 87.579 72.5289 89.8272 72.3511 92.0585L72.3638 92.0796ZM26.8707 49.2539C26.9427 49.1142 27.0147 48.9787 27.0994 48.8305C27.1841 48.6824 27.2433 48.6062 27.3195 48.4961C27.3406 48.4703 27.3604 48.4434 27.3788 48.4156C27.4084 48.386 27.4804 48.3013 27.4931 48.2929C27.6745 48.0833 27.8759 47.8918 28.0943 47.7213L28.2976 47.5858C28.4505 47.488 28.6088 47.399 28.7718 47.3191L28.8691 47.2725L29.03 47.2132C29.1668 47.1664 29.3092 47.138 29.4534 47.1285C29.9107 47.1031 30.3764 47.1285 30.8337 47.1285H32.6458V50.232C32.6404 51.6821 32.7823 53.129 33.0691 54.5505H31.1385C30.406 54.5505 29.5212 54.6818 28.8776 54.4616C28.6485 54.387 28.4306 54.2816 28.2298 54.1483C28.1155 54.0805 28.0054 54.0044 27.8996 53.9281C27.8996 53.9281 27.7006 53.7503 27.6625 53.7165C27.4879 53.5543 27.3278 53.3772 27.1841 53.1872C27.1036 53.0687 27.0274 52.9501 26.9597 52.8273C26.8919 52.7045 26.8665 52.6622 26.8242 52.5775L26.7691 52.4717C26.6607 52.1978 26.5785 51.9143 26.5236 51.6249C26.5236 51.5741 26.5236 51.5275 26.4982 51.4767C26.4956 51.4613 26.4956 51.4456 26.4982 51.4301C26.4982 51.2735 26.4982 51.1169 26.4982 50.9644C26.4982 50.812 26.4982 50.6511 26.5236 50.4945C26.5236 50.4352 26.5447 50.3759 26.5574 50.3166C26.6053 50.0139 26.676 49.7153 26.7691 49.4233C26.8157 49.3683 26.8411 49.309 26.8707 49.2539ZM32.6077 40.6211C32.6077 41.8912 32.6077 43.2037 32.6077 44.4951H30.8083C30.3129 44.4951 29.826 44.4951 29.3433 44.4951C29.4082 39.9233 30.3034 35.4015 31.9853 31.1499C32.0361 31.0229 32.0869 30.8916 32.1419 30.7603L32.2562 30.4767L32.3155 30.3454C32.3409 30.2904 32.3621 30.2311 32.3875 30.1761L32.595 29.7188C32.8772 29.1346 33.1679 28.5602 33.4671 27.9956C33.7663 27.4311 34.1008 26.8807 34.4706 26.3444C34.8431 25.7855 35.1988 25.3029 35.529 24.8964C37.3966 22.5393 39.8806 20.7456 42.7055 19.7142C45.3432 18.77 47.8623 18.5922 50.6482 18.6007C53.4709 18.539 56.2751 19.0713 58.8789 20.163C59.7087 20.5223 60.5086 20.947 61.271 21.4331C61.8466 21.791 62.3957 22.19 62.9138 22.6271C63.4434 23.0685 63.9467 23.5407 64.421 24.0412C64.6454 24.2783 64.8444 24.5196 65.0773 24.7652L65.3906 25.1335L65.6234 25.4214C66.4081 26.4541 67.1009 27.5534 67.6938 28.7069C67.9775 29.2446 68.2357 29.7992 68.4813 30.3581L68.5025 30.4047C68.5321 30.4725 68.5575 30.5402 68.5872 30.6037L68.7438 30.9974C68.8497 31.2769 68.9555 31.5521 69.0529 31.8442C69.6953 33.6736 70.1797 35.5547 70.5009 37.4668C70.5602 37.8098 70.611 38.1527 70.6618 38.4999L70.6829 38.665C70.6829 38.7074 70.7168 38.9106 70.7253 38.9656C70.9426 40.6499 71.0205 42.3492 70.9581 44.0463C70.9581 44.2537 70.9327 44.4697 70.9243 44.6687H68.4347C68.4347 43.318 68.4347 41.9632 68.4347 40.6126C68.4368 40.4285 68.3989 40.2461 68.3235 40.0781C68.2481 39.9101 68.1371 39.7606 67.9981 39.6397C67.8592 39.5189 67.6956 39.4297 67.5188 39.3784C67.342 39.3271 67.1561 39.3148 66.9741 39.3424C66.8005 39.259 66.6118 39.2115 66.4194 39.2027C58.441 38.9026 50.6301 36.8255 43.5565 33.1229C41.8328 32.2151 40.1581 31.2174 38.5393 30.1337C38.2352 29.9616 37.8758 29.9152 37.5379 30.0046C37.2001 30.094 36.9106 30.3121 36.7315 30.6122C36.56 30.916 36.5136 31.2747 36.6021 31.6122C36.6907 31.9497 36.9071 32.2394 37.2056 32.42C38.37 33.1991 39.5681 33.9315 40.7875 34.6216C40.6436 34.7868 40.4996 34.9519 40.3641 35.1128C39.7878 35.723 39.1665 36.2891 38.5054 36.8063H38.4843L38.4377 36.8402L38.1456 37.0561C37.9423 37.2001 37.7222 37.3398 37.5274 37.4795C37.104 37.7505 36.6806 38.0045 36.2573 38.2374C35.8339 38.4703 35.4401 38.6608 35.021 38.8428L34.9151 38.8894L34.6145 39.0122L34.0345 39.2239C33.9677 39.2492 33.9026 39.2789 33.8397 39.3128C33.6711 39.3118 33.5041 39.3456 33.3492 39.412C33.1942 39.4785 33.0546 39.5761 32.939 39.6988C32.8234 39.8215 32.7343 39.9668 32.6773 40.1255C32.6203 40.2841 32.5966 40.4528 32.6077 40.6211ZM75.2132 51.6842C75.1828 51.8699 75.1418 52.0536 75.0904 52.2346C74.945 52.7394 74.6928 53.207 74.351 53.6058C74.0091 54.0047 73.5855 54.3254 73.109 54.5463L73.0031 54.5971L72.838 54.6564C72.7023 54.7077 72.5595 54.7377 72.4146 54.7453C71.9616 54.7707 71.5043 54.7453 71.0555 54.7453H68.041C68.2951 53.6495 68.43 52.5295 68.4432 51.4047C68.4432 50.0414 68.4432 48.6824 68.4432 47.3191H70.3781C70.8269 47.3191 71.3307 47.2725 71.8092 47.281C71.92 47.3171 72.0355 47.337 72.1521 47.3402C72.2042 47.3446 72.2566 47.3446 72.3087 47.3402C72.4294 47.359 72.5483 47.3873 72.6644 47.4249L72.8337 47.4842H72.8591C73.0031 47.5519 73.1428 47.6281 73.2825 47.7086C73.4832 47.8115 73.6662 47.9459 73.8245 48.1066C73.9388 48.2124 74.0531 48.3225 74.159 48.4368L74.3198 48.6188C74.501 48.8563 74.6597 49.11 74.794 49.3767L74.8999 49.5927C74.9507 49.7239 74.9973 49.8552 75.0396 49.9906C75.0819 50.1261 75.1116 50.2489 75.1412 50.3802C75.1412 50.4267 75.192 50.6469 75.2005 50.6765C75.2266 50.9467 75.2337 51.2183 75.2217 51.4894C75.2259 51.5402 75.2174 51.6207 75.2132 51.6842ZM43.15 35.896C48.569 38.6301 54.3982 40.4607 60.4073 41.3154C62.1997 41.5666 63.9962 41.7374 65.797 41.8277V49.7154C65.8316 50.893 65.7835 52.0715 65.6531 53.2423C65.4821 54.2554 65.2083 55.2484 64.836 56.206C64.1212 57.9702 63.0733 59.5802 61.7494 60.9479C60.3884 62.3639 58.7668 63.5039 56.9736 64.3054C53.3022 65.9403 49.1408 66.092 45.3601 64.7288C41.6705 63.4179 38.6116 60.7627 36.795 57.2941C35.7845 55.2615 35.2708 53.0182 35.2962 50.7485L35.2581 41.5695C38.3296 40.3824 41.0464 38.4294 43.15 35.896ZM45.0722 75.7538C45.8936 74.6191 46.0587 73.2431 46.0968 71.884C46.1349 70.5249 46.1688 69.1278 46.2026 67.7475C48.9641 68.4484 51.8516 68.4904 54.6323 67.8703L54.7212 71.2574C54.7593 72.6292 54.7932 73.929 55.424 75.1864C56.3174 76.9731 58.193 77.8284 59.9543 78.5227C62.1686 79.3992 64.3491 80.2586 66.4745 81.3383L66.4194 81.3806C65.5716 81.9805 64.6941 82.5372 63.7902 83.0488C61.3742 84.427 58.7612 85.4265 56.0422 86.0125C52.7286 86.7359 49.308 86.825 45.9613 86.275C43.1943 85.8083 40.5119 84.9336 38.0016 83.6796C36.9506 83.1478 35.9314 82.5555 34.949 81.9056C34.7077 81.7489 34.479 81.5796 34.2462 81.4145C36.1344 80.4422 38.0799 79.5854 40.072 78.8488C41.9307 78.1459 43.8655 77.4262 45.0722 75.7538ZM96.8483 50.9433C96.8471 58.8409 94.8462 66.6095 91.0319 73.525C87.2177 80.4405 81.7145 86.2775 75.0354 90.4919C75.0454 88.9698 74.811 87.456 74.341 86.0082C73.5539 83.6451 71.9822 81.6223 69.887 80.2756C67.6949 78.9057 65.3647 77.7704 62.9349 76.8885C62.3972 76.6768 61.8553 76.4651 61.3176 76.2746L60.6444 76.0163C60.3734 75.9062 60.1871 75.83 60.0982 75.7877C59.6907 75.6139 59.296 75.4116 58.917 75.1822C58.7857 75.1018 58.6587 75.0129 58.5359 74.9239L58.392 74.8054L58.1633 74.5852L58.0321 74.4371C58.0109 74.4074 57.9347 74.3058 57.9136 74.2719C57.8924 74.2381 57.7992 74.0857 57.7442 73.9925L57.6511 73.802C57.4551 73.1951 57.3621 72.5597 57.3759 71.9221L57.2488 67.0955C61.1887 65.554 64.4576 62.6705 66.4787 58.9538C66.7824 58.3858 67.0524 57.8006 67.2874 57.2009C67.508 57.3551 67.7719 57.4351 68.041 57.4295H71.047C72.0208 57.4295 72.9481 57.4931 73.8626 57.1205C74.6737 56.7946 75.4097 56.3066 76.0256 55.6863C76.6415 55.066 77.1243 54.3266 77.4444 53.5132C78.6384 50.5495 77.2243 46.8745 74.4342 45.363C74.1506 45.2117 73.8562 45.0815 73.5535 44.9735C73.8155 40.7452 73.3135 36.5042 72.0716 32.4539C70.4247 27.0726 67.3212 22.0597 62.4523 19.0537C59.3698 17.2143 55.8774 16.1724 52.291 16.0222C49.7024 15.8381 47.1009 15.9904 44.5514 16.4752C41.0664 17.1959 37.8529 18.8782 35.275 21.3315C33.2329 23.3295 31.5778 25.6879 30.3933 28.2878C28.1418 33.1297 26.8972 38.3786 26.7353 43.716C26.7353 44.3088 26.7353 44.9015 26.7353 45.4942C25.7938 46.1337 25.0373 47.0098 24.5421 48.0346C23.0899 51.0745 24.0383 54.8765 27.0824 56.5447C27.5151 56.7845 27.974 56.9734 28.45 57.1078C29.0192 57.2145 29.5998 57.2472 30.1774 57.2052H33.6661C33.7324 57.2098 33.7989 57.2098 33.8651 57.2052L33.9117 57.3322C35.6715 61.4709 38.9241 64.796 43.023 66.6467L43.5988 66.8923C43.5621 68.3544 43.5226 69.8165 43.4803 71.2786C43.4803 71.702 43.4803 72.1 43.4506 72.5107C43.4488 72.6824 43.4332 72.8537 43.404 73.0229C43.35 73.2854 43.275 73.5431 43.1797 73.7935L43.0907 73.9713C43.0399 74.0645 42.9849 74.1619 42.9256 74.2508C42.8663 74.3397 42.8198 74.3905 42.8028 74.4201L42.6758 74.5641C42.57 74.6741 42.4557 74.7715 42.3413 74.8689C42.3413 74.8477 42.0704 75.0679 42.0153 75.1018C41.8206 75.2246 41.6173 75.3389 41.4141 75.4489C40.5638 75.8604 39.6885 76.2182 38.7934 76.5201C36.3446 77.4137 33.9729 78.5054 31.7016 79.7845C29.6058 80.923 27.9303 82.7038 26.9215 84.8651C26.1155 86.7775 25.73 88.8409 25.7911 90.9153C18.9292 86.744 13.2564 80.8769 9.31823 73.8786C5.3801 66.8803 3.30928 58.9862 3.30498 50.956C3.31506 38.5533 8.2456 26.6613 17.0144 17.89C25.7833 9.11882 37.6739 4.18504 50.0766 4.17159C58.3316 4.16465 66.4394 6.35674 73.5662 10.5224C73.2893 11.6073 73.1471 12.7221 73.1428 13.8418C73.1462 17.449 74.5803 20.9076 77.1306 23.4587C79.6809 26.0097 83.1391 27.445 86.7463 27.4494C87.9167 27.4503 89.0822 27.2994 90.2138 27.0007C94.5563 34.2319 96.8497 42.5083 96.8483 50.9433Z" fill="url(#paint3_linear)"/>
<path d="M90.6664 14.03C90.6664 11.2754 88.4254 9.03442 85.6708 9.03442C82.9163 9.03442 80.6753 11.2754 80.6753 14.03C80.6753 16.6159 82.6504 18.7491 85.1713 19.0006V20.1035H83.8567V21.1552H85.1713V22.4961H86.223V21.1552H87.5376V20.1035H86.223V18.9948C88.7186 18.7191 90.6664 16.5979 90.6664 14.03ZM81.727 14.03C81.727 11.8553 83.4962 10.0861 85.6708 10.0861C87.8455 10.0861 89.6147 11.8553 89.6147 14.03C89.6147 16.2046 87.8455 17.9738 85.6708 17.9738C83.4962 17.9738 81.727 16.2046 81.727 14.03Z" fill="#636BFB"/>
<path d="M89.5093 6.24011L89.5093 7.23857L91.7441 7.23858L88.8222 10.1605C86.8632 8.55896 83.9618 8.67141 82.1352 10.498C80.1887 12.4445 80.1887 15.6117 82.1352 17.5582C83.1084 18.5314 84.3868 19.0181 85.6652 19.0181C86.9437 19.0181 88.2221 18.5314 89.1953 17.5582C91.0235 15.73 91.1345 12.8252 89.5286 10.8661L92.4548 7.93997L92.4548 10.209L93.4532 10.209L93.4532 6.24011L89.5093 6.24011ZM88.4893 16.8522C87.7106 17.6309 86.6881 18.0202 85.6653 18.0201C84.6427 18.02 83.6197 17.6307 82.8412 16.8522C81.284 15.295 81.284 12.7612 82.8412 11.204C83.6198 10.4254 84.6426 10.0361 85.6653 10.0361C86.688 10.0361 87.7107 10.4254 88.4893 11.204C90.0465 12.7612 90.0465 15.295 88.4893 16.8522Z" fill="url(#paint4_linear)"/>
<defs>
<linearGradient id="paint0_linear" x1="42.4938" y1="45.8668" x2="42.4938" y2="49.3471" gradientUnits="userSpaceOnUse">
<stop offset="0.21875" stop-color="#636BFB"/>
<stop offset="1" stop-color="#B3BDFD"/>
</linearGradient>
<linearGradient id="paint1_linear" x1="58.3917" y1="45.7102" x2="58.3917" y2="49.1862" gradientUnits="userSpaceOnUse">
<stop offset="0.21875" stop-color="#636BFB"/>
<stop offset="1" stop-color="#B3BDFD"/>
</linearGradient>
<linearGradient id="paint2_linear" x1="50.1214" y1="54.0215" x2="50.1214" y2="58.7384" gradientUnits="userSpaceOnUse">
<stop offset="0.21875" stop-color="#636BFB"/>
<stop offset="1" stop-color="#B3BDFD"/>
</linearGradient>
<linearGradient id="paint3_linear" x1="50.5657" y1="0.255249" x2="50.5657" y2="100.255" gradientUnits="userSpaceOnUse">
<stop offset="0.21875" stop-color="#636BFB"/>
<stop offset="1" stop-color="#B3BDFD"/>
</linearGradient>
<linearGradient id="paint4_linear" x1="92.93" y1="6.80716" x2="85.56" y2="18.4815" gradientUnits="userSpaceOnUse">
<stop stop-color="#B3BDFD"/>
<stop offset="1" stop-color="#636BFB"/>
</linearGradient>
</defs>
</svg>
