<svg width="71" height="10" viewBox="0 0 71 10" fill="none" xmlns="http://www.w3.org/2000/svg">
<path d="M2.77661 6.39503L2.24925 9.63641C2.23989 9.6943 2.24696 9.75366 2.26965 9.80772C2.29234 9.86179 2.32974 9.90838 2.37758 9.94219C2.42543 9.97599 2.4818 9.99566 2.54026 9.99894C2.59873 10.0022 2.65694 9.98898 2.70825 9.96074L5.45425 8.44079L8.20024 9.96074C8.24659 9.9862 8.29856 9.99965 8.35142 9.99986C8.39672 9.99986 8.44148 9.99 8.4826 9.97095C8.52372 9.9519 8.56021 9.92413 8.58954 9.88956C8.61888 9.85499 8.64036 9.81444 8.6525 9.77073C8.66463 9.72702 8.66713 9.68118 8.65983 9.63641L8.13247 6.39503L10.3657 4.10239C10.4059 4.06126 10.434 4.00983 10.4469 3.95377C10.4598 3.8977 10.457 3.83916 10.4388 3.78458C10.4206 3.73 10.3878 3.68149 10.3439 3.64438C10.3 3.60727 10.2467 3.58299 10.19 3.57422L7.11563 3.10474L5.73668 0.164612C5.63375 -0.0548707 5.27416 -0.0548707 5.17123 0.164612L3.79403 3.10415L0.719706 3.57364C0.662932 3.58241 0.60967 3.60668 0.565771 3.64379C0.521873 3.6809 0.489037 3.72941 0.470871 3.78399C0.452705 3.83857 0.449912 3.89711 0.462799 3.95318C0.475686 4.00925 0.503753 4.06067 0.543919 4.1018L2.77661 6.39503Z" fill="#FDB250"/>
<path d="M17.7766 6.39503L17.2493 9.63641C17.2399 9.6943 17.247 9.75366 17.2696 9.80772C17.2923 9.86179 17.3297 9.90838 17.3776 9.94219C17.4254 9.97599 17.4818 9.99566 17.5403 9.99894C17.5987 10.0022 17.6569 9.98898 17.7083 9.96074L20.4542 8.44079L23.2002 9.96074C23.2466 9.9862 23.2986 9.99965 23.3514 9.99986C23.3967 9.99986 23.4415 9.99 23.4826 9.97095C23.5237 9.9519 23.5602 9.92413 23.5895 9.88956C23.6189 9.85499 23.6404 9.81444 23.6525 9.77073C23.6646 9.72702 23.6671 9.68118 23.6598 9.63641L23.1325 6.39503L25.3657 4.10239C25.4059 4.06126 25.434 4.00983 25.4469 3.95377C25.4598 3.8977 25.457 3.83916 25.4388 3.78458C25.4206 3.73 25.3878 3.68149 25.3439 3.64438C25.3 3.60727 25.2467 3.58299 25.19 3.57422L22.1156 3.10474L20.7367 0.164612C20.6337 -0.0548707 20.2742 -0.0548707 20.1712 0.164612L18.794 3.10415L15.7197 3.57364C15.6629 3.58241 15.6097 3.60668 15.5658 3.64379C15.5219 3.6809 15.489 3.72941 15.4709 3.78399C15.4527 3.83857 15.4499 3.89711 15.4628 3.95318C15.4757 4.00925 15.5038 4.06067 15.5439 4.1018L17.7766 6.39503Z" fill="#FDB250"/>
<path d="M32.7766 6.39503L32.2493 9.63641C32.2399 9.6943 32.247 9.75366 32.2696 9.80772C32.2923 9.86179 32.3297 9.90838 32.3776 9.94219C32.4254 9.97599 32.4818 9.99566 32.5403 9.99894C32.5987 10.0022 32.6569 9.98898 32.7083 9.96074L35.4542 8.44079L38.2002 9.96074C38.2466 9.9862 38.2986 9.99965 38.3514 9.99986C38.3967 9.99986 38.4415 9.99 38.4826 9.97095C38.5237 9.9519 38.5602 9.92413 38.5895 9.88956C38.6189 9.85499 38.6404 9.81444 38.6525 9.77073C38.6646 9.72702 38.6671 9.68118 38.6598 9.63641L38.1325 6.39503L40.3657 4.10239C40.4059 4.06126 40.434 4.00983 40.4469 3.95377C40.4598 3.8977 40.457 3.83916 40.4388 3.78458C40.4206 3.73 40.3878 3.68149 40.3439 3.64438C40.3 3.60727 40.2467 3.58299 40.19 3.57422L37.1156 3.10474L35.7367 0.164612C35.6337 -0.0548707 35.2742 -0.0548707 35.1712 0.164612L33.794 3.10415L30.7197 3.57364C30.6629 3.58241 30.6097 3.60668 30.5658 3.64379C30.5219 3.6809 30.489 3.72941 30.4709 3.78399C30.4527 3.83857 30.4499 3.89711 30.4628 3.95318C30.4757 4.00925 30.5038 4.06067 30.5439 4.1018L32.7766 6.39503Z" fill="#FDB250"/>
<path d="M47.7766 6.39503L47.2493 9.63641C47.2399 9.6943 47.247 9.75366 47.2696 9.80772C47.2923 9.86179 47.3297 9.90838 47.3776 9.94219C47.4254 9.97599 47.4818 9.99566 47.5403 9.99894C47.5987 10.0022 47.6569 9.98898 47.7083 9.96074L50.4542 8.44079L53.2002 9.96074C53.2466 9.9862 53.2986 9.99965 53.3514 9.99986C53.3967 9.99986 53.4415 9.99 53.4826 9.97095C53.5237 9.9519 53.5602 9.92413 53.5895 9.88956C53.6189 9.85499 53.6404 9.81444 53.6525 9.77073C53.6646 9.72702 53.6671 9.68118 53.6598 9.63641L53.1325 6.39503L55.3657 4.10239C55.4059 4.06126 55.434 4.00983 55.4469 3.95377C55.4598 3.8977 55.457 3.83916 55.4388 3.78458C55.4206 3.73 55.3878 3.68149 55.3439 3.64438C55.3 3.60727 55.2467 3.58299 55.19 3.57422L52.1156 3.10474L50.7367 0.164612C50.6337 -0.0548707 50.2742 -0.0548707 50.1712 0.164612L48.794 3.10415L45.7197 3.57364C45.6629 3.58241 45.6097 3.60668 45.5658 3.64379C45.5219 3.6809 45.489 3.72941 45.4709 3.78399C45.4527 3.83857 45.4499 3.89711 45.4628 3.95318C45.4757 4.00925 45.5038 4.06067 45.5439 4.1018L47.7766 6.39503Z" fill="#FDB250"/>
<path d="M62.7766 6.39503L62.2493 9.63641C62.2399 9.6943 62.247 9.75366 62.2696 9.80772C62.2923 9.86179 62.3297 9.90838 62.3776 9.94219C62.4254 9.97599 62.4818 9.99566 62.5403 9.99894C62.5987 10.0022 62.6569 9.98898 62.7083 9.96074L65.4542 8.44079L68.2002 9.96074C68.2466 9.9862 68.2986 9.99965 68.3514 9.99986C68.3967 9.99986 68.4415 9.99 68.4826 9.97095C68.5237 9.9519 68.5602 9.92413 68.5895 9.88956C68.6189 9.85499 68.6404 9.81444 68.6525 9.77073C68.6646 9.72702 68.6671 9.68118 68.6598 9.63641L68.1325 6.39503L70.3657 4.10239C70.4059 4.06126 70.434 4.00983 70.4469 3.95377C70.4598 3.8977 70.457 3.83916 70.4388 3.78458C70.4206 3.73 70.3878 3.68149 70.3439 3.64438C70.3 3.60727 70.2467 3.58299 70.19 3.57422L67.1156 3.10474L65.7367 0.164612C65.6337 -0.0548707 65.2742 -0.0548707 65.1712 0.164612L63.794 3.10415L60.7197 3.57364C60.6629 3.58241 60.6097 3.60668 60.5658 3.64379C60.5219 3.6809 60.489 3.72941 60.4709 3.78399C60.4527 3.83857 60.4499 3.89711 60.4628 3.95318C60.4757 4.00925 60.5038 4.06067 60.5439 4.1018L62.7766 6.39503Z" fill="#FDB250"/>
</svg>
