<svg width="361" height="685" viewBox="0 0 361 685" fill="none" xmlns="http://www.w3.org/2000/svg">
<path fill-rule="evenodd" clip-rule="evenodd" d="M7.49805 0C3.63205 0 0.498047 3.13401 0.498047 7V685H360.498V7C360.498 3.13401 357.364 0 353.498 0H7.49805ZM26.0967 285.889C22.1545 291.547 22.8807 298.331 23.4271 301.34L77.3732 481.534C80.1448 488.372 83.8351 494.801 88.3423 500.643C118.352 539.367 178.425 541.642 216.167 533.703C233.935 529.968 269.892 522.408 287.798 493.485C295.641 480.801 299.182 465.426 303.332 447.147C306.001 435.465 307.371 425.872 309.791 403.091C311.624 385.918 313.893 362.928 315.967 335.43L325.429 223.291C325.763 219.62 324.881 215.94 322.918 212.82C318.561 206.201 308.892 203.206 301.194 206.893C292.895 210.862 291.595 220.365 291.512 221.057L282.209 299.964C280.888 303.684 277.43 306.119 273.972 306.029C269.546 305.918 265.542 301.776 265.673 296.512C266.773 224.384 268.149 174.214 270.155 160.063C270.635 156.889 270.153 153.645 268.771 150.747C263.958 141.3 247.857 137.157 237.732 143.976C230.857 148.61 229.232 156.626 228.837 159.033L223.304 295.136C223.112 297.041 222.179 298.794 220.707 300.019C219.236 301.244 217.342 301.842 215.434 301.686C213.51 301.503 211.737 300.567 210.501 299.083C209.265 297.598 208.666 295.684 208.836 293.76V139.391C208.877 136.417 208.407 131.983 205.558 128.18C198.904 119.285 182.52 118.151 173.681 126.202C168.577 130.842 167.449 137.212 167.145 140.082L166.453 290.315C166.56 291.409 166.441 292.514 166.105 293.56C165.769 294.606 165.222 295.573 164.499 296.4C163.775 297.228 162.89 297.898 161.897 298.37C160.905 298.843 159.827 299.107 158.728 299.147C157.627 299.156 156.536 298.94 155.522 298.512C154.507 298.083 153.591 297.452 152.83 296.656C152.069 295.861 151.479 294.918 151.095 293.886C150.712 292.854 150.544 291.754 150.602 290.654L143.685 161.101C143.72 158.383 143.36 153.036 139.792 148.492C132.779 139.536 116.519 137.738 107.631 146.238C100.363 153.182 101.462 163.722 101.649 165.236L111.982 357.506C112.127 364.63 107.223 370.702 100.861 371.94C93.5432 373.358 85.804 368.095 84.4208 359.913C77.8688 337.173 71.3215 314.432 64.7788 291.692C63.6799 288.368 61.7237 285.393 59.1076 283.067C50.2272 275.397 33.0129 275.971 26.0967 285.889Z" fill="#0F052C" fill-opacity="0.6"/>
<g opacity="0.5">
<circle cx="36.4224" cy="93.9099" r="2.5" fill="#FCDC8A" fill-opacity="0.5"/>
<circle cx="86.7437" cy="78.8606" r="2.5" fill="#FCDC8A" fill-opacity="0.5"/>
<circle cx="134.714" cy="76.3606" r="2.5" fill="#FCDC8A" fill-opacity="0.5"/>
<circle cx="91.7437" cy="125.036" r="2.5" fill="#FCDC8A" fill-opacity="0.5"/>
<circle cx="44.479" cy="202.87" r="2.5" fill="#FCDC8A" fill-opacity="0.5"/>
<circle cx="41.979" cy="220.741" r="2.5" fill="#FCDC8A" fill-opacity="0.5"/>
<path d="M44.269 202.87L36.2739 93.9966L86.5954 78.9472L135.036 76.5957L92.0038 125.036L41.6823 220.741L44.269 202.87Z" stroke="#EBA94D" stroke-width="0.5"/>
<circle cx="65.1426" cy="474.467" r="2.5" fill="#FCDC8A" fill-opacity="0.5"/>
<circle cx="284.393" cy="91.0669" r="2.5" fill="#FCDC8A" fill-opacity="0.5"/>
<circle cx="279.393" cy="165.279" r="2.5" fill="#FCDC8A" fill-opacity="0.5"/>
<circle cx="318.927" cy="151.168" r="2.5" fill="#FCDC8A" fill-opacity="0.5"/>
<path d="M270.432 175.289L278.798 165.429M278.798 165.429L284.176 90.73M278.798 165.429L319.135 151.983" stroke="#EBA94D" stroke-width="0.5"/>
<circle cx="327.944" cy="246.188" r="2.5" fill="#FCDC8A" fill-opacity="0.5"/>
<circle cx="330.444" cy="352.652" r="2.5" fill="#FCDC8A" fill-opacity="0.5"/>
<path d="M344.234 258.653L327.801 245.805L317.343 278.971M344.234 342.316L330.49 352.475" stroke="#EBA94D" stroke-width="0.5"/>
<circle cx="230.486" cy="32.3354" r="2.5" fill="#FCDC8A" fill-opacity="0.5"/>
<circle cx="220.931" cy="64.0176" r="2.5" fill="#FCDC8A" fill-opacity="0.5"/>
<path d="M221.231 63.689L230.356 32.6659L216.486 8.57739" stroke="#EBA94D" stroke-width="0.5"/>
<circle cx="168.022" cy="55.2751" r="2.5" fill="#FCDC8A" fill-opacity="0.5"/>
<circle cx="174.917" cy="27.3354" r="2.5" fill="#FCDC8A" fill-opacity="0.5"/>
<path d="M167.214 55.2945L175.244 27.5562L167.214 7.84741" stroke="#EBA94D" stroke-width="0.5"/>
<circle cx="22.9858" cy="500.624" r="2.5" fill="#FCDC8A" fill-opacity="0.5"/>
<circle cx="37.207" cy="376.947" r="2.5" fill="#FCDC8A" fill-opacity="0.5"/>
<circle cx="34.707" cy="360.186" r="2.5" fill="#FCDC8A" fill-opacity="0.5"/>
<path d="M15.5669 434.243L34.7803 360.593L36.6482 376.604L65.2011 474.537L23.0389 500.422" stroke="#EBA94D" stroke-width="0.5"/>
<circle cx="27.9858" cy="562.156" r="2.5" fill="#FCDC8A" fill-opacity="0.5"/>
<circle cx="32.9858" cy="540.774" r="2.5" fill="#FCDC8A" fill-opacity="0.5"/>
<circle cx="58.5166" cy="523.86" r="2.5" fill="#FCDC8A" fill-opacity="0.5"/>
<circle cx="78.6221" cy="540.774" r="2.5" fill="#FCDC8A" fill-opacity="0.5"/>
<circle cx="65.1426" cy="604.601" r="2.5" fill="#FCDC8A" fill-opacity="0.5"/>
<circle cx="98.0137" cy="644.493" r="2.5" fill="#FCDC8A" fill-opacity="0.5"/>
<circle cx="81.1221" cy="665.237" r="2.5" fill="#FCDC8A" fill-opacity="0.5"/>
<circle cx="126.439" cy="613.218" r="2.5" fill="#FCDC8A" fill-opacity="0.5"/>
<circle cx="140.481" cy="613.218" r="2.5" fill="#FCDC8A" fill-opacity="0.5"/>
<path d="M126.843 613.299L78.5435 540.716L58.5298 523.905L33.4458 540.716L27.8423 561.797L64.9342 604.493L97.4898 644.787M126.843 613.299H140.986M126.843 613.299L97.4898 644.787M97.4898 644.787L80.6783 665.335" stroke="#EBA94D" stroke-width="0.5"/>
<circle cx="256.327" cy="672.896" r="2.5" fill="#FCDC8A" fill-opacity="0.5"/>
<circle cx="246.434" cy="629.494" r="2.5" fill="#FCDC8A" fill-opacity="0.5"/>
<circle cx="229.838" cy="596.942" r="2.5" fill="#FCDC8A" fill-opacity="0.5"/>
<circle cx="261.327" cy="609.602" r="2.5" fill="#FCDC8A" fill-opacity="0.5"/>
<circle cx="289.091" cy="613.218" r="2.5" fill="#FCDC8A" fill-opacity="0.5"/>
<circle cx="310.473" cy="642.26" r="2.5" fill="#FCDC8A" fill-opacity="0.5"/>
<circle cx="284.091" cy="555.774" r="2.5" fill="#FCDC8A" fill-opacity="0.5"/>
<circle cx="299.091" cy="573.326" r="2.5" fill="#FCDC8A" fill-opacity="0.5"/>
<circle cx="331.323" cy="568.326" r="2.5" fill="#FCDC8A" fill-opacity="0.5"/>
<circle cx="326.323" cy="520.137" r="2.5" fill="#FCDC8A" fill-opacity="0.5"/>
<circle cx="315.473" cy="476.096" r="2.5" fill="#FCDC8A" fill-opacity="0.5"/>
<path d="M255.897 673.293L246.058 629.019L261.062 610.079M261.062 610.079L229.333 597.535M261.062 610.079L289.102 612.785M310.256 642.301L289.102 612.785M289.102 612.785L282.461 554.983M315.175 475.782L326.489 520.056L282.461 554.983M282.461 554.983C285.61 557.344 294.76 567.937 298.941 572.939L330.671 568.265L345.429 556.213" stroke="#EBA94D" stroke-width="0.5"/>
</g>
<path d="M23.4271 301.34C22.8807 298.331 22.1545 291.547 26.0967 285.889C33.0129 275.971 50.2272 275.397 59.1076 283.067C61.7237 285.393 63.6799 288.368 64.7788 291.692C71.3215 314.432 77.8688 337.173 84.4208 359.913C85.804 368.095 93.5432 373.358 100.861 371.94C107.223 370.702 112.127 364.63 111.982 357.506L101.649 165.237C101.462 163.722 100.363 153.182 107.631 146.238C116.519 137.738 132.779 139.536 139.792 148.492C143.36 153.036 143.72 158.383 143.685 161.101L150.602 290.654C150.544 291.754 150.712 292.854 151.095 293.886C151.479 294.918 152.069 295.861 152.83 296.657C153.591 297.452 154.507 298.083 155.522 298.512C156.536 298.94 157.627 299.157 158.728 299.148C159.827 299.107 160.905 298.843 161.897 298.371C162.89 297.898 163.775 297.228 164.499 296.4C165.222 295.573 165.769 294.606 166.105 293.56C166.441 292.514 166.56 291.409 166.453 290.316L167.145 140.082C167.449 137.212 168.577 130.842 173.681 126.202C182.52 118.151 198.904 119.285 205.558 128.18C208.407 131.984 208.877 136.417 208.836 139.391V293.76C208.666 295.684 209.265 297.598 210.501 299.083C211.737 300.568 213.511 301.503 215.434 301.686C217.342 301.842 219.236 301.244 220.707 300.019C222.179 298.794 223.112 297.041 223.304 295.136L228.837 159.033C229.232 156.626 230.857 148.61 237.732 143.976C247.857 137.157 263.958 141.3 268.771 150.747C270.153 153.645 270.635 156.889 270.155 160.063C268.149 174.214 266.773 224.384 265.673 296.512C265.542 301.776 269.546 305.918 273.972 306.029C277.43 306.119 280.888 303.685 282.209 299.964L291.512 221.057C291.595 220.365 292.895 210.863 301.194 206.893C308.892 203.206 318.561 206.201 322.918 212.82C324.881 215.94 325.763 219.62 325.429 223.291L315.967 335.43C313.893 362.928 311.624 385.918 309.791 403.091C307.371 425.873 306.001 435.465 303.332 447.147C299.182 465.426 295.641 480.801 287.798 493.485C269.892 522.408 233.935 529.968 216.167 533.703C178.425 541.642 118.352 539.367 88.3423 500.643C83.8351 494.801 80.1448 488.372 77.3732 481.534L23.4271 301.34Z" stroke="#B3BDFD" stroke-width="3" stroke-miterlimit="10"/>
</svg>
