<svg width="86" height="86" viewBox="0 0 86 86" fill="none" xmlns="http://www.w3.org/2000/svg">
<path d="M34.066 43.345C35.3856 43.345 36.4553 42.2748 36.4553 40.9547C36.4553 39.6346 35.3856 38.5645 34.066 38.5645C32.7464 38.5645 31.6767 39.6346 31.6767 40.9547C31.6767 42.2748 32.7464 43.345 34.066 43.345Z" fill="url(#paint0_linear)"/>
<path d="M51.2774 43.345C52.5969 43.345 53.6667 42.2748 53.6667 40.9547C53.6667 39.6346 52.5969 38.5645 51.2774 38.5645C49.9578 38.5645 48.8881 39.6346 48.8881 40.9547C48.8881 42.2748 49.9578 43.345 51.2774 43.345Z" fill="url(#paint1_linear)"/>
<path d="M36.7193 46.3813C37.1402 47.4975 37.8833 48.4634 38.8541 49.1562C39.8249 49.8491 40.9796 50.2376 42.1717 50.2724C43.3672 50.2517 44.5284 49.8686 45.5019 49.1739C46.4753 48.4792 47.2153 47.5055 47.624 46.3813C47.7156 46.0477 47.6713 45.6914 47.5008 45.3905C47.3302 45.0896 47.0473 44.8687 46.7141 44.7762C46.382 44.6939 46.0309 44.7425 45.7335 44.9119C45.4362 45.0813 45.2153 45.3586 45.1166 45.6864C45.1999 45.478 45.1166 45.7281 45.075 45.7698L44.9291 46.0338L44.7346 46.3396C44.6859 46.423 44.6373 46.4716 44.7346 46.3396C44.598 46.5076 44.4519 46.6677 44.297 46.819L44.0748 47.0136C44.2137 46.8955 44.0748 47.0136 44.0123 47.0553C43.8488 47.164 43.6796 47.2638 43.5052 47.354C43.415 47.3957 43.269 47.4583 43.4427 47.3888L43.1718 47.4861C42.9638 47.5476 42.7529 47.5986 42.5398 47.6389C42.6718 47.6389 42.6579 47.6389 42.5398 47.6389C42.4241 47.6459 42.3082 47.6459 42.1925 47.6389H41.9008C41.8313 47.6389 41.5882 47.5694 41.8452 47.6389C41.6577 47.5972 41.4701 47.5625 41.2826 47.5069L41.0117 47.4096C40.8728 47.361 41.1645 47.493 40.9492 47.4096C40.7339 47.3263 40.6089 47.229 40.4422 47.1178C40.4422 47.1178 40.1296 46.8816 40.331 47.0483L40.1504 46.8955C39.9895 46.7483 39.8387 46.5904 39.699 46.423C39.56 46.2701 39.8518 46.6662 39.6434 46.3604L39.4767 46.1033L39.324 45.8393C39.324 45.7976 39.1573 45.478 39.2476 45.7003C39.1474 45.372 38.9252 45.0946 38.6267 44.9253C38.3282 44.7559 37.9762 44.7075 37.6431 44.7901C37.3122 44.8857 37.0321 45.1075 36.8632 45.4077C36.6943 45.708 36.6501 46.0626 36.7402 46.3952L36.7193 46.3813Z" fill="url(#paint2_linear)"/>
<path d="M43.5397 30.9004C40.5392 26.2449 35.1424 23.0625 29.5025 24.2785C24.6406 25.3277 20.7373 29.7469 19.5634 34.4996C18.3479 39.433 20.4455 44.3594 23.3001 48.3131C26.0479 51.9372 29.2219 55.2172 32.7532 58.0826C34.9193 59.9472 37.225 61.643 39.6502 63.1549C40.185 63.4815 40.7198 63.7942 41.2616 64.0999C41.5583 64.3011 41.9067 64.4127 42.2651 64.4213C42.6235 64.43 42.9767 64.3353 43.2828 64.1485C44.3802 63.6344 45.4568 63.0646 46.5056 62.4531C49.755 60.513 52.7526 58.1793 55.4307 55.5047C58.4037 52.6924 60.958 49.4679 63.0154 45.9298C65.0991 42.1707 66.4882 37.5917 65.0018 33.3879C63.2515 28.3572 58.3687 24.4244 52.9789 24.2577C48.6656 24.1256 44.6441 26.5506 42.0603 29.8581C41.7894 30.1916 41.5255 30.5529 41.2894 30.8934C40.3725 32.2831 42.6299 33.6102 43.5397 32.2136C43.6023 32.1163 43.6648 32.019 43.7342 31.9287L43.9218 31.6716C44.0051 31.5605 43.8731 31.7342 43.8662 31.7411L44.0746 31.484C44.5649 30.8871 45.0964 30.3252 45.6652 29.8025C47.1833 28.376 49.0691 27.4015 51.1105 26.9884C56.028 26.0712 61.1262 29.7261 62.5847 34.3676C63.8211 38.3213 62.1472 42.4417 60.0704 45.7839C58.0056 49.0066 55.5281 51.9453 52.7011 54.525C49.438 57.6131 45.6998 60.1562 41.6297 62.0571H42.9424C39.3594 60.0115 36.0084 57.584 32.9477 54.8168C29.979 52.3205 27.333 49.4635 25.0713 46.3119C22.9876 43.2338 21.1957 39.4261 21.9805 35.6114C22.7237 32.0051 25.3561 28.4406 28.8844 27.1621C33.7117 25.425 38.657 28.1349 41.2894 32.2205C42.1992 33.6311 44.4496 32.3248 43.5397 30.9004Z" fill="url(#paint3_linear)"/>
<path d="M43.1162 85.0979C31.8527 85.085 21.0543 80.6026 13.0904 72.6343C5.12651 64.6659 0.647749 53.8625 0.636719 42.5944C0.649587 31.3276 5.12925 20.5259 13.0929 12.5591C21.0566 4.59219 31.8539 0.110774 43.1162 0.0979004C54.3786 0.110774 65.176 4.59219 73.1396 12.5591C81.1033 20.5259 85.583 31.3276 85.5959 42.5944C85.583 53.8619 81.1036 64.6643 73.1401 72.6323C65.1766 80.6002 54.3792 85.0832 43.1162 85.0979ZM43.1162 2.18243C32.4065 2.1953 22.1391 6.4571 14.5662 14.033C6.99326 21.609 2.73328 31.8804 2.72041 42.5944C2.73144 53.3096 6.99069 63.5829 14.5638 71.1603C22.1369 78.7377 32.4053 83.0005 43.1162 83.0134C53.8272 83.0005 64.0956 78.7377 71.6687 71.1603C79.2418 63.5829 83.5011 53.3096 83.5122 42.5944C83.5085 31.8744 79.2524 21.594 71.6785 14.0106C64.1046 6.42715 53.832 2.16056 43.1162 2.14767V2.18243Z" fill="url(#paint4_linear)"/>
<defs>
<linearGradient id="paint0_linear" x1="34.066" y1="38.5645" x2="34.066" y2="43.345" gradientUnits="userSpaceOnUse">
<stop stop-color="#636BFB"/>
<stop offset="1" stop-color="#B3BDFD"/>
</linearGradient>
<linearGradient id="paint1_linear" x1="51.2774" y1="38.5645" x2="51.2774" y2="43.345" gradientUnits="userSpaceOnUse">
<stop stop-color="#636BFB"/>
<stop offset="1" stop-color="#B3BDFD"/>
</linearGradient>
<linearGradient id="paint2_linear" x1="42.1826" y1="44.7371" x2="42.1826" y2="50.2724" gradientUnits="userSpaceOnUse">
<stop stop-color="#636BFB"/>
<stop offset="1" stop-color="#B3BDFD"/>
</linearGradient>
<linearGradient id="paint3_linear" x1="42.417" y1="24.0181" x2="42.417" y2="64.4219" gradientUnits="userSpaceOnUse">
<stop stop-color="#636BFB"/>
<stop offset="1" stop-color="#B3BDFD"/>
</linearGradient>
<linearGradient id="paint4_linear" x1="43.1163" y1="0.0979004" x2="43.1163" y2="85.0979" gradientUnits="userSpaceOnUse">
<stop stop-color="#636BFB"/>
<stop offset="1" stop-color="#B3BDFD"/>
</linearGradient>
</defs>
</svg>
