<svg width="43" height="35" viewBox="0 0 43 35" fill="none" xmlns="http://www.w3.org/2000/svg">
<g filter="url(#filter0_f)">
<path fill-rule="evenodd" clip-rule="evenodd" d="M39.7076 5.39887L7.35269 31.7386C6.80518 32.3103 6.03422 32.6663 5.18011 32.6663C3.51898 32.6663 2.17236 31.3197 2.17236 29.6586C2.17236 28.7433 2.58116 27.9236 3.22613 27.3719L3.22385 27.3689L3.25664 27.3462C3.3915 27.2339 3.53633 27.1332 3.68961 27.0455L38.2111 3.075C38.4404 2.9066 38.7235 2.80713 39.0298 2.80713C39.7943 2.80713 40.4141 3.42693 40.4141 4.1915C40.4141 4.70983 40.1293 5.16162 39.7076 5.39887Z" fill="url(#paint0_linear)"/>
</g>
<path d="M8.50566 29.5719L7.32593 29.1027L6.7933 28.8881C6.58143 28.8343 6.38083 28.743 6.20094 28.6186C6.0831 28.4603 5.9969 28.2806 5.94708 28.0895C5.86744 27.8948 5.78779 27.7001 5.70317 27.5055L5.20539 26.3425C5.20153 26.3289 5.19337 26.317 5.18214 26.3085C5.17091 26.3 5.15723 26.2954 5.14317 26.2954C5.1291 26.2954 5.11543 26.3 5.1042 26.3085C5.09298 26.317 5.08481 26.3289 5.08094 26.3425C4.78228 27.1012 4.4803 27.8599 4.17499 28.6186L1.86032 29.5869C1.81552 29.5869 1.79063 29.6767 1.86032 29.7017L2.99526 30.2008L3.53286 30.4354C3.73197 30.5203 4.03063 30.5952 4.15508 30.7898C4.33563 31.1232 4.48559 31.4724 4.60308 31.833C4.77233 32.2174 4.93659 32.6067 5.10086 32.991C5.10603 33.0004 5.1136 33.0082 5.12279 33.0136C5.13198 33.0191 5.14245 33.022 5.15312 33.022C5.16379 33.022 5.17427 33.0191 5.18346 33.0136C5.19265 33.0082 5.20022 33.0004 5.20539 32.991L5.70317 31.8829C5.83737 31.5017 6.0039 31.1326 6.20094 30.7798C6.35661 30.6177 6.55521 30.5034 6.77339 30.4504L7.31597 30.2158L8.52059 29.6917C8.56539 29.6618 8.53552 29.5919 8.50566 29.5719Z" fill="#B3BDFD"/>
<defs>
<filter id="filter0_f" x="0.172363" y="0.807129" width="42.2418" height="33.8592" filterUnits="userSpaceOnUse" color-interpolation-filters="sRGB">
<feFlood flood-opacity="0" result="BackgroundImageFix"/>
<feBlend mode="normal" in="SourceGraphic" in2="BackgroundImageFix" result="shape"/>
<feGaussianBlur stdDeviation="1" result="effect1_foregroundBlur"/>
</filter>
<linearGradient id="paint0_linear" x1="3.12037" y1="31.4412" x2="40.4141" y2="2.80713" gradientUnits="userSpaceOnUse">
<stop stop-color="#423779"/>
<stop offset="1" stop-color="#413778" stop-opacity="0"/>
</linearGradient>
</defs>
</svg>
