<svg width="12" height="12" viewBox="0 0 12 12" fill="none" xmlns="http://www.w3.org/2000/svg">
<path d="M11.9326 5.84524L9.82799 5.00821L8.8778 4.62529C8.49983 4.52933 8.14196 4.36651 7.82105 4.14446C7.61082 3.86205 7.45704 3.54154 7.36816 3.20058C7.22608 2.8533 7.08399 2.50601 6.93302 2.15873L6.045 0.0839697C6.03811 0.0597804 6.02355 0.0384929 6.00352 0.023343C5.98349 0.00819318 5.95908 0 5.934 0C5.90891 0 5.88451 0.00819318 5.86448 0.023343C5.84446 0.0384929 5.82989 0.0597804 5.82299 0.0839697C5.29018 1.43747 4.75145 2.79096 4.2068 4.14446L0.0774767 5.87195C-0.0024455 5.87195 -0.0468467 6.03222 0.0774767 6.07674L2.10217 6.9672L3.06124 7.38572C3.41645 7.5371 3.94926 7.67066 4.17127 8.01794C4.49337 8.61272 4.76089 9.23566 4.9705 9.87902C5.27243 10.5647 5.56547 11.2592 5.85852 11.9449C5.86774 11.9616 5.88124 11.9755 5.89764 11.9852C5.91404 11.9949 5.93273 12 5.95176 12C5.9708 12 5.98948 11.9949 6.00588 11.9852C6.02228 11.9755 6.03578 11.9616 6.045 11.9449L6.93302 9.96804C7.17243 9.28784 7.46953 8.62947 7.82105 8.00014C8.09876 7.7108 8.45304 7.50691 8.84228 7.41243L9.81023 6.99391L11.9592 6.05894C12.0392 6.00551 11.9859 5.88086 11.9326 5.84524Z" fill="#B3BDFD"/>
</svg>
