<svg width="311" height="152" viewBox="0 0 311 152" fill="none" xmlns="http://www.w3.org/2000/svg">
<path fill-rule="evenodd" clip-rule="evenodd" d="M16.9197 148.332L26.9197 148.332L26.9197 149.332L16.9197 149.332L16.9197 148.332Z" fill="#B3BDFD"/>
<path d="M153.631 11.7314L153.631 21.7314" stroke="#B3BDFD" stroke-linejoin="round"/>
<path d="M147.583 0.552246L150.205 6.82666L152.837 0.552246H153.638V7.66162H153.037V4.56592L153.086 1.39209L150.44 7.66162H149.976L147.339 1.4165L147.388 4.54639V7.66162H146.787V0.552246H147.583Z" fill="#B3BDFD"/>
<path d="M160.474 5.44482C160.392 6.19352 160.124 6.76644 159.668 7.16357C159.216 7.56071 158.612 7.75928 157.857 7.75928C157.329 7.75928 156.862 7.62744 156.455 7.36377C156.052 7.1001 155.739 6.72738 155.518 6.24561C155.296 5.76058 155.184 5.20719 155.181 4.58545V3.6626C155.181 3.03109 155.292 2.47119 155.513 1.98291C155.734 1.49463 156.052 1.11865 156.465 0.85498C156.882 0.588053 157.36 0.45459 157.901 0.45459C158.662 0.45459 159.263 0.661296 159.702 1.07471C160.145 1.48486 160.402 2.0529 160.474 2.77881H159.868C159.719 1.57113 159.063 0.967285 157.901 0.967285C157.256 0.967285 156.742 1.20817 156.358 1.68994C155.977 2.17171 155.786 2.8374 155.786 3.68701V4.55615C155.786 5.37646 155.972 6.03076 156.343 6.51904C156.717 7.00732 157.222 7.25146 157.857 7.25146C158.485 7.25146 158.959 7.10173 159.278 6.80225C159.597 6.49951 159.794 6.04704 159.868 5.44482H160.474Z" fill="#B3BDFD"/>
<path fill-rule="evenodd" clip-rule="evenodd" d="M280.462 148.234L290.462 148.234L290.462 149.234L280.462 149.234L280.462 148.234Z" fill="#B3BDFD"/>
<path d="M295.462 151.788V144.679H297.45C298.032 144.679 298.555 144.812 299.017 145.079C299.479 145.343 299.839 145.722 300.096 146.217C300.357 146.712 300.487 147.275 300.487 147.906V148.561C300.487 149.196 300.358 149.759 300.101 150.25C299.844 150.742 299.481 151.121 299.012 151.388C298.547 151.655 298.011 151.788 297.406 151.788H295.462ZM296.063 145.192V151.281H297.411C298.159 151.281 298.76 151.033 299.212 150.538C299.665 150.04 299.891 149.368 299.891 148.522V147.897C299.891 147.08 299.668 146.425 299.222 145.934C298.776 145.442 298.189 145.195 297.459 145.192H296.063Z" fill="#B3BDFD"/>
<path d="M307.049 149.572C306.968 150.32 306.699 150.893 306.244 151.29C305.791 151.687 305.187 151.886 304.432 151.886C303.905 151.886 303.438 151.754 303.031 151.49C302.627 151.227 302.315 150.854 302.093 150.372C301.872 149.887 301.76 149.334 301.756 148.712V147.789C301.756 147.158 301.867 146.598 302.088 146.11C302.31 145.621 302.627 145.245 303.041 144.982C303.457 144.715 303.936 144.581 304.476 144.581C305.238 144.581 305.838 144.788 306.278 145.201C306.721 145.612 306.978 146.18 307.049 146.906H306.444C306.294 145.698 305.638 145.094 304.476 145.094C303.832 145.094 303.317 145.335 302.933 145.817C302.552 146.298 302.362 146.964 302.362 147.814V148.683C302.362 149.503 302.547 150.157 302.918 150.646C303.293 151.134 303.797 151.378 304.432 151.378C305.06 151.378 305.534 151.228 305.853 150.929C306.172 150.626 306.369 150.174 306.444 149.572H307.049Z" fill="#B3BDFD"/>
<path d="M5.05225 149.895H1.82471L1.09229 151.887H0.462402L3.15283 144.778H3.72412L6.41455 151.887H5.78955L5.05225 149.895ZM2.01025 149.382H4.86182L3.43604 145.51L2.01025 149.382Z" fill="#B3BDFD"/>
<path d="M12.4399 149.67C12.3586 150.419 12.09 150.992 11.6343 151.389C11.1818 151.786 10.578 151.985 9.82275 151.985C9.29541 151.985 8.82829 151.853 8.42139 151.589C8.01774 151.325 7.70524 150.953 7.48389 150.471C7.26253 149.986 7.15023 149.433 7.14697 148.811V147.888C7.14697 147.256 7.25765 146.697 7.479 146.208C7.70036 145.72 8.01774 145.344 8.43115 145.08C8.84782 144.813 9.32633 144.68 9.8667 144.68C10.6284 144.68 11.229 144.887 11.6685 145.3C12.1112 145.71 12.3683 146.278 12.4399 147.004H11.8345C11.6847 145.796 11.0288 145.193 9.8667 145.193C9.22217 145.193 8.70784 145.434 8.32373 145.915C7.94287 146.397 7.75244 147.063 7.75244 147.912V148.781C7.75244 149.602 7.93799 150.256 8.30908 150.744C8.68343 151.233 9.18799 151.477 9.82275 151.477C10.451 151.477 10.9246 151.327 11.2437 151.028C11.5627 150.725 11.7596 150.272 11.8345 149.67H12.4399Z" fill="#B3BDFD"/>
<mask id="mask0" style="mask-type:alpha" maskUnits="userSpaceOnUse" x="1" y="2" width="310" height="148">
<rect x="1.88379" y="2.26929" width="308.177" height="146.964" fill="#C4C4C4"/>
</mask>
<g mask="url(#mask0)">
<path fill-rule="evenodd" clip-rule="evenodd" d="M153.23 22.1144C83.4914 22.1144 26.957 78.6488 26.957 148.388C26.957 218.126 83.4914 274.661 153.23 274.661C222.969 274.661 279.503 218.126 279.503 148.388C279.503 78.6488 222.969 22.1144 153.23 22.1144ZM25.9978 148.388C25.9978 78.1191 82.9616 21.1553 153.23 21.1553C223.499 21.1553 280.462 78.1191 280.462 148.388C280.462 218.656 223.499 275.62 153.23 275.62C82.9616 275.62 25.9978 218.656 25.9978 148.388Z" fill="#323D70"/>
<path fill-rule="evenodd" clip-rule="evenodd" d="M154.094 21.6348V61.4214L153.135 61.4213V21.6348H154.094Z" fill="#323D70"/>
<path fill-rule="evenodd" clip-rule="evenodd" d="M66.6198 149.293L26.8331 149.293L26.8332 148.334L66.6198 148.334L66.6198 149.293Z" fill="#323D70"/>
<path fill-rule="evenodd" clip-rule="evenodd" d="M279.649 149.293L239.862 149.293L239.862 148.334L279.649 148.334L279.649 149.293Z" fill="#323D70"/>
<path fill-rule="evenodd" clip-rule="evenodd" d="M109.911 73.565L89.6682 38.7914L90.4971 38.3088L110.74 73.0824L109.911 73.565Z" fill="#323D70"/>
<path fill-rule="evenodd" clip-rule="evenodd" d="M153.098 62.5768C105.523 62.5768 66.9559 101.144 66.9559 148.719C66.9559 196.295 105.523 234.862 153.098 234.862C200.674 234.862 239.241 196.295 239.241 148.719C239.241 101.144 200.674 62.5768 153.098 62.5768ZM65.9967 148.719C65.9967 100.614 104.994 61.6177 153.098 61.6177C201.203 61.6177 240.2 100.614 240.2 148.719C240.2 196.824 201.203 235.821 153.098 235.821C104.994 235.821 65.9967 196.824 65.9967 148.719Z" fill="#323D70"/>
<path fill-rule="evenodd" clip-rule="evenodd" d="M44.0463 84.507L78.9228 104.388L78.4478 105.221L43.5713 85.3403L44.0463 84.507Z" fill="#323D70"/>
<path fill-rule="evenodd" clip-rule="evenodd" d="M195.883 73.4046L216.191 38.0154L217.023 38.4928L196.715 73.882L195.883 73.4046Z" fill="#323D70"/>
<path fill-rule="evenodd" clip-rule="evenodd" d="M262.425 83.7884L227.358 104.085L226.877 103.254L261.944 82.9582L262.425 83.7884Z" fill="#323D70"/>
<path d="M266.557 123.167C266.111 121.543 264.853 120.355 263.341 119.923C264.421 118.78 264.897 117.116 264.451 115.492C263.772 113.018 261.206 111.557 258.732 112.236C256.257 112.915 254.797 115.481 255.476 117.955L256.777 117.598C256.294 115.841 257.332 114.019 259.089 113.537C260.846 113.055 262.668 114.092 263.15 115.849C263.632 117.607 262.595 119.428 260.838 119.911L248.676 123.248L249.033 124.549L261.195 121.211C262.952 120.729 264.774 121.767 265.256 123.524C265.738 125.281 264.701 127.103 262.944 127.585C261.187 128.067 259.365 127.03 258.883 125.273L257.582 125.63C258.261 128.104 260.826 129.565 263.301 128.886C265.775 128.207 267.236 125.641 266.557 123.167Z" fill="#F97957"/>
<path d="M132.528 45.1629C131.429 45.5271 130.49 46.0823 129.733 46.8065L127.991 41.5507C127.301 39.468 125.045 38.3352 122.963 39.0253C121.894 39.3796 121.075 40.1464 120.625 41.0904C120.048 40.517 119.177 40.28 118.353 40.5528C117.188 40.9389 116.555 42.2006 116.941 43.3655L117.365 44.6459L118.645 44.2216L118.221 42.9412C118.069 42.4823 118.319 41.9853 118.778 41.8332C119.236 41.6811 119.734 41.9307 119.886 42.3896L122.951 51.6402L124.232 51.2159L121.718 43.6298C121.261 42.2531 122.01 40.7619 123.387 40.3057C124.764 39.8495 126.255 40.5983 126.711 41.975L128.716 48.0247C128.718 48.0303 128.72 48.0358 128.722 48.0414C128.477 48.4265 128.269 48.841 128.099 49.2836C127.399 51.1054 127.413 53.3126 128.138 55.4987L129.418 55.0744C128.798 53.2047 128.732 51.1413 129.489 49.4543C129.888 49.9542 130.391 50.3669 130.974 50.6642C132.054 51.2144 133.283 51.3068 134.437 50.9244C136.025 50.398 136.889 48.6774 136.363 47.089C135.837 45.5005 134.116 44.6364 132.528 45.1629ZM134.013 49.6441C132.566 50.1236 131.01 49.4874 130.268 48.2046C130.903 47.4448 131.785 46.83 132.952 46.4432C133.834 46.1508 134.79 46.6308 135.083 47.5133C135.375 48.3958 134.895 49.3516 134.013 49.6441Z" fill="#37C5BB"/>
<path d="M58.5767 114.49L61.0409 115.444C60.7404 115.723 60.3762 115.935 59.9441 116.083C59.1021 116.373 57.9847 116.425 56.6232 116.239C53.9188 115.869 50.7332 114.636 48.4071 113.735C47.7061 113.464 46.9424 113.484 46.2568 113.793C45.5713 114.101 45.0498 114.659 44.7869 115.364C44.4961 116.145 44.5822 116.981 44.9525 117.669C44.2045 117.931 43.5709 118.505 43.2632 119.3C42.9875 120.012 43.025 120.77 43.3075 121.42C42.7007 121.624 42.1852 122.085 41.9367 122.727C41.4938 123.871 42.0644 125.162 43.2086 125.605L44.4663 126.092L44.9531 124.834L43.6954 124.348C43.2447 124.173 43.0199 123.664 43.1944 123.214C43.3688 122.763 43.8775 122.538 44.3282 122.713L54.7037 126.728L55.1905 125.471L45.3495 121.662L45.3504 121.66C44.6049 121.371 44.2327 120.531 44.5208 119.787C44.8093 119.041 45.6506 118.669 46.396 118.958L56.2371 122.767L56.7238 121.509L46.9032 117.708C46.1562 117.419 45.7738 116.578 46.0508 115.834C46.053 115.828 46.0553 115.822 46.0576 115.816C46.1952 115.46 46.4618 115.179 46.8099 115.023C47.164 114.863 47.5584 114.853 47.9204 114.993C50.3086 115.917 53.5793 117.183 56.4402 117.575C58.035 117.793 59.3246 117.723 60.3829 117.358C60.6874 117.254 60.9701 117.125 61.2311 116.972L60.5039 118.851L61.7615 119.338L63.4652 114.936L63.0577 114.778L61.8001 114.292L59.0635 113.232L58.5767 114.49L58.5767 114.49Z" fill="#7071EE"/>
<path d="M72.2283 68.127L73.2375 69.0213L77.2351 64.5105L77.8492 74.5156L74.2508 74.7327L74.332 76.0788L77.9318 75.8616L78.5302 85.6109L79.8762 85.5282L79.2779 75.7804L82.8981 75.562L82.817 74.2159L79.1953 74.4344L78.5814 64.4327L83.3409 68.6506L84.2353 67.6414L77.7511 61.895L72.2283 68.127Z" fill="#F97957"/>
<path d="M182.921 50.2664L181.174 47.0684L177.867 48.6008L176.122 45.4061L173.151 46.8047L172.575 45.5808L176.698 43.6396L178.447 46.841L181.754 45.3086L183.501 48.5066L186.811 46.9725L188.972 50.9849L187.781 51.6264L186.224 48.7355L182.921 50.2664ZM187.597 44.5688L189.154 47.4597L190.345 46.8181L188.184 42.8058L184.874 44.3398L183.127 41.1418L179.82 42.6743L178.071 39.4729L173.948 41.414L174.524 42.6379L177.495 41.2394L179.24 44.4341L182.547 42.9016L184.294 46.0997L187.597 44.5688Z" fill="#6BB9F2"/>
<path d="M226.949 67.3357C226.708 68.2537 226.215 69.5327 225.214 70.6399L224.005 69.3756L223.285 70.0637L224.493 71.3267C223.342 72.2714 222.036 72.7158 221.101 72.9239C219.955 73.179 219.093 73.147 219.085 73.1466L219.063 73.6439L219.041 74.1413C219.081 74.143 220.018 74.1807 221.285 73.9029C222.783 73.5744 224.12 72.9366 225.182 72.0479L228.9 75.9362C227.965 76.9577 227.268 78.2644 226.873 79.7466C226.539 80.9999 226.534 81.9381 226.534 81.9774L227.53 81.9786C227.53 81.9701 227.536 81.1079 227.843 79.9742C228.092 79.0493 228.595 77.7647 229.59 76.6574L230.785 77.907L231.504 77.219L230.308 75.968C231.459 75.0172 232.759 74.5814 233.687 74.3822C234.819 74.1392 235.666 74.183 235.674 74.1834L235.732 73.1896C235.693 73.1873 234.767 73.1364 233.511 73.4017C232.019 73.717 230.683 74.3516 229.619 75.247L225.903 71.3609C226.845 70.3376 227.539 69.0321 227.921 67.5551C228.242 66.3124 228.233 65.3846 228.232 65.3457L227.236 65.3591C227.237 65.3675 227.242 66.216 226.949 67.3357Z" fill="#7071EE"/>
<path fill-rule="evenodd" clip-rule="evenodd" d="M153.087 88.8652C119.978 88.8652 93.1382 115.705 93.1382 148.814C93.1382 181.922 119.978 208.762 153.087 208.762C186.195 208.762 213.035 181.922 213.035 148.814C213.035 115.705 186.195 88.8652 153.087 88.8652ZM92.1791 148.814C92.1791 115.175 119.448 87.906 153.087 87.906C186.725 87.906 213.994 115.175 213.994 148.814C213.994 182.452 186.725 209.721 153.087 209.721C119.448 209.721 92.1791 182.452 92.1791 148.814Z" fill="#323D70"/>
<path fill-rule="evenodd" clip-rule="evenodd" d="M110.914 73.1243L124.156 95.5133L123.331 96.0016L110.088 73.6126L110.914 73.1243Z" fill="#323D70"/>
<path fill-rule="evenodd" clip-rule="evenodd" d="M78.7267 104.215L101.047 117.048L100.569 117.88L78.2487 105.047L78.7267 104.215Z" fill="#323D70"/>
<path fill-rule="evenodd" clip-rule="evenodd" d="M182.944 96.0133L195.708 73.6976L196.541 74.1739L183.777 96.4895L182.944 96.0133Z" fill="#323D70"/>
<path fill-rule="evenodd" clip-rule="evenodd" d="M204.252 116.862L226.767 103.58L227.254 104.406L204.739 117.688L204.252 116.862Z" fill="#323D70"/>
<path fill-rule="evenodd" clip-rule="evenodd" d="M153.087 62.6721C105.512 62.6721 66.9449 101.239 66.9449 148.814C66.9449 196.389 105.512 234.956 153.087 234.956C200.661 234.956 239.228 196.389 239.228 148.814C239.228 101.239 200.661 62.6721 153.087 62.6721ZM65.9857 148.814C65.9857 100.709 104.982 61.7129 153.087 61.7129C201.191 61.7129 240.188 100.709 240.188 148.814C240.188 196.918 201.191 235.915 153.087 235.915C104.982 235.915 65.9857 196.918 65.9857 148.814Z" fill="#323D70"/>
<path fill-rule="evenodd" clip-rule="evenodd" d="M152.704 88.3856V62.3171H153.663V88.3856H152.704Z" fill="#323D70"/>
<path fill-rule="evenodd" clip-rule="evenodd" d="M66.3219 148.334L92.3904 148.334L92.3904 149.293L66.3219 149.293L66.3219 148.334Z" fill="#323D70"/>
<path fill-rule="evenodd" clip-rule="evenodd" d="M213.976 148.334L240.045 148.334L240.045 149.293L213.976 149.293L213.976 148.334Z" fill="#323D70"/>
<path d="M85.24 128.98L86.9652 129.383L87.2802 128.035L88.3586 128.287L88.0436 129.635L89.4186 129.956L89.1666 131.035L87.7916 130.713L87.4766 132.061L86.3982 131.809L86.7132 130.461L84.9926 130.059C84.5493 131.423 83.6492 132.575 82.4172 133.34C81.0351 134.199 79.4015 134.468 77.8172 134.097L78.0692 133.019C80.745 133.644 83.4307 131.976 84.056 129.3C84.6813 126.624 83.0131 123.939 80.3372 123.313L80.5892 122.235C82.1735 122.605 83.5188 123.57 84.3773 124.952C85.1327 126.168 85.4313 127.579 85.24 128.98ZM78.3751 131.953C76.2939 131.467 74.9964 129.378 75.4827 127.297C75.969 125.216 78.0579 123.918 80.1391 124.404C82.2203 124.891 83.5179 126.98 83.0315 129.061C82.5452 131.142 80.4563 132.44 78.3751 131.953ZM78.6271 130.875C80.1137 131.222 81.6057 130.295 81.9531 128.809C82.3005 127.322 81.3737 125.83 79.8871 125.483C78.4005 125.135 76.9085 126.062 76.5611 127.549C76.2137 129.035 77.1405 130.527 78.6271 130.875Z" fill="#323D70"/>
<path d="M106.62 96.2524L99.2816 89.3695L98.5435 90.1564L105.882 97.0394L101.571 101.636C101.827 100.272 101.732 99.0017 101.555 98.0308C101.201 96.0749 100.391 94.589 99.7461 93.984C98.3402 92.6654 96.1236 92.7364 94.805 94.1423C93.4781 95.557 93.5371 97.7758 94.9366 99.0884L95.6747 98.3014C94.7092 97.3959 94.6721 95.8612 95.5919 94.8805C96.5036 93.9085 98.036 93.8594 99.0079 94.7711C99.5227 95.2539 100.198 96.5947 100.494 98.2234C100.742 99.5924 100.757 101.685 99.7002 103.63L100.487 104.368L106.669 97.7775L108.617 99.6044L109.355 98.8174L107.407 96.9906L108.33 96.0069L107.543 95.2687L106.62 96.2524Z" fill="#323D70"/>
<path d="M212.533 97.6961L212.544 95.1361L209.984 95.1254L209.98 96.102L210.896 96.1058L209.265 97.7228C207.825 99.1516 205.557 99.2501 204.002 98.0249L208.432 93.6325L208.428 94.5371L209.404 94.5412L209.415 91.9811L206.855 91.9704L206.851 92.947L207.732 92.9507L203.315 97.3314C202.103 95.7662 202.22 93.4999 203.661 92.0711L205.291 90.4541L205.288 91.3704L206.264 91.3745L206.275 88.8144L203.715 88.8037L203.711 89.7803L204.58 89.784L202.973 91.3776C201.15 93.186 201.028 96.0716 202.617 98.0233L201.75 98.8826L200.891 98.0158L200.197 98.7035L201.057 99.5703L200.19 100.43L200.878 101.123L201.745 100.264L202.604 101.131L203.298 100.443L202.438 99.5761L203.305 98.7168C205.243 100.322 208.13 100.225 209.953 98.4163L211.56 96.8226L211.557 97.692L212.533 97.6961Z" fill="#323D70"/>
<path d="M176.901 77.1499C177.536 75.1907 180.145 74.4368 180.171 74.4294L180.043 73.9688L179.915 73.5079C179.795 73.5411 177.153 74.2977 176.167 76.4094L174.182 75.7668L175.39 72.0353L174.48 71.7408L173.272 75.4722L171.218 74.8076C171.657 72.5186 169.959 70.3572 169.882 70.2604L169.134 70.8572C169.151 70.8785 170.827 73.0089 170.189 74.9772C169.557 76.9322 166.967 77.6434 166.941 77.6501L167.185 78.5752C167.304 78.5439 169.938 77.8277 170.924 75.7177L172.977 76.3823L171.718 80.2713C170.998 80.2549 170.32 80.709 170.087 81.4291C169.802 82.3073 170.286 83.2531 171.164 83.5374C172.042 83.8216 172.988 83.3384 173.272 82.4602C173.505 81.7401 173.222 80.9749 172.628 80.5659L173.887 76.6769L175.872 77.3195C175.435 79.607 177.15 81.731 177.228 81.8261L177.967 81.2192C177.95 81.1984 176.266 79.1142 176.901 77.1499ZM172.362 82.1656C172.24 82.542 171.835 82.7491 171.458 82.6273C171.082 82.5054 170.875 82.1001 170.997 81.7237C171.119 81.3474 171.524 81.1403 171.9 81.2621C172.277 81.3839 172.484 81.7893 172.362 82.1656Z" fill="#323D70"/>
<path d="M140.844 80.7715C140.982 81.1829 140.759 81.6297 140.348 81.7674C139.936 81.9051 139.489 81.6825 139.352 81.2711C139.171 80.7324 139.39 80.0096 139.622 79.2444C139.904 78.3155 140.223 77.2628 139.884 76.2526C139.242 74.3327 137.157 73.2937 135.237 73.9364C134.263 74.2623 133.517 74.959 133.101 75.8168L132.442 73.8488L133.685 73.4325L133.352 72.4377L132.109 72.854L131.692 71.6105L130.698 71.9436L131.114 73.1871L129.87 73.6034L130.203 74.5982L131.447 74.1819L134.294 82.6876L135.289 82.3545L133.915 78.2509C133.456 76.8796 134.198 75.3904 135.57 74.9313C136.941 74.4722 138.43 75.2143 138.889 76.5857C139.122 77.2787 138.877 78.0858 138.618 78.9402C138.349 79.8291 138.07 80.7483 138.357 81.6041C138.678 82.5641 139.721 83.0836 140.681 82.7622C141.641 82.4408 142.16 81.3984 141.839 80.4384L140.844 80.7715Z" fill="#323D70"/>
<path d="M221.541 135.673L221.507 134.624L219.16 134.699L222.131 131.532C224.243 133.149 227.286 132.934 229.144 130.954C231.123 128.844 231.018 125.518 228.908 123.538C227.853 122.548 226.494 122.08 225.151 122.123C223.809 122.165 222.482 122.719 221.492 123.774C219.633 125.755 219.614 128.81 221.366 130.814L218.39 133.986L218.314 131.602L217.266 131.636L217.398 135.804L221.541 135.673ZM222.257 124.492C223.049 123.648 224.11 123.205 225.185 123.171C226.259 123.137 227.346 123.512 228.19 124.303C229.878 125.887 229.962 128.548 228.379 130.236C227.587 131.08 226.526 131.523 225.452 131.557C224.377 131.591 223.29 131.216 222.446 130.425C220.759 128.841 220.674 126.18 222.257 124.492Z" fill="#323D70"/>
<path fill-rule="evenodd" clip-rule="evenodd" d="M193.073 148.334H213.527V149.294H193.073V148.334Z" fill="#323D70"/>
<path fill-rule="evenodd" clip-rule="evenodd" d="M92.4313 148.334H111.682V149.294H92.4313V148.334Z" fill="#323D70"/>
<path fill-rule="evenodd" clip-rule="evenodd" d="M152.634 107.923V88.2695H153.594V107.923H152.634Z" fill="#323D70"/>
<path fill-rule="evenodd" clip-rule="evenodd" d="M153.114 88.8654C120.005 88.8654 93.1656 115.705 93.1656 148.814C93.1656 181.922 120.005 208.762 153.114 208.762C186.223 208.762 213.062 181.922 213.062 148.814C213.062 115.705 186.223 88.8654 153.114 88.8654ZM92.2064 148.814C92.2064 115.175 119.476 87.9062 153.114 87.9062C186.752 87.9063 214.022 115.175 214.022 148.814C214.022 182.452 186.752 209.721 153.114 209.721C119.476 209.721 92.2064 182.452 92.2064 148.814Z" fill="#323D70"/>
<path fill-rule="evenodd" clip-rule="evenodd" d="M124.349 95.7901L134.027 112.213L133.201 112.7L123.522 96.2771L124.349 95.7901Z" fill="#323D70"/>
<path fill-rule="evenodd" clip-rule="evenodd" d="M101.497 117.298L118.127 126.611L117.658 127.448L101.028 118.135L101.497 117.298Z" fill="#323D70"/>
<path fill-rule="evenodd" clip-rule="evenodd" d="M186.974 127.132L204.383 116.809L204.872 117.634L187.463 127.957L186.974 127.132Z" fill="#323D70"/>
<path fill-rule="evenodd" clip-rule="evenodd" d="M183.756 96.5699L173.668 114.094L172.837 113.615L182.925 96.0914L183.756 96.5699Z" fill="#323D70"/>
<path fill-rule="evenodd" clip-rule="evenodd" d="M152.378 108.598C130.167 108.598 112.162 126.603 112.162 148.814C112.162 171.024 130.167 189.03 152.378 189.03C174.588 189.03 192.594 171.024 192.594 148.814C192.594 126.603 174.588 108.598 152.378 108.598ZM111.203 148.814C111.203 126.074 129.638 107.639 152.378 107.639C175.118 107.639 193.553 126.074 193.553 148.814C193.553 171.554 175.118 189.989 152.378 189.989C129.638 189.989 111.203 171.554 111.203 148.814Z" fill="#323D70"/>
<path d="M163.504 103.107L162.562 102.805L164.849 95.6614L165.792 95.963L163.504 103.107Z" fill="#323D70"/>
<path d="M166.242 103.983L165.3 103.682L167.587 96.538L168.529 96.8396L166.242 103.983Z" fill="#323D70"/>
<path d="M168.98 104.86L168.038 104.558L170.325 97.4146L171.267 97.7162L168.98 104.86Z" fill="#323D70"/>
<path d="M139.155 104.556L138.198 104.805L136.306 97.5469L137.263 97.2974L139.155 104.556Z" fill="#323D70"/>
<path d="M142.982 102.201L143.495 95.6732L144.542 95.4003L143.742 103.36L142.894 103.581L138.315 97.0232L139.357 96.7517L142.982 102.201Z" fill="#323D70"/>
<path d="M120.529 114.005L117.911 108.003L118.706 107.27L121.746 114.67L121.102 115.264L113.975 111.632L114.767 110.902L120.529 114.005Z" fill="#323D70"/>
<path d="M107.183 137.097L101.657 133.585L101.906 132.532L108.563 136.969L108.361 137.821L100.422 138.793L100.67 137.746L107.183 137.097Z" fill="#323D70"/>
<path d="M109.683 132.247L109.455 133.21L102.156 131.479L102.384 130.517L109.683 132.247Z" fill="#323D70"/>
<path d="M197.227 136.518L197.005 135.554L204.315 133.873L204.537 134.837L197.227 136.518Z" fill="#323D70"/>
<path d="M183.882 114.49L183.19 113.783L188.552 108.537L189.244 109.244L183.882 114.49Z" fill="#323D70"/>
<path d="M185.892 116.545L185.201 115.838L190.562 110.592L191.254 111.299L185.892 116.545Z" fill="#323D70"/>
</g>
</svg>
