<svg width="70" height="70" viewBox="0 0 70 70" fill="none" xmlns="http://www.w3.org/2000/svg">
<path fill-rule="evenodd" clip-rule="evenodd" d="M35 2.08955C16.8241 2.08955 2.08955 16.8241 2.08955 35C2.08955 53.1759 16.8241 67.9104 35 67.9104C53.1759 67.9104 67.9104 53.1759 67.9104 35C67.9104 16.8241 53.1759 2.08955 35 2.08955ZM0 35C0 15.67 15.67 0 35 0C54.33 0 70 15.67 70 35C70 54.33 54.33 70 35 70C15.67 70 0 54.33 0 35Z" fill="url(#paint0_linear)"/>
<path d="M43.8115 32.7492C43.8115 26.6325 38.8353 21.6563 32.7186 21.6563C26.6019 21.6562 21.6257 26.6325 21.6257 32.7492C21.6257 38.4915 26.0115 43.2284 31.6093 43.7868V46.2359H28.6901V48.5712H31.6093V51.5488H33.9447V48.5712H36.8639L36.8639 46.2359H33.9447V43.774C39.4865 43.1618 43.8115 38.4515 43.8115 32.7492ZM23.961 32.7492C23.961 27.9203 27.8897 23.9916 32.7186 23.9916C37.5475 23.9916 41.4762 27.9203 41.4762 32.7492C41.4762 37.5781 37.5475 41.5068 32.7186 41.5068C27.8897 41.5068 23.961 37.5781 23.961 32.7492Z" fill="#636BFB"/>
<path d="M41.2423 15.4512L41.2423 17.6683L46.2048 17.6683L39.7165 24.1567C35.3664 20.6003 28.9235 20.85 24.8674 24.9062C20.5451 29.2284 20.5451 36.2615 24.8674 40.5838C27.0286 42.7449 29.8674 43.8255 32.7062 43.8255C35.545 43.8255 38.3839 42.7449 40.545 40.5838C44.6046 36.5242 44.8511 30.0738 41.2852 25.7235L47.7829 19.2258L47.7829 24.2644L50 24.2644L50 15.4512L41.2423 15.4512ZM38.9773 39.016C37.2482 40.7452 34.9776 41.6096 32.7063 41.6094C30.4355 41.6092 28.1639 40.7447 26.4352 39.016C22.9774 35.5581 22.9774 29.9318 26.4352 26.4739C28.1642 24.745 30.4352 23.8805 32.7063 23.8805C34.9773 23.8805 37.2484 24.745 38.9773 26.4739C42.4351 29.9318 42.4351 35.5581 38.9773 39.016Z" fill="url(#paint1_linear)"/>
<defs>
<linearGradient id="paint0_linear" x1="1.04478" y1="35" x2="68.9552" y2="35" gradientUnits="userSpaceOnUse">
<stop stop-color="#636BFB"/>
<stop offset="1" stop-color="#B3BDFD"/>
</linearGradient>
<linearGradient id="paint1_linear" x1="48.838" y1="16.7103" x2="32.4725" y2="42.634" gradientUnits="userSpaceOnUse">
<stop stop-color="#B3BDFD"/>
<stop offset="1" stop-color="#636BFB"/>
</linearGradient>
</defs>
</svg>
