<svg width="119" height="132" viewBox="0 0 119 132" fill="none" xmlns="http://www.w3.org/2000/svg">
<path d="M-29.5547 95.1842L8.55053 85.1731" stroke="white" stroke-opacity="0.3"/>
<circle cx="42.8076" cy="76.199" r="75" stroke="white" stroke-opacity="0.3"/>
<path d="M23.8428 3.80322L33.9096 41.8335" stroke="white" stroke-opacity="0.3"/>
<circle cx="42.8082" cy="76.199" r="35.7554" stroke="white" stroke-opacity="0.3"/>
<path d="M17.8823 50.9806L-9.91602 22.8545" stroke="white" stroke-opacity="0.3" stroke-miterlimit="10"/>
<path d="M8.36299 66.751L-29.5225 56.3586" stroke="white" stroke-opacity="0.3" stroke-miterlimit="10"/>
<path d="M-10.2803 128.641L17.8627 101.181" stroke="white" stroke-opacity="0.3"/>
<path d="M62.713 4.22266L52.0869 41.9733" stroke="white" stroke-opacity="0.3"/>
<path d="M95.9887 23.7971L68.165 51.2013" stroke="white" stroke-opacity="0.3"/>
<path d="M77.1143 66.7085L115.132 56.6223" stroke="white" stroke-opacity="0.3"/>
<path d="M77.3887 85.6255L115.097 96.1367" stroke="white" stroke-opacity="0.3"/>
<path d="M68.0303 101.742L95.4903 129.55" stroke="white" stroke-opacity="0.3"/>
<path d="M51.9248 110.896L61.8892 148.899" stroke="white" stroke-opacity="0.3"/>
<path d="M22.959 148.552L33.3868 110.664" stroke="white" stroke-opacity="0.3"/>
<path d="M46.6485 23.077C45.9635 23.077 45.3329 23.2141 44.773 23.48V20.2038C44.773 18.9056 43.7168 17.8494 42.4186 17.8494C41.7522 17.8494 41.1498 18.1277 40.721 18.574C40.5038 18.1446 40.0586 17.8494 39.5454 17.8494C38.8193 17.8494 38.2285 18.4401 38.2285 19.1662V19.9643H39.0266V19.1662C39.0266 18.8802 39.2593 18.6475 39.5454 18.6475C39.8314 18.6475 40.0642 18.8802 40.0642 19.1662V24.9325H40.8623V20.2038C40.8623 19.3456 41.5604 18.6475 42.4186 18.6475C43.2767 18.6475 43.9749 19.3456 43.9749 20.2038V23.9748C43.9749 23.9783 43.975 23.9818 43.975 23.9853C43.7662 24.1561 43.5721 24.3502 43.3942 24.5671C42.6621 25.4601 42.2589 26.7024 42.2589 28.0651H43.0571C43.0571 26.8996 43.404 25.7284 44.143 24.9217C44.2742 25.2768 44.4799 25.6022 44.7521 25.8778C45.2559 26.3876 45.9294 26.6684 46.6485 26.6684C47.6387 26.6684 48.4443 25.8629 48.4443 24.8727C48.4443 23.8825 47.6387 23.077 46.6485 23.077ZM46.6485 25.8703C45.7465 25.8703 44.9913 25.2235 44.8129 24.3647C45.3114 24.0562 45.9209 23.8751 46.6485 23.8751C47.1986 23.8751 47.6462 24.3226 47.6462 24.8727C47.6462 25.4228 47.1986 25.8703 46.6485 25.8703Z" fill="white" fill-opacity="0.6"/>
<path d="M14.6649 118.556C14.9295 119.112 15.2497 119.621 15.6168 120.074L12.7133 124.59C12.1474 124.445 11.5499 124.366 10.933 124.358C9.90197 124.344 9.17856 124.528 9.14826 124.536L9.34833 125.309C9.3549 125.307 10.0172 125.141 10.9469 125.156C11.7906 125.17 13.0375 125.342 14.1869 126.081C15.3378 126.821 16.0251 127.895 16.399 128.665C16.8111 129.513 16.946 130.194 16.9473 130.2L17.7313 130.05C17.7253 130.019 17.5808 129.278 17.1286 128.34C16.866 127.795 16.5525 127.295 16.1959 126.848L19.1169 122.306C19.6699 122.446 20.2537 122.525 20.8568 122.54C21.8965 122.565 22.6286 122.392 22.6593 122.385L22.4734 121.608C22.4667 121.61 21.7934 121.767 20.8522 121.741C19.998 121.718 18.7381 121.534 17.5869 120.794C16.4371 120.055 15.7609 118.994 15.3962 118.235C14.9943 117.399 14.8694 116.73 14.8683 116.724L14.0826 116.865C14.088 116.895 14.2223 117.627 14.6649 118.556ZM18.3283 122.056L15.6424 126.233C15.325 125.92 14.9824 125.644 14.6186 125.41C14.2701 125.186 13.8954 124.996 13.4999 124.842L16.1737 120.684C16.4783 120.979 16.8065 121.241 17.1551 121.465C17.5189 121.699 17.912 121.897 18.3283 122.056Z" fill="white" fill-opacity="0.6"/>
<path d="M91.5316 71.5569L91.5276 81.7726L90.7295 81.7723L90.7335 71.5565L91.5316 71.5569ZM93.463 81.7734L92.6649 81.773L92.6689 71.5573L93.467 71.5576L93.4659 74.2654C94.2169 73.2246 95.4401 72.546 96.8186 72.5466C99.096 72.5475 100.948 74.401 100.947 76.6784C100.946 78.9558 99.0928 80.8079 96.8154 80.807C95.4368 80.8064 94.2142 80.1269 93.464 79.0855L93.463 81.7734ZM93.4849 76.6755C93.4842 78.5128 94.9784 80.0081 96.8157 80.0089C98.653 80.0096 100.148 78.5154 100.149 76.6781C100.15 74.8408 98.6556 73.3454 96.8183 73.3447C94.981 73.344 93.4857 74.8382 93.4849 76.6755Z" fill="white" fill-opacity="0.6"/>
<path d="M89.1312 54.9299L87.7649 55.6901C87.7518 55.4479 87.7931 55.202 87.889 54.9492C88.0758 54.4565 88.4748 53.9283 89.0747 53.3795C90.2665 52.2894 92.0327 51.3067 93.3224 50.5892C93.7111 50.373 93.9908 50.0179 94.1099 49.5893C94.2291 49.1608 94.1723 48.7122 93.9514 48.3262C93.7059 47.8982 93.2932 47.6212 92.8399 47.5291C93.004 47.09 92.9825 46.5845 92.7373 46.1437C92.5176 45.7488 92.1588 45.4792 91.7558 45.3614C91.893 45.0086 91.8782 44.5995 91.6801 44.2435C91.3272 43.6091 90.5239 43.3802 89.8895 43.7331L89.1922 44.1211L89.5802 44.8184L90.2774 44.4304C90.5274 44.2914 90.8438 44.3816 90.9829 44.6315C91.1219 44.8814 91.0317 45.1979 90.7818 45.3369L85.0291 48.5374L85.4171 49.2347L90.8734 46.1991L90.8741 46.2003C91.2874 45.9704 91.8104 46.119 92.04 46.5316C92.2699 46.9449 92.1208 47.4683 91.7074 47.6982L86.2511 50.7339L86.6391 51.4312L92.0841 48.4018C92.4983 48.1714 93.0254 48.3155 93.2592 48.7231C93.2611 48.7264 93.2629 48.7297 93.2648 48.733C93.3745 48.9302 93.4016 49.158 93.3411 49.3756C93.2796 49.5969 93.1352 49.7803 92.9344 49.8919C91.6103 50.6286 89.7969 51.6375 88.5362 52.7907C87.8334 53.4336 87.3776 54.0471 87.1429 54.6663C87.0753 54.8445 87.0271 55.0219 86.9977 55.1984L86.4181 54.1565L85.7208 54.5445L87.0786 56.985L87.3045 56.8593L88.0018 56.4714L89.5191 55.6272L89.1311 54.9299L89.1312 54.9299Z" fill="white" fill-opacity="0.6"/>
<path d="M72.7899 26.4318L72.391 27.1228L75.4796 28.906L69.752 30.4471L69.1999 28.3867L68.4292 28.5932L68.9815 30.6544L63.4005 32.1561L63.6078 32.9266L69.188 31.4251L69.7435 33.498L70.5142 33.2915L69.9585 31.2178L75.6841 29.6772L73.8026 32.9361L74.4936 33.335L77.0569 28.8953L72.7899 26.4318Z" fill="white" fill-opacity="0.6"/>
<path d="M19.2079 30.3676L17.0989 29.9183L16.5114 31.993L14.4046 31.5442L13.8864 33.4167L13.1149 33.2032L13.8342 30.6042L15.9454 31.0541L16.5329 28.9793L18.6419 29.4287L19.23 27.3518L21.8641 27.9294L21.6926 28.7113L19.7948 28.2951L19.2079 30.3676ZM18.4547 26.0718L20.3525 26.488L20.524 25.7062L17.8899 25.1285L17.3018 27.2054L15.1928 26.756L14.6053 28.8308L12.4941 28.3809L11.7748 30.9799L12.5462 31.1934L13.0644 29.3209L15.1712 29.7698L15.7588 27.695L17.8678 28.1444L18.4547 26.0718Z" fill="white" fill-opacity="0.6"/>
<path d="M-10.1791 101.439L-10.3088 102.227C-10.3021 102.228 -9.63182 102.343 -8.78967 102.732C-8.02889 103.084 -6.94652 103.761 -6.19507 104.892C-5.43346 106.039 -5.24004 107.29 -5.20441 108.134C-5.16467 109.074 -5.31137 109.75 -5.31286 109.756L-4.53412 109.931C-4.52721 109.9 -4.3654 109.165 -4.40603 108.127C-4.43151 107.475 -4.532 106.848 -4.70287 106.258C-3.40378 106.955 -1.77116 106.935 -0.459464 106.063C1.43737 104.803 1.9556 102.235 0.695736 100.338C-0.564128 98.4416 -3.13228 97.9234 -5.02911 99.1833C-6.33474 100.05 -6.98714 101.537 -6.85616 102.999C-7.33762 102.607 -7.88273 102.27 -8.47963 101.996C-9.41495 101.568 -10.1483 101.444 -10.1791 101.439ZM-4.5876 99.848C-3.0573 98.8316 -0.985406 99.2497 0.0309973 100.78C1.0474 102.31 0.629319 104.382 -0.900975 105.399C-2.42434 106.41 -4.52023 105.971 -5.53034 104.45C-6.54581 102.921 -6.10411 100.855 -4.5876 99.848Z" fill="white" fill-opacity="0.6"/>
<path d="M39.6263 126.304C40.2928 125.977 41.3611 125.588 42.6657 125.588C43.5574 125.588 44.4173 125.801 45.229 126.223C44.0839 126.439 43.2151 127.447 43.2151 128.654C43.2151 129.315 43.4729 129.934 43.941 130.398C44.4073 130.86 45.0282 131.115 45.6892 131.115C46.3502 131.115 46.9711 130.86 47.4374 130.398C47.9055 129.934 48.1633 129.315 48.1633 128.654C48.1633 127.986 47.8968 127.378 47.4645 126.933L47.4647 126.933C47.4458 126.91 46.9945 126.381 46.181 125.854C45.1048 125.158 43.8892 124.79 42.6656 124.79C41.1951 124.79 39.9953 125.231 39.2477 125.601C38.4331 126.004 37.9639 126.411 37.9443 126.428L38.469 127.03C38.4732 127.026 38.8965 126.662 39.6263 126.304ZM45.6892 130.317C44.765 130.317 44.0132 129.571 44.0132 128.654C44.0132 127.73 44.765 126.978 45.6892 126.978C46.6134 126.978 47.3652 127.73 47.3652 128.654C47.3652 129.571 46.6134 130.317 45.6892 130.317ZM47.6419 132.766C47.6377 132.769 47.2144 133.133 46.4846 133.491C45.8181 133.818 44.7498 134.207 43.4452 134.207C42.5589 134.207 41.7011 133.994 40.888 133.571C42.03 133.353 42.8958 132.346 42.8958 131.141C42.8958 130.481 42.638 129.861 42.1699 129.397C41.7036 128.935 41.0827 128.681 40.4217 128.681C39.7607 128.681 39.1398 128.935 38.6735 129.397C38.2054 129.861 37.9476 130.481 37.9476 131.141C37.9476 131.797 38.2038 132.393 38.6211 132.836L38.6207 132.837C38.6398 132.859 39.097 133.395 39.9163 133.927C41.0011 134.633 42.2214 135.006 43.4452 135.006C44.9158 135.006 46.1156 134.564 46.8631 134.194C47.6778 133.791 48.147 133.384 48.1666 133.367L47.6419 132.766ZM40.4217 129.479C41.3459 129.479 42.0977 130.225 42.0977 131.141C42.0977 132.066 41.3459 132.817 40.4217 132.817C39.4975 132.817 38.7457 132.066 38.7457 131.141C38.7457 130.225 39.4975 129.479 40.4217 129.479Z" fill="white" fill-opacity="0.6"/>
<path d="M64.6196 122.544C64.5147 122.344 64.4947 122.115 64.5634 121.9C64.6321 121.685 64.7811 121.511 64.9826 121.408C65.3891 121.201 65.896 121.369 66.1125 121.782L69.2542 127.774C69.714 128.651 70.8015 128.99 71.6784 128.53C72.5553 128.071 72.8947 126.983 72.4349 126.106L70.5181 122.45C71.0978 122.606 71.7349 122.553 72.3071 122.253C73.5153 121.62 73.9829 120.121 73.3494 118.913C72.7159 117.705 71.2175 117.237 70.0093 117.871C68.801 118.504 68.3335 120.003 68.967 121.211L71.7281 126.477C71.9835 126.964 71.795 127.568 71.3078 127.824C70.8206 128.079 70.2164 127.89 69.961 127.403L66.8193 121.411C66.4011 120.614 65.415 120.293 64.6212 120.696C64.6147 120.699 64.6082 120.703 64.6017 120.706C64.2182 120.907 63.935 121.244 63.8031 121.657C63.669 122.078 63.7079 122.524 63.9127 122.915L64.6196 122.544ZM70.3799 118.578C71.1984 118.148 72.2134 118.465 72.6425 119.284C73.0717 120.102 72.755 121.117 71.9365 121.546C71.118 121.975 70.103 121.659 69.6738 120.84C69.2447 120.022 69.5614 119.007 70.3799 118.578Z" fill="white" fill-opacity="0.6"/>
<path d="M83.9686 103.325C84.1908 103.283 84.4394 103.269 84.7128 103.283C84.8235 103.581 84.9519 103.872 85.0981 104.154C85.7168 105.344 86.6209 106.3 87.6438 106.845C88.0365 107.054 88.4866 107.096 88.9113 106.963C89.336 106.831 89.6826 106.54 89.8863 106.144C90.0345 105.857 90.0899 105.545 90.0643 105.242C90.3198 105.376 90.5607 105.504 90.7814 105.622C91.174 105.831 91.6242 105.873 92.0489 105.74C92.4735 105.608 92.8192 105.317 93.0238 104.921C93.2502 104.482 93.2586 103.985 93.0895 103.554C93.5477 103.454 93.9609 103.162 94.1979 102.716C94.4103 102.317 94.4419 101.87 94.322 101.467C94.6929 101.391 95.0285 101.156 95.22 100.797C95.5612 100.156 95.3174 99.3567 94.6765 99.0154L93.972 98.6403L93.5969 99.3448L94.3014 99.7199C94.5539 99.8543 94.6499 100.169 94.5155 100.422C94.3811 100.674 94.0663 100.77 93.8138 100.636L88.0019 97.5413L87.6268 98.2458L93.1393 101.181L93.1386 101.182C93.5562 101.404 93.7154 101.924 93.4934 102.341C93.2715 102.758 92.7512 102.916 92.3334 102.694L86.8208 99.7623L86.4461 100.467L91.9471 103.393L91.9464 103.394C92.3649 103.617 92.53 104.138 92.3146 104.555C92.2093 104.76 92.0303 104.91 91.811 104.978C91.5917 105.047 91.3592 105.025 91.1564 104.917L89.2141 103.883C88.2595 103.422 87.1913 103 86.2235 102.737C85.9006 102.65 85.597 102.584 85.3106 102.541C85.0654 101.714 84.951 100.781 85.0305 99.7661L84.2348 99.7038C84.1601 100.658 84.2387 101.595 84.463 102.479C84.2363 102.482 84.0222 102.502 83.8195 102.541C83.0061 102.696 82.4009 103.136 82.0206 103.851L82.725 104.226C82.9898 103.728 83.3965 103.434 83.9686 103.325ZM89.177 105.778C89.0722 105.983 88.8927 106.133 88.6735 106.201C88.4541 106.27 88.2217 106.248 88.0189 106.14C87.117 105.66 86.212 104.71 85.6326 103.413C85.7565 103.441 85.8838 103.472 86.0146 103.508C86.9228 103.754 87.9153 104.178 88.8328 104.62C89.2294 104.846 89.3874 105.37 89.177 105.778Z" fill="white" fill-opacity="0.6"/>
<path d="M0.135025 47.8895C-0.419111 47.9802 -1.22924 48.021 -2.06867 47.7459L-1.67586 46.7882L-2.2209 46.5647L-2.6133 47.5213C-3.40076 47.1264 -3.95507 46.5273 -4.29246 46.0718C-4.70602 45.5134 -4.89588 45.0399 -4.89775 45.0352L-5.17174 45.1433L-5.4459 45.251C-5.4374 45.2726 -5.23231 45.7885 -4.77746 46.4067C-4.23953 47.1377 -3.57332 47.707 -2.83738 48.0676L-4.04538 51.0127C-4.8226 50.7527 -5.69664 50.6901 -6.59299 50.8329C-7.35092 50.9536 -7.85919 51.1769 -7.88045 51.1863L-7.64171 51.7249C-7.63707 51.7228 -7.1694 51.519 -6.48286 51.4119C-5.92276 51.3245 -5.10743 51.2872 -4.26946 51.559L-4.6577 52.5055L-4.11267 52.7291L-3.72402 51.7815C-2.93318 52.1751 -2.38503 52.773 -2.0542 53.2267C-1.65068 53.7801 -1.47057 54.2488 -1.46896 54.253L-0.917515 54.0458C-0.925613 54.0242 -1.12091 53.5111 -1.56636 52.896C-2.09573 52.1649 -2.75996 51.5956 -3.50002 51.2354L-2.29268 48.292C-1.51288 48.5553 -0.640206 48.6164 0.25007 48.4676C0.99918 48.3424 1.49854 48.1142 1.51944 48.1046L1.27279 47.5696C1.26825 47.5717 0.810917 47.7789 0.135025 47.8895Z" fill="white" fill-opacity="0.6"/>
</svg>
