<svg width="13" height="7" viewBox="0 0 13 7" fill="none" xmlns="http://www.w3.org/2000/svg">
<path d="M8.10009 6.17751L6.29375 4.48669L4.48742 6.17751L2.68296 4.48846L1.06452 6.02163L0.432861 5.35487L2.67917 3.22692L4.48739 4.91951L6.29373 3.22869L8.10006 4.91951L9.90828 3.22692L12.1546 5.35487L11.523 6.02163L9.90454 4.48846L8.10009 6.17751ZM9.90454 1.50986L11.523 3.043L12.1546 2.37624L9.9083 0.248291L8.10009 1.94088L6.29375 0.250036L4.48742 1.94088L2.6792 0.248291L0.432861 2.37624L1.06449 3.043L2.68294 1.50983L4.48739 3.19891L6.29373 1.50809L8.10006 3.19891L9.90454 1.50986Z" fill="#6BB9F2" fill-opacity="0.5"/>
</svg>
