<svg width="13" height="13" viewBox="0 0 13 13" fill="none" xmlns="http://www.w3.org/2000/svg">
<path d="M9.28296 0.588135C8.13961 0.588135 7.13616 1.19863 6.58146 2.11077C6.02676 1.19863 5.02331 0.588135 3.87996 0.588135C2.13786 0.588135 0.720581 2.00544 0.720581 3.74751C0.720581 5.48959 2.13786 6.90689 3.87996 6.90689V5.99113C2.64283 5.99113 1.63634 4.98464 1.63634 3.74751C1.63634 2.51039 2.64283 1.5039 3.87996 1.5039C5.11709 1.5039 6.12358 2.51039 6.12358 3.74751L6.12358 12.3099H7.03934L7.03934 3.74751C7.03934 2.51039 8.04583 1.5039 9.28296 1.5039C10.5201 1.5039 11.5266 2.51039 11.5266 3.74751C11.5266 4.98464 10.5201 5.99113 9.28296 5.99113V6.90689C11.0251 6.90689 12.4423 5.48959 12.4423 3.74751C12.4423 2.00544 11.0251 0.588135 9.28296 0.588135Z" fill="#F97957" fill-opacity="0.3"/>
</svg>
