<svg width="13" height="12" viewBox="0 0 13 12" fill="none" xmlns="http://www.w3.org/2000/svg">
<path d="M2.44696 1.87012C3.21171 1.49511 4.43753 1.04808 5.93443 1.04808C6.95768 1.04808 7.94432 1.293 8.87571 1.77671C7.5618 2.02488 6.56484 3.18117 6.56484 4.56614C6.56484 5.32425 6.86065 6.03497 7.39777 6.56733C7.93285 7.09769 8.64524 7.38975 9.4037 7.38975C10.1622 7.38975 10.8745 7.09769 11.4096 6.56733C11.9467 6.03497 12.2426 5.32427 12.2426 4.56614C12.2426 3.79919 11.9367 3.10241 11.4407 2.59105L11.4409 2.59091C11.4193 2.56536 10.9014 1.95796 9.96799 1.3539C8.73313 0.554742 7.33834 0.132324 5.93441 0.132324C4.24707 0.132324 2.87041 0.638534 2.01264 1.06322C1.07792 1.526 0.539549 1.99255 0.51709 2.01217L1.11909 2.70227C1.1239 2.6981 1.60964 2.2807 2.44696 1.87012ZM9.4037 6.47397C8.34329 6.47397 7.4806 5.61812 7.4806 4.56614C7.4806 3.50573 8.34329 2.64304 9.4037 2.64304C10.4641 2.64304 11.3268 3.50573 11.3268 4.56614C11.3268 5.61812 10.4641 6.47397 9.4037 6.47397ZM11.6443 9.28411C11.6395 9.28828 11.1537 9.70568 10.3164 10.1163C9.55166 10.4913 8.32585 10.9383 6.82894 10.9383C5.81192 10.9383 4.82773 10.6929 3.89469 10.2083C5.20512 9.95736 6.19851 8.80274 6.19851 7.42027C6.19851 6.66215 5.9027 5.95143 5.36558 5.41908C4.8305 4.88872 4.11811 4.59666 3.35966 4.59666C2.6012 4.59666 1.88881 4.88872 1.35373 5.41908C0.816612 5.95143 0.520799 6.66213 0.520799 7.42027C0.520799 8.1722 0.814781 8.85668 1.29368 9.36514L1.29315 9.36559C1.31504 9.39144 1.83972 10.0056 2.77973 10.6168C4.02447 11.4262 5.42467 11.8541 6.82894 11.8541C8.51628 11.8541 9.89294 11.3478 10.7507 10.9232C11.6854 10.4604 12.2238 9.99385 12.2463 9.97421L11.6443 9.28411ZM3.35968 5.51242C4.42008 5.51242 5.28277 6.36826 5.28277 7.42024C5.28277 8.48065 4.42008 9.34334 3.35968 9.34334C2.29927 9.34334 1.43658 8.48065 1.43658 7.42024C1.43658 6.36826 2.29927 5.51242 3.35968 5.51242Z" fill="#7071EE" fill-opacity="0.5"/>
</svg>
