<svg width="13" height="12" viewBox="0 0 13 12" fill="none" xmlns="http://www.w3.org/2000/svg">
<path d="M10.4565 6.21943C9.67041 6.21943 8.94687 6.37676 8.30442 6.68185V2.92269C8.30442 1.43309 7.09252 0.221191 5.60292 0.221191C4.83837 0.221191 4.14706 0.540518 3.65514 1.0527C3.40591 0.559978 2.89503 0.221191 2.30617 0.221191C1.47299 0.221191 0.795166 0.899016 0.795166 1.7322V2.64796H1.71093V1.7322C1.71093 1.40399 1.97796 1.13695 2.30617 1.13695C2.63438 1.13695 2.90142 1.40399 2.90142 1.7322V8.34858H3.81718V2.92269C3.81718 1.93804 4.61827 1.13695 5.60292 1.13695C6.58757 1.13695 7.38865 1.93804 7.38865 2.92269V7.24967C7.38865 7.2537 7.38879 7.25768 7.38879 7.26171C7.14918 7.4577 6.92647 7.68035 6.72239 7.9293C5.88238 8.95395 5.41976 10.3794 5.41976 11.9429H6.33553C6.33553 10.6056 6.73363 9.26175 7.58154 8.33613C7.73211 8.74357 7.96808 9.11693 8.28051 9.43316C8.8585 10.0182 9.63126 10.3404 10.4565 10.3404C11.5926 10.3404 12.5169 9.41604 12.5169 8.2799C12.5169 7.14376 11.5926 6.21943 10.4565 6.21943ZM10.4565 9.4246C9.42151 9.4246 8.55494 8.6824 8.35027 7.69702C8.92216 7.3431 9.6216 7.1352 10.4565 7.1352C11.0876 7.1352 11.6012 7.64871 11.6012 8.2799C11.6012 8.91109 11.0876 9.4246 10.4565 9.4246Z" fill="#37C5BB" fill-opacity="0.5"/>
</svg>
