<svg width="13" height="13" viewBox="0 0 13 13" fill="none" xmlns="http://www.w3.org/2000/svg">
<path d="M11.5068 10.7766C11.5068 11.0358 11.4052 11.2788 11.2207 11.4609C11.0363 11.643 10.7922 11.7404 10.5323 11.7381C10.0093 11.7313 9.5837 11.2905 9.5837 10.7554L9.5837 2.99259C9.5837 1.85645 8.65937 0.932129 7.52323 0.932129C6.38709 0.932129 5.46277 1.85645 5.46277 2.99259L5.46277 7.72878C4.95663 7.26185 4.28093 6.97616 3.53967 6.97616C1.97431 6.97616 0.700806 8.24966 0.700806 9.81502C0.700806 11.3804 1.97431 12.6539 3.53967 12.6539C5.10503 12.6539 6.37853 11.3804 6.37853 9.81502L6.37853 2.99259C6.37853 2.3614 6.89204 1.84789 7.52323 1.84789C8.15442 1.84789 8.66794 2.3614 8.66794 2.99259L8.66794 10.7554C8.66794 11.7889 9.49897 12.6405 10.5205 12.6537C10.5289 12.6538 10.5372 12.6539 10.5456 12.6539C11.0425 12.6539 11.5099 12.4622 11.864 12.1126C12.2242 11.7571 12.4226 11.2826 12.4226 10.7766H11.5068ZM3.53967 11.7381C2.47926 11.7381 1.61657 10.8754 1.61657 9.81502C1.61657 8.75461 2.47926 7.89192 3.53967 7.89192C4.60008 7.89192 5.46277 8.75461 5.46277 9.81502C5.46277 10.8754 4.60008 11.7381 3.53967 11.7381Z" fill="#F97957" fill-opacity="0.5"/>
</svg>
