<svg width="13" height="13" viewBox="0 0 13 13" fill="none" xmlns="http://www.w3.org/2000/svg">
<path d="M0.99707 11.2428L12.7188 11.2428V12.1585L0.99707 12.1585L0.99707 11.2428ZM12.7188 9.02204V9.9378L0.99707 9.9378L0.99707 9.02204L4.10402 9.02204C2.9095 8.16076 2.13033 6.75766 2.13033 5.17584C2.13033 2.56271 4.25624 0.436768 6.86939 0.436768C9.48254 0.436768 11.6085 2.56271 11.6085 5.17584C11.6085 6.75766 10.8293 8.16076 9.63477 9.02204H12.7188ZM6.86939 8.99914C8.97757 8.99914 10.6927 7.28401 10.6927 5.17584C10.6927 3.06766 8.97757 1.35253 6.86939 1.35253C4.76122 1.35253 3.04609 3.06766 3.04609 5.17584C3.04609 7.28401 4.76122 8.99914 6.86939 8.99914Z" fill="#6BB9F2" fill-opacity="0.5"/>
</svg>
