<svg width="9" height="9" viewBox="0 0 9 9" fill="none" xmlns="http://www.w3.org/2000/svg">
<path d="M7.90025 7.26228C7.56267 6.71351 7.16661 5.87125 7.09315 4.86032H8.28083V4.18437H7.09437C7.17074 3.17645 7.56534 2.32714 7.90202 1.7706C8.31471 1.08844 8.73469 0.680708 8.73888 0.676669L8.50482 0.432873L8.27112 0.188721C8.25183 0.207174 7.79348 0.64953 7.33531 1.40157C6.79346 2.29096 6.47928 3.24606 6.41685 4.18437H2.76441C2.70199 3.24608 2.38781 2.29096 1.84595 1.40157C1.38778 0.64953 0.929436 0.207174 0.910138 0.188721L0.442383 0.676669C0.446574 0.680708 0.866556 1.08844 1.27924 1.7706C1.61593 2.32714 2.01053 3.17645 2.08689 4.18437H0.913027V4.86032H2.08813C2.01467 5.87125 1.61861 6.71351 1.28103 7.26228C0.86926 7.93162 0.450173 8.32689 0.446371 8.33044L0.906504 8.82561C0.925853 8.80763 1.3855 8.37688 1.8446 7.63613C2.39021 6.75581 2.70533 5.80278 2.76541 4.86032L6.41586 4.86032C6.47593 5.80278 6.79106 6.75581 7.33666 7.63613C7.79575 8.37686 8.25541 8.80763 8.27476 8.82561L8.7353 8.33082C8.73111 8.32689 8.31202 7.93162 7.90025 7.26228Z" fill="#7071EE" fill-opacity="0.5"/>
</svg>
