<svg width="13" height="12" viewBox="0 0 13 12" fill="none" xmlns="http://www.w3.org/2000/svg">
<path d="M11.2462 8.75378V10.5478C10.9961 10.4258 10.7726 10.2472 10.5725 10.01C10.1827 9.54788 9.87576 8.85324 9.66017 7.94549C9.23193 6.14244 9.23193 3.82326 9.23193 2.12985C9.23193 1.61951 9.0319 1.14096 8.66866 0.782417C8.30548 0.4239 7.82405 0.230552 7.31366 0.236732C6.74765 0.24408 6.23961 0.50344 5.89442 0.906592C5.54565 0.497054 5.02684 0.236572 4.44804 0.236572C3.92954 0.236572 3.45912 0.445919 3.11619 0.78434C2.83886 0.449948 2.42044 0.236572 1.95309 0.236572C1.12007 0.236572 0.442383 0.91426 0.442383 1.74728V2.66285H1.35796V1.74728C1.35796 1.41913 1.62494 1.15215 1.95309 1.15215C2.28123 1.15215 2.54821 1.41913 2.54821 1.74728L2.54821 9.30079H3.46379L3.46379 2.1364H3.46544C3.46544 1.59369 3.90622 1.15215 4.44804 1.15215C4.99074 1.15215 5.43228 1.59369 5.43228 2.1364L5.43228 9.30079H6.34786L6.34786 2.15125C6.34786 1.6074 6.78644 1.15925 7.32554 1.15224C7.32989 1.15217 7.33423 1.15215 7.33861 1.15215C7.59755 1.15215 7.84103 1.25195 8.02545 1.43401C8.21303 1.61919 8.31635 1.8663 8.31635 2.12985C8.31635 3.86849 8.31635 6.24965 8.76936 8.15705C9.0219 9.22034 9.38279 10.0195 9.87267 10.6004C10.0136 10.7675 10.1647 10.9148 10.3252 11.0427H8.95726V11.9583H12.1618V11.6617V10.7461V8.7538H11.2462V8.75378Z" fill="#7071EE" fill-opacity="0.5"/>
</svg>
