<svg width="13" height="12" viewBox="0 0 13 12" fill="none" xmlns="http://www.w3.org/2000/svg">
<path d="M12.0121 0.900945L11.3419 0.277093C11.3366 0.28277 10.8012 0.85047 9.89443 1.40826C9.07532 1.91216 7.74132 2.51704 6.18289 2.51704C4.6034 2.51704 3.28409 1.90719 2.45534 1.40583C1.53127 0.846807 0.978953 0.277894 0.973482 0.272217L0.3125 0.905867C0.33752 0.932008 0.936741 1.55288 1.95544 2.17353C2.59411 2.56264 3.25781 2.86503 3.92983 3.07602C2.43872 3.87508 1.4221 5.44871 1.4221 7.2555C1.4221 9.8683 3.54775 11.994 6.16057 11.994C8.77339 11.994 10.899 9.8683 10.899 7.2555C10.899 5.45706 9.89189 3.88948 8.41203 3.08698C9.09171 2.87524 9.76052 2.56859 10.4009 2.1717C11.4043 1.54979 11.9878 0.927132 12.0121 0.900945ZM9.98339 7.2555C9.98339 9.36341 8.26848 11.0783 6.16057 11.0783C4.05266 11.0783 2.33775 9.36341 2.33775 7.2555C2.33775 5.15714 4.08805 3.43268 6.18291 3.43268C8.28887 3.43268 9.98339 5.16657 9.98339 7.2555Z" fill="#37C5BB" fill-opacity="0.5"/>
</svg>
