<svg width="13" height="12" viewBox="0 0 13 12" fill="none" xmlns="http://www.w3.org/2000/svg">
<path d="M10.5652 10.1479C10.4026 9.94556 10.2543 9.70142 10.1208 9.4171C10.3639 9.14379 10.5893 8.85686 10.7953 8.55713C11.6676 7.28843 12.1479 5.85741 12.1479 4.52773C12.1479 4.01728 11.9478 3.53864 11.5845 3.18002C11.2213 2.82143 10.7399 2.62713 10.2292 2.63425C9.85829 2.63906 9.51223 2.75126 9.21987 2.94018C9.21751 2.60934 9.21746 2.29624 9.21746 2.00938C9.21746 1.49894 9.01739 1.02029 8.65409 0.661677C8.29083 0.303088 7.81014 0.109702 7.2988 0.115883C6.73234 0.123232 6.22393 0.382965 5.87866 0.78661C5.53012 0.376578 5.01137 0.115723 4.43261 0.115723C3.91401 0.115723 3.44349 0.325112 3.10049 0.663623C2.82311 0.329141 2.40461 0.115723 1.93715 0.115723C1.10397 0.115723 0.426147 0.793547 0.426147 1.62673V2.54249H1.34191V1.62673C1.34191 1.29852 1.60895 1.03148 1.93715 1.03148C2.26536 1.03148 2.5324 1.29852 2.5324 1.62673L2.5324 9.18177H3.44816L3.44816 2.01593H3.44981C3.44981 1.47311 3.89068 1.03148 4.43261 1.03148C4.97453 1.03148 5.4154 1.47311 5.4154 2.01614L5.4187 9.18033L6.33446 9.17989L6.33116 2.03076H6.33281C6.33281 1.4868 6.77149 1.03856 7.31066 1.03155C7.57482 1.02778 7.82317 1.12821 8.01074 1.31338C8.19836 1.49862 8.3017 1.74578 8.3017 2.00938V4.53428C8.34989 5.74954 8.49788 7.05926 8.75388 8.18105C8.83928 8.55527 8.93701 8.898 9.04777 9.2113C8.3422 9.90568 7.45909 10.5246 6.38796 10.9915L6.75393 11.831C7.76049 11.3922 8.66716 10.8074 9.44141 10.1036C9.56664 10.3315 9.70309 10.5371 9.85147 10.7217C10.4468 11.4621 11.2194 11.8375 12.1479 11.8375V10.9217C11.5016 10.9217 10.9839 10.6686 10.5652 10.1479ZM10.2411 3.54992C10.5053 3.54543 10.7536 3.64658 10.9412 3.83175C11.1288 4.01696 11.2321 4.26413 11.2321 4.52773C11.2321 5.70006 10.7577 7.12913 9.7574 8.41491C9.7182 8.2747 9.68127 8.12882 9.6467 7.97729C9.40648 6.9246 9.30073 5.6907 9.25416 4.5228C9.26872 3.99954 9.71459 3.55674 10.2411 3.54992Z" fill="#37C5BB" fill-opacity="0.5"/>
</svg>
